<?xml version="1.0" encoding="utf-8"?>
<!-- Generator: Adobe Illustrator 19.0.0, SVG Export Plug-In . SVG Version: 6.00 Build 0)  -->
<svg version="1.1" id="Layer_1" xmlns="http://www.w3.org/2000/svg" xmlns:xlink="http://www.w3.org/1999/xlink" x="0px" y="0px"
	 viewBox="0 0 150 60" style="enable-background:new 0 0 150 60;" xml:space="preserve">
<style type="text/css">
	.st0{fill:#421B4B;}
	.st1{fill:#E50051;}
</style>
<g id="XMLID_3_">
	<g id="XMLID_15_">
		<path id="XMLID_50_" class="st0" d="M32.1,17l2,2L46.3,6.9h4.5v4.5L26.1,36l19,19h8.5v-8.5l-17-17l17-17V4.1h-8.5L32.1,17z
			 M50.8,47.7v4.5h-4.5L30.1,36l4.5-4.5L50.8,47.7z"/>
		<path id="XMLID_47_" class="st0" d="M9.9,52.2H5.5v-4.5L30.1,23l-19-19H2.6v8.5l17,17l-17,17V55h8.5l12.6-12.6l-2-2L9.9,52.2z
			 M5.5,11.4V6.9h4.5L26.1,23l-4.5,4.5L5.5,11.4z"/>
		<rect id="XMLID_46_" x="65.7" y="4.5" class="st0" width="2.3" height="8.1"/>
		<polygon id="XMLID_45_" class="st0" points="72,7.5 75,12.6 77.2,12.6 77.2,4.5 75.2,4.5 75.2,9 72.6,4.5 70,4.5 70,12.6 72,12.6 
					"/>
		<polygon id="XMLID_44_" class="st0" points="80.6,12.6 82.9,12.6 82.9,6.2 85,6.2 85,4.5 78.5,4.5 78.5,6.2 80.6,6.2 		"/>
		<polygon id="XMLID_43_" class="st0" points="92.1,10.8 88.7,10.8 88.7,9.3 91.3,9.3 91.3,7.6 88.7,7.6 88.7,6.2 91.9,6.2 
			91.9,4.5 86.3,4.5 86.3,12.6 92.1,12.6 		"/>
		<path id="XMLID_40_" class="st0" d="M100,7.1L100,7.1c0-1.8-1.2-2.6-3.3-2.6h-3.2v8.1h2.3V9.7h0.5l1.6,2.9h2.4l-1.9-3.4
			C99.4,8.9,100,8.2,100,7.1z M97.8,7.2c0,0.7-0.4,1-1.2,1h-0.7V6.2h0.8C97.4,6.2,97.8,6.5,97.8,7.2L97.8,7.2z"/>
		<path id="XMLID_37_" class="st0" d="M103.7,4.5l-2.6,8.1h2.2l0.4-1.5h2.7l0.4,1.5h2.5l-2.6-8.1H103.7z M104.1,9.4l0.9-3.1l0.9,3.1
			H104.1z"/>
		<path id="XMLID_36_" class="st0" d="M113.8,10.8c-1.1,0-1.7-0.8-1.7-2.3V8.5c0-1.5,0.7-2.3,1.7-2.3c0.8,0,1.3,0.5,1.4,1.3h2.4
			c-0.2-2.1-1.7-3.1-3.8-3.1c-2.4,0-4.1,1.6-4.1,4.1v0.1c0,2.5,1.4,4.1,4.2,4.1c2.1,0,3.6-1.1,3.8-3.2h-2.3
			C115.2,10.4,114.7,10.8,113.8,10.8z"/>
		<polygon id="XMLID_35_" class="st0" points="118.3,6.2 120.4,6.2 120.4,12.6 122.7,12.6 122.7,6.2 124.8,6.2 124.8,4.5 118.3,4.5 
					"/>
		<rect id="XMLID_34_" x="126.2" y="4.5" class="st0" width="2.3" height="8.1"/>
		<path id="XMLID_31_" class="st0" d="M134.3,4.3c-2.4,0-4.3,1.7-4.3,4.1v0.1c0,2.4,1.6,4.1,4.2,4.1c2.6,0,4.3-1.7,4.3-4.2V8.4
			C138.6,5.9,136.7,4.3,134.3,4.3z M136.1,8.5c0,1.5-0.7,2.3-1.9,2.3c-1.1,0-1.9-0.9-1.9-2.3V8.5c0-1.5,0.7-2.3,1.9-2.3
			C135.4,6.2,136.1,7,136.1,8.5L136.1,8.5z"/>
		<polygon id="XMLID_30_" class="st0" points="145.2,4.5 145.2,9 142.6,4.5 140,4.5 140,12.6 142,12.6 142,7.5 145,12.6 147.2,12.6 
			147.2,4.5 		"/>
		<path id="XMLID_27_" class="st0" d="M67.7,18.6l-2.6,8.1h2.2l0.4-1.5h2.7l0.4,1.5h2.5l-2.6-8.1H67.7z M68.1,23.6l0.9-3.1l0.9,3.1
			H68.1z"/>
		<polygon id="XMLID_26_" class="st0" points="82.1,18.6 81,23.7 79.9,18.6 77.8,18.6 76.7,23.7 75.7,18.6 73.3,18.6 75.2,26.7 
			77.5,26.7 78.7,21.6 80,26.7 82.4,26.7 84.3,18.6 		"/>
		<path id="XMLID_23_" class="st0" d="M86.7,18.6l-2.6,8.1h2.2l0.4-1.5h2.7l0.4,1.5h2.5l-2.6-8.1H86.7z M87.2,23.6l0.9-3.1l0.9,3.1
			H87.2z"/>
		<path id="XMLID_20_" class="st0" d="M100,21.2L100,21.2c0-1.8-1.2-2.6-3.3-2.6h-3.2v8.1h2.3v-2.9h0.5l1.6,2.9h2.4l-1.9-3.4
			C99.4,23,100,22.4,100,21.2z M97.7,21.3c0,0.7-0.4,1-1.2,1h-0.7v-1.9h0.8C97.3,20.4,97.7,20.6,97.7,21.3L97.7,21.3z"/>
		<path id="XMLID_17_" class="st0" d="M104.6,18.6h-2.9v8.1h2.9c2.9,0,4.4-1.5,4.4-4.1v-0.1C109,20,107.5,18.6,104.6,18.6z
			 M106.6,22.7c0,1.5-0.6,2.2-2,2.2H104v-4.5h0.5C105.9,20.4,106.6,21.1,106.6,22.7L106.6,22.7z"/>
		<path id="XMLID_16_" class="st0" d="M113.4,21.6c-1-0.1-1.3-0.3-1.3-0.8c0-0.4,0.3-0.7,0.9-0.7c0.6,0,1,0.3,1,0.9h2.2
			c-0.1-1.7-1.2-2.5-3.2-2.5c-1.9,0-3.1,1.1-3.1,2.5c0,1.6,0.8,2.3,3.1,2.6c1,0.1,1.3,0.3,1.3,0.8c0,0.5-0.4,0.8-1,0.8
			c-1,0-1.2-0.5-1.3-1.1h-2.2c0.1,1.8,1.2,2.7,3.5,2.7c2.1,0,3.3-1.2,3.3-2.7C116.5,22.4,115.5,21.9,113.4,21.6z"/>
	</g>
	<path id="XMLID_13_" class="st1" d="M65,40.5l2.8-3c0.8-0.9,1.3-1.6,1.3-2.2c0-0.5-0.3-0.9-0.9-0.9s-0.9,0.4-1,1.3h-2.1
		c0.1-2,1.3-3.1,3.3-3.1c2,0,3,1.1,3,2.6c0,1.1-0.6,1.9-1.5,2.8l-1.1,1.1h2.7v1.7H65V40.5z"/>
	<path id="XMLID_10_" class="st1" d="M72.5,37v-0.3c0-2.6,1.6-4,3.7-4c2.1,0,3.7,1.3,3.7,4v0.3c0,2.6-1.5,4.1-3.8,4.1
		C74,41,72.5,39.5,72.5,37z M77.7,37v-0.3c0-1.5-0.4-2.2-1.4-2.2c-1,0-1.4,0.7-1.4,2.2V37c0,1.5,0.4,2.2,1.4,2.2
		C77.3,39.2,77.7,38.5,77.7,37z"/>
	<path id="XMLID_8_" class="st1" d="M82.6,35.1l-1.5,1v-1.9l1.9-1.3h2v8.1h-2.3V35.1z"/>
	<path id="XMLID_4_" class="st1" d="M86.4,38.6c0-0.9,0.5-1.6,1.5-2c-0.7-0.3-1.1-0.9-1.1-1.7c0-1.5,1.4-2.3,3.1-2.3
		c1.7,0,3.1,0.8,3.1,2.3c0,0.8-0.5,1.4-1.1,1.7c1,0.3,1.5,1,1.5,1.9c0,1.6-1.3,2.5-3.4,2.5C87.7,41,86.4,40.2,86.4,38.6z M90.9,38.3
		c0-0.6-0.4-1-1.1-1c-0.6,0-1.1,0.4-1.1,1c0,0.6,0.5,1,1.1,1C90.4,39.4,90.9,39,90.9,38.3z M90.8,35.1c0-0.5-0.4-0.9-1-0.9
		c-0.5,0-1,0.3-1,0.9c0,0.6,0.4,0.9,1,0.9C90.4,36,90.8,35.7,90.8,35.1z"/>
</g>
</svg>
