<svg id="Calque_1" data-name="Calque 1" xmlns="http://www.w3.org/2000/svg" viewBox="0 0 126 52"><defs><style>.cls-1{fill:#e50051;}.cls-2{fill:#421b4b;}</style></defs><title>logo_student_design_challenge</title><g id="sdc"><path class="cls-1" d="M32.49,26.65l14-14a5.5,5.5,0,0,0-7.78-7.78L20.81,22.76a5.5,5.5,0,0,0,0,7.78L38.66,48.39a5.5,5.5,0,0,0,7.78-7.78Z"/><path class="cls-2" d="M11.4,3.61A5.48,5.48,0,0,0,7.19,2V2H2V7.19H2a5.49,5.49,0,0,0,1.6,4.21l14,14-14,14A5.49,5.49,0,0,0,2,43.51H2V48.7H7.19v0a5.48,5.48,0,0,0,4.21-1.6L29.24,29.24a5.5,5.5,0,0,0,0-7.78Z"/><path class="cls-2" d="M61.06,9.69c-.88,0-1.12-.44-1.17-1h-2c.06,1.61,1.12,2.48,3.2,2.48,1.91,0,3-1.11,3-2.47,0-1.61-1-2.1-2.84-2.31-.92-.12-1.15-.31-1.15-.73s.29-.63.86-.63a.84.84,0,0,1,1,.8h2c-.13-1.57-1.14-2.32-2.93-2.32S58,4.53,58,5.87c0,1.49.71,2.12,2.8,2.37.89.13,1.17.26,1.17.72S61.68,9.69,61.06,9.69Z"/><polygon class="cls-2" points="66.53 11.08 68.67 11.08 68.67 5.3 70.59 5.3 70.59 3.66 64.61 3.66 64.61 5.3 66.53 5.3 66.53 11.08"/><path class="cls-2" d="M75,11.2c2,0,3.31-1,3.31-3.17V3.66H76.19V7.94c0,1.11-.28,1.59-1.16,1.59S73.86,9,73.86,8V3.66H71.73V8.07C71.73,10.14,72.93,11.2,75,11.2Z"/><path class="cls-2" d="M86.65,7.36V7.28c0-2.31-1.34-3.62-4-3.62H80v7.42h2.69C85.28,11.08,86.65,9.68,86.65,7.36Zm-2.22,0c0,1.38-.56,2-1.83,2h-.49V5.3h.47c1.29,0,1.85.6,1.85,2Z"/><polygon class="cls-2" points="93.24 9.44 90.06 9.44 90.06 8.09 92.46 8.09 92.46 6.57 90.06 6.57 90.06 5.3 93.07 5.3 93.07 3.66 87.94 3.66 87.94 11.08 93.24 11.08 93.24 9.44"/><polygon class="cls-2" points="99.33 7.84 96.95 3.66 94.56 3.66 94.56 11.08 96.42 11.08 96.42 6.42 99.13 11.08 101.19 11.08 101.19 3.66 99.33 3.66 99.33 7.84"/><polygon class="cls-2" points="104.3 11.08 106.44 11.08 106.44 5.3 108.36 5.3 108.36 3.66 102.38 3.66 102.38 5.3 104.3 5.3 104.3 11.08"/><path class="cls-2" d="M61,16.63h-2.7v7.42H61c2.62,0,4-1.4,4-3.72v-.08C65,17.95,63.68,16.63,61,16.63Zm1.75,3.74c0,1.38-.56,2-1.83,2h-.49V18.27H61c1.29,0,1.85.6,1.85,2Z"/><polygon class="cls-2" points="71.61 22.41 68.43 22.41 68.43 21.06 70.83 21.06 70.83 19.55 68.43 19.55 68.43 18.27 71.44 18.27 71.44 16.63 66.32 16.63 66.32 24.05 71.61 24.05 71.61 22.41"/><path class="cls-2" d="M78.69,21.71c0-1.61-1-2.1-2.84-2.31-.92-.12-1.15-.31-1.15-.73S75,18,75.55,18a.84.84,0,0,1,1,.8h2c-.13-1.57-1.14-2.32-2.93-2.32s-2.88,1-2.88,2.32c0,1.49.71,2.12,2.8,2.37.89.13,1.17.26,1.17.72s-.34.74-1,.74c-.88,0-1.12-.44-1.17-1h-2c.06,1.61,1.12,2.48,3.2,2.48C77.61,24.18,78.69,23.07,78.69,21.71Z"/><rect class="cls-2" x="79.99" y="16.63" width="2.15" height="7.42"/><path class="cls-2" d="M83.47,20.3v.08a3.56,3.56,0,0,0,3.89,3.79c2.4,0,3.63-1.42,3.63-3.31V20H87.51v1.48H88.9c0,.59-.44,1.12-1.47,1.12-1.29,0-1.73-.93-1.73-2.14v-.08c0-1.34.63-2.15,1.68-2.15a1.18,1.18,0,0,1,1.34,1.06h2.11c-.15-1.93-1.7-2.73-3.46-2.73A3.69,3.69,0,0,0,83.47,20.3Z"/><polygon class="cls-2" points="98.93 24.05 98.93 16.63 97.07 16.63 97.07 20.81 94.69 16.63 92.29 16.63 92.29 24.05 94.16 24.05 94.16 19.39 96.87 24.05 98.93 24.05"/><path class="cls-2" d="M61.79,35.45c-1,0-1.59-.76-1.59-2.1v-.08c0-1.35.6-2.1,1.56-2.1A1.16,1.16,0,0,1,63,32.34H65.2c-.18-2-1.52-2.86-3.45-2.86A3.63,3.63,0,0,0,58,33.28v.08c0,2.27,1.28,3.79,3.87,3.79,1.92,0,3.31-1,3.46-2.92H63.17A1.28,1.28,0,0,1,61.79,35.45Z"/><polygon class="cls-2" points="71.06 32.44 68.62 32.44 68.62 29.6 66.48 29.6 66.48 37.02 68.62 37.02 68.62 34.1 71.06 34.1 71.06 37.02 73.19 37.02 73.19 29.6 71.06 29.6 71.06 32.44"/><path class="cls-2" d="M76.67,29.6,74.3,37h2l.39-1.38h2.46L79.53,37h2.25L79.42,29.6Zm.41,4.58.82-2.85.81,2.85Z"/><polygon class="cls-2" points="85.03 29.6 82.89 29.6 82.89 37.02 87.83 37.02 87.83 35.37 85.03 35.37 85.03 29.6"/><polygon class="cls-2" points="91.25 29.6 89.12 29.6 89.12 37.02 94.06 37.02 94.06 35.37 91.25 35.37 91.25 29.6"/><polygon class="cls-2" points="97.46 34.03 99.86 34.03 99.86 32.52 97.46 32.52 97.46 31.24 100.47 31.24 100.47 29.6 95.34 29.6 95.34 37.02 100.64 37.02 100.64 35.38 97.46 35.38 97.46 34.03"/><polygon class="cls-2" points="106.73 33.79 104.35 29.6 101.95 29.6 101.95 37.02 103.82 37.02 103.82 32.36 106.53 37.02 108.59 37.02 108.59 29.6 106.73 29.6 106.73 33.79"/><path class="cls-2" d="M113.92,34.41h1.39c0,.59-.44,1.12-1.47,1.12-1.29,0-1.73-.93-1.73-2.14v-.08c0-1.34.63-2.15,1.68-2.15a1.18,1.18,0,0,1,1.34,1.06h2.11c-.15-1.93-1.7-2.73-3.46-2.73a3.69,3.69,0,0,0-3.89,3.79v.08a3.56,3.56,0,0,0,3.89,3.79c2.4,0,3.63-1.42,3.63-3.31v-.91h-3.49Z"/><polygon class="cls-2" points="120.82 35.38 120.82 34.03 123.22 34.03 123.22 32.52 120.82 32.52 120.82 31.24 123.83 31.24 123.83 29.6 118.7 29.6 118.7 37.02 124 37.02 124 35.38 120.82 35.38"/></g></svg>