<?xml version="1.0" encoding="utf-8"?>
<!-- Generator: Adobe Illustrator 21.1.0, SVG Export Plug-In . SVG Version: 6.00 Build 0)  -->
<svg version="1.1" id="Calque_1" xmlns="http://www.w3.org/2000/svg" xmlns:xlink="http://www.w3.org/1999/xlink" x="0px" y="0px"
	 viewBox="0 0 255 170" style="enable-background:new 0 0 255 170;" xml:space="preserve">
<style type="text/css">
	.st0{fill:none;}
	.st1{fill:#421B4B;}
</style>
<title>partner-Villefontaine</title>
<rect class="st0" width="255" height="170"/>
<g>
	<g>
		<polygon class="st1" points="76.9,45 52.8,74.1 28.9,45 28.9,46.4 28.9,93.4 35.6,93.4 35.6,63.2 52.9,84.2 70.2,63.2 70.2,93.4 
			76.9,93.4 76.9,46.4 		"/>
		<path class="st1" d="M103.2,58.7L112,79H94.5L103.2,58.7z M103.4,45L81.3,93.4h7.3l4-9.5h21.2l4,9.5h7.5L103.4,45z"/>
		<polygon class="st1" points="177.7,45 153.6,74.1 129.7,45 129.7,46.4 129.7,93.4 136.4,93.4 136.4,63.2 153.6,84.2 171,63.2 
			171,93.4 177.7,93.4 177.7,46.4 		"/>
		<path class="st1" d="M204,58.7l8.8,20.2h-17.5L204,58.7z M204.2,45l-22.1,48.4h7.3l4-9.5h21.2l4,9.5h7.5L204.2,45z"/>
	</g>
	<g>
		<path class="st1" d="M73.6,107.7c-0.4-0.6-0.9-1-1.6-1.3c-0.7-0.3-1.4-0.4-2.1-0.4c-0.4,0-0.9,0-1.3,0.2c-0.4,0.1-0.8,0.3-1.1,0.5
			c-0.3,0.2-0.6,0.5-0.8,0.9c-0.2,0.4-0.3,0.8-0.3,1.3c0,0.7,0.3,1.3,0.8,1.7c0.5,0.4,1.1,0.7,1.9,1c0.7,0.3,1.6,0.6,2.4,0.8
			c0.9,0.3,1.7,0.6,2.4,1.1c0.7,0.5,1.4,1.1,1.9,1.8c0.5,0.8,0.8,1.8,0.8,3c0,1.1-0.2,2.1-0.6,3c-0.4,0.9-1,1.6-1.7,2.1
			c-0.7,0.6-1.5,1-2.5,1.3c-0.9,0.3-1.9,0.4-3,0.4c-1.3,0-2.6-0.2-3.8-0.7c-1.2-0.4-2.3-1.2-3.2-2.2l2.9-2.8
			c0.5,0.7,1.1,1.3,1.8,1.6c0.8,0.4,1.6,0.6,2.4,0.6c0.4,0,0.9-0.1,1.3-0.2c0.4-0.1,0.8-0.3,1.2-0.5c0.4-0.2,0.7-0.5,0.9-0.9
			c0.2-0.4,0.3-0.8,0.3-1.3c0-0.8-0.3-1.4-0.8-1.8c-0.5-0.4-1.1-0.8-1.9-1.1c-0.7-0.3-1.6-0.6-2.4-0.8c-0.9-0.3-1.7-0.6-2.4-1.1
			c-0.7-0.5-1.4-1.1-1.9-1.8c-0.5-0.8-0.8-1.8-0.8-3c0-1.1,0.2-2.1,0.7-2.9c0.5-0.8,1-1.5,1.8-2c0.7-0.5,1.6-0.9,2.5-1.2
			c0.9-0.3,1.9-0.4,2.9-0.4c1.1,0,2.2,0.2,3.3,0.5c1.1,0.3,2,0.9,2.8,1.7L73.6,107.7z"/>
		<path class="st1" d="M81.3,103.1h3.8v8.5h10v-8.5h3.8v21.3h-3.8v-9.4h-10v9.4h-3.8V103.1z"/>
		<path class="st1" d="M104.6,103.1h14.1v3.4h-10.3v5.2h9.8v3.4h-9.8v5.8h10.9v3.4h-14.7V103.1z"/>
		<path class="st1" d="M124.5,103.1h3.8V121h9.5v3.4h-13.3V103.1z"/>
		<path class="st1" d="M143.6,106.6h-6.5v-3.4H154v3.4h-6.5v17.9h-3.8V106.6z"/>
		<path class="st1" d="M157.8,103.1h14.1v3.4h-10.3v5.2h9.8v3.4h-9.8v5.8h10.9v3.4h-14.7V103.1z"/>
		<path class="st1" d="M177.2,103.1h7.4c1,0,2,0.1,3,0.3c1,0.2,1.8,0.5,2.5,1c0.7,0.5,1.3,1.1,1.8,1.9c0.4,0.8,0.7,1.8,0.7,3
			c0,1.5-0.4,2.8-1.3,3.9c-0.9,1-2.1,1.7-3.7,1.9l5.7,9.4h-4.6l-4.9-9H181v9h-3.8V103.1z M184,112.2c0.5,0,1.1,0,1.6-0.1
			c0.5-0.1,1-0.2,1.5-0.4c0.5-0.2,0.8-0.5,1.1-0.9c0.3-0.4,0.4-0.9,0.4-1.6c0-0.6-0.1-1.1-0.4-1.5c-0.3-0.4-0.6-0.7-1-0.9
			c-0.4-0.2-0.9-0.3-1.4-0.4c-0.5-0.1-1-0.1-1.5-0.1H181v5.8H184z"/>
	</g>
</g>
</svg>
