<svg id="Calque_1" data-name="Calque 1" xmlns="http://www.w3.org/2000/svg" viewBox="0 0 255 170">
  <defs>
    <style>
      .cls-1 {
        fill: none;
      }

      .cls-2 {
        fill: #421b4b;
      }
    </style>
  </defs>
  <title>partner-Harvest</title>
  <rect class="cls-1" width="255" height="170"/>
  <g>
    <path class="cls-2" d="M73.86,69.24l-7.76,31.52h5.82l1.7-6.67h8.24l1.45,6.67H89L81.5,69.24Zm.85,19.52L77.62,76h.12l2.91,12.73Z"/>
    <polygon class="cls-2" points="152.89 87.18 160.77 87.18 160.77 81.85 152.89 81.85 152.89 74.58 163.32 74.58 163.32 69.24 146.96 69.24 146.96 100.76 163.68 100.76 163.68 95.43 152.89 95.43 152.89 87.18"/>
    <polygon class="cls-2" points="54.47 81.85 45.98 81.85 45.98 69.24 40.05 69.24 40.05 100.76 45.98 100.76 45.98 87.18 54.47 87.18 54.47 100.76 60.41 100.76 60.41 69.24 54.47 69.24 54.47 81.85"/>
    <polygon class="cls-2" points="195.2 74.58 202.11 74.58 202.11 100.76 208.05 100.76 208.05 74.58 214.96 74.58 214.96 69.24 195.2 69.24 195.2 74.58"/>
    <polygon class="cls-2" points="130.11 91.79 129.99 91.79 124.53 69.24 118.59 69.24 126.59 100.76 133.38 100.76 141.38 69.24 135.56 69.24 130.11 91.79"/>
    <path class="cls-2" d="M113.62,78.7c0-5.94-3.39-9.45-10.55-9.45H94.47v31.52h5.94V87.91h2.91l5.21,12.85h6.3L108.89,86.7C112.29,85.49,113.62,82.58,113.62,78.7Zm-10.18,4.24h-3V74.21h3c2.67,0,4.24,1.33,4.24,4.36S106.11,82.94,103.44,82.94Z"/>
    <path class="cls-2" d="M176.17,77.24a3.09,3.09,0,0,1,3.27-3.39c2.06,0,3.39,1.33,4.36,4.24l5.33-1.58c-1-4.36-4.24-7.52-9.58-7.52-6.18,0-9.33,3.39-9.33,8.73,0,8.73,13.33,8.73,13.33,14.67a3.47,3.47,0,0,1-3.64,3.76c-1.7,0-3.88-1.33-4.61-5.09l-5.94,1.21c1.58,6.06,5.33,8.73,10.18,8.73,6.3,0,9.94-3.64,9.94-9C189.5,82.34,176.17,82,176.17,77.24Z"/>
  </g>
</svg>
