<svg id="Calque_1" data-name="Calque 1" xmlns="http://www.w3.org/2000/svg" xmlns:xlink="http://www.w3.org/1999/xlink" viewBox="0 0 271 40"><defs><style>.cls-1{fill:url(#Dégradé_sans_nom_30);}.cls-2{fill:url(#Dégradé_sans_nom_30-2);}.cls-3{fill:url(#Dégradé_sans_nom_30-3);}.cls-4{fill:url(#Dégradé_sans_nom_30-4);}.cls-5{fill:url(#Dégradé_sans_nom_30-7);}.cls-6{fill:url(#Dégradé_sans_nom_30-11);}.cls-7{fill:#e50051;}.cls-8{fill:#421b4b;}</style><linearGradient id="Dégradé_sans_nom_30" x1="3.33" y1="25.65" x2="268.77" y2="25.65" gradientUnits="userSpaceOnUse"><stop offset="0" stop-color="#421b4b"/><stop offset="1" stop-color="#e50051"/></linearGradient><linearGradient id="Dégradé_sans_nom_30-2" x1="3.33" y1="25.42" x2="268.77" y2="25.42" xlink:href="#Dégradé_sans_nom_30"/><linearGradient id="Dégradé_sans_nom_30-3" x1="3.33" y1="22.58" x2="268.77" y2="22.58" xlink:href="#Dégradé_sans_nom_30"/><linearGradient id="Dégradé_sans_nom_30-4" x1="3.33" y1="25.65" x2="268.77" y2="25.65" xlink:href="#Dégradé_sans_nom_30"/><linearGradient id="Dégradé_sans_nom_30-7" x1="3.33" y1="19.98" x2="268.77" y2="19.98" xlink:href="#Dégradé_sans_nom_30"/><linearGradient id="Dégradé_sans_nom_30-11" x1="3.33" y1="5.6" x2="268.77" y2="5.6" xlink:href="#Dégradé_sans_nom_30"/></defs><title>logo_interaction18</title><g id="interaction-gradient"><rect class="cls-1" x="2.76" y="13.83" width="5.39" height="23.65"/><path class="cls-2" d="M25,13.35a8.88,8.88,0,0,0-6.62,2.84V13.83H13V37.48h5.39V20.69A5.71,5.71,0,0,1,23,18c2.74,0,4.73,1.42,4.73,5.11V37.48h5.39V21.54C33.11,15.86,29.7,13.35,25,13.35Z"/><path class="cls-3" d="M48.76,32.65c-2.13,0-3.36-.95-3.36-4.26V18.65h7V13.83h-7V7.2H40.06v6.62H36v4.83h4.07V29.39c0,6.15,2.79,8.56,7.66,8.56a12.32,12.32,0,0,0,5.72-1.37L52,31.76A6.08,6.08,0,0,1,48.76,32.65Z"/><path class="cls-4" d="M66.09,13.35c-6.39,0-10.6,4.54-10.6,11.64v1.28C55.49,33.55,60,38,66.56,38c4.45,0,7.81-2,9.6-5.35L72,30.15a5.75,5.75,0,0,1-5.3,3.17c-3.31,0-5.35-2-5.72-5.91H76.3c.09-1,.09-2.08.09-2.93C76.4,17.52,72.42,13.35,66.09,13.35ZM60.93,23.67c.33-3.64,2-5.72,5.11-5.72s4.92,1.89,5,5.72Z"/><path class="cls-2" d="M86,16.48V13.83H80.62V37.48H86V21.16a6,6,0,0,1,4.59-2.22,6.17,6.17,0,0,1,3,.8L95,14.11a7,7,0,0,0-9,2.37Z"/><path class="cls-4" d="M105.58,13.35c-4.59,0-7.76,2.13-9.27,5.2l3.83,2.74c1.13-2,2.65-3.26,5-3.26,3.26,0,4.59,1.8,4.59,5.68V24c-8-.24-13.72,1.56-13.72,7.52,0,4.26,3,6.48,7.1,6.48a9.59,9.59,0,0,0,6.62-2.51v2h5.39V24C115.14,16.52,111.83,13.35,105.58,13.35Zm4.16,18.07a6.56,6.56,0,0,1-5,2.37c-1.84,0-3.26-.85-3.26-2.55,0-3.12,4.16-3.74,8.28-3.6Z"/><path class="cls-5" d="M153.79,32.65c-2.08,0-3.36-.95-3.36-4.26V18.65h7V13.83h-7V12.08c0-6.62-3.5-10.08-9.7-10.08-5.87,0-9.23,3.64-9.23,7.66a8.25,8.25,0,0,0,1,4,12.77,12.77,0,0,0-3.07-.33c-6.53,0-10.74,4.54-10.74,11.64v1.32c0,7.24,4.45,11.64,10.93,11.64,4.4,0,7.71-2,9.51-5.35l-4.26-2.51a5.46,5.46,0,0,1-5,3.22c-3.69,0-5.82-2.65-5.82-7.29v-.8c0-4.4,1.94-7.29,5.44-7.29a5.37,5.37,0,0,1,5.11,3.41L139,18.94a14,14,0,0,0-1.23-2.08,9.33,9.33,0,0,1-1.89-5.39,4.33,4.33,0,0,1,4.49-4.64c2.65,0,4.64,1.42,4.68,5.72v1.28h-3.88v4.83h3.88V29.39c0,6.15,2.79,8.56,7.66,8.56a12.32,12.32,0,0,0,5.72-1.37L157,31.76A6.08,6.08,0,0,1,153.79,32.65Z"/><rect class="cls-1" x="162.23" y="13.83" width="5.39" height="23.65"/><path class="cls-4" d="M183,13.35c-6.62,0-11.26,4.45-11.26,11.64v1.32C171.71,33.51,176.35,38,183,38s11.31-4.45,11.31-11.64V25C194.28,17.8,189.64,13.35,183,13.35Zm5.87,12.73c0,4.54-2.22,7.29-5.87,7.29s-5.87-2.74-5.87-7.29v-.85c0-4.59,2.22-7.29,5.87-7.29s5.87,2.7,5.87,7.29Z"/><path class="cls-2" d="M210.85,13.35a8.88,8.88,0,0,0-6.62,2.84V13.83h-5.39V37.48h5.39V20.69A5.71,5.71,0,0,1,208.86,18c2.74,0,4.73,1.42,4.73,5.11V37.48H219V21.54C219,15.86,215.58,13.35,210.85,13.35Z"/><path class="cls-6" d="M5.36,2A3.24,3.24,0,0,0,2,5.41v.33A3.23,3.23,0,0,0,5.36,9.19,3.28,3.28,0,0,0,8.91,5.74V5.41A3.29,3.29,0,0,0,5.36,2Z"/><path class="cls-6" d="M164.84,2a3.24,3.24,0,0,0-3.36,3.41v.33a3.23,3.23,0,0,0,3.36,3.45,3.28,3.28,0,0,0,3.55-3.45V5.41A3.29,3.29,0,0,0,164.84,2Z"/></g><g id="_18" data-name="18"><polygon class="cls-7" points="230.84 18.51 230.84 24.33 236.89 20.92 236.89 37.48 242.57 37.48 242.57 13.83 239.12 13.83 230.84 18.51"/><path class="cls-7" d="M263.39,21.63c3-2,4.3-4.45,4.3-6.91,0-4.68-3.6-8-10.17-8-6.15,0-10.31,3.41-10.31,8.8a7.52,7.52,0,0,0,3.88,6.86c-3,1.89-4.73,4.3-4.73,7.66,0,5.06,4,7.95,11.07,7.95,7.38,0,11.31-3.45,11.31-8.7C268.74,25.13,266.28,23,263.39,21.63Zm-5.68-10.12c3,0,4.64,1.89,4.64,4,0,1.51-.61,3.12-2.7,4.64-3.41-1.18-6.53-2.08-6.53-4.92C253.13,13,255,11.51,257.72,11.51Zm-.19,21.71c-3.36,0-5.72-1.75-5.72-4.45,0-1.42.8-3.07,3-4.64,4,1.42,8,2.22,8,5.39C262.82,31.76,260.51,33.22,257.53,33.22Z"/></g><g id="interaction-purple"><rect class="cls-8" x="2.76" y="13.83" width="5.39" height="23.65"/><path class="cls-8" d="M25,13.35a8.88,8.88,0,0,0-6.62,2.84V13.83H13V37.48h5.39V20.69A5.71,5.71,0,0,1,23,18c2.74,0,4.73,1.42,4.73,5.11V37.48h5.39V21.54C33.11,15.86,29.7,13.35,25,13.35Z"/><path class="cls-8" d="M48.76,32.65c-2.13,0-3.36-.95-3.36-4.26V18.65h7V13.83h-7V7.2H40.06v6.62H36v4.83h4.07V29.39c0,6.15,2.79,8.56,7.66,8.56a12.32,12.32,0,0,0,5.72-1.37L52,31.76A6.08,6.08,0,0,1,48.76,32.65Z"/><path class="cls-8" d="M66.09,13.35c-6.39,0-10.6,4.54-10.6,11.64v1.28C55.49,33.55,60,38,66.56,38c4.45,0,7.81-2,9.6-5.35L72,30.15a5.75,5.75,0,0,1-5.3,3.17c-3.31,0-5.35-2-5.72-5.91H76.3c.09-1,.09-2.08.09-2.93C76.4,17.52,72.42,13.35,66.09,13.35ZM60.93,23.67c.33-3.64,2-5.72,5.11-5.72s4.92,1.89,5,5.72Z"/><path class="cls-8" d="M86,16.48V13.83H80.62V37.48H86V21.16a6,6,0,0,1,4.59-2.22,6.17,6.17,0,0,1,3,.8L95,14.11a7,7,0,0,0-9,2.37Z"/><path class="cls-8" d="M105.58,13.35c-4.59,0-7.76,2.13-9.27,5.2l3.83,2.74c1.14-2,2.65-3.26,5-3.26,3.26,0,4.59,1.8,4.59,5.68V24c-8-.24-13.72,1.56-13.72,7.52,0,4.26,3,6.48,7.1,6.48a9.59,9.59,0,0,0,6.62-2.51v2h5.39V24C115.14,16.52,111.83,13.35,105.58,13.35Zm4.16,18.07a6.56,6.56,0,0,1-5,2.37c-1.84,0-3.26-.85-3.26-2.55,0-3.12,4.16-3.74,8.28-3.6Z"/><path class="cls-8" d="M153.79,32.65c-2.08,0-3.36-.95-3.36-4.26V18.65h7V13.83h-7V12.08c0-6.62-3.5-10.08-9.7-10.08-5.87,0-9.22,3.64-9.22,7.66a8.25,8.25,0,0,0,1,4,12.77,12.77,0,0,0-3.07-.33c-6.53,0-10.74,4.54-10.74,11.64v1.32c0,7.24,4.45,11.64,10.93,11.64,4.4,0,7.71-2,9.51-5.35l-4.26-2.51a5.46,5.46,0,0,1-5,3.22c-3.69,0-5.82-2.65-5.82-7.29v-.8c0-4.4,1.94-7.29,5.44-7.29a5.37,5.37,0,0,1,5.11,3.41L139,18.94a14,14,0,0,0-1.23-2.08,9.33,9.33,0,0,1-1.89-5.39,4.33,4.33,0,0,1,4.49-4.64c2.65,0,4.64,1.42,4.68,5.72v1.28H141.2v4.83h3.88V29.39c0,6.15,2.79,8.56,7.66,8.56a12.32,12.32,0,0,0,5.72-1.37L157,31.76A6.08,6.08,0,0,1,153.79,32.65Z"/><rect class="cls-8" x="162.23" y="13.83" width="5.39" height="23.65"/><path class="cls-8" d="M183,13.35c-6.62,0-11.26,4.45-11.26,11.64v1.32C171.71,33.51,176.35,38,183,38s11.31-4.45,11.31-11.64V25C194.28,17.8,189.64,13.35,183,13.35Zm5.87,12.73c0,4.54-2.22,7.29-5.87,7.29s-5.87-2.74-5.87-7.29v-.85c0-4.59,2.22-7.29,5.87-7.29s5.87,2.7,5.87,7.29Z"/><path class="cls-8" d="M210.85,13.35a8.88,8.88,0,0,0-6.62,2.84V13.83h-5.39V37.48h5.39V20.69A5.71,5.71,0,0,1,208.86,18c2.74,0,4.73,1.42,4.73,5.11V37.48H219V21.54C219,15.86,215.58,13.35,210.85,13.35Z"/><path class="cls-8" d="M5.36,2A3.24,3.24,0,0,0,2,5.41v.33A3.23,3.23,0,0,0,5.36,9.19,3.28,3.28,0,0,0,8.91,5.74V5.41A3.29,3.29,0,0,0,5.36,2Z"/><path class="cls-8" d="M164.84,2a3.24,3.24,0,0,0-3.36,3.41v.33a3.23,3.23,0,0,0,3.36,3.45,3.28,3.28,0,0,0,3.55-3.45V5.41A3.29,3.29,0,0,0,164.84,2Z"/></g></svg>