<svg id="Calque_1" data-name="Calque 1" xmlns="http://www.w3.org/2000/svg" viewBox="0 0 140 52"><defs><style>.cls-1{fill:#421b4b;}.cls-2{fill:#e50051;}</style></defs><title>logo_interaction_awards_2018</title><g id="awards"><path class="cls-1" d="M29.77,14.23l1.89,1.89L43.1,4.67h4.23V8.9L24.12,32.12,42,50h8V42L34,26,50,10V2H42ZM47.33,43.1v4.23H43.1L27.89,32.12l4.23-4.23Z"/><path class="cls-1" d="M8.9,47.33H4.67V43.1L27.88,19.88,10,2H2v8L18,26,2,42v8h8L21.85,38.15,20,36.27ZM4.67,8.9V4.67H8.9L24.11,19.88l-4.23,4.23Z"/><rect class="cls-1" x="61.29" y="2.37" width="2.21" height="7.63"/><polygon class="cls-1" points="67.19 5.21 69.98 10 72.09 10 72.09 2.37 70.18 2.37 70.18 6.67 67.74 2.37 65.27 2.37 65.27 10 67.19 10 67.19 5.21"/><polygon class="cls-1" points="75.29 10 77.49 10 77.49 4.05 79.46 4.05 79.46 2.37 73.31 2.37 73.31 4.05 75.29 4.05 75.29 10"/><polygon class="cls-1" points="86.13 8.31 82.86 8.31 82.86 6.92 85.33 6.92 85.33 5.37 82.86 5.37 82.86 4.05 85.96 4.05 85.96 2.37 80.69 2.37 80.69 10 86.13 10 86.13 8.31"/><path class="cls-1" d="M93.57,4.83v0c0-1.61-1.11-2.42-3.11-2.42h-3V10h2.18V7.27h.51L91.72,10H94L92.2,6.84A2,2,0,0,0,93.57,4.83Zm-2.11.09c0,.62-.36.93-1.1.93h-.7V4h.71c.7,0,1.09.25,1.09.86Z"/><path class="cls-1" d="M97,2.37,94.58,10h2L97,8.58h2.53L100,10h2.32L99.86,2.37Zm.43,4.71.84-2.93.83,2.93Z"/><path class="cls-1" d="M106.59,8.38c-1,0-1.63-.78-1.63-2.16V6.14c0-1.39.62-2.16,1.6-2.16a1.19,1.19,0,0,1,1.28,1.21h2.25c-.18-2-1.56-2.93-3.54-2.93a3.73,3.73,0,0,0-3.89,3.9v.09c0,2.34,1.31,3.9,4,3.9,2,0,3.4-1,3.55-3H108A1.31,1.31,0,0,1,106.59,8.38Z"/><polygon class="cls-1" points="110.79 4.05 112.76 4.05 112.76 10 114.96 10 114.96 4.05 116.93 4.05 116.93 2.37 110.79 2.37 110.79 4.05"/><rect class="cls-1" x="118.2" y="2.37" width="2.21" height="7.63"/><path class="cls-1" d="M125.81,2.26a3.82,3.82,0,0,0-4,3.88v.09a3.72,3.72,0,0,0,4,3.9,3.79,3.79,0,0,0,4.08-3.95V6.09A3.74,3.74,0,0,0,125.81,2.26Zm1.76,3.95c0,1.37-.67,2.2-1.75,2.2s-1.76-.8-1.76-2.19V6.14c0-1.39.67-2.17,1.75-2.17s1.76.8,1.76,2.16Z"/><polygon class="cls-1" points="136.09 2.37 136.09 6.67 133.65 2.37 131.18 2.37 131.18 10 133.1 10 133.1 5.21 135.89 10 138 10 138 2.37 136.09 2.37"/><path class="cls-1" d="M63.1,15.7l-2.44,7.63h2l.41-1.42h2.53L66,23.33h2.32L65.92,15.7Zm.43,4.71.84-2.93.83,2.93Z"/><polygon class="cls-1" points="76.72 15.7 75.69 20.5 74.58 15.7 72.63 15.7 71.61 20.46 70.63 15.7 68.42 15.7 70.19 23.33 72.32 23.33 73.51 18.49 74.68 23.33 76.97 23.33 78.75 15.7 76.72 15.7"/><path class="cls-1" d="M81,15.7l-2.44,7.63h2L81,21.91h2.53L84,23.33H86.3L83.88,15.7Zm.43,4.71.84-2.93.83,2.93Z"/><path class="cls-1" d="M93.53,18.17v0c0-1.61-1.11-2.42-3.11-2.42h-3v7.63h2.18V20.6h.51l1.55,2.73H94l-1.82-3.16A2,2,0,0,0,93.53,18.17Zm-2.11.09c0,.62-.36.93-1.1.93h-.7V17.35h.71c.7,0,1.09.25,1.09.86Z"/><path class="cls-1" d="M97.91,15.7H95.14v7.63H97.9c2.69,0,4.1-1.44,4.1-3.82v-.09C102,17.06,100.62,15.7,97.91,15.7Zm1.8,3.84c0,1.42-.58,2.1-1.88,2.1h-.5V17.39h.48c1.32,0,1.9.62,1.9,2.07Z"/><path class="cls-1" d="M106.17,18.55c-.95-.13-1.18-.32-1.18-.75s.3-.65.89-.65a.87.87,0,0,1,1,.82h2c-.14-1.61-1.17-2.38-3-2.38s-3,1-3,2.38c0,1.54.73,2.18,2.88,2.43.92.14,1.21.27,1.21.74s-.35.76-1,.76c-.91,0-1.15-.45-1.21-1h-2.08c.06,1.65,1.15,2.55,3.29,2.55,2,0,3.07-1.14,3.07-2.54C109.09,19.27,108.1,18.76,106.17,18.55Z"/><path class="cls-2" d="M60.6,36.36l2.67-2.83c.76-.81,1.26-1.46,1.26-2.1a.76.76,0,0,0-.81-.85c-.54,0-.89.33-1,1.24h-2a2.76,2.76,0,0,1,3.07-2.88c1.87,0,2.86,1,2.86,2.41A3.7,3.7,0,0,1,65.24,34l-1.07,1h2.56v1.63H60.6Z"/><path class="cls-2" d="M67.67,33V32.7a3.42,3.42,0,0,1,3.52-3.77,3.36,3.36,0,0,1,3.52,3.72V33c0,2.42-1.39,3.84-3.56,3.84S67.67,35.42,67.67,33Zm4.86,0v-.31c0-1.4-.41-2.1-1.33-2.1s-1.33.69-1.33,2.1V33c0,1.42.42,2.09,1.36,2.09S72.53,34.4,72.53,33Z"/><path class="cls-2" d="M77.16,31.19l-1.45.9V30.26L77.45,29h1.89v7.63H77.16Z"/><path class="cls-2" d="M80.75,34.51a1.9,1.9,0,0,1,1.39-1.87,1.65,1.65,0,0,1-1.07-1.58c0-1.37,1.31-2.13,2.88-2.13s2.88.77,2.88,2.12a1.66,1.66,0,0,1-1.08,1.58,1.83,1.83,0,0,1,1.37,1.82c0,1.47-1.26,2.34-3.19,2.34S80.75,36,80.75,34.51ZM85,34.29a.93.93,0,0,0-1-1,1,1,0,1,0,1,1Zm-.12-3.05a.9.9,0,1,0-.9.84A.84.84,0,0,0,84.86,31.23Z"/></g></svg>