<svg id="Calque_1" data-name="Calque 1" xmlns="http://www.w3.org/2000/svg" viewBox="0 0 140 52"><defs><style>.cls-1{fill:#e50051;}.cls-2{fill:#421b4b;}</style></defs><title>logo_interaction_design_education_summit</title><g id="edu-summit"><polygon class="cls-1" points="3.33 48.55 3.33 42.45 5.99 39.79 12.09 45.89 9.43 48.55 3.33 48.55"/><polygon class="cls-1" points="42.45 48.55 39.79 45.89 45.89 39.79 48.55 42.45 48.55 48.55 42.45 48.55"/><path class="cls-1" d="M38.8,7l2.38-2.38a4.31,4.31,0,0,1,6.1,6.1L44.9,13.08Z"/><rect class="cls-1" x="5.67" y="5.67" width="8.62" height="8.62" transform="translate(-4.13 9.98) rotate(-45)"/><rect class="cls-2" x="61.49" y="2.37" width="2.2" height="7.61"/><polygon class="cls-2" points="67.38 5.2 70.15 9.98 72.26 9.98 72.26 2.37 70.36 2.37 70.36 6.66 67.92 2.37 65.46 2.37 65.46 9.98 67.38 9.98 67.38 5.2"/><polygon class="cls-2" points="77.64 9.98 77.64 4.05 79.61 4.05 79.61 2.37 73.48 2.37 73.48 4.05 75.45 4.05 75.45 9.98 77.64 9.98"/><polygon class="cls-2" points="86.26 8.29 83 8.29 83 6.91 85.46 6.91 85.46 5.36 83 5.36 83 4.05 86.09 4.05 86.09 2.37 80.83 2.37 80.83 9.98 86.26 9.98 86.26 8.29"/><path class="cls-2" d="M89.78,7.25h.51L91.84,10h2.3L92.32,6.82a2,2,0,0,0,1.37-2v0c0-1.61-1.11-2.42-3.1-2.42h-3V10h2.17Zm0-3.25h.71c.7,0,1.09.24,1.09.86v0c0,.62-.36.93-1.1.93h-.7Z"/><path class="cls-2" d="M97.13,8.56h2.52l.4,1.42h2.31L100,2.37H97.13L94.7,10h2ZM98.4,4.13l.83,2.93H97.56Z"/><path class="cls-2" d="M106.67,8.36c-1,0-1.63-.78-1.63-2.15V6.12c0-1.38.62-2.15,1.6-2.15a1.19,1.19,0,0,1,1.28,1.2h2.25c-.18-2-1.55-2.93-3.53-2.93a3.72,3.72,0,0,0-3.88,3.89v.09c0,2.33,1.31,3.89,4,3.89,2,0,3.4-1,3.54-3h-2.17A1.31,1.31,0,0,1,106.67,8.36Z"/><polygon class="cls-2" points="112.83 9.98 115.02 9.98 115.02 4.05 116.99 4.05 116.99 2.37 110.86 2.37 110.86 4.05 112.83 4.05 112.83 9.98"/><rect class="cls-2" x="118.25" y="2.37" width="2.2" height="7.61"/><path class="cls-2" d="M125.84,2.26a3.81,3.81,0,0,0-4,3.87v.09a3.71,3.71,0,0,0,4,3.89,3.78,3.78,0,0,0,4.07-3.94V6.08A3.73,3.73,0,0,0,125.84,2.26Zm1.76,3.94c0,1.36-.67,2.19-1.75,2.19s-1.76-.8-1.76-2.18V6.12c0-1.38.67-2.16,1.75-2.16s1.76.8,1.76,2.15Z"/><polygon class="cls-2" points="136.09 2.37 136.09 6.66 133.66 2.37 131.2 2.37 131.2 9.98 133.12 9.98 133.12 5.2 135.89 9.98 138 9.98 138 2.37 136.09 2.37"/><path class="cls-2" d="M68.29,19.46v-.09c0-2.36-1.37-3.71-4.08-3.71H61.45v7.61h2.76C66.89,23.27,68.29,21.84,68.29,19.46Zm-4.65,2.13V17.35h.48c1.32,0,1.89.62,1.89,2.06v.09c0,1.42-.58,2.1-1.87,2.1Z"/><polygon class="cls-2" points="74.88 17.35 74.88 15.66 69.62 15.66 69.62 23.27 75.05 23.27 75.05 21.59 71.79 21.59 71.79 20.21 74.25 20.21 74.25 18.66 71.79 18.66 71.79 17.35 74.88 17.35"/><path class="cls-2" d="M79.24,21.85c-.9,0-1.15-.45-1.2-1H76c.06,1.65,1.15,2.54,3.28,2.54,2,0,3.07-1.14,3.07-2.53,0-1.65-1-2.15-2.92-2.36-.95-.13-1.18-.32-1.18-.74s.3-.65.88-.65a.86.86,0,0,1,1,.82h2c-.14-1.61-1.17-2.37-3-2.37s-2.95,1-2.95,2.37c0,1.53.72,2.17,2.87,2.43.92.14,1.2.27,1.2.73S79.87,21.85,79.24,21.85Z"/><rect class="cls-2" x="83.64" y="15.66" width="2.2" height="7.61"/><path class="cls-2" d="M91.2,23.4c2.46,0,3.72-1.46,3.72-3.4v-.94H91.35v1.52h1.43c0,.61-.45,1.15-1.51,1.15-1.32,0-1.78-1-1.78-2.19v-.09c0-1.37.65-2.2,1.72-2.2a1.21,1.21,0,0,1,1.37,1.09h2.16c-.15-2-1.75-2.8-3.54-2.8a3.78,3.78,0,0,0-4,3.89v.09A3.65,3.65,0,0,0,91.2,23.4Z"/><polygon class="cls-2" points="101.14 19.95 98.71 15.66 96.25 15.66 96.25 23.27 98.17 23.27 98.17 18.5 100.94 23.27 103.05 23.27 103.05 15.66 101.14 15.66 101.14 19.95"/><polygon class="cls-2" points="66.88 34.89 63.62 34.89 63.62 33.51 66.08 33.51 66.08 31.95 63.62 31.95 63.62 30.64 66.71 30.64 66.71 28.96 61.45 28.96 61.45 36.57 66.88 36.57 66.88 34.89"/><path class="cls-2" d="M75.07,32.76v-.09C75.07,30.31,73.7,29,71,29H68.23v7.61H71C73.67,36.57,75.07,35.14,75.07,32.76Zm-4.65,2.13V30.64h.48c1.32,0,1.89.62,1.89,2.06v.09c0,1.42-.58,2.1-1.87,2.1Z"/><path class="cls-2" d="M79.72,36.7c2.1,0,3.39-1,3.39-3.25V29h-2.2v4.4c0,1.14-.29,1.63-1.19,1.63s-1.19-.52-1.19-1.6V29H76.34v4.52C76.34,35.62,77.57,36.7,79.72,36.7Z"/><path class="cls-2" d="M88.37,36.7c2,0,3.4-1,3.54-3H89.74A1.31,1.31,0,0,1,88.33,35c-1,0-1.63-.78-1.63-2.15v-.09c0-1.38.62-2.15,1.6-2.15a1.19,1.19,0,0,1,1.28,1.2h2.25c-.18-2-1.55-2.93-3.53-2.93a3.72,3.72,0,0,0-3.88,3.89v.09C84.4,35.15,85.71,36.7,88.37,36.7Z"/><path class="cls-2" d="M94.81,29l-2.44,7.61h2l.4-1.42h2.52l.4,1.42h2.31L97.63,29Zm.43,4.69.84-2.93.83,2.93Z"/><polygon class="cls-2" points="104.14 36.57 104.14 30.64 106.11 30.64 106.11 28.96 99.98 28.96 99.98 30.64 101.95 30.64 101.95 36.57 104.14 36.57"/><rect class="cls-2" x="107.38" y="28.96" width="2.2" height="7.61"/><path class="cls-2" d="M115,28.86a3.81,3.81,0,0,0-4,3.87v.09a3.71,3.71,0,0,0,4,3.89A3.78,3.78,0,0,0,119,32.76v-.09A3.73,3.73,0,0,0,115,28.86Zm1.76,3.94c0,1.36-.67,2.19-1.75,2.19s-1.76-.8-1.76-2.18v-.09c0-1.38.67-2.16,1.75-2.16s1.76.8,1.76,2.15Z"/><polygon class="cls-2" points="125.22 33.25 122.78 28.96 120.33 28.96 120.33 36.57 122.24 36.57 122.24 31.8 125.02 36.57 127.13 36.57 127.13 28.96 125.22 28.96 125.22 33.25"/><path class="cls-2" d="M64.39,45.1c-.95-.13-1.18-.32-1.18-.74s.3-.65.88-.65a.86.86,0,0,1,1,.82h2c-.14-1.61-1.17-2.37-3-2.37s-2.95,1-2.95,2.37c0,1.53.72,2.17,2.87,2.43.92.14,1.2.27,1.2.73s-.35.76-1,.76c-.9,0-1.15-.45-1.2-1H61C61,49.11,62.11,50,64.24,50c2,0,3.07-1.14,3.07-2.53C67.3,45.82,66.31,45.32,64.39,45.1Z"/><path class="cls-2" d="M73,46.66c0,1.14-.29,1.63-1.19,1.63s-1.19-.52-1.19-1.6V42.26H68.44v4.52c0,2.13,1.22,3.21,3.37,3.21s3.39-1,3.39-3.25V42.26H73Z"/><polygon class="cls-2" points="81.19 46.32 79.73 42.26 76.89 42.26 76.89 49.87 78.83 49.87 78.83 45.14 80.68 49.87 81.4 49.87 83.26 45.14 83.26 49.87 85.43 49.87 85.43 42.26 82.64 42.26 81.19 46.32"/><polygon class="cls-2" points="91.47 46.32 90.02 42.26 87.17 42.26 87.17 49.87 89.12 49.87 89.12 45.14 90.96 49.87 91.69 49.87 93.55 45.14 93.55 49.87 95.72 49.87 95.72 42.26 92.93 42.26 91.47 46.32"/><rect class="cls-2" x="97.51" y="42.26" width="2.2" height="7.61"/><polygon class="cls-2" points="100.96 43.94 102.93 43.94 102.93 49.87 105.12 49.87 105.12 43.94 107.09 43.94 107.09 42.26 100.96 42.26 100.96 43.94"/><path class="cls-2" d="M48.22,11.63a5.64,5.64,0,1,0-8-8L25.94,18,10,2,2,10l16,16L2,41.9v8h8l16-16,16,16h8v-8l-16-16ZM41.65,5.06a3.65,3.65,0,1,1,5.16,5.16L44.9,12.14,39.74,7ZM24.53,19.37l-1.87,1.87-8-8,1.87-1.87ZM4.82,10,10,4.82,15.14,10,10,15.14Zm6.57,6.57,1.87-1.87,8,8-1.87,1.87ZM38.33,8.39l1.87,1.87L9.27,41.19,7.4,39.32ZM9.15,47.88H4V42.72l2-2,5.16,5.16Zm3.41-3.41L10.68,42.6,41.61,11.67l1.87,1.87Zm14.79-12,1.87-1.87,12,12-1.87,1.87ZM47.88,42.72v5.16H42.72l-2-2,5.16-5.16Zm-3.41-3.41L42.6,41.19l-12-12,1.87-1.87Z"/></g></svg>