<svg id="Calque_1" data-name="Calque 1" xmlns="http://www.w3.org/2000/svg" viewBox="0 0 154 52"><defs><style>.cls-1{fill:#e50051;}.cls-2{fill:#421b4b;}</style></defs><title>logo_ixda</title><g id="ixda"><rect class="cls-1" x="37.4" y="3.24" width="8.1" height="8.1" rx="1.05" ry="1.05" transform="translate(7 31.47) rotate(-45.03)"/><path class="cls-1" d="M62,42.73,49.13,29.88a1.05,1.05,0,0,1,0-1.48L61.86,15.65l.08-.1a1,1,0,0,1-.68.27H55.79a1,1,0,0,1-1-1V9.32a1,1,0,0,1,.28-.7l-.06,0L42.19,21.45a1.05,1.05,0,0,1-1.48,0L27.91,8.67l0,0a1,1,0,0,1,.27.67v5.48a1,1,0,0,1-1,1H21.65a1,1,0,0,1-.69-.28l0,0L33.77,28.4a1.05,1.05,0,0,1,0,1.48L20.95,42.71a1.07,1.07,0,0,0-.24.36,1,1,0,0,1,.94-.62h5.47a1,1,0,0,1,1,1V49a1,1,0,0,1-.3.73l.05,0L40.71,36.83a1,1,0,0,1,1.48,0L55,49.67a1,1,0,0,0,.36.24,1,1,0,0,1-.62-.94V43.49a1,1,0,0,1,1-1h5.47a1,1,0,0,1,.95.63A1,1,0,0,0,62,42.73Z"/><rect class="cls-2" x="2" y="2.86" width="7.14" height="47.13"/><path class="cls-2" d="M90.09,2.86H73.62V50h16a16.78,16.78,0,0,0,14.68-7.81C106.42,38.87,107,37,107,26.42c0-9.86-.2-11.65-2.51-15.62A16,16,0,0,0,90.09,2.86ZM98,39.13c-1.85,2.71-4.7,4.1-8.73,4.1H80.77V9.61H89.3c3.84,0,6.22,1,8.4,4,1.92,2.58,2.12,4.63,2.12,13.11C99.81,35.42,99.61,36.75,98,39.13Z"/><path class="cls-2" d="M152,50,134.87,2.86h-6L111.79,50h7.54L123,39.46h17.86L144.46,50ZM125,33.11l6.81-20.59H132l6.81,20.59Z"/><path class="cls-2" d="M21.65,15.82h5.47a1,1,0,0,0,1-1V9.32a1,1,0,0,0-1-1H21.65a1,1,0,0,0-1,1v5c0,.09,0,.17,0,.25v.19A1,1,0,0,0,21.65,15.82Z"/><path class="cls-2" d="M55.79,15.82h5.47a1,1,0,0,0,1-1V9.32a1,1,0,0,0-1-1H55.79a1,1,0,0,0-1,1v5.48A1,1,0,0,0,55.79,15.82Z"/><path class="cls-2" d="M62.28,43.49a1,1,0,0,0-.07-.36v0h0a1,1,0,0,0-.95-.64H55.79a1,1,0,0,0-1,1V49a1,1,0,0,0,1,1h5.47a1,1,0,0,0,1-1V44.09c0-.21,0-.39,0-.56Z"/><path class="cls-2" d="M27.19,50c.08,0,.12,0,.2,0h0a1,1,0,0,0,.79-1V43.49a1,1,0,0,0-1-1H21.65a1,1,0,0,0-1,1v.1c0,.14,0,.29,0,.46V49a1,1,0,0,0,1,1h5.61Z"/></g></svg>