<svg id="elements" xmlns="http://www.w3.org/2000/svg" viewBox="0 0 255 170">
  <defs>
    <style>
      .cls-1 {
        fill: none;
      }

      .cls-2 {
        fill: #421b4b;
      }
    </style>
  </defs>
  <title>partner-Balsamiq</title>
  <rect class="cls-1" width="255" height="170"/>
  <g>
    <path class="cls-2" d="M54.29,73.08a8.23,8.23,0,0,0-7.54,4.07h-.09V63.26h-4V90c0,2-.09,4.2-.18,5.71H46L46.15,92h.14a7.87,7.87,0,0,0,7.4,4.16c4.93,0,9.91-3.93,9.91-11.83C63.65,77.65,59.77,73.08,54.29,73.08ZM52.87,93a6.2,6.2,0,0,1-6-4.71,7.52,7.52,0,0,1-.18-1.46v-4a7.93,7.93,0,0,1,.23-1.64A6.41,6.41,0,0,1,53,76.28c4.29,0,6.58,3.79,6.58,8.22C59.58,89.57,57.07,93,52.87,93Z"/>
    <path class="cls-2" d="M83.41,82.12c0-4.43-1.64-9-8.41-9a13.72,13.72,0,0,0-7.26,2l.91,2.65A11,11,0,0,1,74.41,76c4.52,0,5,3.29,5,5.12v.46c-8.54,0-13.29,2.88-13.29,8.22,0,3.2,2.28,6.35,6.76,6.35a8.24,8.24,0,0,0,6.76-3.29h.14l.32,2.79h3.65a31.14,31.14,0,0,1-.37-5.3Zm-3.88,6.12a4.2,4.2,0,0,1-.23,1.28A5.5,5.5,0,0,1,74,93.22a3.56,3.56,0,0,1-3.79-3.84c0-4.29,5-5.07,9.36-5Z"/>
    <rect class="cls-2" x="88.74" y="63.26" width="4.02" height="32.43"/>
    <path class="cls-2" d="M105.26,82.85c-2.88-1.1-4.2-1.92-4.2-3.75,0-1.64,1.32-3,3.7-3a8.6,8.6,0,0,1,4.52,1.28l1-2.92a11,11,0,0,0-5.44-1.37c-4.75,0-7.63,2.92-7.63,6.49,0,2.65,1.87,4.84,5.85,6.26,3,1.1,4.11,2.15,4.11,4.07s-1.37,3.29-4.29,3.29a10.53,10.53,0,0,1-5.3-1.6l-1,3.06a12.61,12.61,0,0,0,6.21,1.51c5.25,0,8.27-2.74,8.27-6.62C111.06,86.23,109.1,84.32,105.26,82.85Z"/>
    <path class="cls-2" d="M131.08,82.12c0-4.43-1.64-9-8.4-9a13.72,13.72,0,0,0-7.26,2l.91,2.65A11,11,0,0,1,122.09,76c4.52,0,5,3.29,5,5.12v.46c-8.54,0-13.29,2.88-13.29,8.22,0,3.2,2.28,6.35,6.76,6.35a8.24,8.24,0,0,0,6.76-3.29h.14l.32,2.79h3.65a31.07,31.07,0,0,1-.37-5.3Zm-3.88,6.12a4.21,4.21,0,0,1-.23,1.28,5.5,5.5,0,0,1-5.34,3.7,3.56,3.56,0,0,1-3.79-3.84c0-4.29,5-5.07,9.36-5Z"/>
    <path class="cls-2" d="M160.68,73.08a7.54,7.54,0,0,0-4.89,1.55,9.11,9.11,0,0,0-2.47,2.88h-.09A6.54,6.54,0,0,0,147,73.08,7.62,7.62,0,0,0,140,77.14h-.14l-.18-3.56H136.2c.14,1.83.18,3.7.18,6V95.69h3.93V82.35a5.55,5.55,0,0,1,.32-2,5.49,5.49,0,0,1,5-4c3.06,0,4.61,2.56,4.61,6.08V95.69h3.93V82a6.62,6.62,0,0,1,.32-2,5.2,5.2,0,0,1,4.75-3.65c3.24,0,4.8,2.56,4.8,6.81V95.69h3.93v-13C167.94,75,163.6,73.08,160.68,73.08Z"/>
    <rect class="cls-2" x="173.31" y="73.58" width="4.02" height="22.11"/>
    <path class="cls-2" d="M175.32,64.86a2.45,2.45,0,0,0-2.51,2.51,2.49,2.49,0,1,0,2.51-2.51Z"/>
    <path class="cls-2" d="M198.29,76.92h-.09a7.27,7.27,0,0,0-6.81-3.84c-4.66,0-10,3.65-10,11.92,0,6.72,4.2,11.19,9.36,11.19A7.87,7.87,0,0,0,198,92.26h.09v12.47h4V79.66c0-2.28,0-4.2.14-6.08h-3.79Zm-.23,9.78a6.76,6.76,0,0,1-.32,1.92A6,6,0,0,1,192,93c-4.43,0-6.53-3.84-6.53-8.22,0-5,2.51-8.5,6.67-8.5a5.88,5.88,0,0,1,5.76,4.57,6.83,6.83,0,0,1,.18,1.69Z"/>
    <path class="cls-2" d="M209.9,76.28v0a.84.84,0,0,0,.68-.76.91.91,0,0,0-.32-.72,2,2,0,0,0-1.14-.24,6.64,6.64,0,0,0-1.26.1V77.9h.76V76.58H209c.42,0,.62.16.68.52a2.86,2.86,0,0,0,.26.8h.82a2.53,2.53,0,0,1-.24-.82A1,1,0,0,0,209.9,76.28ZM209,76h-.36v-.94a1.83,1.83,0,0,1,.42,0c.48,0,.7.2.7.5S209.42,76,209,76Z"/>
    <path class="cls-2" d="M209.14,72.91a3.3,3.3,0,1,0,3.36,3.28A3.31,3.31,0,0,0,209.14,72.91Zm0,5.9a2.62,2.62,0,1,1,2.5-2.6A2.51,2.51,0,0,1,209.16,78.8Z"/>
  </g>
</svg>
