<svg id="elements" xmlns="http://www.w3.org/2000/svg" viewBox="0 0 255 170">
  <defs>
    <style>
      .cls-1 {
        fill: none;
      }

      .cls-2, .cls-3 {
        fill: #421b4b;
      }

      .cls-2 {
        fill-rule: evenodd;
      }
    </style>
  </defs>
  <title>partner-Rosenfeld</title>
  <rect class="cls-1" width="255" height="170"/>
  <g>
    <path class="cls-2" d="M94.33,86.4v-.12A6.83,6.83,0,0,0,99,79.87a6.46,6.46,0,0,0-2.21-5.13c-1.7-1.44-4.21-2-7.9-2a44.38,44.38,0,0,0-7.06.53V98.47h4.64V88h2.35c2.66.08,3.87,1.14,4.6,4.48a36,36,0,0,0,1.7,6h4.82a51.06,51.06,0,0,1-2-7.14C97.25,88.87,96.16,87.09,94.33,86.4Zm-5.12-1.86H86.43V76.45a14.09,14.09,0,0,1,2.88-.23c3,0,5,1.3,5,4.11C94.33,82.87,92.35,84.54,89.21,84.54Z"/>
    <path class="cls-2" d="M109.32,79.57c-5.58,0-9.56,3.72-9.56,9.79,0,5.92,4,9.53,9.26,9.53,4.71,0,9.49-3,9.49-9.83C118.51,83.44,114.82,79.57,109.32,79.57Zm-.15,15.95c-2.85,0-4.59-2.69-4.59-6.26,0-3.07,1.33-6.27,4.62-6.27s4.48,3.3,4.48,6.19C113.69,92.9,111.83,95.51,109.17,95.51Z"/>
    <path class="cls-2" d="M127.89,87.43c-2.36-.83-3.23-1.4-3.23-2.58s.91-1.94,2.58-1.94A8.31,8.31,0,0,1,131.15,84l.91-3.3a10.81,10.81,0,0,0-4.89-1.1c-4.29,0-7,2.55-7,5.81,0,2.16,1.48,4.14,5.09,5.39,2.27.79,3,1.44,3,2.69s-.91,2.06-3,2.06a10.42,10.42,0,0,1-4.75-1.33l-.91,3.38a12,12,0,0,0,5.62,1.32c4.9,0,7.52-2.47,7.52-5.81C132.79,90.36,131.23,88.64,127.89,87.43Z"/>
    <path class="cls-2" d="M143,79.57c-5.92,0-9,4.82-9,9.95,0,5.66,3.53,9.38,9.51,9.38a17.36,17.36,0,0,0,6.47-1.18l-.68-3.22a14.07,14.07,0,0,1-5.13.84c-3,0-5.58-1.45-5.7-4.79h12.38a12.26,12.26,0,0,0,.15-2C151,84.5,149,79.57,143,79.57Zm-4.56,7.71c.19-1.9,1.4-4.52,4.29-4.52,3.12,0,3.87,2.81,3.83,4.52Z"/>
    <path class="cls-2" d="M163.38,79.57a6.67,6.67,0,0,0-5.88,3.19h-.11L157.16,80h-4.1c.11,1.59.15,3.38.15,5.5v13h4.7V87.62a4.65,4.65,0,0,1,.19-1.52,3.93,3.93,0,0,1,3.66-2.74c2.54,0,3.52,2,3.52,4.67V98.48H170v-11C170,81.66,166.61,79.57,163.38,79.57Z"/>
    <path class="cls-2" d="M178.57,79c0-2.28.8-4.21,3.11-4.21a5.46,5.46,0,0,1,2,.34l.34-3.6a9,9,0,0,0-3-.46,7.08,7.08,0,0,0-4.83,1.79,8.64,8.64,0,0,0-2.24,6.3V80h-2.5v3.49h2.5v15h4.67v-15h4V80h-4.07Z"/>
    <path class="cls-2" d="M191.86,79.57c-5.92,0-9,4.82-9,9.95,0,5.66,3.53,9.38,9.53,9.38a17.28,17.28,0,0,0,6.45-1.18l-.68-3.22a14.11,14.11,0,0,1-5.13.84c-3,0-5.58-1.45-5.7-4.79h12.37a10.69,10.69,0,0,0,.16-2C199.83,84.5,197.89,79.57,191.86,79.57Zm-4.56,7.71c.2-1.9,1.41-4.52,4.29-4.52,3.11,0,3.88,2.81,3.83,4.52Z"/>
    <rect class="cls-3" x="202.07" y="71.52" width="4.72" height="26.95"/>
    <path class="cls-2" d="M227.35,93.28V71.52h-4.67V82h-.07a5.92,5.92,0,0,0-5.21-2.43c-4.44,0-8.31,3.69-8.27,9.88,0,5.69,3.49,9.46,7.89,9.46a6.65,6.65,0,0,0,6-3.34h.08l.19,2.92h4.17C227.43,97.22,227.35,95.18,227.35,93.28Zm-4.67-2.81a4.92,4.92,0,0,1-.16,1.37,4.11,4.11,0,0,1-4,3.3c-3,0-4.64-2.47-4.64-5.84s1.68-6.12,4.68-6.12a4.09,4.09,0,0,1,4,3.31,6.34,6.34,0,0,1,.12,1.22Z"/>
    <path class="cls-2" d="M63,71.12H41.41c-6.66,0-10.24,5.65-11.8,10-1.78,5-2.1,14-2.1,15.9v1a.46.46,0,0,0,.46.46H32a.45.45,0,0,0,.45-.46V97A12.07,12.07,0,0,1,33,92.74c1-3.14,2.65-4.93,5.95-5h2.65V98a.46.46,0,0,0,.46.46h4.53A.46.46,0,0,0,47,98V93.49a3.72,3.72,0,0,1,.21-1.31A3.4,3.4,0,0,1,50.3,89.5c2,0,2.77,1.68,2.77,4V98a.46.46,0,0,0,.46.45h4.73a.46.46,0,0,0,.47-.45V93.25a4.72,4.72,0,0,1,.21-1.35c.49-1.28,1.3-2.41,2.85-2.41,2.13,0,2.9,1.68,2.9,4.54v4a.46.46,0,0,0,.46.46h5.05a.47.47,0,0,0,.46-.46V78.1C70.66,74.24,66.87,71.12,63,71.12ZM41.77,81.84H40.56c-1.25,0-2.06-.69-2.06-1.74s.85-1.69,2.1-1.69a5.26,5.26,0,0,1,1.17.11Z"/>
  </g>
</svg>
