<svg id="Calque_1" data-name="Calque 1" xmlns="http://www.w3.org/2000/svg" viewBox="0 0 255 170">
  <defs>
    <style>
      .cls-1 {
        fill: none;
      }

      .cls-2 {
        fill: #421b4b;
      }
    </style>
  </defs>
  <title>partner-ENS</title>
  <rect class="cls-1" width="255" height="170"/>
  <g>
    <path class="cls-2" d="M96.23,97v8.14h-49V97Zm-49-8V81H96.31v8Zm0-23.77h49v8.14h-49Z"/>
    <path class="cls-2" d="M139.49,97h12.44v8.14H139.49Zm0-16H152v8H139.49ZM115.62,97v8.14l-12.73.08V97ZM102.89,81h12.73v8H102.89V81Zm0-15.79h36.6q12.44,0,12.44,8.14h-49Z"/>
    <path class="cls-2" d="M207.81,89h-49V81h49ZM171.35,65.22h36.46v8.14h-49q0-8.14,12.59-8.14M207.81,97q0,8.14-12.59,8.14H158.77V97Z"/>
    <polygon class="cls-2" points="129.06 114 133.87 114 133.87 114.95 130.03 114.95 130.03 118.88 133.67 118.88 133.67 119.83 130.03 119.83 130.03 124.08 134.03 124.08 134.03 125.03 129.06 125.03 129.06 114"/>
    <polygon class="cls-2" points="135.96 114 137.18 114 142.17 123.7 142.19 123.7 142.19 114 143.16 114 143.16 125.03 141.85 125.03 136.96 115.52 136.93 115.52 136.93 125.03 135.96 125.03 135.96 114"/>
    <path class="cls-2" d="M145.18,123.63a3.54,3.54,0,0,0,2.16.65,2.06,2.06,0,0,0,2.2-2.26c0-2.17-4.49-2.43-4.49-5.32a2.88,2.88,0,0,1,3.1-2.88,5.26,5.26,0,0,1,1.92.36l-.16,1a3.62,3.62,0,0,0-1.78-.41,1.88,1.88,0,0,0-2.12,1.89c0,2.21,4.5,2.23,4.5,5.45a3,3,0,0,1-3.22,3.11,5.09,5.09,0,0,1-2.22-.47Z"/>
    <path class="cls-2" d="M157.26,124.08h.8c2.78,0,4.59-1.26,4.59-4.64s-1.78-4.49-4-4.49h-1.42Zm-1-10.08h2.43c3.51,0,4.9,2.28,4.9,5.5,0,4-2.37,5.53-5.62,5.53h-1.71Z"/>
    <polygon class="cls-2" points="165.74 114 170.54 114 170.54 114.95 166.71 114.95 166.71 118.88 170.35 118.88 170.35 119.83 166.71 119.83 166.71 124.08 170.71 124.08 170.71 125.03 165.74 125.03 165.74 114"/>
    <polygon class="cls-2" points="176.58 114 177.55 114 177.55 124.08 181.48 124.08 181.48 125.03 176.58 125.03 176.58 114"/>
    <polygon class="cls-2" points="183.94 120.36 180.31 114 181.43 114 184.42 119.39 187.5 114 188.55 114 184.91 120.36 184.91 125.03 183.94 125.03 183.94 120.36"/>
    <path class="cls-2" d="M190.45,119.52c0,2.34,1,4.76,3.34,4.76s3.34-2.42,3.34-4.76-1-4.75-3.34-4.75-3.34,2.42-3.34,4.75m3.34-5.7c2.95,0,4.34,2.72,4.31,5.7,0,3.38-1.49,5.7-4.31,5.7s-4.28-2.32-4.31-5.7c0-3,1.36-5.7,4.31-5.7"/>
    <polygon class="cls-2" points="199.94 114 201.16 114 206.15 123.7 206.17 123.7 206.17 114 207.14 114 207.14 125.03 205.84 125.03 200.93 115.52 200.91 115.52 200.91 125.03 199.94 125.03 199.94 114"/>
  </g>
</svg>
