<?xml version="1.0" encoding="utf-8"?>
<!-- Generator: Adobe Illustrator 19.0.0, SVG Export Plug-In . SVG Version: 6.00 Build 0)  -->
<svg version="1.1" id="Layer_1" xmlns="http://www.w3.org/2000/svg" xmlns:xlink="http://www.w3.org/1999/xlink" x="0px" y="0px"
	 viewBox="0 0 255 170" style="enable-background:new 0 0 255 170;" xml:space="preserve">
<style type="text/css">
	.st0{fill-rule:evenodd;clip-rule:evenodd;fill:#421B4B;}
</style>
<g id="XMLID_18_">
	<polygon id="XMLID_60_" class="st0" points="138.5,66.6 126.7,96.6 124.8,96.6 136.5,66.6 138.5,66.6 	"/>
	<polygon id="XMLID_59_" class="st0" points="58.2,66.5 88.2,66.5 88.2,96.9 58.2,96.9 58.2,66.5 	"/>
	<path id="XMLID_56_" class="st0" d="M186.5,85.9l-3.3-10.5l-3.4,10.5H186.5L186.5,85.9z M186.6,67.1l10.2,29.2h-0.4h-6.8l-1.8-5.5
		h-9.5l-1.7,5.5h-0.4h-6.8l10.2-29.2h0.4H186.6L186.6,67.1z"/>
	<path id="XMLID_55_" class="st0" d="M165.4,80.5v15.8H165h-4.8v-2.7c-0.7,1-1.5,1.8-2.5,2.3c-0.9,0.5-1.9,0.8-2.8,1
		c-0.5,0.1-0.9,0.1-1.4,0.2c-0.5,0-0.9,0.1-1.3,0.1l-0.4,0c0,0,0,0-0.1,0c0,0,0,0-0.1,0c-0.5,0-1.4-0.1-2.6-0.2
		c-1.2-0.1-2.5-0.5-3.8-1.1c-1.7-0.8-3.3-2.3-4.7-4.5c-1.4-2.1-2.1-5.4-2.1-9.8c0-4.6,1.2-8.3,3.5-11.1c2.3-2.8,5.9-4.2,10.8-4.2
		h0.4c2.8,0,5,0.5,6.6,1.6c1.6,1.1,2.8,2.3,3.5,3.6c0.7,1.2,1.1,2.2,1.4,3.2c0.2,1,0.4,1.6,0.4,1.9h-0.4h-6.7c0-1.2-0.5-2.2-1.3-3.1
		c-0.8-0.9-2.1-1.4-3.8-1.5c-2.1,0-3.6,0.6-4.6,1.7c-1,1.1-1.7,2.4-2,3.7c-0.2,0.8-0.4,1.7-0.4,2.4c-0.1,0.8-0.1,1.4-0.1,2
		c0,3.3,0.6,5.6,1.8,7.1c1.2,1.4,2.6,2.3,4,2.5c0.2,0.1,0.4,0.1,0.5,0.1c0.2,0,0.3,0,0.5,0c1.9-0.1,3.3-0.6,4.4-1.8
		c1-1.1,1.6-2.4,1.7-4h-5.4v-5.3h0.4H165.4L165.4,80.5z"/>
	<path id="XMLID_19_" class="st0" d="M102.7,80.2h5.5c0,0,0,0,0.1,0c0,0,0,0,0.1,0c1,0,1.9-0.3,2.8-0.8c0.8-0.5,1.3-1.5,1.3-2.9
		c0-1.5-0.4-2.5-1.3-3c-0.8-0.5-1.9-0.7-3.1-0.7h-5.3V80.2L102.7,80.2z M96,67.1h0.4h13.9c3.3,0,5.6,0.8,6.9,2.5
		c1.3,1.7,2,3.6,2,5.8c0,1.9-0.4,3.4-1.1,4.5c-0.7,1.1-1.5,1.9-2.4,2.3c-0.2,0.1-0.3,0.2-0.5,0.3c-0.2,0.1-0.3,0.1-0.5,0.2v0.1
		c1.4,0.4,2.4,1.1,2.9,2.1c0.5,1,0.8,2.1,0.9,3.2c0,0.3,0,0.6,0.1,0.9c0,0.3,0,0.6,0,0.9c0,1.8,0.1,3,0.2,3.8
		c0.1,0.8,0.3,1.5,0.6,2.1c0,0.1,0.1,0.2,0.1,0.2c0,0.1,0.1,0.2,0.1,0.2h-0.4h-6.5c-0.4-0.6-0.7-1.3-0.8-2.1
		c-0.1-0.8-0.2-2.2-0.3-4.1c0-0.1,0-0.3,0-0.4c0-0.2,0-0.3,0-0.4c-0.1-0.9-0.4-1.8-0.9-2.5c-0.5-0.8-1.7-1.2-3.5-1.2h-4.6v10.8h-0.4
		H96V67.1L96,67.1z"/>
</g>
</svg>
