<?xml version="1.0" encoding="utf-8"?>
<!-- Generator: Adobe Illustrator 19.0.0, SVG Export Plug-In . SVG Version: 6.00 Build 0)  -->
<svg version="1.1" id="Layer_1" xmlns="http://www.w3.org/2000/svg" xmlns:xlink="http://www.w3.org/1999/xlink" x="0px" y="0px"
	 viewBox="0 0 255 170" style="enable-background:new 0 0 255 170;" xml:space="preserve">
<style type="text/css">
	.st0{fill:none;}
	.st1{fill:#421B4B;}
</style>
<rect id="XMLID_21_" y="0.2" class="st0" width="255" height="170"/>
<path id="XMLID_7_" class="st1" d="M137.7,30.7h29.2v70L137.7,30.7z M117.1,30.7H87.8v70L117.1,30.7z M127.4,56.5l18.6,44.2h-12.2
	l-5.6-14.1h-13.6L127.4,56.5 M98,128.8c-0.5-2.8-1.6-7.1-2-9.9h0c-0.4,2.7-1.1,6.5-1.8,9.9H98L98,128.8z M93.3,132.9l-1.3,6.1
	c0,0.2-0.1,0.3-0.3,0.3H88c-0.2,0-0.3-0.1-0.3-0.4l5.1-22c0.2-0.7,0.2-1,0.2-2.1c0-0.2,0.1-0.2,0.2-0.2h5.3c0.2,0,0.3,0.1,0.3,0.3
	l6,24.2c0,0.2,0,0.3-0.2,0.3h-4.1c-0.2,0-0.3-0.1-0.3-0.3l-1.4-6.1L93.3,132.9 M114.7,124c-0.2-0.1-0.4-0.1-0.8-0.1
	c-2.2,0-3.8,2-3.8,5.8c0,4.1,1.6,5.8,3.7,5.8c0.3,0,0.7,0,0.9-0.1V124L114.7,124z M105.5,129.8c0-5.6,3.3-10,8.6-10h0.6v-6.6
	c0-0.1,0.1-0.2,0.2-0.2h4.1c0.2,0,0.2,0.1,0.2,0.2v22.2c0,0.6,0,1.3,0.1,2.6c0,0.1,0,0.2-0.2,0.3c-1.6,0.8-3.6,1.3-5.6,1.3
	C108.8,139.6,105.5,136.4,105.5,129.8 M126.2,129.7c0,3.6,0.8,5.9,2.5,5.9c1.7,0,2.5-2,2.5-5.9c0-3.6-0.6-5.9-2.4-5.9
	C127.2,123.8,126.2,125.6,126.2,129.7z M135.7,129.7c0,6.1-2.5,9.9-7,9.9c-5,0-7-4.4-7-10c0-5.7,2.5-9.8,7.1-9.8
	C133.2,119.8,135.7,123.5,135.7,129.7 M144.1,123.9c-0.3,0-1,0-1.4,0.2v11.4c0.3,0.1,0.6,0.1,0.8,0.1c1.7,0,3.8-1.8,3.8-6.5
	C147.4,125.3,145.9,123.9,144.1,123.9L144.1,123.9z M142.5,113c0.2,0,0.2,0.1,0.2,0.2v6.8c0.5-0.1,1.2-0.2,2.1-0.2c4,0,7,3.1,7,9.1
	c0,7-4,10.7-8.9,10.7c-1.4,0-2.9-0.2-4.5-0.7c-0.1,0-0.2-0.2-0.2-0.3v-25.3c0-0.2,0.1-0.2,0.2-0.2L142.5,113 M161.3,127.2
	c0.7,0,1,0,1.2,0c0-0.2,0-0.3,0-0.4c0-1.5-0.5-3-2-3c-1.5,0-2.2,1.6-2.3,3.5L161.3,127.2L161.3,127.2z M158.1,130.8
	c0,3,1.1,4.8,4.2,4.8c1,0,1.9-0.2,2.9-0.5c0.2-0.1,0.3-0.1,0.3,0.2v3.2c0,0.3-0.1,0.4-0.3,0.5c-1.1,0.6-2.5,0.7-3.8,0.7
	c-5.7,0-7.9-4.2-7.9-9.6c0-5.8,2.5-10.2,7-10.2c4.7,0,6.1,4.2,6.1,7.6c0,1.2-0.1,2.4-0.2,2.9c0,0.2-0.2,0.3-0.3,0.3
	c-0.4,0-1.6,0.1-3.7,0.1L158.1,130.8"/>
</svg>
