<?xml version="1.0" encoding="utf-8"?>
<!-- Generator: Adobe Illustrator 19.0.0, SVG Export Plug-In . SVG Version: 6.00 Build 0)  -->
<svg version="1.1" id="Layer_1" xmlns="http://www.w3.org/2000/svg" xmlns:xlink="http://www.w3.org/1999/xlink" x="0px" y="0px"
	 viewBox="-484 312 255 170" style="enable-background:new -484 312 255 170;" xml:space="preserve">
<style type="text/css">
	.st0{fill:#421B4B;}
</style>
<g>
	<g>
		<path class="st0" d="M-428.8,383.5v21.2h6.3c3.2,0,5.4-1.6,6.7-4.7c0.7-1.7,1-3.8,1-6.2c0-3.3-0.5-5.8-1.6-7.6
			c-1-1.8-3.1-2.6-6.2-2.6H-428.8z M-416.4,378.6c2.3,0.7,4.1,2.1,5.5,4.1c1.1,1.6,1.9,3.4,2.3,5.2c0.4,1.9,0.6,3.7,0.6,5.4
			c0,4.3-0.9,8-2.6,10.9c-2.3,4-6,6-10.9,6h-14v-32.4h14C-419.4,377.9-417.7,378.1-416.4,378.6"/>
		<path class="st0" d="M-397.8,392.2c-0.9,0.9-1.4,2.1-1.7,3.6h10.8c-0.1-1.6-0.7-2.9-1.7-3.7c-1-0.8-2.2-1.3-3.7-1.3
			C-395.7,390.9-396.9,391.3-397.8,392.2 M-388.5,386.8c1.7,0.7,3,1.9,4.1,3.5c1,1.4,1.6,3.1,1.9,5c0.2,1.1,0.2,2.7,0.2,4.8h-17.4
			c0.1,2.4,0.9,4.1,2.5,5.1c0.9,0.6,2.1,0.9,3.4,0.9c1.4,0,2.6-0.3,3.5-1.1c0.7-0.6,0.9-0.9,1.3-2.3h6.4c-0.2,2.1-0.9,3.5-2.3,5
			c-2.1,2.3-5.1,3.5-9,3.5c-3.2,0-6-1-8.4-3c-2.4-2-3.6-5.2-3.6-9.6c0-4.2,1.1-7.3,3.3-9.6c2.2-2.2,5.1-3.3,8.6-3.3
			C-392,385.6-390.1,386-388.5,386.8"/>
		<path class="st0" d="M-374.2,402.7c0.1,1.1,0.4,1.9,0.9,2.4c0.8,0.8,2.2,1.2,4.3,1.2c1.2,0,2.2-0.2,2.9-0.5
			c0.7-0.4,1.1-0.9,1.1-1.6c0-0.7-0.3-1.2-0.9-1.6c-0.6-0.4-2.8-1-6.5-1.9c-2.7-0.7-4.6-1.5-5.8-2.5c-1.1-1-1.7-2.4-1.7-4.3
			c0-2.2,0.9-4.1,2.6-5.7c1.7-1.6,4.2-2.4,7.3-2.4c3,0,5.4,0.6,7.3,1.8c1.9,1.2,3,3.3,3.2,6.2h-6.2c-0.1-0.8-0.3-1.4-0.7-1.9
			c-0.7-0.8-1.9-1.3-3.5-1.3c-1.4,0-2.4,0.2-2.9,0.6c-0.6,0.4-0.9,0.9-0.9,1.5c0,0.7,0.3,1.2,0.9,1.6c0.6,0.3,2.8,0.9,6.5,1.7
			c2.5,0.6,4.4,1.5,5.6,2.7c1.2,1.2,1.8,2.7,1.8,4.5c0,2.4-0.9,4.3-2.6,5.8c-1.8,1.5-4.5,2.2-8.2,2.2c-3.8,0-6.5-0.8-8.4-2.4
			c-1.8-1.6-2.7-3.6-2.7-6.1H-374.2z"/>
		<path class="st0" d="M-331.6,403.5c1-1.1,1.5-2.9,1.5-5.3c0-2.3-0.5-4-1.4-5.2c-1-1.2-2.2-1.8-3.8-1.8c-2.2,0-3.7,1-4.5,3.1
			c-0.4,1.1-0.7,2.5-0.7,4.1c0,1.4,0.2,2.6,0.7,3.7c0.8,2,2.3,3,4.5,3C-333.8,405.2-332.6,404.6-331.6,403.5 M-333.7,386.3
			c1.5,0.6,2.7,1.8,3.7,3.5v-3.5h6.1V409c0,3.1-0.5,5.4-1.6,7c-1.8,2.7-5.2,4-10.3,4c-3.1,0-5.6-0.6-7.5-1.8c-1.9-1.2-3-3-3.2-5.4
			h6.8c0.2,0.7,0.5,1.3,0.8,1.6c0.7,0.6,1.8,0.9,3.4,0.9c2.2,0,3.8-0.8,4.5-2.3c0.5-1,0.8-2.6,0.8-4.9v-1.5c-0.6,1-1.3,1.8-1.9,2.3
			c-1.2,1-2.9,1.4-4.8,1.4c-3.1,0-5.5-1.1-7.4-3.2c-1.8-2.2-2.8-5.1-2.8-8.8c0-3.6,0.9-6.6,2.7-9c1.8-2.4,4.3-3.6,7.5-3.6
			C-335.6,385.8-334.6,385.9-333.7,386.3"/>
		<path class="st0" d="M-301.3,387.7c1.6,1.3,2.3,3.4,2.3,6.5v16.1h-6.4v-14.6c0-1.3-0.2-2.2-0.5-2.9c-0.6-1.2-1.8-1.8-3.5-1.8
			c-2.1,0-3.5,0.9-4.3,2.7c-0.4,1-0.6,2.2-0.6,3.7v13h-6.2v-23.9h6v3.5c0.8-1.2,1.6-2.1,2.3-2.7c1.3-1,2.9-1.5,4.9-1.5
			C-304.9,385.8-302.9,386.4-301.3,387.7"/>
		<path class="st0" d="M-295.6,386.5h6.4v23.7h-6.4V386.5z M-289.2,383.5h-6.4v-5.8h6.4V383.5z"/>
		<path class="st0" d="M-356.1,386.5h6.3v23.7h-6.3V386.5z M-349.7,383.5h-6.3v-5.8h6.3V383.5z"/>
		<path class="st0" d="M-286.5,390.9v-4.4h3.3v-6.7h6.2v6.7h3.9v4.4h-3.9v12.7c0,1,0.1,1.6,0.4,1.8c0.3,0.2,1,0.4,2.3,0.4
			c0.2,0,0.4,0,0.6,0c0.2,0,0.4,0,0.6-0.1v4.7l-3,0.1c-3,0.1-5-0.4-6.1-1.5c-0.7-0.7-1.1-1.8-1.1-3.3v-14.8H-286.5z"/>
		<path class="st0" d="M-264.8,380.4c-0.2-0.1-0.4-0.1-0.7-0.1h-0.3v1.4h0.5c0.3,0,0.5-0.1,0.7-0.2c0.2-0.1,0.2-0.3,0.2-0.6
			C-264.4,380.7-264.6,380.5-264.8,380.4 M-267.1,384.2v-4.8c0.3,0,0.7,0,1.3,0c0.6,0,0.9,0,1,0c0.4,0,0.7,0.1,0.9,0.2
			c0.4,0.2,0.6,0.6,0.6,1.1c0,0.4-0.1,0.7-0.3,0.9c-0.2,0.2-0.5,0.3-0.8,0.3c0.3,0.1,0.5,0.2,0.7,0.3c0.3,0.2,0.4,0.6,0.4,1.1v0.4
			c0,0,0,0.1,0,0.1c0,0,0,0.1,0,0.1l0,0.1h-1.2c0-0.1-0.1-0.4-0.1-0.7c0-0.3,0-0.5-0.1-0.6c-0.1-0.2-0.2-0.3-0.3-0.3
			c-0.1,0-0.2-0.1-0.4-0.1l-0.3,0h-0.3v1.7H-267.1z M-267.7,379.3c-0.7,0.7-1,1.5-1,2.5c0,1,0.3,1.8,1,2.5c0.7,0.7,1.5,1.1,2.5,1.1
			c1,0,1.8-0.4,2.5-1.1c0.7-0.7,1-1.5,1-2.5c0-1-0.3-1.8-1-2.5c-0.7-0.7-1.5-1.1-2.5-1.1C-266.2,378.3-267.1,378.6-267.7,379.3
			 M-262.2,384.9c-0.8,0.8-1.8,1.2-3,1.2c-1.2,0-2.2-0.4-3.1-1.2c-0.8-0.8-1.2-1.8-1.2-3.1c0-1.3,0.5-2.3,1.3-3.1
			c0.8-0.8,1.8-1.2,3-1.2c1.2,0,2.2,0.4,3,1.3c0.8,0.8,1.3,1.8,1.3,3C-260.9,383.1-261.4,384.1-262.2,384.9"/>
	</g>
	<g>
		<g>
			<path class="st0" d="M-402.3,420.7c-1.5,0-2.8,1.3-2.8,2.9c0,1.6,1.2,2.9,2.8,2.9c1.5,0,2.8-1.3,2.8-2.9
				C-399.6,422-400.8,420.7-402.3,420.7z M-402.3,425.1c-0.8,0-1.4-0.7-1.4-1.5c0-0.8,0.6-1.5,1.4-1.5c0.8,0,1.4,0.7,1.4,1.5
				C-400.9,424.4-401.5,425.1-402.3,425.1z"/>
			<path class="st0" d="M-419.6,420.8h-1c-0.1,0-0.2,0.1-0.2,0.2l-0.8,2.6l-1.4-2.8c0-0.1-0.1-0.1-0.2-0.1h-0.1
				c-0.1,0-0.2,0.1-0.2,0.1l-1.4,2.8l-0.8-2.6c0-0.1-0.1-0.2-0.2-0.2h-1c-0.1,0-0.2,0.1-0.2,0.2l1.7,5.2c0,0.1,0.1,0.2,0.2,0.2h0.2
				c0.1,0,0.2-0.1,0.2-0.1l1.7-3.3l1.7,3.3c0,0.1,0.1,0.1,0.2,0.1h0.2c0.1,0,0.2-0.1,0.2-0.2l1.7-5.2
				C-419.4,420.9-419.5,420.8-419.6,420.8z"/>
			<path class="st0" d="M-417.2,420.8h-1c-0.1,0-0.2,0.1-0.2,0.2v4.9c0,0.1,0.1,0.2,0.2,0.2h1c0.1,0,0.2-0.1,0.2-0.2v-4.9
				C-417,420.9-417.1,420.8-417.2,420.8z"/>
			<path class="st0" d="M-412.8,420.7c-0.7,0-1.3,0.3-1.8,0.8l0,0l-0.2-0.5c0-0.1-0.1-0.1-0.2-0.1h-0.5c-0.1,0-0.2,0.1-0.2,0.2v7.8
				c0,0.1,0.1,0.2,0.2,0.2h1c0.1,0,0.2-0.1,0.2-0.2v-2.7c0.4,0.2,0.9,0.2,1.4,0.2c1.4,0,2.6-1.3,2.6-2.9
				C-410.2,422-411.3,420.7-412.8,420.7z M-413,425.1c-0.4,0-0.8-0.1-1.1-0.3v-2c0.2-0.4,0.7-0.7,1.1-0.7c0.8,0,1.4,0.7,1.4,1.5
				C-411.7,424.4-412.3,425.1-413,425.1z"/>
			<path class="st0" d="M-406.4,420.7c-1,0-1.6,0.8-1.6,0.8l-0.2-0.5c0-0.1-0.1-0.1-0.2-0.1h-0.5c-0.1,0-0.2,0.1-0.2,0.2v4.9
				c0,0.1,0.1,0.2,0.2,0.2h1c0.1,0,0.2-0.1,0.2-0.2v-3.5c0.6-0.7,1.4-0.5,1.5-0.4c0.2,0.1,0.3,0,0.3-0.1c0-0.1,0.3-0.6,0.4-0.8
				C-405.3,421-405.4,420.7-406.4,420.7z"/>
			<path class="st0" d="M-417.5,418.3c-0.4-0.1-0.9,0.1-1,0.6c-0.1,0.4,0.1,0.9,0.6,1c0.4,0.1,0.9-0.1,1-0.6
				C-416.8,418.9-417.1,418.4-417.5,418.3"/>
			<path class="st0" d="M-430.6,426.2c-0.1,0.1-0.2,0.1-0.3,0.1c-0.1,0-0.2,0-0.3,0c-0.2,0-0.4-0.1-0.6-0.2
				c-0.1-0.2-0.2-0.4-0.2-0.6h0c-0.2,0.3-0.4,0.5-0.7,0.6c-0.3,0.2-0.6,0.2-1,0.2c-0.3,0-0.6,0-0.8-0.1c-0.2-0.1-0.4-0.2-0.6-0.4
				c-0.2-0.2-0.3-0.3-0.3-0.5c-0.1-0.2-0.1-0.4-0.1-0.6c0-0.2,0-0.4,0.1-0.5c0.1-0.2,0.2-0.4,0.3-0.5c0.1-0.2,0.3-0.3,0.6-0.4
				c0.2-0.1,0.5-0.2,0.9-0.2l1.6-0.1v-0.4c0-0.1,0-0.3,0-0.4c0-0.1-0.1-0.3-0.2-0.4c-0.1-0.1-0.2-0.2-0.3-0.2
				c-0.1,0-0.3-0.1-0.5-0.1c-0.2,0-0.4,0-0.6,0.1c-0.2,0.1-0.3,0.1-0.4,0.2c-0.2,0.2-0.3,0.4-0.3,0.7h-0.9c0-0.2,0.1-0.5,0.1-0.6
				c0.1-0.2,0.2-0.3,0.3-0.5c0.2-0.2,0.4-0.3,0.7-0.4c0.3-0.1,0.6-0.1,0.9-0.1c0.5,0,0.9,0.1,1.2,0.3c0.3,0.2,0.5,0.4,0.6,0.7
				c0.1,0.2,0.2,0.5,0.2,0.8v2.6c0,0.1,0,0.2,0.1,0.3c0.1,0,0.1,0.1,0.2,0.1c0,0,0,0,0.1,0c0,0,0.1,0,0.1,0l0.1,0V426.2z
				 M-432,423.6l-1.4,0.1c-0.1,0-0.3,0-0.4,0.1c-0.1,0-0.3,0.1-0.4,0.2c-0.1,0.1-0.2,0.2-0.3,0.3c-0.1,0.1-0.1,0.3-0.1,0.4
				c0,0.2,0.1,0.5,0.2,0.6c0.2,0.2,0.4,0.3,0.8,0.3c0.2,0,0.4,0,0.6-0.1c0.2-0.1,0.4-0.2,0.5-0.3c0.2-0.2,0.3-0.4,0.3-0.6
				c0.1-0.2,0.1-0.4,0.1-0.7V423.6z"/>
			<path class="st0" d="M-390.9,424.4c0,0.3-0.1,0.5-0.2,0.8c-0.1,0.2-0.2,0.4-0.4,0.6c-0.2,0.2-0.4,0.3-0.7,0.4
				c-0.3,0.1-0.5,0.2-0.9,0.2c-0.5,0-0.9-0.1-1.2-0.3s-0.6-0.4-0.8-0.7c-0.1-0.2-0.3-0.5-0.3-0.8c-0.1-0.3-0.1-0.7-0.1-1.1
				s0-0.8,0.1-1.1c0.1-0.3,0.2-0.6,0.3-0.8c0.2-0.3,0.4-0.5,0.8-0.7s0.7-0.3,1.2-0.3c0.3,0,0.6,0,0.9,0.1c0.3,0.1,0.5,0.2,0.7,0.4
				c0.2,0.2,0.3,0.4,0.4,0.6c0.1,0.2,0.2,0.5,0.2,0.8h-0.9c0-0.2-0.1-0.3-0.1-0.5c-0.1-0.1-0.1-0.3-0.2-0.4
				c-0.1-0.1-0.2-0.2-0.4-0.2c-0.1-0.1-0.3-0.1-0.5-0.1c-0.2,0-0.4,0-0.5,0.1c-0.1,0.1-0.3,0.2-0.4,0.3c-0.2,0.2-0.4,0.4-0.4,0.7
				s-0.1,0.6-0.1,1c0,0.3,0,0.7,0.1,1c0.1,0.3,0.2,0.6,0.4,0.7c0.1,0.1,0.3,0.2,0.4,0.3c0.1,0.1,0.3,0.1,0.5,0.1
				c0.2,0,0.4,0,0.5-0.1c0.2-0.1,0.3-0.2,0.4-0.3c0.1-0.1,0.2-0.2,0.2-0.3c0.1-0.1,0.1-0.3,0.1-0.5H-390.9z"/>
			<path class="st0" d="M-385.4,423.5c0,0.4-0.1,0.8-0.2,1.2c-0.1,0.4-0.3,0.7-0.6,1c-0.2,0.2-0.4,0.3-0.7,0.5s-0.6,0.2-0.9,0.2
				c-0.3,0-0.6-0.1-0.9-0.2c-0.3-0.1-0.5-0.3-0.7-0.5c-0.3-0.3-0.5-0.6-0.6-1c-0.1-0.4-0.2-0.8-0.2-1.2c0-0.4,0.1-0.8,0.2-1.2
				c0.1-0.4,0.3-0.7,0.6-1c0.2-0.2,0.4-0.3,0.7-0.5c0.3-0.1,0.6-0.2,0.9-0.2c0.3,0,0.6,0.1,0.9,0.2s0.5,0.3,0.7,0.5
				c0.3,0.3,0.5,0.6,0.6,1C-385.5,422.7-385.4,423.1-385.4,423.5z M-386.3,423.5c0-0.3,0-0.6-0.1-0.9c-0.1-0.3-0.2-0.5-0.4-0.7
				c-0.1-0.1-0.2-0.2-0.4-0.3c-0.2-0.1-0.3-0.1-0.6-0.1s-0.4,0-0.6,0.1c-0.2,0.1-0.3,0.2-0.4,0.3c-0.2,0.2-0.3,0.4-0.4,0.7
				c-0.1,0.3-0.1,0.6-0.1,0.9c0,0.3,0,0.6,0.1,0.9s0.2,0.5,0.4,0.7c0.1,0.1,0.2,0.2,0.4,0.3c0.2,0.1,0.3,0.1,0.6,0.1s0.4,0,0.6-0.1
				c0.2-0.1,0.3-0.2,0.4-0.3c0.2-0.2,0.3-0.4,0.4-0.7C-386.4,424.2-386.3,423.9-386.3,423.5z"/>
			<path class="st0" d="M-378.1,426.3v-3.4c0-0.2,0-0.4-0.1-0.5c0-0.2-0.1-0.3-0.2-0.4c-0.1-0.1-0.2-0.2-0.3-0.3
				c-0.1-0.1-0.3-0.1-0.5-0.1c-0.2,0-0.3,0-0.5,0.1c-0.1,0.1-0.3,0.2-0.4,0.3c-0.2,0.2-0.3,0.4-0.4,0.7c-0.1,0.3-0.1,0.5-0.1,0.8
				v2.9h-0.9v-3.4c0-0.2,0-0.4,0-0.5s-0.1-0.3-0.2-0.4c-0.1-0.1-0.2-0.2-0.3-0.3c-0.1-0.1-0.3-0.1-0.5-0.1c-0.2,0-0.4,0-0.5,0.1
				c-0.2,0.1-0.3,0.2-0.4,0.3c-0.1,0.2-0.2,0.4-0.3,0.6c-0.1,0.3-0.1,0.5-0.1,0.7v2.9h-0.9v-5.4h0.8l0.1,0.8
				c0.1-0.3,0.3-0.5,0.6-0.7c0.3-0.1,0.6-0.2,0.9-0.2c0.4,0,0.7,0.1,1,0.3c0.3,0.2,0.5,0.4,0.6,0.8c0.1-0.2,0.2-0.3,0.3-0.4
				c0.1-0.1,0.2-0.2,0.4-0.3c0.1-0.1,0.3-0.1,0.5-0.2c0.2,0,0.3-0.1,0.5-0.1c0.6,0,1.1,0.2,1.3,0.5c0.3,0.4,0.4,0.8,0.4,1.4v3.6
				H-378.1z"/>
			<path class="st0" d="M-371.3,423.5c0,0.5-0.1,0.9-0.2,1.3c-0.1,0.4-0.3,0.7-0.6,1c-0.2,0.2-0.4,0.3-0.6,0.4
				c-0.2,0.1-0.5,0.1-0.8,0.1c-0.1,0-0.3,0-0.4-0.1c-0.2,0-0.3-0.1-0.4-0.1c-0.1-0.1-0.3-0.1-0.4-0.2c-0.1-0.1-0.2-0.2-0.3-0.3v2.9
				h-0.9v-7.7h0.8l0.1,0.7c0.2-0.3,0.4-0.5,0.7-0.6s0.6-0.2,0.9-0.2c0.3,0,0.6,0.1,0.9,0.2c0.2,0.1,0.5,0.2,0.6,0.4
				c0.3,0.3,0.4,0.6,0.6,1C-371.4,422.7-371.3,423.1-371.3,423.5z M-372.3,423.6c0-0.2,0-0.5-0.1-0.7s-0.1-0.5-0.2-0.7
				c-0.1-0.2-0.3-0.4-0.5-0.5c-0.2-0.1-0.4-0.2-0.7-0.2c-0.2,0-0.4,0-0.5,0.1c-0.1,0.1-0.3,0.2-0.4,0.3c-0.2,0.2-0.4,0.5-0.5,0.8
				c-0.1,0.3-0.1,0.6-0.1,1c0,0.3,0,0.7,0.1,1c0.1,0.3,0.2,0.6,0.5,0.8c0.1,0.1,0.2,0.2,0.4,0.3c0.1,0.1,0.3,0.1,0.5,0.1
				c0.3,0,0.5-0.1,0.7-0.2c0.2-0.1,0.4-0.3,0.5-0.5c0.1-0.2,0.2-0.4,0.2-0.7C-372.3,424.1-372.3,423.8-372.3,423.6z"/>
			<path class="st0" d="M-365.6,426.2c-0.1,0.1-0.2,0.1-0.3,0.1c-0.1,0-0.2,0-0.3,0c-0.2,0-0.4-0.1-0.6-0.2
				c-0.1-0.2-0.2-0.4-0.2-0.6h0c-0.2,0.3-0.4,0.5-0.7,0.6c-0.3,0.2-0.6,0.2-1,0.2c-0.3,0-0.6,0-0.8-0.1c-0.2-0.1-0.4-0.2-0.6-0.4
				c-0.2-0.2-0.3-0.3-0.3-0.5c-0.1-0.2-0.1-0.4-0.1-0.6c0-0.2,0-0.4,0.1-0.5c0.1-0.2,0.2-0.4,0.3-0.5c0.1-0.2,0.3-0.3,0.6-0.4
				c0.2-0.1,0.5-0.2,0.9-0.2l1.6-0.1v-0.4c0-0.1,0-0.3,0-0.4c0-0.1-0.1-0.3-0.2-0.4c-0.1-0.1-0.2-0.2-0.3-0.2
				c-0.1,0-0.3-0.1-0.5-0.1c-0.2,0-0.4,0-0.6,0.1c-0.2,0.1-0.3,0.1-0.4,0.2c-0.2,0.2-0.3,0.4-0.3,0.7h-0.9c0-0.2,0.1-0.5,0.1-0.6
				c0.1-0.2,0.2-0.3,0.3-0.5c0.2-0.2,0.4-0.3,0.7-0.4c0.3-0.1,0.6-0.1,0.9-0.1c0.5,0,0.9,0.1,1.2,0.3s0.5,0.4,0.6,0.7
				c0.1,0.2,0.2,0.5,0.2,0.8v2.6c0,0.1,0,0.2,0.1,0.3c0.1,0,0.1,0.1,0.2,0.1c0,0,0,0,0.1,0c0,0,0.1,0,0.1,0l0.1,0V426.2z
				 M-367.1,423.6l-1.4,0.1c-0.1,0-0.3,0-0.4,0.1c-0.1,0-0.3,0.1-0.4,0.2c-0.1,0.1-0.2,0.2-0.3,0.3c-0.1,0.1-0.1,0.3-0.1,0.4
				c0,0.2,0.1,0.5,0.2,0.6c0.2,0.2,0.4,0.3,0.8,0.3c0.2,0,0.4,0,0.6-0.1c0.2-0.1,0.4-0.2,0.5-0.3c0.2-0.2,0.3-0.4,0.3-0.6
				c0.1-0.2,0.1-0.4,0.1-0.7V423.6z"/>
			<path class="st0" d="M-361.2,426.3v-3.4c0-0.4-0.1-0.7-0.3-1c-0.2-0.2-0.5-0.3-0.9-0.3c-0.3,0-0.5,0.1-0.7,0.2
				c-0.2,0.2-0.4,0.4-0.5,0.6c-0.1,0.2-0.1,0.4-0.2,0.7c0,0.3,0,0.5,0,0.7v2.5h-0.9v-5.4h0.8l0.1,0.8c0.1-0.2,0.2-0.3,0.3-0.4
				c0.1-0.1,0.3-0.2,0.4-0.3c0.1-0.1,0.3-0.1,0.5-0.2c0.2,0,0.3-0.1,0.5-0.1c0.6,0,1.1,0.2,1.4,0.5s0.5,0.8,0.5,1.5v3.6H-361.2z"/>
			<path class="st0" d="M-356.9,427.4c-0.1,0.3-0.3,0.6-0.5,0.8c-0.2,0.2-0.5,0.3-0.9,0.3c-0.2,0-0.4,0-0.5,0
				c-0.1,0-0.2-0.1-0.3-0.1v-0.8c0.1,0,0.1,0,0.2,0c0.1,0,0.1,0,0.2,0c0.1,0,0.2,0,0.2,0c0.2,0,0.4,0,0.5-0.1
				c0.1-0.1,0.2-0.2,0.3-0.4l0.3-0.9l-2.1-5.4h1l1.6,4.3l1.5-4.3h0.9L-356.9,427.4z"/>
		</g>
	</g>
</g>
</svg>
