<?xml version="1.0" encoding="utf-8"?>
<!-- Generator: Adobe Illustrator 19.0.0, SVG Export Plug-In . SVG Version: 6.00 Build 0)  -->
<svg version="1.1" id="Layer_1" xmlns="http://www.w3.org/2000/svg" xmlns:xlink="http://www.w3.org/1999/xlink" x="0px" y="0px"
	 viewBox="-268 222 255 170" style="enable-background:new -268 222 255 170;" xml:space="preserve">
<style type="text/css">
	.st0{fill:none;}
	.st1{fill:#411B4B;}
</style>
<rect x="-269.4" y="218" class="st0" width="255" height="170"/>
<g>
	<path class="st1" d="M-204.7,291.2c3.4,0,5.6,1.4,7.1,2.9c0.9,0.9,1.6,1.9,2.1,2.9h0.1l-0.1-0.6c-0.1-0.4-0.1-1-0.1-1.5v-11.6h-5.1
		v-2.1h7.3v34c0,0.8,0.4,1.2,1.2,1.2h3.2v2.1h-3.5c-2.2,0-3.1-0.9-3.1-2.9V315c0-0.6,0.1-1,0.1-1.4l0.1-0.5h-0.1
		c-0.5,1.1-1.2,2.1-2.1,3c-1.5,1.5-3.9,3-7.6,3c-7.1,0-11.5-5.6-11.5-13.9C-216.6,296.7-211.7,291.2-204.7,291.2z M-205,316.9
		c4.9,0,9.5-3.5,9.5-11.8c0-5.9-3-11.7-9.3-11.7c-5.3,0-9.5,4.3-9.5,11.8C-214.3,312.4-210.4,316.9-205,316.9z"/>
	<path class="st1" d="M-173.1,291.2c7.3,0,10.9,5.7,10.9,12.1c0,0.3,0,0.7-0.1,1c-0.1,0.2-0.1,0.3-0.1,0.5h-21.3
		c0,7.7,5.2,12.1,11.4,12.1c2.6,0,4.6-0.9,6.1-1.7c0.9-0.5,1.6-1.1,2.2-1.7l1.2,1.9c-0.7,0.7-1.6,1.3-2.6,1.8
		c-1.7,0.9-4,1.9-6.9,1.9c-7.5,0-13.7-5.4-13.7-13.9C-186,296.3-179.9,291.2-173.1,291.2z M-164.6,302.7c-0.3-6.5-4.1-9.4-8.6-9.4
		c-4.9,0-9.4,3.2-10.4,9.4H-164.6z"/>
	<path class="st1" d="M-158.3,310.6h2.2v2c0,3.1,4.5,4.4,7.7,4.4c3.6,0,7-1.7,7-4.8c0-3.4-3.8-4.8-7.7-6.2c-4-1.6-8.2-3.3-8.2-7.8
		c0-4.5,4.4-6.9,8.6-6.9c3.4,0,8.5,1.5,8.5,5.1v2.9h-2.2V297c0-2.3-3.1-3.6-6.2-3.6c-3.3,0-6.4,1.5-6.4,4.5c0,3.2,3.6,4.6,7.3,6
		c4.2,1.6,8.6,3.4,8.6,7.9c0,4.3-3.7,7.2-9.5,7.2c-5,0-9.7-2.3-9.7-6.3V310.6z"/>
	<path class="st1" d="M-135.3,317.1h4.8v-22.5h-5.1v-2.1h7.3v24.5h4.8v2.1h-11.8V317.1z M-130.9,281.9h2.9v3.9h-2.9V281.9z"/>
	<path class="st1" d="M-117.3,325.6c0.6,0.4,1.3,0.7,2.1,1c1.3,0.5,3.1,0.9,5,0.9c5.7,0,10.1-2.8,10.1-9.2v-3.1
		c0-0.6,0.1-1.2,0.1-1.5l0.1-0.6h-0.1c-1.7,3.2-4.5,5.4-8.9,5.4c-6.9,0-11.8-5.4-11.8-13.7c0-8.4,4.5-13.5,11.4-13.5
		c4,0,7.8,1.5,9.3,5.1h0.1c0-0.1,0-0.2-0.1-0.3c-0.1-0.3-0.1-0.6-0.1-1c0-2.2,0.8-3.1,3.1-3.1h3.9v2.1h-3.6c-0.8,0-1.2,0.4-1.2,1.2
		v23.2c0,8.1-5.9,11.3-12.2,11.3c-3,0-5.7-0.7-8.4-2.1L-117.3,325.6z M-100,304.8c0-8.6-4-11.3-9.3-11.3c-5.7,0-9.1,4.1-9.1,11.3
		c0,7.2,3.9,11.6,9.6,11.6C-104,316.3-100,313.4-100,304.8z"/>
	<path class="st1" d="M-90.7,316.4h4.8v-21.3c0-0.8-0.4-1.2-1.2-1.2H-91v-2.1h4.2c2.2,0,3.1,0.9,3.1,2.9v1.8c0,0.6-0.1,1.2-0.1,1.5
		l-0.1,0.6h0.1c0.9-2.5,4.7-7.5,11.3-7.5c7,0,8.8,4.2,8.8,10.4v14.8h4.8v2.1h-7v-16.1c0-4.7-0.6-9-6.5-9c-6.3,0-11.2,5.5-11.2,11.9
		v11.1h4.8v2.1h-11.8V316.4z"/>
	<circle class="st1" cx="-229.8" cy="313.3" r="5.8"/>
</g>
</svg>
