<?xml version="1.0" encoding="utf-8"?>
<!-- Generator: Adobe Illustrator 19.0.0, SVG Export Plug-In . SVG Version: 6.00 Build 0)  -->
<svg version="1.1" id="Layer_1" xmlns="http://www.w3.org/2000/svg" xmlns:xlink="http://www.w3.org/1999/xlink" x="0px" y="0px"
	 viewBox="-268 222 255 170" style="enable-background:new -268 222 255 170;" xml:space="preserve">
<style type="text/css">
	.st0{fill:#421B4B;}
</style>
<g>
	<g>
		<g>
			<path class="st0" d="M-209.7,313.4v-19.7h3.2v19.7H-209.7z"/>
			<path class="st0" d="M-201.9,313.4v-20.5l12.5,12c0.3,0.3,0.7,0.7,1,1.1c0.3,0.4,0.7,0.8,1.1,1.3v-13.7h3v20.5l-12.8-12.3
				c-0.3-0.3-0.7-0.7-1-1c-0.3-0.4-0.6-0.8-0.9-1.2v13.7H-201.9z"/>
			<path class="st0" d="M-179.8,313.4v-19.7h11v2.7h-7.8v4.9h7.8v2.8h-7.8v9.3H-179.8z"/>
			<path class="st0" d="M-162.3,304.6v8.8h-3v-19.7h4.5c1.3,0,2.3,0.1,3,0.3c0.7,0.2,1.3,0.5,1.8,0.8c0.6,0.5,1.1,1.1,1.4,1.8
				c0.3,0.8,0.5,1.6,0.5,2.5c0,1.6-0.4,2.8-1.1,3.7c-0.8,0.9-1.9,1.4-3.4,1.6l6.8,9h-3.6l-6.6-8.8H-162.3z M-162.1,302.1h0.6
				c1.7,0,2.8-0.2,3.4-0.6c0.6-0.4,0.8-1.1,0.8-2.1c0-1.1-0.3-1.8-0.9-2.3c-0.6-0.4-1.7-0.7-3.3-0.7h-0.6V302.1z"/>
			<path class="st0" d="M-136.9,313.4l-2.2-5.1h-7.8l-2.3,5.1h-3.4l9.5-20.5l9.5,20.5H-136.9z M-145.7,305.7h5.5l-2-4.5
				c-0.1-0.3-0.2-0.6-0.4-1c-0.1-0.4-0.3-0.8-0.4-1.2c-0.1,0.4-0.2,0.8-0.3,1.2c-0.1,0.4-0.2,0.7-0.4,1L-145.7,305.7z"/>
			<path class="st0" d="M-121.2,303.3h7.8c0,0.1,0,0.3,0,0.6c0,0.6,0,1.1,0,1.3c0,2.8-0.8,4.9-2.4,6.5s-3.8,2.3-6.7,2.3
				c-1.6,0-3.1-0.2-4.3-0.7c-1.3-0.5-2.4-1.2-3.3-2.2c-0.9-1-1.6-2.1-2.1-3.3s-0.7-2.7-0.7-4.1c0-1.5,0.3-2.9,0.8-4.1
				c0.5-1.3,1.3-2.4,2.3-3.3c1-0.9,2.1-1.7,3.4-2.2c1.3-0.5,2.7-0.7,4.1-0.7c1.6,0,2.9,0.3,4.2,0.8c1.2,0.6,2.3,1.4,3.3,2.6
				l-2.3,1.8c-0.7-0.8-1.4-1.3-2.2-1.7c-0.8-0.4-1.8-0.6-2.8-0.6c-2.1,0-3.9,0.7-5.2,2.1c-1.4,1.4-2,3.1-2,5.3c0,2.2,0.7,4,2,5.4
				c1.3,1.4,3.1,2.1,5.3,2.1c1.8,0,3.3-0.4,4.3-1.3c1-0.9,1.6-2,1.6-3.5V306h-4.7V303.3z"/>
			<path class="st0" d="M-109.9,313.4v-19.7h3.2v19.7H-109.9z"/>
			<path class="st0" d="M-103.3,309.5l2.6-1.2c0.2,0.9,0.7,1.5,1.3,2c0.6,0.5,1.5,0.7,2.5,0.7c1,0,1.7-0.3,2.3-0.8
				c0.6-0.5,0.8-1.2,0.8-2.1c0-1.2-1-2.2-2.9-3.1c-0.3-0.1-0.5-0.2-0.6-0.3c-2.2-1.1-3.6-2-4.3-2.9c-0.7-0.9-1.1-1.9-1.1-3.1
				c0-1.6,0.5-2.9,1.6-3.9c1.1-1,2.5-1.5,4.3-1.5c1.5,0,2.7,0.3,3.6,0.8c1,0.6,1.7,1.4,2,2.4l-2.5,1.3c-0.4-0.6-0.8-1.1-1.3-1.4
				c-0.5-0.3-1-0.4-1.6-0.4c-0.9,0-1.5,0.2-2.1,0.7c-0.5,0.4-0.8,1-0.8,1.8c0,1.2,1.1,2.3,3.3,3.3c0.2,0.1,0.3,0.1,0.4,0.2
				c1.9,0.9,3.3,1.8,4,2.6c0.7,0.9,1.1,1.9,1.1,3.2c0,1.9-0.6,3.3-1.8,4.4c-1.2,1.1-2.8,1.6-4.8,1.6c-1.7,0-3.1-0.4-4.1-1.2
				C-102.2,312-102.9,310.9-103.3,309.5z"/>
			<path class="st0" d="M-80.6,296.4v17h-3.2v-17h-5.2v-2.7h13.6v2.7H-80.6z"/>
			<path class="st0" d="M-72.9,313.4v-19.7h3.2v19.7H-72.9z"/>
			<path class="st0" d="M-49.3,298.5c-0.9-0.8-1.9-1.3-2.9-1.7c-1-0.4-2.1-0.6-3.2-0.6c-2.2,0-3.9,0.7-5.3,2.1c-1.4,1.4-2,3.2-2,5.4
				c0,2.1,0.7,3.9,2,5.3c1.3,1.4,3,2.1,5,2.1c1.2,0,2.3-0.2,3.3-0.6c1.1-0.4,2.1-1,3-1.9v3.6c-0.9,0.6-1.8,1.1-2.8,1.4
				c-1,0.3-2.1,0.5-3.3,0.5c-1.5,0-2.9-0.2-4.2-0.7c-1.3-0.5-2.4-1.2-3.4-2.2c-1-0.9-1.7-2.1-2.2-3.3c-0.5-1.3-0.8-2.6-0.8-4.1
				c0-1.4,0.3-2.8,0.8-4.1c0.5-1.3,1.3-2.4,2.2-3.3c1-1,2.1-1.7,3.4-2.2c1.3-0.5,2.6-0.7,4.1-0.7c1.2,0,2.3,0.2,3.3,0.5
				c1,0.3,2.1,0.8,3.1,1.5L-49.3,298.5z"/>
			<path class="st0" d="M-46.5,309.5l2.6-1.2c0.2,0.9,0.7,1.5,1.3,2c0.6,0.5,1.5,0.7,2.5,0.7c1,0,1.7-0.3,2.3-0.8
				c0.6-0.5,0.8-1.2,0.8-2.1c0-1.2-1-2.2-2.9-3.1c-0.3-0.1-0.5-0.2-0.6-0.3c-2.2-1.1-3.6-2-4.3-2.9c-0.7-0.9-1.1-1.9-1.1-3.1
				c0-1.6,0.5-2.9,1.6-3.9c1.1-1,2.5-1.5,4.3-1.5c1.5,0,2.7,0.3,3.6,0.8c1,0.6,1.7,1.4,2,2.4l-2.5,1.3c-0.4-0.6-0.8-1.1-1.3-1.4
				c-0.5-0.3-1-0.4-1.6-0.4c-0.9,0-1.5,0.2-2.1,0.7c-0.5,0.4-0.8,1-0.8,1.8c0,1.2,1.1,2.3,3.3,3.3c0.2,0.1,0.3,0.1,0.4,0.2
				c1.9,0.9,3.3,1.8,4,2.6c0.7,0.9,1.1,1.9,1.1,3.2c0,1.9-0.6,3.3-1.8,4.4c-1.2,1.1-2.8,1.6-4.8,1.6c-1.7,0-3.1-0.4-4.1-1.2
				C-45.4,312-46.1,310.9-46.5,309.5z"/>
		</g>
		<g>
			<path class="st0" d="M-31.2,294.8c0,0.9-0.7,1.6-1.6,1.6c-0.9,0-1.6-0.7-1.6-1.6c0-0.9,0.7-1.5,1.6-1.5
				C-31.9,293.2-31.2,293.9-31.2,294.8z M-34,294.8c0,0.7,0.5,1.2,1.2,1.2c0.7,0,1.2-0.5,1.2-1.2c0-0.7-0.5-1.2-1.2-1.2
				C-33.5,293.6-34,294.1-34,294.8z M-33,295.6h-0.4v-1.5c0.1,0,0.3,0,0.6,0c0.3,0,0.4,0,0.5,0.1c0.1,0.1,0.2,0.2,0.2,0.3
				c0,0.2-0.1,0.3-0.3,0.4v0c0.2,0.1,0.2,0.2,0.3,0.4c0,0.2,0.1,0.3,0.1,0.4h-0.4c0-0.1-0.1-0.2-0.1-0.4c0-0.2-0.1-0.2-0.3-0.2H-33
				V295.6z M-33,294.7h0.2c0.2,0,0.4-0.1,0.4-0.2c0-0.1-0.1-0.2-0.3-0.2c-0.1,0-0.2,0-0.2,0V294.7z"/>
		</g>
	</g>
	<path class="st0" d="M-248,288.5h33v30.3h-33V288.5z M-237.6,293.7h-5.3v5.2h5.3V293.7z M-223.4,293.7h-12.2v10.4h5v-5.3h5.3v5.3v4
		v0.4h-10.3h-1.3h-0.7v-7.8h-5.1v9.6c0,1.8,1.5,3.3,3.3,3.3h11.3h4.8h3.3v-3.3v-4.7V297C-220.1,295.1-221.6,293.7-223.4,293.7z"/>
</g>
</svg>
