<?xml version="1.0" encoding="utf-8"?>
<!-- Generator: Adobe Illustrator 19.0.0, SVG Export Plug-In . SVG Version: 6.00 Build 0)  -->
<svg version="1.1" id="Layer_1" xmlns="http://www.w3.org/2000/svg" xmlns:xlink="http://www.w3.org/1999/xlink" x="0px" y="0px"
	 viewBox="-268 222 255 170" style="enable-background:new -268 222 255 170;" xml:space="preserve">
<style type="text/css">
	.st0{fill:#411B4B;}
</style>
<path class="st0" d="M-155.4,328.7h-17.4v-41.4h18c8.4,0,11.4,6.9,7.1,13.2l-2,3C-135.5,310.9-140.1,328.7-155.4,328.7z
	 M-157.4,305.5l3.5-5.2c0.9-1.3,1.1-2.1,1.1-3c0-2.5-2.2-4.7-4.8-4.7h-5.3v30.5h2.9c4.9,0,8.7-2.7,8.7-8.9
	C-151.4,309.1-153.8,306.4-157.4,305.5z"/>
<path class="st0" d="M-190.4,328.7h-17.4v-41.4h18c8.4,0,11.4,6.9,7.1,13.2l-2,3C-170.5,310.9-175.1,328.7-190.4,328.7z
	 M-192.5,305.5l3.5-5.2c0.9-1.3,1.1-2.1,1.1-3c0-2.5-2.2-4.7-4.8-4.7h-5.3v30.5h2.9c4.9,0,8.7-2.7,8.7-8.9
	C-186.5,309.1-188.9,306.4-192.5,305.5z"/>
<path class="st0" d="M-114.2,287.3h6.5l-12.6,41.4l-9.9,0l-13.5-41.4l7.3,0c2.8,0,3.6,0.7,5,5.4l7.8,26L-114.2,287.3z"/>
<g>
	<g>
		<path class="st0" d="M-87,291.5c-1.2-3.5-2-4.2-5-4.2l-7.9,0l-12.7,41.4h6.5l2.7-8.9h15.1l2.7,8.9h11.2L-87,291.5z M-101.6,313.7
			l5.7-18.9l5.7,18.9H-101.6z"/>
	</g>
</g>
</svg>
