<svg id="elements" xmlns="http://www.w3.org/2000/svg" viewBox="0 0 255 170">
  <defs>
    <style>
      .cls-1 {
        fill: none;
      }

      .cls-2 {
        fill: #421b4b;
        fill-rule: evenodd;
      }
    </style>
  </defs>
  <title>partner-TopLevelDesign</title>
  <rect class="cls-1" width="255" height="170"/>
  <g>
    <path class="cls-2" d="M83,116.17H79.51a.59.59,0,0,0-.57.57v22.53a.56.56,0,0,0,.57.57h1.14a.56.56,0,0,0,.53-.57V129.12H83A4.09,4.09,0,0,0,87.13,125V120.3A4.12,4.12,0,0,0,83,116.17ZM84.85,125A1.82,1.82,0,0,1,83,126.85H81.18v-8.4H83a1.83,1.83,0,0,1,1.82,1.85Z"/>
    <path class="cls-2" d="M65.66,116.17H60.18a.59.59,0,0,0-.57.57v1.14a.56.56,0,0,0,.57.57h1.6v20.82a.56.56,0,0,0,.57.57h1.14a.56.56,0,0,0,.57-.57V118.44h1.6a.56.56,0,0,0,.57-.57v-1.14A.59.59,0,0,0,65.66,116.17Z"/>
    <path class="cls-2" d="M71.89,116.17a4.13,4.13,0,0,0-4.13,4.13v15.45a4.11,4.11,0,0,0,8.22,0V120.3A4.12,4.12,0,0,0,71.89,116.17Zm1.82,19.58a1.83,1.83,0,0,1-3.67,0V120.3a1.83,1.83,0,1,1,3.67,0Z"/>
    <polygon class="cls-2" points="91.39 117.24 89.97 117.24 89.97 139.84 97.07 139.84 97.07 138.55 91.39 138.55 91.39 117.24"/>
    <polygon class="cls-2" points="114.19 137.32 110.22 117.24 108.73 117.24 113.44 140 114.86 140 119.58 117.24 118.16 117.24 114.19 137.32"/>
    <polygon class="cls-2" points="123.71 129.09 129.43 129.09 129.43 127.8 123.71 127.8 123.71 118.53 129.97 118.53 129.97 117.24 122.29 117.24 122.29 139.84 130.07 139.84 130.07 138.55 123.71 138.55 123.71 129.09"/>
    <polygon class="cls-2" points="134.21 117.24 132.78 117.24 132.78 139.84 139.89 139.84 139.89 138.55 134.21 138.55 134.21 117.24"/>
    <polygon class="cls-2" points="100.56 129.09 106.28 129.09 106.28 127.8 100.56 127.8 100.56 118.53 106.83 118.53 106.83 117.24 99.14 117.24 99.14 139.84 106.92 139.84 106.92 138.55 100.56 138.55 100.56 129.09"/>
    <path class="cls-2" d="M164.1,116.17a4.12,4.12,0,0,0-4.09,4.09v1.82a3.18,3.18,0,0,0,.68,2.28l5.13,9c.11.18.11.18.11.57v1.78a1.82,1.82,0,1,1-3.63,0v-1.21a.59.59,0,0,0-.57-.57h-1.14a.59.59,0,0,0-.57.57v1.21a4.09,4.09,0,0,0,8.19,0V134a3.14,3.14,0,0,0-.68-2.24l-5.13-9c-.11-.18-.11-.18-.11-.61v-1.82a1.82,1.82,0,0,1,3.63,0v1.21a.56.56,0,0,0,.57.57h1.14a.56.56,0,0,0,.57-.57v-1.21A4.12,4.12,0,0,0,164.1,116.17Z"/>
    <path class="cls-2" d="M172.5,116.17h-1.14a.59.59,0,0,0-.57.57v22.53a.56.56,0,0,0,.57.57h1.14a.56.56,0,0,0,.57-.57V116.74A.59.59,0,0,0,172.5,116.17Z"/>
    <path class="cls-2" d="M180.12,116.17a4.12,4.12,0,0,0-4.09,4.09v15.49a4.09,4.09,0,0,0,8.19,0v-8.37a.56.56,0,0,0-.57-.57h-3a.56.56,0,0,0-.57.57v1.14a.56.56,0,0,0,.57.57h1.25v6.66a1.82,1.82,0,0,1-3.63,0V120.26a1.82,1.82,0,0,1,3.63,0v1.21a.56.56,0,0,0,.57.57h1.14a.56.56,0,0,0,.57-.57v-1.21A4.12,4.12,0,0,0,180.12,116.17Z"/>
    <path class="cls-2" d="M157.91,116.17h-4.24a1.15,1.15,0,0,0-1.14,1.14V138.7a1.12,1.12,0,0,0,1.14,1.14h4.24a.56.56,0,0,0,.57-.57v-1.14a.59.59,0,0,0-.57-.57h-3.1v-8.4h3.1a.59.59,0,0,0,.57-.57v-1.14a.56.56,0,0,0-.57-.57h-3.1v-8.44h3.1a.56.56,0,0,0,.57-.57v-1.14A.59.59,0,0,0,157.91,116.17Z"/>
    <path class="cls-2" d="M145.48,116.17h-3a1.17,1.17,0,0,0-1.14,1.14V138.7a1.15,1.15,0,0,0,1.14,1.14h3a4.09,4.09,0,0,0,4.09-4.09V120.3A4.1,4.1,0,0,0,145.48,116.17Zm1.82,19.58a1.82,1.82,0,0,1-1.82,1.82h-1.85V118.44h1.85a1.83,1.83,0,0,1,1.82,1.85Z"/>
    <path class="cls-2" d="M191.3,116.17a4.13,4.13,0,0,0-4.13,4.13v19a.56.56,0,0,0,.57.57h1.14a.56.56,0,0,0,.57-.57v-19a1.83,1.83,0,1,1,3.67,0v19a.56.56,0,0,0,.57.57h1.14a.56.56,0,0,0,.57-.57v-19A4.12,4.12,0,0,0,191.3,116.17Z"/>
    <polygon class="cls-2" points="133.42 83.16 158.19 83.16 141.11 53.57 128.72 75.03 133.42 83.16"/>
    <polygon class="cls-2" points="124.03 83.16 130.97 83.16 127.5 77.14 124.03 83.16"/>
    <polygon class="cls-2" points="139.89 51.45 127.5 30 115.11 51.45 127.5 72.91 139.89 51.45"/>
    <polygon class="cls-2" points="126.28 75.03 113.89 53.57 102.57 73.18 96.81 83.16 121.58 83.16 126.28 75.03"/>
    <polygon class="cls-2" points="95.59 85.28 83.2 106.73 107.97 106.73 120.36 85.28 95.59 85.28"/>
    <polygon class="cls-2" points="110.42 106.73 144.58 106.73 132.19 85.28 122.81 85.28 110.42 106.73"/>
    <polygon class="cls-2" points="147.03 106.73 171.8 106.73 159.41 85.28 134.64 85.28 147.03 106.73"/>
  </g>
</svg>
