<?xml version="1.0" encoding="utf-8"?>
<!-- Generator: Adobe Illustrator 19.0.0, SVG Export Plug-In . SVG Version: 6.00 Build 0)  -->
<svg version="1.1" id="Layer_1" xmlns="http://www.w3.org/2000/svg" xmlns:xlink="http://www.w3.org/1999/xlink" x="0px" y="0px"
	 viewBox="-268 222 255 170" style="enable-background:new -268 222 255 170;" xml:space="preserve">
<style type="text/css">
	.st0{fill:#ffffff;}
</style>
<g>
	<g>
		<path class="st0" d="M-167,302.5c0-5.6-3-9.3-7.5-9.3h-12.5v30.4h5.3v-11.5h3.5l5.8,11.5h5.8l-6.3-11.7
			C-169.7,310.9-167,308.1-167,302.5z M-175.3,307.2h-6.5v-8.7h6.5c2.9,0,3.1,2,3.1,4C-172.1,303.9-172.1,307.2-175.3,307.2z"/>
		<path class="st0" d="M-150.6,292.5c-5.9,0-10.4,3-10.8,7c-0.1,1.2-0.1,16.6,0,17.8c0.4,4.1,4.9,7,10.8,7c5.9,0,10.4-3,10.8-7
			c0.1-1.3,0.1-16.5,0-17.8C-140.1,295.4-144.7,292.5-150.6,292.5z M-145.1,316c-0.5,3-3.1,3.2-5.5,3.2c-2.4,0-5-0.3-5.5-3.2
			c-0.1-0.9-0.1-14.3,0-15.2c0.5-3,3.1-3.2,5.5-3.2c2.4,0,5,0.3,5.5,3.2C-145,301.7-145,315.2-145.1,316z"/>
		<path class="st0" d="M-204.5,292.5c-5.9,0-10.4,3-10.8,7c-0.1,1.2-0.1,16.6,0,17.8c0.4,4.1,4.9,7,10.8,7c5.9,0,10.5-3,10.8-7
			c0.1-1.2,0.1-16.6,0-17.8C-194,295.4-198.6,292.5-204.5,292.5z M-199,316c-0.5,3-3.1,3.2-5.5,3.2c-2.4,0-5-0.3-5.5-3.2
			c-0.1-0.9-0.1-14.3,0-15.2c0.5-3,3.1-3.2,5.5-3.2c2.4,0,5,0.3,5.5,3.2C-198.9,301.7-198.9,315.2-199,316z"/>
	</g>
	<polygon class="st0" points="-127.9,311.8 -117.3,311.8 -117.3,306.5 -127.9,306.5 -127.9,298.5 -115.8,298.5 -115.8,293.2
		-133.2,293.2 -133.2,323.6 -127.9,323.6 	"/>
	<polygon class="st0" points="-104.6,318.3 -104.6,293.2 -109.9,293.2 -109.9,323.6 -92.4,323.6 -92.4,318.3 	"/>
	<polygon class="st0" points="-62.5,298.5 -55.1,298.5 -55.1,323.6 -49.8,323.6 -49.8,298.5 -41.7,298.5 -41.7,293.2 -62.5,293.2
		"/>
	<path class="st0" d="M-77.5,292.5c-5.9,0-10.5,3-10.8,7c-0.1,1.3-0.1,16.6,0,17.8c0.4,4.1,4.9,7,10.8,7c5.9,0,10.5-3,10.8-7
		c0.1-1.3,0.1-16.6,0-17.8C-67,295.4-71.6,292.5-77.5,292.5z M-72,316c-0.5,3-3.1,3.2-5.5,3.2c-2.4,0-5-0.3-5.5-3.2
		c-0.1-0.9-0.1-14.3,0-15.2c0.5-3,3.1-3.2,5.5-3.2c2.4,0,5,0.3,5.5,3.2C-71.8,301.7-71.8,315.2-72,316z"/>
</g>
<path class="st0" d="M-239.3,308c0,9.4,3.5,15.8,8.7,16.1c1.1,0.1,2.2,0.1,3.2,0.1c3.5,0,6.5-0.4,7.5-0.5l-1.4-4.9
	c-0.9,0.1-2.9,0.3-5.3,0.3c-0.9,0-1.8,0-2.7-0.1c-3.2-0.2-4.8-3.7-4.8-11c0-6.6,1.7-9.8,4.9-10.1c0.9-0.1,1.7-0.1,2.6-0.1
	c2.2,0,4.5,0.2,5.2,0.3l1.4-4.9c-1.1-0.2-3.6-0.5-7.9-0.5c-0.9,0-1.8,0-2.6,0.1C-235.9,293.2-239.3,298.9-239.3,308z"/>
</svg>
