<svg id="elements" xmlns="http://www.w3.org/2000/svg" viewBox="0 0 255 170">
  <defs>
    <style>
      .cls-1 {
        fill: none;
      }

      .cls-2 {
        fill: #421b4b;
      }
    </style>
  </defs>
  <title>partner-Automattic</title>
  <rect class="cls-1" width="255" height="170"/>
  <g>
    <path class="cls-2" d="M26,77.07,17.5,92.88h3.13l2-3.92h9.28L34,92.88H37.2L28.51,77.07ZM23.77,86.8l3.44-6.65,3.56,6.65Z"/>
    <path class="cls-2" d="M97.27,76.5c-5.6,0-9.23,4-9.23,8.24v.52c0,4.2,3.63,8.24,9.23,8.24s9.26-4,9.26-8.24v-.52C106.53,80.47,102.9,76.5,97.27,76.5Zm6.27,8.66c0,3.06-2.23,5.84-6.27,5.84S91,88.23,91,85.17v-.38C91,81.72,93.24,79,97.27,79s6.27,2.73,6.27,5.79Z"/>
    <path class="cls-2" d="M56.19,86.35c0,2.92-1.54,4.65-5.29,4.65s-5.58-1.73-5.58-4.65V77.07H42.37v9.23c0,4.11,2.63,7.19,8.31,7.19,6,0,8.47-3.28,8.47-7.19V77.07h-3Z"/>
    <polygon class="cls-2" points="65.8 79.54 72.71 79.54 72.71 92.88 75.67 92.88 75.67 79.54 82.58 79.54 82.58 77.07 65.8 77.07 65.8 79.54"/>
    <path class="cls-2" d="M99.23,82a1.16,1.16,0,0,0-1.6.35l-2.71,4.19a1.15,1.15,0,1,0,1.93,1.25l2.71-4.19A1.16,1.16,0,0,0,99.23,82Z"/>
    <path class="cls-2" d="M209.49,78.57V92.88h2.92V77.07h-1.26C211.15,77.93,210.68,78.57,209.49,78.57Z"/>
    <polygon class="cls-2" points="185.4 79.54 192.31 79.54 192.31 92.88 195.28 92.88 195.28 79.54 202.18 79.54 202.18 77.07 185.4 77.07 185.4 79.54"/>
    <path class="cls-2" d="M229.52,91c-4.41,0-6.81-2.8-6.81-5.79v-.31c0-3,2.37-5.91,6.6-5.91a9.23,9.23,0,0,1,6.34,2.54l1.85-1.87a11.32,11.32,0,0,0-8-3.16c-5.79,0-9.75,4-9.75,8.31v.52c0,4.27,3.63,8.17,9.61,8.17a11.8,11.8,0,0,0,8.16-3.16l-1.78-1.87A9.25,9.25,0,0,1,229.52,91Z"/>
    <path class="cls-2" d="M150.39,77.07l-8.54,15.81H145L147,89h9.28l2.09,3.92h3.18l-8.69-15.81Zm-2.28,9.73,3.44-6.65,3.56,6.65Z"/>
    <polygon class="cls-2" points="125.71 87.92 124.97 89.25 124.24 87.92 117.99 77.07 113.89 77.07 113.89 92.88 116.78 92.88 116.78 80.37 117.57 81.75 124.12 92.88 125.57 92.88 132.19 81.75 132.97 80.37 132.97 92.88 135.94 92.88 135.94 77.07 131.88 77.07 125.71 87.92"/>
    <polygon class="cls-2" points="163.64 79.54 170.54 79.54 170.54 92.88 173.51 92.88 173.51 79.54 180.42 79.54 180.42 77.07 163.64 77.07 163.64 79.54"/>
  </g>
</svg>
