<?xml version="1.0" encoding="utf-8"?>
<!-- Generator: Adobe Illustrator 19.0.0, SVG Export Plug-In . SVG Version: 6.00 Build 0)  -->
<svg version="1.1" id="Layer_1" xmlns="http://www.w3.org/2000/svg" xmlns:xlink="http://www.w3.org/1999/xlink" x="0px" y="0px"
	 viewBox="-268 222 255 170" style="enable-background:new -268 222 255 170;" xml:space="preserve">
<style type="text/css">
	.st0{clip-path:url(#SVGID_2_);}
	.st1{clip-path:url(#SVGID_4_);fill:#421B4B;}
	.st2{clip-path:url(#SVGID_6_);}
	.st3{clip-path:url(#SVGID_8_);fill:#421B4B;}
</style>
<g>
	<g>
		<defs>
			<path id="SVGID_1_" d="M-131.4,286.9l5.5-5.5l-5.8-5.7l-5.5,5.5l0,0l-5.8,5.7l-5.5,5.5l5.8,5.7l5.5-5.5l0,0L-131.4,286.9
				L-131.4,286.9z M-102.1,283.7c1.3,2,1.3,4.5,0,6.5l-0.7,1c-1,1.5-1.3,3.2-1,5l0.2,1.2c0.5,2.3-0.5,4.7-2.5,6l-1,0.7
				c-1.5,1-2.5,2.5-2.8,4.2l-0.2,1.2c-0.5,2.3-2.3,4.1-4.6,4.6l-1.2,0.2c-1.7,0.3-3.3,1.4-4.2,2.8l-0.7,1c-1.1,1.6-2.9,2.6-4.8,2.6
				c-0.4,0-0.8,0-1.1-0.1l-1.2-0.2c-0.4-0.1-0.9-0.1-1.3-0.1c-1.3,0-2.6,0.4-3.7,1.1l-1,0.7c-1,0.6-2.1,1-3.2,1
				c-1.2,0-2.3-0.3-3.2-1l-1-0.7c-1.1-0.7-2.4-1.1-3.7-1.1c-0.4,0-0.9,0-1.3,0.1l-1.2,0.2c-0.4,0.1-0.8,0.1-1.1,0.1
				c-1.9,0-3.8-1-4.8-2.6l-0.7-1c-1-1.5-2.5-2.5-4.2-2.8l-1.2-0.2c-2.3-0.5-4.1-2.3-4.6-4.6l-0.2-1.2c-0.3-1.7-1.4-3.2-2.8-4.2
				l-1-0.7c-2-1.3-2.9-3.7-2.5-6l0.2-1.2c0.3-1.7,0-3.5-1-5l-0.7-1c-1.3-2-1.3-4.5,0-6.5l0.7-1c1-1.5,1.3-3.2,1-5l-0.2-1.2
				c-0.5-2.3,0.5-4.7,2.5-6l1-0.7c1.5-1,2.5-2.5,2.8-4.2l0.2-1.2c0.5-2.3,2.3-4.1,4.6-4.6l1.2-0.2c1.7-0.3,3.2-1.4,4.2-2.8l0.7-1
				c1.1-1.6,2.9-2.6,4.8-2.6c0.4,0,0.8,0,1.1,0.1l1.2,0.2c0.4,0.1,0.9,0.1,1.3,0.1c1.3,0,2.6-0.4,3.7-1.1l1-0.7c1-0.6,2.1-1,3.2-1
				c1.2,0,2.3,0.3,3.2,1l1,0.7c1.1,0.7,2.4,1.1,3.7,1.1c0.4,0,0.9,0,1.3-0.1l1.2-0.2c0.4-0.1,0.8-0.1,1.1-0.1c1.9,0,3.8,1,4.8,2.6
				l0.7,1c1,1.5,2.5,2.5,4.2,2.8l1.2,0.2c2.3,0.5,4.1,2.3,4.6,4.6l0.2,1.2c0.3,1.7,1.4,3.2,2.8,4.2l1,0.7c2,1.3,2.9,3.7,2.5,6
				l-0.2,1.2c-0.3,1.7,0,3.5,1,5L-102.1,283.7z M-109.1,277.2l-4,4l-6.3-6.3h0l-5.9-5.9l-6.2-6.2l0,0l0,0c1.7-1.7,4.6-1.7,6.3,0
				c1.5,1.5,1.7,3.8,0.6,5.5l5.8,5.8l5.2-5.1C-111.6,271.4-110.2,274.2-109.1,277.2 M-165.3,296.6l4-4l6.3,6.3l0,0l5.8,5.7l0,0
				l6.3,6.3l-0.5,0.5c-1.7,1.3-4.2,1.1-5.8-0.4c-1.5-1.5-1.7-3.8-0.6-5.5l-5.9-5.8l-5.2,5.1C-162.7,302.3-164.2,299.6-165.3,296.6
				 M-127.4,314.9l-4-4l5.5-5.5l-5.8-5.7l-5.5,5.5l-6.2-6.1l0,0l-6-6l0,0l-6.1-6.1l5.5-5.5l-5.8-5.7l-5.5,5.5l-0.1-0.1
				c-1.6-1.7-1.6-4.5,0.1-6.2c1.6-1.6,4.1-1.7,5.9-0.4l0.4,0.4l0,0l5.8,5.7l5.5,5.5l5.8-5.7l-5.5-5.5l-5.8-5.7h0l-5.9-5.9
				c2.5-1.9,5.2-3.3,8.2-4.4l4,4l-5.5,5.5l5.8,5.7l5.5-5.5l6.3,6.3l0,0l5.8,5.7l0,0l6.3,6.3l-5.5,5.5l5.8,5.7l5.5-5.5l0.4,0.4
				c1.4,1.7,1.3,4.3-0.4,5.9c-1.7,1.7-4.4,1.7-6.1,0.2l-0.2-0.2v0l-5.8-5.7l-5.5-5.5l-5.8,5.7l5.5,5.5l0,0l5.8,5.7l0,0l5.9,5.9
				C-121.7,312.4-124.5,313.9-127.4,314.9"/>
		</defs>
		<clipPath id="SVGID_2_">
			<use xlink:href="#SVGID_1_"  style="overflow:visible;"/>
		</clipPath>
		<g class="st0">
			<defs>
				<rect id="SVGID_3_" x="-288.1" y="206.9" width="300" height="187"/>
			</defs>
			<clipPath id="SVGID_4_">
				<use xlink:href="#SVGID_3_"  style="overflow:visible;"/>
			</clipPath>
			<rect x="-178.2" y="245.9" class="st1" width="82.1" height="82"/>
		</g>
	</g>
	<g>
		<defs>
			<path id="SVGID_5_" d="M-85.8,348.5h8.4c0-2.4-1.6-4-4.2-4C-83.9,344.5-85.4,346.1-85.8,348.5z M-73.2,351.6h-12.6
				c0.3,2.5,2.1,4,4.4,4c2.1,0,3.4-1,4.4-2.3l3,2.3c-1.9,2.4-4.4,3.3-7,3.3c-5,0-9-3.5-9-8.7s4-8.7,9-8.7c4.6,0,7.7,3.3,7.7,9V351.6
				z M-97.6,336.2c0,1.3,1.1,2.5,2.6,2.5s2.7-1.1,2.7-2.5c0-1.4-1.2-2.5-2.7-2.5S-97.6,334.9-97.6,336.2z M-97,358.5h4.1v-16.6H-97
				V358.5z M-112.4,344.6h2.6c2.5,0,5.7-0.1,5.7-3.5c0-3-2.8-3.4-5.2-3.4h-3.1V344.6z M-116.8,358.5v-24.5h8.2c4.7,0,9,1.7,9,7.1
				c0,6.2-4.6,7.3-9.7,7.3h-3.1v10.2H-116.8z M-133.9,350.2c0,2.6,1.8,5,4.8,5c3,0,4.8-2.4,4.8-5s-1.8-5-4.8-5
				C-132.1,345.2-133.9,347.6-133.9,350.2z M-138,350.2c0-5.2,4-8.7,9-8.7c5,0,9,3.5,9,8.7s-4,8.7-9,8.7
				C-134,358.9-138,355.4-138,350.2z M-148.2,345.4v7.6c0,3.9,1,5.9,5.4,5.9c1,0,2.4-0.1,3.3-0.6v-3.5c-0.5,0.4-1.5,0.5-2.2,0.5
				c-1.8,0-2.3-1-2.3-2.7v-7.3h4.5v-3.5h-4.5V337h-4.1v4.8h-3.4v3.5H-148.2z M-166.4,350.2c0,2.6,1.8,5,4.8,5s4.8-2.4,4.8-5
				s-1.8-5-4.8-5S-166.4,347.6-166.4,350.2z M-170.5,350.2c0-5.2,4-8.7,9-8.7c5,0,9,3.5,9,8.7s-4,8.7-9,8.7
				C-166.5,358.9-170.5,355.4-170.5,350.2z M-181.5,358.5h4.1v-8.9c0-0.9,0.5-4.2,4.4-4.2c0.7,0,1.3,0.1,2,0.3v-4
				c-0.5-0.1-1-0.2-1.5-0.2c-2.2,0-4,1.1-4.9,3.1h-0.1v-2.6h-4.1V358.5z M-196.9,344.6h2.6c2.5,0,5.7-0.1,5.7-3.5
				c0-3-2.8-3.4-5.2-3.4h-3.1V344.6z M-201.2,358.5v-24.5h8.2c4.7,0,9,1.7,9,7.1c0,6.2-4.6,7.3-9.7,7.3h-3.1v10.2H-201.2z"/>
		</defs>
		<clipPath id="SVGID_6_">
			<use xlink:href="#SVGID_5_"  style="overflow:visible;"/>
		</clipPath>
		<g class="st2">
			<defs>
				<rect id="SVGID_7_" x="-287.2" y="206.9" width="300" height="187"/>
			</defs>
			<clipPath id="SVGID_8_">
				<use xlink:href="#SVGID_7_"  style="overflow:visible;"/>
			</clipPath>
			<rect x="-206.2" y="328.7" class="st3" width="138" height="35.2"/>
		</g>
	</g>
</g>
</svg>
