<?xml version="1.0" encoding="utf-8"?>
<!-- Generator: Adobe Illustrator 19.0.0, SVG Export Plug-In . SVG Version: 6.00 Build 0)  -->
<svg version="1.1" id="Layer_1" xmlns="http://www.w3.org/2000/svg" xmlns:xlink="http://www.w3.org/1999/xlink" x="0px" y="0px"
	 viewBox="0 0 255 170" style="enable-background:new 0 0 255 170;" xml:space="preserve">
<style type="text/css">
	.st0{fill:#421B4B;}
</style>
<path id="XMLID_18_" class="st0" d="M109.4,71.8v26.4h-4.6V77.5h-0.1l-8.2,20.7h-3l-8.4-20.7h-0.1v20.7h-4.2V71.8h6.6L95,91.4h0.1
	l8-19.5H109.4z M113.2,73.8c0-0.7,0.3-1.4,0.8-1.8c0.5-0.5,1.2-0.7,1.9-0.7c0.8,0,1.4,0.3,1.9,0.8c0.5,0.5,0.8,1.1,0.8,1.8
	c0,0.7-0.3,1.3-0.8,1.8c-0.5,0.5-1.2,0.7-1.9,0.7s-1.4-0.2-1.9-0.7C113.5,75.1,113.2,74.5,113.2,73.8z M118.1,79.3v18.9h-4.4V79.3
	H118.1z M131.6,94.9c0.7,0,1.4-0.2,2.2-0.5c0.8-0.3,1.5-0.7,2.2-1.2v4.1c-0.7,0.4-1.5,0.7-2.4,0.9c-0.9,0.2-1.9,0.3-3,0.3
	c-2.8,0-5-0.9-6.8-2.6c-1.7-1.8-2.6-4-2.6-6.7c0-3,0.9-5.5,2.7-7.5c1.8-2,4.3-3,7.6-3c0.8,0,1.7,0.1,2.5,0.3c0.9,0.2,1.5,0.5,2,0.7
	v4.3c-0.7-0.5-1.4-0.9-2.1-1.2c-0.7-0.3-1.4-0.4-2.2-0.4c-1.8,0-3.2,0.6-4.2,1.7c-1.1,1.1-1.6,2.7-1.6,4.6c0,1.9,0.5,3.4,1.6,4.5
	C128.4,94.4,129.8,94.9,131.6,94.9z M148.7,79c0.4,0,0.7,0,1,0.1c0.3,0,0.5,0.1,0.7,0.2v4.5c-0.2-0.2-0.6-0.3-1-0.5
	c-0.4-0.2-1-0.2-1.6-0.2c-1.1,0-2,0.5-2.8,1.4s-1.1,2.3-1.1,4.2v9.5h-4.4V79.3h4.4v3h0.1c0.4-1,1-1.8,1.8-2.4
	C146.5,79.3,147.5,79,148.7,79z M150.6,89c0-3.1,0.9-5.6,2.6-7.4c1.8-1.8,4.2-2.7,7.4-2.7c3,0,5.3,0.9,6.9,2.6
	c1.7,1.8,2.5,4.1,2.5,7.1c0,3.1-0.9,5.5-2.6,7.3c-1.8,1.8-4.2,2.7-7.2,2.7c-2.9,0-5.3-0.9-7-2.6C151.5,94.3,150.6,92,150.6,89z
	 M155.2,88.9c0,2,0.4,3.5,1.3,4.5c0.9,1,2.2,1.6,3.8,1.6c1.6,0,2.9-0.5,3.7-1.6c0.8-1,1.3-2.6,1.3-4.6c0-2-0.4-3.6-1.3-4.6
	c-0.9-1-2.1-1.6-3.7-1.6c-1.6,0-2.9,0.5-3.8,1.6C155.7,85.3,155.2,86.9,155.2,88.9z M176.6,84.2c0,0.6,0.2,1.1,0.6,1.5
	c0.4,0.4,1.3,0.8,2.7,1.4c1.8,0.7,3,1.5,3.7,2.4c0.7,0.9,1.1,2,1.1,3.2c0,1.8-0.7,3.2-2.1,4.3c-1.4,1.1-3.2,1.6-5.5,1.6
	c-0.8,0-1.7-0.1-2.6-0.3c-0.9-0.2-1.8-0.4-2.4-0.7v-4.4c0.8,0.6,1.7,1,2.6,1.3c0.9,0.3,1.8,0.5,2.5,0.5c1,0,1.7-0.1,2.2-0.4
	s0.7-0.8,0.7-1.4c0-0.6-0.2-1.1-0.7-1.6c-0.5-0.4-1.4-0.9-2.8-1.5c-1.6-0.7-2.8-1.5-3.5-2.3c-0.7-0.9-1-1.9-1-3.3
	c0-1.7,0.7-3.1,2-4.2c1.4-1.1,3.1-1.6,5.3-1.6c0.7,0,1.4,0.1,2.2,0.2c0.8,0.1,1.5,0.3,2.1,0.6v4.2c-0.6-0.4-1.3-0.7-2.1-1
	c-0.8-0.3-1.6-0.4-2.3-0.4c-0.8,0-1.5,0.2-2,0.5C176.9,83.2,176.6,83.7,176.6,84.2z M186.6,89c0-3.1,0.9-5.6,2.6-7.4
	c1.8-1.8,4.2-2.7,7.4-2.7c3,0,5.3,0.9,6.9,2.6c1.7,1.8,2.5,4.1,2.5,7.1c0,3.1-0.9,5.5-2.6,7.3c-1.8,1.8-4.2,2.7-7.2,2.7
	c-2.9,0-5.3-0.9-7-2.6C187.5,94.3,186.6,92,186.6,89z M191.3,88.9c0,2,0.4,3.5,1.3,4.5c0.9,1,2.2,1.6,3.8,1.6c1.6,0,2.9-0.5,3.7-1.6
	c0.8-1,1.3-2.6,1.3-4.6c0-2-0.4-3.6-1.3-4.6c-0.9-1-2.1-1.6-3.7-1.6c-1.6,0-2.9,0.5-3.8,1.6C191.7,85.3,191.3,86.9,191.3,88.9z
	 M220.8,82.9h-6.6v15.3h-4.5V82.9h-3.2v-3.6h3.2v-2.6c0-2,0.6-3.6,1.9-4.9c1.3-1.3,3-1.9,5-1.9c0.5,0,1,0,1.4,0.1
	c0.4,0.1,0.8,0.1,1.1,0.2V74c-0.1-0.1-0.4-0.2-0.8-0.3c-0.4-0.1-0.8-0.2-1.3-0.2c-0.9,0-1.6,0.3-2.2,0.9c-0.5,0.6-0.8,1.4-0.8,2.6
	v2.3h6.6V75l4.5-1.4v5.6h4.5v3.6h-4.5v8.8c0,1.2,0.2,2,0.6,2.5c0.4,0.5,1.1,0.7,2,0.7c0.3,0,0.6-0.1,0.9-0.2
	c0.4-0.1,0.7-0.3,0.9-0.4V98c-0.3,0.2-0.8,0.3-1.4,0.4s-1.3,0.2-1.9,0.2c-1.9,0-3.3-0.5-4.2-1.5c-0.9-1-1.4-2.5-1.4-4.5V82.9z"/>
<g id="XMLID_13_">
	<rect id="XMLID_17_" x="23.7" y="63" class="st0" width="20.9" height="20.9"/>
	<rect id="XMLID_16_" x="46.8" y="63" class="st0" width="20.9" height="20.9"/>
	<rect id="XMLID_15_" x="23.7" y="86.1" class="st0" width="20.9" height="20.9"/>
	<rect id="XMLID_14_" x="46.8" y="86.1" class="st0" width="20.9" height="20.9"/>
</g>
</svg>
