<?xml version="1.0" encoding="utf-8"?>
<!-- Generator: Adobe Illustrator 19.0.0, SVG Export Plug-In . SVG Version: 6.00 Build 0)  -->
<svg version="1.1" id="Layer_1" xmlns="http://www.w3.org/2000/svg" xmlns:xlink="http://www.w3.org/1999/xlink" x="0px" y="0px"
	 viewBox="-268 222 255 170" style="enable-background:new -268 222 255 170;" xml:space="preserve">
<style type="text/css">
	.st0{fill:#421B4B;}
	.st1{clip-path:url(#SVGID_6_);fill:none;}
	.st2{clip-path:url(#SVGID_6_);fill:#421B4B;}
</style>
<g>
	<g>
		<g>
			<path id="SVGID_1_" class="st0" d="M-213.3,297.8c0,2.3-1.8,4-5.1,4h-5v-7.9h5C-215,293.9-213.3,295.5-213.3,297.8L-213.3,297.8
				L-213.3,297.8z M-202.7,321.7l-8.8-14.5c3.6-1.7,6.1-4.9,6.1-9.8c0-7.1-5.8-11.3-12.8-11.3h-13v35.6h7.9v-12.8h4.1l7.7,12.8
				H-202.7L-202.7,321.7L-202.7,321.7z M-183,306.3h-11.4c0.4-2.2,2.5-4.5,5.7-4.5C-185.4,301.8-183.3,304.1-183,306.3L-183,306.3
				L-183,306.3z M-176,311.5c0.1-0.6,0.2-1.8,0.2-2.7c0-7.3-5.3-13.3-13.1-13.3c-7.6,0-13.1,6-13.1,13.4c0,8.4,6.4,13.6,13.4,13.6
				c4.7,0,9-2.5,11.5-6.1l-6-3.1c-1.3,1.5-3,2.6-5.4,2.6c-3.1,0-5.3-1.8-5.7-4.3h18.2V311.5L-176,311.5z M-155.5,312
				c0,0.7,0,1-0.4,1.7c-1,1.7-3.8,2.6-5.6,2.6c-1.9,0-3.7-0.6-3.7-2.4c0-2.3,2.8-2.8,4.8-3.2c2.3-0.5,3.2-0.6,4.8-0.9L-155.5,312
				L-155.5,312L-155.5,312z M-155.5,321.7h7.2v-15.8c0-5.2-3.4-10.4-11.4-10.4c-7.2,0-10.9,4.2-11.9,7.3l6.9,1.3
				c0.6-1.1,2.3-2.3,4.6-2.3c2.9,0,4.6,1.5,4.6,3c-1.5,0.2-7.5,1.2-9.1,1.5c-4.6,0.9-8.1,3.4-8.1,8.3c0,4.4,3.9,7.8,8.9,7.8
				c3.5,0,5.8-1.2,7.9-3.2h0.4V321.7L-155.5,321.7L-155.5,321.7z M-127.3,306.5l9.5-10.2h-9.3l-8.2,8.6v-18.4h-7.4v35.3h7.4v-6.7
				l2.8-3V312l9.6,15.7h8.7L-127.3,306.5L-127.3,306.5L-127.3,306.5z M-106.1,322.5c3.1,0,5.6-0.7,6.4-1v-6.2
				c-0.5,0.1-2.4,0.5-4.1,0.5c-2.4,0-3.5-1.6-3.5-4v-9.4h7.2v-6h-7.2v-6.5h-7.4V314C-114.7,319.1-111.1,322.5-106.1,322.5
				L-106.1,322.5L-106.1,322.5z M-77.2,308.8c0,4.3-2.8,7.1-6.3,7.1c-3.6,0-6.3-2.7-6.3-7.1c0-4.3,3-6.9,6.3-6.9
				S-77.2,304.5-77.2,308.8L-77.2,308.8L-77.2,308.8z M-70,308.8c0-7.5-5.9-13.3-13.5-13.3c-7.5,0-13.5,5.9-13.5,13.3
				c0,8.5,6.6,13.6,13.5,13.6C-76.5,322.4-70,317.3-70,308.8L-70,308.8L-70,308.8z M-50.7,303.1v-7.6c-3.6,0-6.8,2.2-7.8,3.7v-3
				h-7.4v25.4h7.4v-12.2C-58.5,305.2-55.3,303.1-50.7,303.1L-50.7,303.1L-50.7,303.1z"/>
		</g>
		<g>
			<path id="SVGID_2_" class="st0" d="M-231.5,285.9"/>
		</g>
		<g>
			<defs>
				<path id="SVGID_3_" d="M-213.3,297.8c0,2.3-1.8,4-5.1,4h-5v-7.9h5C-215,293.9-213.3,295.5-213.3,297.8L-213.3,297.8
					L-213.3,297.8z M-202.7,321.7l-8.8-14.5c3.6-1.7,6.1-4.9,6.1-9.8c0-7.1-5.8-11.3-12.8-11.3h-13v35.6h7.9v-12.8h4.1l7.7,12.8
					H-202.7L-202.7,321.7L-202.7,321.7z M-183,306.3h-11.4c0.4-2.2,2.5-4.5,5.7-4.5C-185.4,301.8-183.3,304.1-183,306.3L-183,306.3
					L-183,306.3z M-176,311.5c0.1-0.6,0.2-1.8,0.2-2.7c0-7.3-5.3-13.3-13.1-13.3c-7.6,0-13.1,6-13.1,13.4c0,8.4,6.4,13.6,13.4,13.6
					c4.7,0,9-2.5,11.5-6.1l-6-3.1c-1.3,1.5-3,2.6-5.4,2.6c-3.1,0-5.3-1.8-5.7-4.3h18.2V311.5L-176,311.5z M-155.5,312
					c0,0.7,0,1-0.4,1.7c-1,1.7-3.8,2.6-5.6,2.6c-1.9,0-3.7-0.6-3.7-2.4c0-2.3,2.8-2.8,4.8-3.2c2.3-0.5,3.2-0.6,4.8-0.9L-155.5,312
					L-155.5,312L-155.5,312z M-155.5,321.7h7.2v-15.8c0-5.2-3.4-10.4-11.4-10.4c-7.2,0-10.9,4.2-11.9,7.3l6.9,1.3
					c0.6-1.1,2.3-2.3,4.6-2.3c2.9,0,4.6,1.5,4.6,3c-1.5,0.2-7.5,1.2-9.1,1.5c-4.6,0.9-8.1,3.4-8.1,8.3c0,4.4,3.9,7.8,8.9,7.8
					c3.5,0,5.8-1.2,7.9-3.2h0.4V321.7L-155.5,321.7L-155.5,321.7z M-127.3,306.5l9.5-10.2h-9.3l-8.2,8.6v-18.4h-7.4v35.3h7.4v-6.7
					l2.8-3V312l9.6,15.7h8.7L-127.3,306.5L-127.3,306.5L-127.3,306.5z M-106.1,322.5c3.1,0,5.6-0.7,6.4-1v-6.2
					c-0.5,0.1-2.4,0.5-4.1,0.5c-2.4,0-3.5-1.6-3.5-4v-9.4h7.2v-6h-7.2v-6.5h-7.4V314C-114.7,319.1-111.1,322.5-106.1,322.5
					L-106.1,322.5L-106.1,322.5z M-77.2,308.8c0,4.3-2.8,7.1-6.3,7.1c-3.6,0-6.3-2.7-6.3-7.1c0-4.3,3-6.9,6.3-6.9
					S-77.2,304.5-77.2,308.8L-77.2,308.8L-77.2,308.8z M-70,308.8c0-7.5-5.9-13.3-13.5-13.3c-7.5,0-13.5,5.9-13.5,13.3
					c0,8.5,6.6,13.6,13.5,13.6C-76.5,322.4-70,317.3-70,308.8L-70,308.8L-70,308.8z M-50.7,303.1v-7.6c-3.6,0-6.8,2.2-7.8,3.7v-3
					h-7.4v25.4h7.4v-12.2C-58.5,305.2-55.3,303.1-50.7,303.1L-50.7,303.1L-50.7,303.1z"/>
			</defs>
			<clipPath id="SVGID_4_">
				<use xlink:href="#SVGID_3_"  style="overflow:visible;"/>
			</clipPath>
		</g>
		<g>
			<defs>
				<path id="SVGID_5_" d="M-213.3,297.8c0,2.3-1.8,4-5.1,4h-5v-7.9h5C-215,293.9-213.3,295.5-213.3,297.8L-213.3,297.8
					L-213.3,297.8z M-202.7,321.7l-8.8-14.5c3.6-1.7,6.1-4.9,6.1-9.8c0-7.1-5.8-11.3-12.8-11.3h-13v35.6h7.9v-12.8h4.1l7.7,12.8
					H-202.7L-202.7,321.7L-202.7,321.7z M-183,306.3h-11.4c0.4-2.2,2.5-4.5,5.7-4.5C-185.4,301.8-183.3,304.1-183,306.3L-183,306.3
					L-183,306.3z M-176,311.5c0.1-0.6,0.2-1.8,0.2-2.7c0-7.3-5.3-13.3-13.1-13.3c-7.6,0-13.1,6-13.1,13.4c0,8.4,6.4,13.6,13.4,13.6
					c4.7,0,9-2.5,11.5-6.1l-6-3.1c-1.3,1.5-3,2.6-5.4,2.6c-3.1,0-5.3-1.8-5.7-4.3h18.2V311.5L-176,311.5z M-155.5,312
					c0,0.7,0,1-0.4,1.7c-1,1.7-3.8,2.6-5.6,2.6c-1.9,0-3.7-0.6-3.7-2.4c0-2.3,2.8-2.8,4.8-3.2c2.3-0.5,3.2-0.6,4.8-0.9L-155.5,312
					L-155.5,312L-155.5,312z M-155.5,321.7h7.2v-15.8c0-5.2-3.4-10.4-11.4-10.4c-7.2,0-10.9,4.2-11.9,7.3l6.9,1.3
					c0.6-1.1,2.3-2.3,4.6-2.3c2.9,0,4.6,1.5,4.6,3c-1.5,0.2-7.5,1.2-9.1,1.5c-4.6,0.9-8.1,3.4-8.1,8.3c0,4.4,3.9,7.8,8.9,7.8
					c3.5,0,5.8-1.2,7.9-3.2h0.4V321.7L-155.5,321.7L-155.5,321.7z M-127.3,306.5l9.5-10.2h-9.3l-8.2,8.6v-18.4h-7.4v35.3h7.4v-6.7
					l2.8-3V312l9.6,15.7h8.7L-127.3,306.5L-127.3,306.5L-127.3,306.5z M-106.1,322.5c3.1,0,5.6-0.7,6.4-1v-6.2
					c-0.5,0.1-2.4,0.5-4.1,0.5c-2.4,0-3.5-1.6-3.5-4v-9.4h7.2v-6h-7.2v-6.5h-7.4V314C-114.7,319.1-111.1,322.5-106.1,322.5
					L-106.1,322.5L-106.1,322.5z M-77.2,308.8c0,4.3-2.8,7.1-6.3,7.1c-3.6,0-6.3-2.7-6.3-7.1c0-4.3,3-6.9,6.3-6.9
					S-77.2,304.5-77.2,308.8L-77.2,308.8L-77.2,308.8z M-70,308.8c0-7.5-5.9-13.3-13.5-13.3c-7.5,0-13.5,5.9-13.5,13.3
					c0,8.5,6.6,13.6,13.5,13.6C-76.5,322.4-70,317.3-70,308.8L-70,308.8L-70,308.8z M-50.7,303.1v-7.6c-3.6,0-6.8,2.2-7.8,3.7v-3
					h-7.4v25.4h7.4v-12.2C-58.5,305.2-55.3,303.1-50.7,303.1L-50.7,303.1L-50.7,303.1z"/>
			</defs>
			<clipPath id="SVGID_6_">
				<use xlink:href="#SVGID_5_"  style="overflow:visible;"/>
			</clipPath>
			<path class="st1" d="M-231.5,285.9"/>
			<rect x="-232.7" y="284.7" class="st2" width="183.6" height="44.7"/>
		</g>
	</g>
</g>
</svg>
