<svg id="elements" xmlns="http://www.w3.org/2000/svg" viewBox="0 0 255 170">
  <defs>
    <style>
      .cls-1 {
        fill: none;
      }

      .cls-2 {
        fill: #421b4b;
      }
    </style>
  </defs>
  <title>partner-BBVA</title>
  <rect class="cls-1" width="255" height="170"/>
  <g>
    <path class="cls-2" d="M119.24,80.69l2-2.9c4.13-6.13,1.29-12.79-6.87-12.79H96.91v40H113.7C128.47,105,132.93,87.79,119.24,80.69ZM109.16,99.63h-2.84V70.22h5.13a4.63,4.63,0,0,1,4.62,4.49,4.73,4.73,0,0,1-1,2.91l-3.34,5c3.49.84,5.81,3.49,5.81,8.45C117.52,97.06,113.91,99.63,109.16,99.63Z"/>
    <path class="cls-2" d="M85.41,80.69l2-2.9C91.5,71.65,88.65,65,80.49,65H63.08v40h16.8C94.65,105,99.1,87.79,85.41,80.69ZM75.33,99.63H72.49V70.22h5.13a4.64,4.64,0,0,1,4.62,4.49,4.74,4.74,0,0,1-1,2.91l-3.33,5c3.48.84,5.81,3.49,5.81,8.45C83.69,97.06,80.08,99.63,75.33,99.63Z"/>
    <path class="cls-2" d="M153.43,65l-9,30.37-7.57-25.14C135.4,65.7,134.68,65,132,65h-7.07L138,105h9.6l12.19-40Z"/>
    <path class="cls-2" d="M179.78,69.09c-1.12-3.34-1.88-4.08-4.84-4.08H167.3l-12.23,40h6.24l2.62-8.63h14.55l2.64,8.63h10.81ZM165.68,90.5l5.46-18.24,5.54,18.24Z"/>
  </g>
</svg>
