<?xml version="1.0" encoding="utf-8"?>
<!-- Generator: Adobe Illustrator 19.0.0, SVG Export Plug-In . SVG Version: 6.00 Build 0)  -->
<svg version="1.1" id="Layer_1" xmlns="http://www.w3.org/2000/svg" xmlns:xlink="http://www.w3.org/1999/xlink" x="0px" y="0px"
	 viewBox="0 0 255 170" style="enable-background:new 0 0 255 170;" xml:space="preserve">
<style type="text/css">
	.st0{fill:#421B4B;}
</style>
<path id="XMLID_11_" class="st0" d="M113.2,74c-1.6-0.9-3.9-1.3-7-1.3c-4.4,0-8.4,0.9-10,1.5c-0.3,0.1-0.7,0.4-0.7,0.9l0,0.1
	l0.4,2.2l0,0c0.1,0.4,0.5,0.6,0.8,0.6h0c0.1,0,0.2,0,0.3,0l0.7-0.2c1.9-0.5,4.8-1.2,8-1.2c1.9,0,3.3,0.2,4.1,0.5
	c1.4,0.5,1.4,1.5,1.4,3v2.3c-0.2,0-0.4,0-0.9,0c-1.6,0-4.7,0.1-7.7,0.6c-4.6,0.7-8.5,1.8-8.5,8.2c0,8.1,7.5,8.1,11.1,8.1h0
	c2.5,0,4.7-0.4,6.2-0.7c3.4-0.8,4.2-1.9,4.2-5.2V80.1C115.8,78,115.8,75.4,113.2,74 M111.3,94.9c-1.8,0.6-3.8,0.9-5.8,0.9V96l0-0.2
	c-3.3,0-6.6-0.4-6.6-4.7c0-3.4,1.8-3.8,4.1-4.3l0.2,0c2-0.4,7.1-0.5,8.2-0.5L111.3,94.9z M153.4,80.1v13.5c0,3.4-0.8,4.4-4.2,5.2
	c-1.5,0.3-3.7,0.7-6.2,0.7h0c-3.6,0-11.1,0-11.1-8.1c0-6.4,3.8-7.5,8.5-8.2c3-0.5,6.1-0.6,7.7-0.6c0.4,0,0.7,0,0.9,0v-2.3
	c0-1.5,0-2.4-1.4-3c-0.9-0.4-2.2-0.5-4.1-0.5c-3.2,0-6.1,0.7-8,1.2l-0.7,0.2c-0.1,0-0.2,0-0.3,0h0c-0.3,0-0.7-0.2-0.8-0.6l0,0
	l-0.4-2.2l0-0.1c0-0.5,0.4-0.8,0.7-0.9c1.5-0.6,5.6-1.5,10-1.5c3.2,0,5.5,0.4,7,1.3C153.5,75.4,153.5,78,153.4,80.1 M149,86.3
	c-1.1,0-6.1,0.1-8.2,0.5l-0.2,0c-2.3,0.5-4.1,0.9-4.1,4.3c0,4.2,3.3,4.6,6.6,4.7l0,0.2v-0.2c2.1,0,4-0.3,5.8-0.9L149,86.3z
	 M221.6,72.8c-10.5,0-11.4,6.9-11.4,13.4c0,6.4,0.9,13.3,11.4,13.3h0c10.5,0,11.4-6.9,11.4-13.3C233,79.4,232.1,72.8,221.6,72.8
	 M221.6,95.7c-6.4,0-6.7-3.3-6.7-9.5c0-6.3,0.4-9.6,6.7-9.6c6.4,0,6.7,3.3,6.7,9.6C228.3,92.4,228,95.6,221.6,95.7 M202.8,98.5
	l-0.3,0.1c-1.5,0.4-3.5,0.9-7,0.9l0,0h0c-9.7,0-11.6-4.9-11.6-13.4c0-9.7,3.1-13.3,11.3-13.3c2.9,0,4.9,0.4,6.4,0.7l0-7.8
	c0-0.3,0.1-0.8,1-0.9l2.6-0.7h0.1c0.6,0,0.8,0.5,0.8,1v29.3C206.1,96.3,205.9,97.8,202.8,98.5 M201.6,77.2c-0.9-0.2-3.3-0.8-6-0.8
	c-5,0-7.1,1.4-7.1,9.6c0.1,9.1,2.8,9.5,7.1,9.6l0,0.2v-0.2c2.7,0,5.1-0.6,5.9-0.8L201.6,77.2z M178.4,98.8h-2.3
	c-0.6,0-1.1-0.5-1.1-1.1V80.3c0-2.9-0.9-3.8-4.1-3.8c-3.6,0-7.2,0.9-8.4,1.2v20c0,0.6-0.4,1.1-1,1.1h-2.4c-0.6,0-1.1-0.5-1.1-1.1
	V78.2c0-1.8,0.1-3.1,2.7-3.9c2.5-0.8,7.2-1.6,10.3-1.6c5.9,0,8.5,2.1,8.5,7.2v17.8C179.5,98.4,179,98.8,178.4,98.8 M126.2,99.3
	L126.2,99.3c1.3,0,2.3-0.3,2.7-0.7c0.1-0.2,0.2-0.3,0.2-0.5c0-0.1,0-0.1-0.4-1.8l0,0c-0.1-0.4-0.4-0.6-0.7-0.6c0,0,0,0,0,0
	c0,0-0.3,0-0.7,0h0c-0.9,0-1.7-0.2-1.7-1.5V65.1c0-0.5-0.3-1-0.8-1l-0.2,0l-2.6,0.7c-0.4,0-0.9,0.4-0.9,0.9v28.4
	C121.1,97.4,123,99.3,126.2,99.3L126.2,99.3z M89.8,98.8H71.3c-0.6,0-1.1-0.5-1.1-1.1v-2.3c0-0.6,0.2-0.8,0.5-1.2l14.7-17.1H71
	c-0.6,0-1.1-0.5-1.1-1.1v-1.6c0-0.6,0.5-1.1,1.1-1.1h18.7c0.6,0,1.1,0.5,1.1,1.1v2.3c0,0.4-0.1,0.8-0.5,1.1L75.5,95.1h14.2
	c0.6,0,1.1,0.5,1.1,1.1v1.6C90.8,98.4,90.4,98.8,89.8,98.8"/>
<path id="XMLID_10_" class="st0" d="M57.1,80.2c-3-3.7-7.3-7.3-12.8-10.6l0,0c-5.6-3.2-10.9-5.1-15.6-5.8c-3-0.5-4.4,0.1-5,0.4
	c-0.6,0.4-1.8,1.3-2.9,4.1c-1.7,4.5-2.7,10-2.8,16.4v0c0,6.4,1.1,11.9,2.8,16.4c1.1,2.8,2.3,3.8,2.9,4.1c0.6,0.4,2.1,0.9,5,0.5
	c4.7-0.8,10-2.6,15.6-5.8l0,0c5.6-3.3,9.8-6.9,12.8-10.6c1.9-2.3,2.1-3.8,2.1-4.6C59.3,84.1,59,82.6,57.1,80.2z"/>
</svg>
