<svg id="elements" xmlns="http://www.w3.org/2000/svg" viewBox="0 0 255 170">
  <defs>
    <style>
      .cls-1 {
        fill: #421b4b;
      }

      .cls-2 {
        fill: none;
      }
    </style>
  </defs>
  <title>partner-GoodPatch</title>
  <g>
    <path class="cls-1" d="M53.73,78.73H42.93a2.36,2.36,0,1,0,0,4.72h8.91c-.9,3.82-3.59,7.51-9.47,7.51-5.44,0-9.7-4.32-9.7-10.14s4.26-10.14,9.7-10.14a9.52,9.52,0,0,1,6.73,2.67c1.19,1.2,2.65,1.49,3.8.62a2.48,2.48,0,0,0,.18-3.78,14,14,0,0,0-10.7-4.35,15,15,0,0,0,0,30c8,0,13.77-5.3,14.53-13.71A3,3,0,0,0,53.73,78.73Z"/>
    <path class="cls-1" d="M184.23,90.69a23.89,23.89,0,0,1-2.82.54c-1.77,0-2.83-1.31-2.83-3.5V79.19h4.57a2.22,2.22,0,1,0,0-4.43h-4.57v-4.4h0v0a2.37,2.37,0,1,0-4.73,0v4.43h-1.56a2.22,2.22,0,1,0,0,4.43h1.56v8.62c0,5.33,2.5,8,7.23,8a8.8,8.8,0,0,0,4.08-1A2.28,2.28,0,0,0,186.32,92,2,2,0,0,0,184.23,90.69Z"/>
    <path class="cls-1" d="M119.33,85a2.68,2.68,0,0,0,2.95,2.77h5.88a2.77,2.77,0,1,0,0-5.53h-5.88A2.68,2.68,0,0,0,119.33,85Z"/>
    <path class="cls-1" d="M93.13,74.2A10.8,10.8,0,1,0,104.18,85,10.68,10.68,0,0,0,93.13,74.2Zm0,17A6.23,6.23,0,1,1,99.23,85,6,6,0,0,1,93.13,91.23Z"/>
    <path class="cls-1" d="M219.37,74.2a8.57,8.57,0,0,0-5.58,2.19v-8a2.37,2.37,0,1,0-4.73,0V92.72a2.37,2.37,0,1,0,4.73,0V84.09c0-3.11,1.93-5.28,4.69-5.28s4.46,1.89,4.46,5.05v9a2.28,2.28,0,1,0,4.56,0V82.42C227.5,77.42,224.31,74.2,219.37,74.2Z"/>
    <path class="cls-1" d="M165.81,74.76a2.15,2.15,0,0,0-2.23,2.3,10.73,10.73,0,0,0-7.12-2.87c-5.69,0-10.15,4.74-10.15,10.8a11,11,0,0,0,3.06,7.82,9.9,9.9,0,0,0,7.09,3,10.41,10.41,0,0,0,7.12-2.87,2.23,2.23,0,1,0,4.46-.07V77.13A2.16,2.16,0,0,0,165.81,74.76Zm-8.49,16.47a6.24,6.24,0,0,1,0-12.48,6.24,6.24,0,0,1,0,12.48Z"/>
    <path class="cls-1" d="M69.41,74.2a10.8,10.8,0,1,0,0,21.6,10.8,10.8,0,1,0,0-21.6Zm0,17A6.23,6.23,0,1,1,75.51,85,6,6,0,0,1,69.41,91.23Z"/>
    <path class="cls-1" d="M121.08,91.09h-4.28a6.09,6.09,0,0,1,0-12.19h3.51a2.81,2.81,0,0,0,3-2.81v-6a2.44,2.44,0,1,0-4.86,0V74.2h-1.67a10.8,10.8,0,1,0,0,21.6h4.28a2.36,2.36,0,1,0,0-4.71Z"/>
    <path class="cls-1" d="M133.63,74.11h-4.28a2.36,2.36,0,1,0,0,4.71h4.28a6.09,6.09,0,0,1,0,12.19h-3.51a2.81,2.81,0,0,0-3,2.81v6a2.44,2.44,0,1,0,4.86,0V95.71h1.67a10.8,10.8,0,1,0,0-21.6Z"/>
    <path class="cls-1" d="M205.65,88.64c-1.3-1.08-2.76-.45-3.67.61a5.28,5.28,0,0,1-4.27,2c-3.44,0-5.84-2.56-5.84-6.23s2.41-6.23,5.85-6.22a5.77,5.77,0,0,1,4.42,2.07,2.39,2.39,0,0,0,3.24.1,2.36,2.36,0,0,0,.11-3.35,10,10,0,0,0-7.77-3.4c-6.36,0-10.8,4.44-10.8,10.8s4.44,10.8,10.8,10.8a9.86,9.86,0,0,0,8.21-3.95A2.31,2.31,0,0,0,205.65,88.64Z"/>
  </g>
  <rect class="cls-2" width="255" height="170"/>
</svg>
