<?xml version="1.0" encoding="utf-8"?>
<!-- Generator: Adobe Illustrator 19.0.0, SVG Export Plug-In . SVG Version: 6.00 Build 0)  -->
<svg version="1.1" id="Layer_1" xmlns="http://www.w3.org/2000/svg" xmlns:xlink="http://www.w3.org/1999/xlink" x="0px" y="0px"
	 viewBox="-484 312 255 170" style="enable-background:new -484 312 255 170;" xml:space="preserve">
<style type="text/css">
	.st0{fill:#421B4B;}
</style>
<g>
	<g>
		<path class="st0" d="M-391,425h3.4c1.4,0,2.1,0.8,2.1,1.8c0,0.7-0.3,1.2-0.9,1.5c0.8,0.4,1.3,1.1,1.3,1.9c0,1.3-1,2.2-2.5,2.2
			h-3.5V425z M-388.1,428c0.7,0,1.1-0.3,1.1-0.8c0-0.5-0.3-0.8-0.9-0.8h-1.5v1.7H-388.1z M-387.5,431.2c0.5,0,1-0.3,1-0.9
			c0-0.6-0.4-1-1.1-1h-1.8v1.9H-387.5z"/>
		<path class="st0" d="M-383.1,425h5.2v1.3h-3.6v1.7h3.4v1.3h-3.4v1.9h3.7v1.3h-5.3V425z"/>
		<path class="st0" d="M-375.9,425h1.5v6.1h3.5v1.3h-5.1V425z"/>
		<path class="st0" d="M-368.9,425h1.5v6.1h3.5v1.3h-5.1V425z"/>
		<path class="st0" d="M-361.8,425h5.2v1.3h-3.6v1.7h3.4v1.3h-3.4v1.9h3.7v1.3h-5.3V425z"/>
		<path class="st0" d="M-351.2,424.9c1.6,0,2.5,0.7,3.1,2l-1.4,0.6c-0.3-0.8-0.8-1.3-1.7-1.3c-1.2,0-1.9,1-1.9,2.5
			c0,1.5,0.8,2.5,2,2.5c0.8,0,1.3-0.4,1.7-1.1l1.3,0.6c-0.6,1.1-1.5,1.7-3,1.7c-2.3,0-3.6-1.5-3.6-3.8
			C-354.7,426.5-353.4,424.9-351.2,424.9z"/>
		<path class="st0" d="M-343.1,424.9c2.1,0,3.6,1.5,3.6,3.8c0,2.3-1.5,3.8-3.6,3.8c-2.1,0-3.6-1.5-3.6-3.8
			C-346.7,426.5-345.3,424.9-343.1,424.9z M-343.1,431.2c1.2,0,2-1,2-2.5c0-1.5-0.8-2.5-2-2.5c-1.2,0-2,1-2,2.5
			C-345.2,430.2-344.3,431.2-343.1,431.2z"/>
		<path class="st0" d="M-337.5,425h1.5v4.4c0,1.2,0.7,1.8,1.6,1.8c0.9,0,1.6-0.6,1.6-1.8V425h1.5v4.5c0,2-1.3,3-3.1,3
			c-1.9,0-3.1-1-3.1-3V425z"/>
		<path class="st0" d="M-329,425h3.4c1.5,0,2.4,0.9,2.4,2.2c0,1.2-0.5,2-1.8,2.3c0.2,0.1,0.3,0.2,0.6,0.7l1.8,2.2h-1.9l-1.4-1.7
			c-0.9-1-1-1.1-1.5-1.1h-0.1v2.8h-1.5V425z M-326,428.4c0.8,0,1.2-0.4,1.2-1c0-0.6-0.4-1.1-1.1-1.1h-1.6v2.1H-326z"/>
	</g>
	<g>
		<path class="st0" d="M-391,438.9h3.2v0.8h-2.2v1h2.1v0.8h-2.1v1.2h2.3v0.8h-3.2V438.9z"/>
		<path class="st0" d="M-373,438.9c1,0,1.5,0.4,1.9,1.2l-0.9,0.4c-0.2-0.5-0.5-0.8-1.1-0.8c-0.8,0-1.2,0.6-1.2,1.5
			c0,0.9,0.5,1.5,1.2,1.5c0.5,0,0.8-0.2,1-0.7l0.8,0.4c-0.4,0.7-0.9,1-1.9,1c-1.4,0-2.2-0.9-2.2-2.3
			C-375.2,439.8-374.4,438.9-373,438.9z"/>
		<path class="st0" d="M-356.6,438.9c1.3,0,2.2,0.9,2.2,2.3c0,1.4-0.9,2.3-2.2,2.3c-1.3,0-2.2-0.9-2.2-2.3
			C-358.8,439.8-357.9,438.9-356.6,438.9z M-356.6,442.7c0.7,0,1.2-0.6,1.2-1.5c0-0.9-0.5-1.5-1.2-1.5c-0.7,0-1.3,0.6-1.3,1.5
			C-357.8,442.1-357.3,442.7-356.6,442.7z"/>
		<path class="st0" d="M-341.7,438.9h1v3.8h2.2v0.8h-3.1V438.9z"/>
		<path class="st0" d="M-325.9,438.9h3.2v0.8h-2.2v1h2.1v0.8h-2.1v1.2h2.3v0.8h-3.2V438.9z"/>
	</g>
	<rect x="-391" y="437.2" class="st0" width="3.1" height="0.5"/>
	<path class="st0" d="M-343.9,418.5c14.6,0,21.2-7.2,21.2-17.6c0-7.2-3.3-13.2-10.2-16.1c6.5-3.1,9.3-8.9,9.3-15.9
		c0-10.4-6.6-17.6-21.2-17.6H-391v67.2H-343.9z M-343.8,411.2h-39.9v-52.5h39.1c8.5,0,13,3.7,13,11.3c0,7.2-3.6,11.2-12.6,11.2
		h-24.5v-7.7h29v-7.2H-376v37.2h37.5v-7.3h-30.2v-7.7h25.4c9,0,12.7,4.1,12.7,11.2C-330.7,407.4-335.2,411.2-343.8,411.2z"/>
</g>
</svg>
