<svg id="Calque_1" data-name="Calque 1" xmlns="http://www.w3.org/2000/svg" viewBox="0 0 255 170">
  <defs>
    <style>
      .cls-1 {
        fill: none;
      }

      .cls-2 {
        fill: #421b4b;
      }
    </style>
  </defs>
  <title>partner-Mirage-Festival</title>
  <rect class="cls-1" width="255" height="170"/>
  <g>
    <polygon class="cls-2" points="124.19 69.61 128.68 80.23 131.05 80.23 135.54 69.61 135.54 80.38 137.81 80.38 137.81 64.61 135.33 64.61 129.86 77.86 124.38 64.61 121.92 64.61 121.92 80.38 124.19 80.38 124.19 69.61"/>
    <rect class="cls-2" x="142.19" y="69.22" width="2.23" height="11.16"/>
    <path class="cls-2" d="M143.26,66.9a1.6,1.6,0,0,0,1.16-.46,1.54,1.54,0,0,0,.47-1.15,1.56,1.56,0,0,0-.47-1.16,1.59,1.59,0,0,0-1.16-.47,1.54,1.54,0,0,0-1.14.47,1.68,1.68,0,0,0,0,2.31A1.55,1.55,0,0,0,143.26,66.9Z"/>
    <path class="cls-2" d="M150.9,75.18a5.72,5.72,0,0,1,.24-1.77,3.17,3.17,0,0,1,.63-1.16,2.28,2.28,0,0,1,1-.63,3.67,3.67,0,0,1,1.2-.19,5,5,0,0,1,.59,0l.54.09V69.22a2.85,2.85,0,0,0-.72-.08,6,6,0,0,0-.93.07,3.43,3.43,0,0,0-.92.28,3.49,3.49,0,0,0-.84.56,4.31,4.31,0,0,0-.75.89V69.22h-2.27V80.38h2.27Z"/>
    <path class="cls-2" d="M168.59,69.22h-2.23v1.52a4.06,4.06,0,0,0-1.4-1.22,4.61,4.61,0,0,0-2.26-.51,5.23,5.23,0,0,0-2.13.44,5.18,5.18,0,0,0-1.73,1.22,5.73,5.73,0,0,0-1.15,1.84,6.44,6.44,0,0,0,0,4.57,5.77,5.77,0,0,0,1.14,1.83,5.29,5.29,0,0,0,1.71,1.23,5.2,5.2,0,0,0,2.16.45,4.66,4.66,0,0,0,2.23-.48,4.27,4.27,0,0,0,1.46-1.27l.43,1.54h2.13l-.35-2.11Zm-2.41,7a3.76,3.76,0,0,1-.72,1.15,3.06,3.06,0,0,1-1.07.75,3.36,3.36,0,0,1-1.33.26,3.49,3.49,0,0,1-1.33-.25,3.2,3.2,0,0,1-1.08-.73,3.4,3.4,0,0,1-.73-1.14,4.23,4.23,0,0,1,0-3,3.31,3.31,0,0,1,.74-1.13,3.27,3.27,0,0,1,1.08-.72,3.51,3.51,0,0,1,1.32-.25,3.31,3.31,0,0,1,2.38,1,3.47,3.47,0,0,1,1,2.51A4,4,0,0,1,166.18,76.22Z"/>
    <path class="cls-2" d="M180.26,85.52A4.67,4.67,0,0,0,183,82.65a6,6,0,0,0,.32-1.95V69.22h-2.23v1.52a4,4,0,0,0-1.4-1.22A4.61,4.61,0,0,0,177.4,69a5.23,5.23,0,0,0-2.13.44,5.18,5.18,0,0,0-1.73,1.22,5.73,5.73,0,0,0-1.15,1.84,6.44,6.44,0,0,0,0,4.57,5.76,5.76,0,0,0,1.14,1.83,5.28,5.28,0,0,0,1.71,1.23,5.2,5.2,0,0,0,2.16.45,4.6,4.6,0,0,0,2.22-.48,4.3,4.3,0,0,0,1.45-1.27V80.7a3.13,3.13,0,0,1-.84,2.25,3.25,3.25,0,0,1-2.46.88,3.83,3.83,0,0,1-2.14-.59,2.57,2.57,0,0,1-1.12-1.82l-2.27.61a4.33,4.33,0,0,0,.7,1.65,4.83,4.83,0,0,0,1.26,1.23,5.92,5.92,0,0,0,1.66.77,6.79,6.79,0,0,0,1.92.27A6.47,6.47,0,0,0,180.26,85.52Zm.62-9.29a3.74,3.74,0,0,1-.72,1.15,3.06,3.06,0,0,1-1.07.75,3.36,3.36,0,0,1-1.33.26,3.49,3.49,0,0,1-1.33-.25,3.21,3.21,0,0,1-1.08-.73,3.4,3.4,0,0,1-.73-1.14,4.23,4.23,0,0,1,0-3,3.31,3.31,0,0,1,.74-1.13,3.27,3.27,0,0,1,1.08-.72,3.51,3.51,0,0,1,1.32-.25,3.31,3.31,0,0,1,2.38,1,3.47,3.47,0,0,1,1,2.51A4,4,0,0,1,180.89,76.22Z"/>
    <path class="cls-2" d="M192.39,80.59a6.16,6.16,0,0,0,2.89-.61,5.88,5.88,0,0,0,2-1.7l-1.7-1.22a3.06,3.06,0,0,1-1.25,1.12,4.11,4.11,0,0,1-1.91.42,3.69,3.69,0,0,1-1.19-.19,3,3,0,0,1-1-.57,2.93,2.93,0,0,1-.71-.9,2.75,2.75,0,0,1-.29-1.18h8.48a7.17,7.17,0,0,0,.06-.94,6.53,6.53,0,0,0-.41-2.35,5.55,5.55,0,0,0-1.13-1.83,5,5,0,0,0-1.73-1.19,5.67,5.67,0,0,0-2.22-.42,5.36,5.36,0,0,0-2.16.44,5.48,5.48,0,0,0-1.76,1.21,5.62,5.62,0,0,0-1.18,1.83,6.45,6.45,0,0,0,0,4.65A5.56,5.56,0,0,0,188.4,79a5.35,5.35,0,0,0,1.8,1.19A5.82,5.82,0,0,0,192.39,80.59Zm-2.84-7.88a2.85,2.85,0,0,1,.65-.87,3.26,3.26,0,0,1,.93-.58,3,3,0,0,1,1.14-.21,3.36,3.36,0,0,1,1.22.21,3.13,3.13,0,0,1,1,.58,2.71,2.71,0,0,1,.64.87,3.1,3.1,0,0,1,.28,1.11h-6.13A3,3,0,0,1,189.55,72.7Z"/>
    <polygon class="cls-2" points="122.13 106.12 124.4 106.12 124.4 99.1 131.53 99.1 131.53 97.03 124.4 97.03 124.4 92.43 132.73 92.43 132.73 90.36 122.13 90.36 122.13 106.12"/>
    <path class="cls-2" d="M144.26,96.37a5,5,0,0,0-1.73-1.19,5.68,5.68,0,0,0-2.22-.42,5.36,5.36,0,0,0-2.16.44,5.45,5.45,0,0,0-1.76,1.21,5.61,5.61,0,0,0-1.18,1.83,6.44,6.44,0,0,0,0,4.65,5.57,5.57,0,0,0,1.22,1.84,5.34,5.34,0,0,0,1.8,1.19,5.82,5.82,0,0,0,2.19.41,6.16,6.16,0,0,0,2.89-.61,5.87,5.87,0,0,0,2-1.7l-1.7-1.22a3,3,0,0,1-1.25,1.12,4.11,4.11,0,0,1-1.91.42,3.68,3.68,0,0,1-1.19-.19,3,3,0,0,1-1-.57,2.94,2.94,0,0,1-.71-.9,2.78,2.78,0,0,1-.29-1.18h8.48a7,7,0,0,0,.06-.94,6.51,6.51,0,0,0-.41-2.35A5.56,5.56,0,0,0,144.26,96.37Zm-7,3.18a3,3,0,0,1,.29-1.11,2.84,2.84,0,0,1,.65-.87,3.24,3.24,0,0,1,.93-.58,3,3,0,0,1,1.14-.21,3.36,3.36,0,0,1,1.22.21,3.14,3.14,0,0,1,1,.58,2.72,2.72,0,0,1,.64.87,3.1,3.1,0,0,1,.28,1.11Z"/>
    <path class="cls-2" d="M154.36,99.81l-1.88-.57a2.58,2.58,0,0,1-1-.54,1,1,0,0,1-.3-.75,1.09,1.09,0,0,1,.45-.9,2,2,0,0,1,1.25-.35A2,2,0,0,1,155,98.36l2-.75a3.91,3.91,0,0,0-.42-1,3.25,3.25,0,0,0-.8-.91,4.25,4.25,0,0,0-1.23-.65,5.19,5.19,0,0,0-1.73-.26,4.68,4.68,0,0,0-1.49.24,4,4,0,0,0-1.27.68,3.47,3.47,0,0,0-.89,1.05,3,3,0,0,0,.41,3.35,4.55,4.55,0,0,0,2,1.17l1.91.6a4,4,0,0,1,1.07.51.89.89,0,0,1,.36.76,1.11,1.11,0,0,1-.49.92,2.28,2.28,0,0,1-1.37.36,2.6,2.6,0,0,1-1.79-.53,2.27,2.27,0,0,1-.72-1.43c-.38.14-.72.28-1,.41l-1,.43a3.65,3.65,0,0,0,1.46,2.22,5.85,5.85,0,0,0,4.87.54,4.19,4.19,0,0,0,1.29-.76,2.92,2.92,0,0,0,.76-1,3,3,0,0,0,.24-1.16Q157.17,100.72,154.36,99.81Z"/>
    <path class="cls-2" d="M164.77,90.89l-2.27.86V95h-2.77v2h2.77v5.9a3.47,3.47,0,0,0,.29,1.45,3.19,3.19,0,0,0,.79,1.08,3.45,3.45,0,0,0,1.2.69,4.69,4.69,0,0,0,1.53.24,3.94,3.94,0,0,0,.67-.05,5.18,5.18,0,0,0,.64-.16v-1.92l-.48.07a3.45,3.45,0,0,1-.48,0,3,3,0,0,1-.66-.07,1.69,1.69,0,0,1-.6-.26,1.43,1.43,0,0,1-.44-.5,1.59,1.59,0,0,1-.17-.77V97h4V95h-4Z"/>
    <path class="cls-2" d="M172.77,89.41a1.54,1.54,0,0,0-1.14.47,1.68,1.68,0,0,0,0,2.31,1.55,1.55,0,0,0,1.15.46,1.6,1.6,0,0,0,1.16-.46A1.54,1.54,0,0,0,174.4,91a1.57,1.57,0,0,0-.47-1.16A1.58,1.58,0,0,0,172.77,89.41Z"/>
    <rect class="cls-2" x="171.7" y="94.97" width="2.23" height="11.16"/>
    <polygon class="cls-2" points="182.57 103.72 179.16 94.97 176.66 94.97 181.22 106.12 183.92 106.12 188.39 94.97 185.98 94.97 182.57 103.72"/>
    <path class="cls-2" d="M201.34,95h-2.23v1.52a4,4,0,0,0-1.4-1.22,4.6,4.6,0,0,0-2.26-.51,5.23,5.23,0,0,0-2.13.44,5.18,5.18,0,0,0-1.73,1.22,5.74,5.74,0,0,0-1.15,1.84,6.45,6.45,0,0,0,0,4.57,5.77,5.77,0,0,0,1.14,1.83,5.29,5.29,0,0,0,1.71,1.23,5.2,5.2,0,0,0,2.16.45,4.67,4.67,0,0,0,2.23-.48,4.28,4.28,0,0,0,1.46-1.27l.43,1.54h2.13l-.35-2.11Zm-2.41,7a3.76,3.76,0,0,1-.72,1.15,3.08,3.08,0,0,1-1.07.75,3.36,3.36,0,0,1-1.33.26,3.5,3.5,0,0,1-1.33-.25,3.22,3.22,0,0,1-1.09-.73,3.41,3.41,0,0,1-.73-1.14,4.23,4.23,0,0,1,0-3,3.33,3.33,0,0,1,1.83-1.85,3.51,3.51,0,0,1,1.32-.25,3.32,3.32,0,0,1,2.38,1,3.47,3.47,0,0,1,1,2.51A4,4,0,0,1,198.93,102Z"/>
    <rect class="cls-2" x="205.52" y="89.6" width="2.23" height="16.52"/>
    <path class="cls-2" d="M79.25,53a32,32,0,1,0,32,32A32,32,0,0,0,79.25,53ZM97.92,96.42a1.69,1.69,0,1,1-3.38,0V88.74l-5.85-4,3.15-2.15,2.7,1.84V77.73L80.94,87V107.2a1.69,1.69,0,1,1-3.38,0V87L64,77.73V96.42a1.69,1.69,0,1,1-3.38,0v-22c0-.59.65-1.24,1.24-1.58a2.19,2.19,0,0,1,2,.07l16,11,4.05-2.76-5.25-3.59A1.87,1.87,0,0,1,78.16,75a1.64,1.64,0,0,1,2.35-.54l6.75,4.34,6.41-4.38L78.92,64.32a1.88,1.88,0,0,1-.49-2.49A1.69,1.69,0,0,1,79.48,61a1.57,1.57,0,0,1,1.25.25L97.49,72.9h0c.41.28.43.76.43,1.52Z"/>
  </g>
</svg>
