<?xml version="1.0" encoding="UTF-8"?>
<svg width="255px" height="170px" viewBox="0 0 255 170" version="1.1" xmlns="http://www.w3.org/2000/svg" xmlns:xlink="http://www.w3.org/1999/xlink">
    <!-- Generator: Sketch 48.1 (47250) - http://www.bohemiancoding.com/sketch -->
    <title>Untitled 2</title>
    <desc>Created with Sketch.</desc>
    <defs></defs>
    <g id="Page-1" stroke="none" stroke-width="1" fill="none" fill-rule="evenodd">
        <g id="partner-Villefontaine2">
            <rect id="Rectangle-path" x="0" y="0" width="255" height="170"></rect>
            <g id="g4471-5-40-4" transform="translate(127.222634, 84.652394) scale(-1, 1) rotate(-180.000000) translate(-127.222634, -84.652394) translate(29.222634, 54.652394)" fill-rule="nonzero">
                <g id="g4851">
                    <path d="M112.449149,32.8605216 C112.812379,32.8605216 113.144098,32.7222816 113.38357,32.4706176 C113.630174,32.2120416 113.755776,31.8601056 113.737598,31.4846496 C113.685826,30.6730656 112.986058,30.0131136 112.177464,30.0131136 C111.809174,30.0131136 111.474922,30.1511136 111.236827,30.4013856 C110.99437,30.6560736 110.870837,31.0029696 110.888779,31.3728576 C110.940811,32.1934176 111.641006,32.8605216 112.449149,32.8605216 Z M109.814717,28.9325856 C109.521878,27.9110016 109.58675,27.0184416 110.006117,26.3367936 C110.379005,25.7472096 110.984011,25.4014656 111.706118,25.3634976 C113.226682,25.2673536 113.215176,24.9910656 113.210578,24.8707776 C113.176978,24.4272576 112.792598,24.0665376 112.353216,24.0665376 C112.155154,24.0665376 111.95939,24.0814176 111.776736,24.1102176 C111.625138,24.4872576 111.263741,24.7536576 110.868533,24.7536576 C110.868533,24.7536576 110.868144,24.7536576 110.867573,24.7536576 L110.822021,24.7536576 C110.284882,24.7536576 109.844808,24.3151776 109.819968,23.7543456 L109.804272,23.3770656 C109.779408,22.9505856 110.028101,22.5578976 110.411122,22.4044896 C110.988067,22.1500416 111.641606,22.0209696 112.352894,22.0209696 C113.850917,22.0209696 115.144666,23.2402176 115.237133,24.7414656 C115.325251,26.3687616 114.179179,27.2596896 111.832315,27.3903456 C111.758208,27.3951456 111.734544,27.4109856 111.733627,27.4129056 C111.693115,27.4826016 111.648091,27.6795456 111.695899,27.9999936 C111.85164,27.9783936 112.012666,27.9678336 112.177147,27.9678336 C114.10189,27.9678336 115.75979,29.5930656 115.797298,31.5109056 C115.80829,31.8263136 115.76053,32.1543456 115.654891,32.4918336 L115.78993,32.4918336 C116.349154,32.4918336 116.804635,32.9468256 116.804635,33.5063136 C116.804635,34.0648416 116.339717,34.5366336 115.78993,34.5366336 L113.976523,34.5366336 C113.500795,34.7671296 112.974922,34.8883776 112.448818,34.8883776 C110.56847,34.8883776 108.95197,33.3599616 108.845006,31.4784576 C108.796526,30.5106816 109.147502,29.5962816 109.8144,28.9317216 L109.814717,28.9325856 Z" id="path16-3-5-0-3-1" stroke="#421B4B" stroke-width="0.510629822" fill="#421B4B"></path>
                    <path d="M97.4932752,27.9510336 C97.2938256,27.9510336 97.08564,27.9678336 96.8889504,27.9985536 C96.7263216,28.3585536 96.36768,28.6060896 95.9756928,28.6060896 C95.9754576,28.6060896 95.9752224,28.6060896 95.9752128,28.6060896 L95.9322048,28.6060896 C95.3794128,28.6060896 94.9124352,28.1340576 94.9124352,27.5755296 L94.9124352,27.1918176 C94.9124352,26.7496896 95.1712272,26.3668896 95.5712688,26.2171296 C96.1449984,26.0018016 96.8634048,25.8734496 97.4934912,25.8734496 C99.1838352,25.8734496 100.458485,27.1067136 100.458485,28.7383776 C100.476821,30.5918016 98.8456656,31.1162976 97.9636944,31.3999776 C96.8772048,31.7620416 96.8772048,31.8630336 96.8772048,32.1572256 C96.8866608,32.7125856 97.3773168,32.7956256 97.6692384,32.7956256 C97.884096,32.7956256 98.0662944,32.7869856 98.2270848,32.7682656 C98.4028416,32.4296256 98.7591696,32.2039776 99.1559904,32.2039776 C99.7147584,32.2039776 100.18657,32.6755296 100.18657,33.2342976 L100.18657,33.6177696 C100.18657,34.0649856 99.894192,34.4682336 99.485184,34.5961536 C98.7833232,34.8361056 98.0462784,34.8719616 97.6692384,34.8719616 C96.0069696,34.8719616 94.800408,33.7394976 94.800408,32.1828096 C94.781784,30.2290656 96.441288,29.7048096 97.3301616,29.4243936 C98.381448,29.0846016 98.381448,28.9916736 98.381448,28.7420736 C98.381448,28.0070976 97.701912,27.9498336 97.4934912,27.9498336" id="path18-6-4-4-1-9" stroke="#421B4B" stroke-width="0.510629822" fill="#421B4B"></path>
                    <path d="M86.9585568,31.5000576 C87.1784784,32.0958816 87.7034208,32.9401056 88.909296,32.9401056 C89.756544,32.9401056 90.4825488,32.3222496 90.6753216,31.5000576 L86.9585568,31.5000576 Z M92.6410128,30.6181056 L92.6571408,31.1276256 C92.6897808,32.0666496 92.3281776,32.9771616 91.6385184,33.6919296 C90.9134352,34.4425056 89.9189664,34.8731616 88.90932,34.8731616 C86.6611296,34.8731616 84.9261648,33.1073856 84.8734848,30.7669536 L84.8575968,30.1421376 C84.8311488,28.9482336 85.237392,27.8603616 86.0018256,27.0784896 C86.7312768,26.3329056 87.746904,25.9222656 88.8614544,25.9222656 C90.7148928,25.9222656 91.8586464,26.9742816 91.8579648,26.9742816 C92.0578656,27.1495776 92.1777168,27.3931776 92.1947472,27.6604896 C92.2122192,27.9312096 92.1218496,28.1939136 91.94124,28.3984416 C91.7926368,28.5682176 91.5683376,28.6542336 91.274808,28.6542336 C90.981048,28.6542336 90.6976368,28.5670656 90.6665856,28.5571776 L90.5961984,28.5317376 L90.5437344,28.4918976 C90.3739728,28.3612416 89.7505584,27.9356736 88.8614544,27.9356736 C87.7910784,27.9356736 87.0521856,28.5891936 86.8996656,29.6315136 L91.6270032,29.6315136 C92.17956,29.6315136 92.615256,30.0533856 92.6410176,30.6183936 L92.6410128,30.6181056 Z" id="path20-7-7-6-4-4" stroke="#421B4B" stroke-width="0.510629822" fill="#421B4B"></path>
                    <path d="M125.770114,32.1011616 C125.450587,32.1011616 125.15015,31.9610976 124.948181,31.7188416 C124.494542,31.1821536 123.927254,31.1513376 123.383438,31.6187616 C122.74139,32.1651456 122.033102,32.4422976 121.278797,32.4422976 C120.16379,32.4422976 119.224766,31.8232896 118.719821,31.2465696 C118.529126,31.0319616 118.434346,30.7568256 118.453901,30.4720416 C118.473485,30.1911456 118.601131,29.9314176 118.814827,29.7418656 C119.238341,29.3653056 119.927774,29.4138336 120.299515,29.8327296 C120.373363,29.9134656 120.766498,30.3153696 121.254408,30.3153696 C121.503542,30.3153696 121.754299,30.2072736 122.000894,29.9933376 C122.636731,29.4460416 123.381139,29.1568896 124.153613,29.1568896 C124.153613,29.1568896 124.153613,29.1568896 124.153848,29.1568896 C125.085278,29.1568896 125.951842,29.5836096 126.599866,30.3650496 C126.965861,30.8285856 126.899837,31.4858016 126.442286,31.8672096 C126.251122,32.0181216 126.012115,32.1011616 125.770114,32.1011616" id="path22-5-6-2-6-7" stroke="#421B4B" stroke-width="0.510629822" fill="#421B4B"></path>
                    <path d="M104.715408,34.7132736 L104.203565,34.7132736 C103.607986,34.7132736 103.141699,34.2467616 103.141699,33.6509376 C103.141699,33.2764416 103.330099,32.9451936 103.631688,32.7570336 L103.509067,27.2079936 C103.497355,26.9204256 103.600627,26.6480736 103.800528,26.4421536 C103.993992,26.2425216 104.25647,26.1265536 104.540112,26.1146016 L104.55552,26.1143616 C105.136373,26.1143616 105.609782,26.5670976 105.633715,27.1520736 L105.77772,33.6196896 C105.789144,33.9039936 105.685934,34.1754336 105.485578,34.3836576 C105.284515,34.5932256 105.003869,34.7132736 104.715398,34.7132736" id="path24-3-5-6-9-8" stroke="#421B4B" stroke-width="0.510629822" fill="#421B4B"></path>
                    <path d="M74.0314176,36.2495136 L75.983088,36.2495136 C77.4847872,36.2495136 78.6902016,35.8289856 79.468656,35.0337216 C80.1468192,34.3406016 80.477616,33.3889536 80.45208,32.2056096 C80.3789232,29.2776576 78.0851952,28.2387936 76.1429616,28.2387936 L73.8414048,28.2387936 L74.0314176,36.2495136 Z M82.5928368,32.1566016 C82.6300848,33.9044736 82.083072,35.4070656 81.0110784,36.5020896 C79.8293616,37.7093376 78.0437904,38.3741376 75.983088,38.3741376 L72.4822368,38.3741376 C71.8864752,38.3741376 71.4199344,37.9076256 71.4199344,37.3118016 C71.4199344,36.9554976 71.6080848,36.6194016 71.8942032,36.4263936 L71.6920272,27.2081856 C71.6801712,26.9238816 71.7835824,26.6524416 71.9835312,26.4440256 C72.1844496,26.2344576 72.4652592,26.1143616 72.7539792,26.1143616 L76.1429616,26.1143616 C79.9158576,26.1143616 82.5077232,28.5422016 82.5928368,32.1566016 Z" id="path26-5-6-75-4-4" stroke="#421B4B" stroke-width="0.510629822" fill="#421B4B"></path>
                    <path d="M106.1382,38.0965056 C106.06271,38.4107136 105.864451,38.6775936 105.575981,38.8505376 C105.385978,38.9614176 105.169963,39.0201216 104.950733,39.0201216 C104.5224,39.0201216 104.144443,38.8024896 103.942008,38.4408576 L103.748774,38.1024576 C103.420733,37.5165696 103.600627,36.8025216 104.148806,36.4823136 C104.335608,36.3656736 104.55,36.3038016 104.768539,36.3038016 C105.181694,36.3038016 105.561955,36.5167776 105.785323,36.8745216 L105.992818,37.2089856 C106.159594,37.4765376 106.211587,37.7917056 106.1382,38.0965056" id="path28-6-9-6-2-5" stroke="#421B4B" stroke-width="0.510629822" fill="#421B4B"></path>
                    <g id="g4454-3-9-2-0" transform="translate(68.936586, 0.444475)" fill="#421B4B" stroke="#421B4B" stroke-width="0.5">
                        <path d="M93.5048725,4.72553286 C94.1309199,4.72553286 94.6399756,5.23414487 94.6399756,5.85979088 C94.6399756,6.23095132 94.4565765,6.57054004 94.1675934,6.77812751 L94.2538901,10.2969955 C94.274276,11.215987 94.0204242,11.9515689 93.5004574,12.4839257 C92.8838318,13.1144306 91.9138017,13.4346368 90.6175973,13.4346368 C89.8235195,13.4346368 88.8163089,13.1421892 88.1585419,12.9012766 C87.9513453,13.1025265 87.6747627,13.2185148 87.3733896,13.2185148 L86.8791955,13.2185148 C86.2432404,13.2185148 85.7455818,12.7203598 85.7455818,12.0844046 C85.7455818,11.7136456 85.9260128,11.3731168 86.217964,11.1589805 L86.1009828,5.87851843 C86.0880964,5.57358572 86.2020672,5.27289918 86.4127707,5.05332312 C86.6249212,4.83219435 86.9114221,4.71020648 87.1979231,4.71020648 C87.1987681,4.71020648 87.1987681,4.71020648 87.2000356,4.71020648 L87.2480956,4.70936147 C87.8503348,4.70936147 88.3430395,5.19205277 88.3698052,5.81863885 L88.4714177,10.5821021 C89.0949829,10.8344012 90.111119,11.1665116 90.6181994,11.1665116 C91.0970248,11.1665116 91.6155023,11.1363025 91.8331031,10.9117303 C91.8737693,10.870536 91.9966761,10.7451787 91.9857755,10.350622 L91.8782056,5.89453139 C91.8653192,5.58627144 91.9748537,5.29465821 92.1860325,5.07413151 C92.3991653,4.85261193 92.6995561,4.72562792 93.0113334,4.72562792 L93.5055274,4.72562792" id="path50-6-7-8-6-3"></path>
                        <path d="M62.1161008,10.9121317 C62.1557106,10.8705149 62.2786808,10.74558 62.2682661,10.3505269 L62.1592174,5.89289418 C62.1483379,5.58365191 62.2588231,5.29322169 62.4705089,5.07305412 C62.6836523,4.85251686 62.9840325,4.72553286 63.2943205,4.72553286 L63.7885145,4.72553286 C64.4140654,4.72553286 64.9231211,5.23414487 64.9231211,5.85979088 C64.9231211,6.23095132 64.7407044,6.57054004 64.4517318,6.77812751 L64.5369723,10.2969955 C64.5583088,11.21548 64.3044992,11.9510619 63.7840465,12.4834293 C63.1679174,13.1144306 62.1973802,13.4346368 60.9006795,13.4346368 C60.1070981,13.4346368 59.0998875,13.1421892 58.4421205,12.9012766 C58.2349344,13.1025265 57.9578448,13.2185148 57.6564717,13.2185148 L57.1622882,13.2185148 C56.5367373,13.2185148 56.0281781,12.7094591 56.0281781,12.0844046 C56.0281781,11.7136456 56.2090949,11.3726098 56.5010461,11.1589805 L56.3850578,5.87952188 C56.3712208,5.57477929 56.4851916,5.27330056 56.6958528,5.05371394 C56.9080034,4.83219435 57.1850824,4.73847209 57.4819981,4.71020648 L57.5300581,4.70936147 C58.1332902,4.70936147 58.6259948,5.19205277 58.6522641,5.81863885 L58.7538767,10.5821021 C59.3784347,10.8344012 60.3945708,11.1665116 60.9006583,11.1665116 C61.3794837,11.1665116 61.8979612,11.1363025 62.1160585,10.9122267" id="path52-2-4-7-4-6"></path>
                        <path d="M76.9432943,8.07735276 L76.9080151,6.79359121 L75.7590433,6.79359121 C75.5146768,6.79359121 75.2866612,6.88326798 75.1325101,7.03930979 C75.0051141,7.16982171 74.9426573,7.33091246 74.9461324,7.52031107 C74.9556387,8.03670774 75.5820875,8.07735276 75.7744014,8.07735276 L76.9432098,8.07735276 L76.9432943,8.07735276 Z M75.7744859,10.1140929 C74.1516426,10.1140929 72.9471536,9.04441483 72.9104696,7.56988152 C72.8931469,6.83117306 73.1642475,6.13682768 73.6738101,5.61542431 C74.2071598,5.06898751 74.9670253,4.75631238 75.7591278,4.75631238 L78.3847243,4.75631238 C78.9845024,4.75631238 79.4732356,5.24405262 79.4732356,5.84387299 C79.4732356,6.20617138 79.2908294,6.53243005 79.0003569,6.72855706 L79.0870762,10.7906931 C79.1024976,11.4598571 78.8560819,12.0893585 78.3916428,12.5647193 C77.8706831,13.0985655 77.1197326,13.4048925 76.3296263,13.4048925 C75.4676308,13.4048925 74.4073852,12.9354889 74.3607934,12.91467 C73.8145467,12.6678212 73.5701801,12.0224442 73.8165325,11.4742223 C73.9875521,11.0935449 74.3711976,10.8471926 74.7940093,10.8471926 C74.9536213,10.8471926 75.1057972,10.8814155 75.2331825,10.9418338 C75.5846225,11.0920345 76.0599728,11.2437139 76.3296263,11.2437139 C76.5254153,11.2437139 76.7311226,11.1669236 76.8426429,11.0528682 C76.9021106,10.9909712 76.9278834,10.9274686 76.925454,10.8456716 L76.907075,10.1140612 L75.7744542,10.1140612 L75.7744859,10.1140929 Z" id="path54-6-5-2-1-1"></path>
                        <path d="M66.9717547,11.0514211 L66.8869368,7.15335456 C66.8690859,6.3993831 67.1223885,5.71495603 67.6012138,5.22527226 C68.0800392,4.73405691 68.7615827,4.46336826 69.518987,4.46336826 C70.0225923,4.46336826 70.6020374,4.58882067 71.1814824,4.82966988 C71.7351652,5.08256049 71.9869679,5.7526752 71.7381333,6.33261668 C71.552252,6.74309125 71.1492664,7.00817114 70.7100931,7.00817114 C70.5480201,7.00817114 70.3913762,6.97246943 70.2545689,6.9074036 C70.1450344,6.85839297 69.7975554,6.7315991 69.518987,6.7315991 C69.3777223,6.7315991 69.269656,6.75990696 69.2220713,6.80828383 C69.174962,6.85655508 69.1511961,6.95950908 69.1551042,7.09929499 L69.2522805,10.9502628 L70.3526958,10.9502628 C70.9782362,10.9502628 71.4872918,11.4588325 71.4872918,12.0843729 C71.4872918,12.7094169 70.9782362,13.2184831 70.3526958,13.2184831 L69.2934325,13.2184831 L69.3083258,13.717631 C69.3207897,14.0145361 69.2170647,14.2985653 69.0168605,14.5166626 C68.8096638,14.7416996 68.522677,14.8735529 68.1900702,14.8869358 C67.5729482,14.8869358 67.0678641,14.403653 67.0405914,13.7820736 L67.0212618,13.141154 C66.5984395,12.9755953 66.2990522,12.5641912 66.2990522,12.0843729 C66.2990522,11.6258701 66.5721702,11.2298241 66.9716914,11.0513789" id="path56-1-2-8-2-0"></path>
                        <path d="M98.3139453,10.129451 C98.5444325,10.6593361 99.0336621,11.305199 100.038898,11.305199 C100.761107,11.305199 101.386151,10.8090298 101.603256,10.129451 L98.3139453,10.129451 Z M100.038898,13.3890274 C97.8068648,13.3890274 96.0848807,11.6373094 96.0318351,9.31654 L96.0164137,8.71230445 C95.9901127,7.52958506 96.3936265,6.45053794 97.1520132,5.67525108 C97.8771909,4.93326821 98.8853944,4.52531811 99.9917459,4.52531811 C101.812871,4.52531811 102.96086,5.5687269 102.959868,5.5687269 C103.1745,5.75713263 103.302868,6.01874798 103.320719,6.30589321 C103.339098,6.59572136 103.241922,6.87785991 103.04909,7.09546076 C102.936081,7.22518048 102.718469,7.37993365 102.323912,7.37993365 C102.024018,7.37993365 101.735542,7.29215815 101.703326,7.28138426 L101.552629,7.20100261 C101.396006,7.08001819 100.822011,6.68500732 99.9917459,6.68500732 C99.0608609,6.68500732 98.4045833,7.22965904 98.2256522,8.10759359 L102.664441,8.10759359 C103.256773,8.10759359 103.725194,8.55965325 103.752445,9.1668569 L103.767867,9.65807225 C103.800083,10.5944182 103.440721,11.5024985 102.753717,12.2137969 C102.033493,12.9602795 101.043626,13.3890379 100.038887,13.3890379 L100.038898,13.3890274 Z" id="path58-8-5-2-8-6"></path>
                        <path d="M84.1891142,16.4201023 C84.1093663,16.7522021 83.900131,17.0337492 83.5943005,17.2171482 C83.0014726,17.5631273 82.190051,17.3574305 81.8693377,16.7819465 L81.6804883,16.4533112 C81.3350056,15.8342035 81.5263372,15.0802848 82.1042929,14.743717 C82.3025641,14.6202926 82.5290904,14.5553536 82.761067,14.5548677 C83.197758,14.5548677 83.5987685,14.7793976 83.8337132,15.1571174 L84.035449,15.4802918 C84.2119083,15.7633282 84.2664432,16.0969174 84.1891142,16.4201023" id="path60-7-4-9-8-3"></path>
                        <path d="M50.4597469,6.71617765 C49.8758339,6.71617765 49.3315836,6.94269337 48.9281015,7.35514314 C48.52313,7.76854356 48.3070185,8.32023 48.318912,8.90810402 C48.3446849,10.1448196 49.3742144,11.1510479 50.613898,11.1510479 C51.2017721,11.1510479 51.746033,10.9250181 52.1480257,10.5150928 C52.5510114,10.1031923 52.7666265,9.55050237 52.7547329,8.96362123 C52.7155456,7.70310804 51.7078596,6.71617765 50.4597469,6.71617765 Z M53.8021027,12.0789543 C52.9614331,12.9434109 51.8288018,13.4197646 50.613898,13.4197646 C48.1493923,13.4197646 46.102248,11.4187051 46.0506918,8.9591638 C46.0254471,7.75267848 46.4720141,6.61797683 47.306737,5.76545598 C48.139474,4.91547017 49.2592084,4.44745036 50.4597469,4.44745036 C52.9331781,4.44745036 54.9867656,6.44855217 55.0378254,8.90513592 C55.0705696,10.0977314 54.6323575,11.2244054 53.8021027,12.0789543 Z" id="path62-9-7-96-9-2"></path>
                        <path d="M81.747899,5.06011489 C81.9541028,4.84752073 82.2326818,4.72319852 82.5350372,4.71020648 L82.5548949,4.71020648 C83.1735062,4.71020648 83.6781044,5.19290834 83.7043737,5.81854379 L83.8431667,12.0645785 C83.8560532,12.3689198 83.745568,12.6593922 83.5318859,12.8819575 C83.3177496,13.1055051 83.0178658,13.2338834 82.709553,13.2338834 L82.2143661,13.2338834 C81.5789074,13.2338834 81.0812489,12.7357284 81.0812489,12.0997733 C81.0812489,11.7210711 81.2611728,11.3845138 81.5531346,11.1788065 L81.4371463,5.87952188 C81.4233093,5.57165275 81.5343226,5.28084228 81.7479413,5.06011489" id="path64-2-4-0-2-0"></path>
                        <path d="M41.9489564,12.2460024 L41.5301163,12.2460024 C41.5343413,12.2677614 41.5375101,12.2881473 41.5396226,12.3069488 L41.5427914,12.3064523 L41.5396226,12.3085649 C41.5401191,12.3127899 41.5406367,12.317015 41.5406789,12.3218738 L41.5459602,12.3210288 C41.9023541,14.1862634 42.2285071,14.9659549 43.3234616,14.9659549 C43.6352389,14.9659549 43.8627581,14.8479914 43.8568113,14.8549205 C44.0397139,14.7369569 44.251368,14.6745001 44.4694653,14.6745001 C44.8615397,14.6745001 45.2278519,14.879711 45.4221516,15.2043747 C45.7547584,15.7416959 45.6045683,16.4306861 45.0652718,16.7811226 C45.0330558,16.8004522 44.2781337,17.2510331 43.3383232,17.2510331 C40.1650013,17.2510331 39.5865491,14.2070718 39.3084666,12.7448228 L39.6296658,12.6610611 L39.3045057,12.7046848 C39.3002806,12.6685606 39.2802116,12.5614343 39.2167302,12.2466784 L38.7205504,12.2466784 C38.0969958,12.2466784 37.5705857,11.7267115 37.5710822,11.1318979 C37.5576676,10.8275567 37.6686809,10.5370842 37.8828595,10.314033 C38.0969958,10.089482 38.3968795,9.96209658 38.7051923,9.96209658 L38.7493441,9.96209658 L37.4709906,3.57182903 C37.3832151,3.11738221 37.1433482,3.00273537 37.0665156,2.97795543 C36.4707091,2.94478876 35.9948624,2.44957017 35.9948624,1.84547193 C35.9948624,1.21928723 36.5034216,0.710231591 37.1294689,0.710231591 C37.8467141,0.710231591 39.305488,1.21543187 39.6916262,3.12625483 L41.0671243,9.96209658 L41.9484389,9.96209658 C42.5635751,9.96209658 43.0835419,10.4885066 43.0835419,11.1120718 C43.0835419,11.7376227 42.5739898,12.2466784 41.9484389,12.2466784" id="path66-0-4-2-8-6"></path>
                        <path d="M25.0711435,16.9375869 C24.8580001,17.1591593 24.5719956,17.2810944 24.2369171,17.2820767 C23.6341709,17.2820767 23.1409698,16.7982975 23.1147005,16.1727571 L22.8832203,5.87952188 C22.8703339,5.57570881 22.9808191,5.28529971 23.1945118,5.06164648 C23.4091339,4.83819393 23.7090177,4.71020648 24.016834,4.71020648 L24.5115245,4.71020648 C25.1370649,4.71020648 25.6456346,5.2188713 25.6456346,5.84387299 C25.6456346,6.2156355 25.4632179,6.55507634 25.1732525,6.76227299 L25.3834172,16.1117895 C25.395353,16.4166272 25.2818047,16.7175039 25.0711435,16.9375869" id="path68-2-3-7-8-1"></path>
                        <path d="M19.4144721,4.71020648 L19.9086661,4.71020648 C20.5347029,4.71020648 21.0432621,5.2188713 21.0432621,5.84387299 C21.0432621,6.2156355 20.860856,6.55507634 20.5708905,6.76227299 L20.7805588,16.1117895 C20.7924946,16.4166272 20.6794744,16.7175039 20.4687815,16.9375869 C20.2561345,17.1591593 19.9691372,17.2810944 19.6340587,17.2820767 C19.030816,17.2820767 18.5381113,16.7982975 18.5118421,16.1727571 L18.2808584,5.87952188 C18.2685001,5.57477929 18.3789852,5.28410614 18.5931321,5.06164648 C18.8072684,4.83819393 19.1066557,4.71020648 19.4144721,4.71020648" id="path70-3-0-6-8-5"></path>
                        <path d="M31.1218751,11.305199 C31.8435883,11.305199 32.4686322,10.8090298 32.6862331,10.129451 L29.3974193,10.129451 C29.628403,10.6593361 30.1171361,11.305199 31.1218751,11.305199 Z M31.075822,4.52531811 C32.901901,4.52531811 34.0429507,5.56778683 34.0429507,5.56778683 C34.257087,5.75619255 34.3854653,6.01776565 34.4038021,6.30491089 C34.4226035,6.59531998 34.3259554,6.87686702 34.1326698,7.09546076 C34.0196496,7.22518048 33.8015523,7.37993365 33.4079885,7.37993365 C33.1076083,7.37993365 32.8191216,7.29163002 32.7869055,7.28138426 L32.6352261,7.20005197 C32.4771035,7.07960624 31.8976584,6.68499675 31.075822,6.68499675 C30.1439547,6.68499675 29.4881734,7.22964848 29.3087354,8.10758303 L33.7480208,8.10758303 C34.3398664,8.10758303 34.8072842,8.55914624 34.8355392,9.165357 L34.8504325,9.65806168 C34.8835992,10.594397 34.523783,11.5024879 33.8367681,12.2137758 C33.1160584,12.9602689 32.1261916,13.3885309 31.121949,13.3885309 C28.8899058,13.3885309 27.1674357,11.6368024 27.1148866,9.31654 L27.0995708,8.71230445 C27.0732698,7.52918368 27.4767836,6.45053794 28.2356667,5.6748497 C28.9613409,4.93326821 29.9695444,4.52531811 31.075896,4.52531811 L31.075822,4.52531811 Z" id="path72-7-7-13-6-5"></path>
                        <path d="M14.6842177,4.71020648 L14.7040755,4.71020648 C15.3231832,4.71020648 15.8277814,5.19290834 15.8535542,5.81854379 L15.9923473,12.0645785 C16.0047055,12.3689198 15.8946429,12.6593922 15.6810558,12.8819575 C15.4664337,13.1055051 15.1665499,13.2338834 14.8582371,13.2338834 L14.3640431,13.2338834 C13.7389992,13.2338834 13.229933,12.7253136 13.229933,12.0997733 C13.229933,11.7210711 13.4098675,11.3845138 13.7023151,11.1788065 L13.585334,5.87952188 C13.5595611,5.25100284 14.041851,4.73692994 14.6842494,4.71020648" id="path74-5-8-2-8-4"></path>
                        <path d="M16.3382947,16.4196059 C16.2580187,16.7517057 16.0488257,17.0337492 15.7439775,17.2171482 C15.1501567,17.5631273 14.3407208,17.3584129 14.0180323,16.7814395 L13.8301653,16.4533112 C13.4841862,15.8346999 13.6755177,15.0807707 14.2539699,14.743717 C14.4517447,14.6202926 14.6787674,14.5548677 14.9097511,14.5548677 C15.3469386,14.5548677 15.747949,14.7793976 15.9838866,15.1576033 L16.1841436,15.4802918 C16.360603,15.7633282 16.4156237,16.0969174 16.3382947,16.4196059" id="path76-9-6-1-3-7"></path>
                        <path d="M8.2592519,5.37244145 L12.6920941,15.1640465 C12.9533187,15.7385377 12.6963192,16.4201023 12.1022343,16.6902417 C11.5331935,16.9227147 10.8675045,16.6620395 10.6152054,16.1088109 L6.94272505,7.97821187 L3.64796451,16.063212 C3.46753357,16.499903 3.06454791,16.7715317 2.59564085,16.7715317 L2.05485505,16.7715317 C1.42930411,16.7715317 0.920248467,16.2619691 0.920248467,15.6364287 C0.920248467,15.0911855 1.30786549,14.6341719 1.82188557,14.5266126 L5.54740094,5.40802697 C5.7362503,4.9778214 6.13824307,4.71020648 6.59575305,4.71020648 L7.22872953,4.71020648 C7.66690989,4.71020648 8.07088843,4.96756508 8.2592519,5.37244145" id="path78-2-8-5-8-6"></path>
                    </g>
                    <path d="M162.255283,50.7500736 C162.255523,50.7500736 162.255758,50.7500736 162.255758,50.7500736 L162.30179,50.7500736 C162.30179,50.7500736 162.30179,50.7500736 162.30227,50.7500736 C162.582648,50.7500736 162.861763,50.8647456 163.067323,51.0652416 C163.280184,51.2733216 163.397424,51.5491296 163.397424,51.8422176 L163.397424,52.2385536 C163.397424,52.8579936 162.90084,53.3621856 162.290112,53.3621856 L158.40697,53.3621856 C157.796174,53.3621856 157.299115,52.8579936 157.299115,52.2385536 C157.299115,51.8731776 157.485605,51.5379936 157.784736,51.3321696 L157.664242,45.8532096 C157.651618,45.5530176 157.75969,45.2688096 157.968211,45.0533856 C158.169403,44.8455936 158.442715,44.7245376 158.738107,44.7121056 L158.755531,44.7118656 C159.360442,44.7118656 159.854006,45.1835616 159.879346,45.7943616 L159.996811,51.1307136 L161.440891,51.1307136 C161.641694,50.8962336 161.944858,50.7508416 162.254707,50.7508416" id="path30-2-8-9-3-5" stroke="#421B4B" stroke-width="0.5" fill="#421B4B"></path>
                    <path d="M187.758586,46.7322336 L187.878922,52.2038016 C187.891546,52.5060576 187.784021,52.7919936 187.575115,53.0094816 C187.367798,53.2256736 187.088702,53.3451936 186.806563,53.3451936 C186.806088,53.3451936 186.806083,53.3451936 186.806083,53.3451936 L186.759235,53.3451936 C186.17052,53.3451936 185.689906,52.8732096 185.664797,52.2619296 L185.559715,47.3529216 C184.93271,47.0943456 183.869736,46.7357856 183.301344,46.7357856 C182.806037,46.7357856 182.267597,46.7684256 182.030098,47.0121216 C181.906282,47.1397536 181.849411,47.3417376 181.857269,47.6320416 L181.95239,52.2370656 C181.95239,52.8565056 181.455576,53.3606976 180.844536,53.3606976 L180.337306,53.3606976 C179.726741,53.3606976 179.229926,52.8635616 179.229926,52.2528096 C179.229926,51.8805696 179.416186,51.5402976 179.714827,51.3319296 L179.626522,47.6822496 C179.605162,46.7604096 179.860272,46.0207296 180.384499,45.4840416 C181.00943,44.8443456 181.991002,44.5202976 183.301325,44.5202976 C184.032139,44.5202976 185.028634,44.7818976 185.82181,45.0617856 C186.025301,44.8428096 186.316642,44.7103776 186.629986,44.7103776 L187.136741,44.7103776 C187.757942,44.7103776 188.24436,45.1970496 188.24436,45.8179776 C188.24436,46.1907456 188.055874,46.5307296 187.75944,46.7314656" id="path32-9-4-9-3-6" stroke="#421B4B" stroke-width="0.5" fill="#421B4B"></path>
                    <path d="M130.527778,51.3309216 L130.43915,47.6830176 C130.41779,46.7611296 130.672987,46.0214496 131.197435,45.4847616 C131.822304,44.8450656 132.803794,44.5210176 134.114419,44.5210176 C134.845238,44.5210176 135.841738,44.7826656 136.634674,45.0625536 C136.838165,44.8435776 137.12927,44.7110976 137.44285,44.7110976 L137.949845,44.7110976 C138.560866,44.7110976 139.057699,45.2081856 139.057699,45.8187456 C139.057699,46.1917536 138.868656,46.5317376 138.572069,46.7324736 L138.692798,52.2038016 C138.705518,52.5060576 138.597461,52.7919936 138.388838,53.0094816 C138.181762,53.2256736 137.902421,53.3451936 137.62045,53.3451936 C137.61997,53.3451936 137.61997,53.3451936 137.61997,53.3451936 L137.573122,53.3451936 C136.984248,53.3451936 136.503629,52.8732096 136.478448,52.2619296 L136.373155,47.3526336 C135.691574,47.0709696 134.640826,46.7357376 134.115096,46.7357376 C133.619467,46.7357376 133.081272,46.7683776 132.843773,47.0123616 C132.719952,47.1397536 132.663394,47.3414496 132.671011,47.6319936 L132.766142,52.2370656 C132.766142,52.8564576 132.269006,53.3606496 131.658355,53.3606496 L131.151379,53.3606496 C130.540339,53.3606496 130.04327,52.8635616 130.04327,52.2528096 C130.04327,51.8734176 130.226443,51.5366976 130.528339,51.3301536" id="path34-1-3-1-3-9" stroke="#421B4B" stroke-width="0.5" fill="#421B4B"></path>
                    <path d="M194.839013,53.3614176 L190.955635,53.3614176 C190.34484,53.3614176 189.848256,52.8572256 189.848256,52.2378336 C189.848256,51.8724096 190.03427,51.5372256 190.333637,51.3314496 L190.212907,45.8522016 C190.187467,45.2386656 190.659206,44.7374976 191.287008,44.7113376 L191.304384,44.7110976 C191.909314,44.7110976 192.402077,45.1828416 192.427502,45.7935936 L192.545208,51.1299456 L193.989523,51.1299456 C194.190235,50.8954656 194.493014,50.7500736 194.802792,50.7500736 C194.803267,50.7500736 194.803272,50.7500736 194.803272,50.7500736 L194.85012,50.7500736 C195.13105,50.7500736 195.409915,50.8647456 195.615154,51.0652416 C195.828346,51.2733216 195.945816,51.5491296 195.945816,51.8422176 L195.945816,52.2385536 C195.945816,52.8579936 195.449237,53.3621856 194.838437,53.3621856" id="path36-2-1-4-8-3" stroke="#421B4B" stroke-width="0.5" fill="#421B4B"></path>
                    <path d="M143.838365,51.1299456 L144.674731,51.1299456 C145.287528,51.1299456 145.879498,50.8843296 146.298715,50.4557376 C146.685216,50.0606496 146.891486,49.5430176 146.879808,49.0025376 C146.840064,47.7654816 145.720651,46.7208096 144.43693,46.7208096 C144.186494,46.7208096 143.94035,46.7592096 143.730499,46.8077856 L143.838398,51.1298976 L143.838365,51.1299456 Z M144.102547,41.6823456 C144.102547,42.0541056 143.920325,42.3926016 143.633357,42.5928096 L143.678525,44.5580736 C143.922134,44.5230336 144.175104,44.5050816 144.420941,44.5050816 C146.927995,44.5050816 149.024726,46.4967456 149.094782,48.9449376 C149.127326,50.0900736 148.700741,51.1778976 147.893515,52.0084416 C147.057936,52.8681216 145.884864,53.3614176 144.674472,53.3614176 L142.281307,53.3614176 C141.670354,53.3614176 141.173453,52.8572256 141.173453,52.2378336 C141.173453,51.8777376 141.349541,51.5471136 141.626899,51.3476736 L141.395774,41.7156096 C141.38315,41.4187296 141.491438,41.1352896 141.699979,40.9180416 C141.909346,40.6998336 142.202194,40.5745056 142.503149,40.5745056 L142.994414,40.5745056 C143.605128,40.5745056 144.102269,41.0713536 144.102269,41.6823456 L144.102547,41.6823456 Z" id="path38-7-4-9-0-7" stroke="#421B4B" stroke-width="0.5" fill="#421B4B"></path>
                    <path d="M167.729606,57.4716576 C167.532701,57.5863776 167.309184,57.6470016 167.082101,57.6470016 C166.637472,57.6470016 166.24549,57.4209216 166.035322,57.0458976 L165.843034,56.7094176 C165.503006,56.1021696 165.690768,55.3614816 166.258675,55.0305696 C166.45248,54.9092736 166.674802,54.8450976 166.902197,54.8450976 C167.330472,54.8450976 167.724278,55.0656096 167.957232,55.4370816 L168.16153,55.7682336 C168.335078,56.0461056 168.388848,56.3737056 168.312768,56.6901216 C168.234072,57.0156576 168.028565,57.2925216 167.729606,57.4716576" id="path40-0-9-1-4-4" stroke="#421B4B" stroke-width="0.5" fill="#421B4B"></path>
                    <path d="M172.237286,50.1918336 C172.466117,50.7617856 172.978186,51.5105856 174.09192,51.5105856 C174.883354,51.5105856 175.564915,50.9492736 175.772779,50.1918336 L172.237286,50.1918336 Z M177.846878,49.2608256 L177.86195,49.7660256 C177.895262,50.7115296 177.531614,51.6280896 176.837338,52.3471776 C176.108587,53.1023616 175.107792,53.5357536 174.091757,53.5357536 C171.832598,53.5357536 170.089397,51.7622976 170.036808,49.4120736 L170.020872,48.7921536 C169.993848,47.5936896 170.402755,46.5010656 171.170342,45.7156896 C171.904258,44.9656416 172.925059,44.5525056 174.044837,44.5525056 C175.911946,44.5525056 177.052291,45.6091296 177.051571,45.6091296 C177.051571,45.6091296 177.051571,45.6091296 177.051571,45.6088416 C177.26063,45.7918176 177.385963,46.0463136 177.404232,46.3259616 C177.422472,46.6094016 177.32796,46.8842016 177.139339,47.0981376 C176.980963,47.2785216 176.744976,47.3701536 176.437675,47.3701536 C176.138309,47.3701536 175.850078,47.2815936 175.818062,47.2712256 L175.738416,47.2419456 L175.67963,47.1968256 C175.513694,47.0702016 174.903936,46.6571136 174.045,46.6571136 C173.03532,46.6571136 172.331664,47.2610496 172.163664,48.2295936 L176.78701,48.2295936 C177.364286,48.2295936 177.820282,48.6700896 177.847128,49.2608256 L177.846878,49.2608256 Z" id="path42-9-2-0-7-5" stroke="#421B4B" stroke-width="0.5" fill="#421B4B"></path>
                    <path d="M166.672814,44.7430656 L166.690382,44.7428256 C167.295312,44.7428256 167.788555,45.2145216 167.813726,45.8253216 L167.955826,52.2357696 C167.96845,52.5326496 167.860699,52.8163776 167.652014,53.0335776 C167.442485,53.2520736 167.149872,53.3774016 166.848926,53.3774016 L166.341931,53.3774016 C165.731453,53.3774016 165.234317,52.8803136 165.234317,52.2695616 C165.234317,51.8896896 165.420086,51.5526816 165.719218,51.3537696 L165.599203,45.8841696 C165.573763,45.2708736 166.044547,44.7694656 166.672589,44.7430656" id="path44-3-0-7-6-2" stroke="#421B4B" stroke-width="0.5" fill="#421B4B"></path>
                    <path d="M154.20504,57.7238976 L151.467552,56.3790336 C150.930394,56.1227136 150.704818,55.4698176 150.968434,54.9156576 C151.151678,54.5502336 151.536586,54.3139776 151.950005,54.3139776 C152.113862,54.3139776 152.272238,54.3499776 152.425214,54.4226016 L155.162222,55.7677056 C155.42783,55.8940896 155.625768,56.1173856 155.718374,56.3962656 C155.809061,56.6675136 155.789885,56.9613696 155.661235,57.2308416 C155.406274,57.7414176 154.743686,57.9804096 154.204781,57.7238976" id="path46-6-6-5-8-5" stroke="#421B4B" stroke-width="0.5" fill="#421B4B"></path>
                    <path d="M125.180059,52.1563776 C123.706354,52.7661216 123.308746,53.0355936 123.319704,53.7669216 C123.34188,54.9060096 124.392221,55.0290816 124.842658,55.0290816 C125.19372,55.0290816 125.515085,54.9755136 125.767589,54.9230016 C125.918659,54.5063616 126.30659,54.2094816 126.774341,54.1894176 L126.821189,54.1894176 C127.409592,54.1894176 127.890216,54.6613536 127.915867,55.2686016 L127.931035,55.7651616 C127.957195,56.2262496 127.673208,56.6583936 127.237229,56.8284096 C126.980362,56.9588256 126.146136,57.2455776 124.842797,57.2455776 C123.080059,57.2455776 121.158144,56.1727296 121.104206,53.8176576 C121.050182,51.4684416 122.943038,50.6891616 124.329067,50.1184896 C125.750976,49.5204096 126.24636,49.2377376 126.223574,48.4140576 C126.197414,47.4018336 125.426117,46.7218176 124.303958,46.7218176 C123.880699,46.7218176 123.547406,46.7972256 123.339154,46.8621216 C123.204917,47.3061696 122.782435,47.6406336 122.309525,47.6406336 C122.309294,47.6406336 122.309213,47.6406336 122.309045,47.6406336 L122.262965,47.6406336 C121.674168,47.6406336 121.193318,47.1684096 121.168219,46.5672576 L121.152283,46.1990496 C121.152283,45.9321216 121.254221,45.6624096 121.432901,45.4578816 C121.926936,44.8968576 123.107798,44.5050336 124.304606,44.5050336 C126.647098,44.5050336 128.386094,46.1265216 128.439466,48.3610176 C128.49349,50.7922176 126.579653,51.5800896 125.180861,52.1563776" id="path48-0-8-8-9-4" stroke="#421B4B" stroke-width="0.5" fill="#421B4B"></path>
                    <path d="M106.094923,51.7734816 C106.927013,51.7734816 107.642808,51.1839936 107.862029,50.3882496 L104.145605,50.3882496 C104.386426,50.9873376 104.925115,51.7734816 106.094923,51.7734816 Z M106.04497,44.4530496 C107.99603,44.4530496 109.210238,45.5647296 109.209523,45.5647296 L109.209288,45.5647296 C109.429781,45.7578336 109.561949,46.0262976 109.580774,46.3206336 C109.59983,46.6190496 109.50035,46.9078176 109.301582,47.1331296 C109.13519,47.3232096 108.886728,47.4196416 108.563227,47.4196416 C108.247502,47.4196416 107.943763,47.3262336 107.910331,47.3156256 L107.826264,47.2849056 L107.764363,47.2373856 C107.590022,47.1041856 106.951104,46.6697856 106.045238,46.6697856 C104.983762,46.6697856 104.244365,47.3041536 104.06748,48.3216576 L108.93013,48.3216576 C109.53863,48.3216576 110.017891,48.7857696 110.046322,49.4074656 L110.06293,49.9393056 C110.097922,50.9347776 109.71432,51.8995296 108.983506,52.6564896 C108.216389,53.4509856 107.163336,53.9064576 106.094794,53.9064576 C103.71791,53.9064576 101.883062,52.0401216 101.826989,49.5662976 L101.811053,48.9146976 C101.783261,47.6533056 102.212477,46.5035616 103.020974,45.6770976 C103.792853,44.8876896 104.866954,44.4530016 106.045426,44.4530016 L106.04497,44.4530496 Z" id="path120-1-9-7-0-7" stroke="#421B4B" stroke-width="0.5" fill="#421B4B"></path>
                    <path d="M98.425056,44.6532576 L98.9582544,44.6532576 C99.601464,44.6532576 100.124726,45.1764576 100.124726,45.8197536 C100.124726,46.2122976 99.9259968,46.5703296 99.6141648,46.7816736 L99.8410176,56.9073216 C99.8545056,57.2255136 99.740592,57.5267136 99.5207712,57.7556256 C99.3025776,57.9827136 99.0090048,58.1083296 98.7118752,58.1083296 C98.711544,58.1083296 98.7113952,58.1083296 98.7113952,58.1083296 L98.6621328,58.1083296 C98.0416416,58.1083296 97.5354576,57.6114816 97.5088464,56.9682336 L97.2591216,45.8545056 C97.2456336,45.5416416 97.3595472,45.2434656 97.5793776,45.0146016 C97.800096,44.7844416 98.1083616,44.6524896 98.4255936,44.6524896" id="path122-0-2-0-6-4" stroke="#421B4B" stroke-width="0.5" fill="#421B4B"></path>
                    <path d="M89.2946784,53.8235136 C89.4778896,53.6943456 89.6900208,53.6260896 89.9079792,53.6260896 C90.2472576,53.6260896 90.5702832,53.7961056 90.7742928,54.0853536 L92.292984,56.2833696 L93.6957168,54.1132896 C93.8923728,53.8087776 94.2275712,53.6270976 94.5922128,53.6270976 C94.7969856,53.6270976 94.995672,53.6857536 95.1677136,53.7968736 C95.6607408,54.1160736 95.8028304,54.7766016 95.4843936,55.2681216 L93.2181504,58.7837856 C93.0225168,59.0920896 92.6847648,59.2760736 92.3148,59.2760736 C91.9605744,59.2760736 91.6312032,59.1030336 91.434552,58.8142656 L89.0097216,55.2855936 C88.8574656,55.0498656 88.8019008,54.7689696 88.8536544,54.4949376 C88.9074192,54.2107296 89.0696064,53.9689056 89.2946784,53.8235136" id="path124-6-6-4-8-4" stroke="#421B4B" stroke-width="0.5" fill="#421B4B"></path>
                    <path d="M84.6957216,47.8712736 C86.3757984,47.8712736 87.7739616,49.2504096 87.8132832,50.9452416 C87.8323392,51.7628256 87.5283264,52.5349536 86.9571312,53.1198336 C86.3874528,53.7026976 85.6259712,54.0234336 84.8124336,54.0234336 C83.1234816,54.0234336 81.7177104,52.6519296 81.6783936,50.9660256 C81.6593376,50.1403296 81.9641136,49.3628256 82.5368112,48.7769376 C83.1077568,48.1930656 83.8740768,47.8712736 84.6957216,47.8712736" id="path126-3-6-8-7-3" stroke="#421B4B" stroke-width="0.5" fill="#421B4B"></path>
                    <path d="M74.1382224,55.0250016 L76.1659296,55.0250016 C76.5650784,55.0250016 76.9385952,54.8689536 77.2177296,54.5857536 C77.49228,54.3063936 77.6402352,53.9377056 77.6341296,53.5537536 C77.6073936,52.6481376 76.889376,51.9388896 75.9992208,51.9388896 L74.0737584,51.9388896 L74.138256,55.0250016 L74.1382224,55.0250016 Z M71.8077792,55.2302976 L71.5811952,45.6548256 C71.5551312,45.0201696 72.0696432,44.4812256 72.7286352,44.4535296 L72.7473552,44.4532896 C73.3840224,44.4532896 73.9039536,44.9501376 73.930608,45.5928576 L74.0206464,49.5891936 L75.9991344,49.5891936 C78.1397664,49.5891936 79.927176,51.3413376 79.9837632,53.4989376 C80.0018112,54.5190336 79.6168368,55.4832576 78.8989776,56.2140576 C78.1740144,56.9520096 77.2034208,57.3584736 76.1658336,57.3584736 L72.4638912,57.3584736 C71.8208832,57.3584736 71.2973904,56.8349856 71.2973904,56.1917376 C71.2973904,55.7997216 71.495832,55.4416416 71.8076928,55.2302976 L71.8077792,55.2302976 Z" id="path128-2-4-0-9-0" stroke="#421B4B" stroke-width="0.5" fill="#421B4B"></path>
                    <g id="g12-6-5-3-7" transform="translate(0.468941, 1.954666)" fill="#421B4B" stroke="#7804A4" stroke-width="0.5">
                        <path d="M57.5976214,28.7989513 C57.5976214,12.893867 44.703909,0 28.7988107,0 C12.8936562,0 0,12.893867 0,28.7989513 C0,44.7040496 12.8936562,57.597762 28.7988107,57.597762 C44.703909,57.597762 57.5976214,44.7040496 57.5976214,28.7989513" id="path14-1-0-3-8"></path>
                    </g>
                    <path d="M17.4189552,21.9304176 C18.1549152,21.4115856 19.0070016,21.1374096 19.8825744,21.1374096 C21.245328,21.1374096 22.5429024,21.8203536 23.3623824,22.9822896 L29.462736,31.8112656 L35.097288,23.0944176 C35.887224,21.8712816 37.2336816,21.1414896 38.6984112,21.1414896 C39.520944,21.1414896 40.3190208,21.3769776 41.0101152,21.8233776 C42.9905568,23.1056496 43.5613248,25.7588016 42.282168,27.7331376 L33.1790064,41.8551696 C32.3931504,43.0936176 31.0364928,43.8326256 29.5503936,43.8326256 C28.1274864,43.8326256 26.804448,43.1374416 26.014512,41.9775216 L16.2743424,27.8034576 C15.6627504,26.8565616 15.4395408,25.7282256 15.6474672,24.6273936 C15.8634672,23.4858096 16.5148944,22.5144336 17.4189552,21.9304176" id="path124-6-6-9-2-3-6" stroke="#FFFFFF" stroke-width="0.737056046" fill="#FFFFFF"></path>
                </g>
            </g>
        </g>
    </g>
</svg>