<?xml version="1.0" encoding="utf-8"?>
<!-- Generator: Adobe Illustrator 19.0.0, SVG Export Plug-In . SVG Version: 6.00 Build 0)  -->
<svg version="1.1" id="Layer_1" xmlns="http://www.w3.org/2000/svg" xmlns:xlink="http://www.w3.org/1999/xlink" x="0px" y="0px"
	 viewBox="-268 222 255 170" style="enable-background:new -268 222 255 170;" xml:space="preserve">
<style type="text/css">
	.st0{fill:#411B4B;}
</style>
<g>
	<g>
		<path class="st0" d="M-234.8,294.8c0,0,0,12.5,0,13.5c0,0.1,0,0.2,0.1,0.3c0.2,0.3,0.5,0.4,0.7,0.2c0.1-0.1,0.2-0.2,0.4-0.3
			c0.1-0.1,0.3-0.2,0.4-0.3c0.3-0.2,0.6-0.4,0.9-0.6c0.2-0.1,0.3-0.2,0.5-0.3c1-0.6,2.1-1,3.2-1.3c0.2,0,0.3-0.1,0.5-0.1
			c0.1,0,0.2-0.1,0.3-0.1c0.9-0.2,2-0.3,3.3-0.4c0.1,0-0.1,0,0,0c5.5-0.1,9.9-4.5,9.9-10c0-5.6-4.5-10.1-10.1-10.1
			C-230.1,285.1-234.6,289.4-234.8,294.8z"/>
		<path class="st0" d="M-220.1,328.2c0,0,10.8-6.3,11.7-6.8c0.1,0,0.2-0.1,0.2-0.2c0.2-0.3,0.1-0.6-0.2-0.7
			c-0.1-0.1-0.3-0.1-0.5-0.2c-0.2-0.1-0.3-0.1-0.5-0.2c-0.3-0.1-0.7-0.3-1-0.5c-0.2-0.1-0.4-0.2-0.5-0.3c-1-0.6-1.9-1.3-2.8-2.1
			c-0.1-0.1-0.2-0.2-0.4-0.4c-0.1-0.1-0.1-0.1-0.2-0.2c-0.7-0.7-1.3-1.6-2-2.7c0-0.1,0,0.1,0,0c-2.8-4.7-8.9-6.3-13.7-3.6
			c-4.8,2.8-6.5,8.9-3.7,13.8C-230.8,329-224.8,330.7-220.1,328.2z"/>
		<path class="st0" d="M-198.5,298.7c0,0-10.8-6.3-11.7-6.8c-0.1,0-0.2-0.1-0.3-0.1c-0.3,0-0.6,0.2-0.6,0.5c0,0.2,0.1,0.3,0.1,0.5
			c0,0.2,0.1,0.4,0.1,0.5c0,0.4,0.1,0.7,0.1,1.1c0,0.2,0,0.4,0,0.6c0,1.2-0.2,2.3-0.4,3.4c0,0.2-0.1,0.3-0.1,0.5
			c0,0.1-0.1,0.2-0.1,0.3c-0.3,0.9-0.7,1.9-1.3,3.1c0,0.1,0-0.1,0,0c-2.7,4.8-1,10.8,3.8,13.6c4.8,2.8,11,1.2,13.8-3.7
			C-192.5,307.6-194,301.6-198.5,298.7z"/>
	</g>
	<g>
		<path class="st0" d="M-44.8,296.6c0,1.5-1.2,2.7-2.7,2.7c-1.5,0-2.7-1.2-2.7-2.7c0-1.5,1.2-2.7,2.7-2.7
			C-45.9,294-44.8,295.2-44.8,296.6z M-45.4,296.6c0-1.1-0.9-2.1-2.1-2.1c-1.2,0-2.1,0.9-2.1,2.1c0,1.1,0.9,2.1,2,2.1
			C-46.3,298.7-45.4,297.8-45.4,296.6z M-46.8,297l0.5,0.8H-47l-0.4-0.7h0h-0.5v0.7h-0.6v-2.5h1.1c0.7,0,1.1,0.3,1.1,0.9
			C-46.3,296.6-46.5,296.9-46.8,297z M-47.4,296.6c0.3,0,0.5-0.2,0.5-0.4c0-0.3-0.2-0.4-0.5-0.4h-0.5v0.9H-47.4z"/>
	</g>
	<g>
		<path class="st0" d="M-166.8,294.1h-17c-0.3,0-0.5,0.2-0.5,0.5v25.4c0,0.3,0.2,0.5,0.5,0.5h4.7c0.3,0,0.5-0.2,0.5-0.5V310h11.2
			c0.3,0,0.5-0.2,0.5-0.5v-4c0-0.3-0.2-0.5-0.5-0.5h-11.2v-6h11.8c0.3,0,0.5-0.2,0.5-0.5v-4C-166.3,294.3-166.5,294.1-166.8,294.1z"
			/>
		<path class="st0" d="M-153.2,299.9c-0.9,0.1-1.9,0.4-2.7,0.9c-1.1,0.6-2,1.3-2.7,2.1l-0.2,0.2v-2.4c0-0.3-0.2-0.5-0.5-0.5h-4.5
			c-0.3,0-0.5,0.2-0.5,0.5v19.2c0,0.3,0.2,0.5,0.5,0.5h4.5c0.3,0,0.5-0.2,0.5-0.5v-8.3c0-2,0.4-3.6,1.3-4.8c0.9-1.2,2.2-1.9,3.9-1.9
			h0.5c0.3,0,0.5-0.2,0.5-0.5l0-4.1c0-0.1-0.1-0.3-0.2-0.4C-152.9,299.9-153,299.9-153.2,299.9z"/>
		<path class="st0" d="M-141.4,299.8c-3.1,0-5.6,1-7.6,3c-2,2-3,4.5-3,7.4c0,2.9,1,5.4,3,7.4c2,2,4.6,3,7.6,3c3.1,0,5.6-1,7.6-3
			c2-2,3-4.5,3-7.4c0-2.9-1-5.4-3-7.4C-135.8,300.9-138.4,299.8-141.4,299.8z M-145.2,306.1c1-1.1,2.2-1.6,3.7-1.6
			c1.5,0,2.8,0.5,3.7,1.6c1,1.1,1.5,2.5,1.5,4.2c0,1.7-0.5,3.1-1.5,4.2c-1,1.1-2.2,1.6-3.7,1.6c-1.5,0-2.8-0.5-3.7-1.6
			c-1-1.1-1.5-2.5-1.5-4.2C-146.6,308.6-146.1,307.2-145.2,306.1z"/>
		<path class="st0" d="M-117.2,299.8c-2.1,0-4,0.8-5.7,2.6l-0.2,0.2v-2c0-0.3-0.2-0.5-0.5-0.5h-4.5c-0.3,0-0.5,0.2-0.5,0.5v19.2
			c0,0.3,0.2,0.5,0.5,0.5h4.5c0.3,0,0.5-0.2,0.5-0.5v-10.8c0-1.6,0.4-2.9,1.3-3.7c0.9-0.8,1.9-1.3,3.1-1.3c2.4,0,3.6,1.6,3.6,4.8
			v10.9c0,0.3,0.2,0.5,0.5,0.5h4.5c0.3,0,0.5-0.2,0.5-0.5v-11.8c0-2.5-0.7-4.5-2.1-6C-113.3,300.6-115,299.8-117.2,299.8z"/>
		<path class="st0" d="M-88.1,300.2h-4.5c-0.3,0-0.5,0.2-0.5,0.5v19.2c0,0.3,0.2,0.5,0.5,0.5h4.5c0.3,0,0.5-0.2,0.5-0.5v-19.2
			C-87.6,300.4-87.8,300.2-88.1,300.2z"/>
		<path class="st0" d="M-90.3,291.9c-0.9,0-1.7,0.3-2.3,0.9c-0.6,0.6-0.9,1.4-0.9,2.3c0,0.9,0.3,1.7,0.9,2.3
			c0.6,0.6,1.4,0.9,2.3,0.9c0.9,0,1.7-0.3,2.3-0.9c0.6-0.6,0.9-1.4,0.9-2.3c0-0.9-0.3-1.7-0.9-2.3
			C-88.7,292.2-89.4,291.9-90.3,291.9z"/>
		<path class="st0" d="M-52.3,300.6c-0.1-0.1-0.2-0.2-0.4-0.2h-4.8c-0.2,0-0.4,0.1-0.4,0.3l-4.9,12.6l-4.9-12.6
			c-0.1-0.2-0.2-0.3-0.4-0.3h-3.4h-1.4h-3.9v-1.5c0-0.8,0.2-1.5,0.6-1.9c0.4-0.4,0.9-0.7,1.5-0.7c0.8,0,1.6,0.3,2.3,0.9
			c0.1,0.1,0.3,0.1,0.4,0.1c0.1,0,0.3-0.1,0.3-0.2l1.4-2.7c0.1-0.2,0.1-0.4-0.1-0.6c-1.5-1.3-3.2-1.9-5-1.9c-2,0-3.6,0.6-5,1.9
			c-1.3,1.3-2,3-2,5.2v1.4h-1.9c-0.3,0-0.5,0.2-0.5,0.5v2.9c0,0.3,0.2,0.5,0.5,0.5h1.9v15.7c0,0.3,0.2,0.5,0.5,0.5h4.5
			c0.3,0,0.5-0.2,0.5-0.5v-15.7h4.7c4.2,10.8,6.3,16.3,6.3,16.8c0,0.6-0.2,1.2-0.6,1.7c-0.4,0.5-0.9,0.8-1.5,0.8
			c-0.9,0-1.7-0.3-2.5-1c-0.1-0.1-0.2-0.1-0.4-0.1c-0.1,0-0.3,0.1-0.3,0.2l-1.9,3.2c-0.1,0.2-0.1,0.5,0.1,0.6
			c1.6,1.4,3.4,2.1,5.2,2.1c1.4,0,2.7-0.4,3.9-1.1c1.2-0.8,2-1.8,2.6-3.2l9.2-23.3C-52.2,300.9-52.2,300.7-52.3,300.6z"/>
		<path class="st0" d="M-96.3,300.2h-4.5v-5.6c0-0.3-0.2-0.5-0.5-0.5h-4.5c-0.3,0-0.5,0.2-0.5,0.5v5.6h-1.9c-0.3,0-0.5,0.2-0.5,0.5
			v2.9c0,0.3,0.2,0.5,0.5,0.5h1.9v9.5c0,2.2,0.7,3.9,2,5.2c1.3,1.3,2.9,1.9,4.9,1.9c0.8,0,1.7-0.2,2.5-0.5c0.2-0.1,0.3-0.2,0.3-0.4
			v-3.7c0-0.2-0.1-0.3-0.2-0.4c-0.1-0.1-0.3-0.1-0.5,0c-0.4,0.2-0.9,0.3-1.3,0.3c-0.6,0-1.1-0.2-1.5-0.7c-0.4-0.5-0.6-1.1-0.6-1.9
			v-9.3h4.5c0.3,0,0.5-0.2,0.5-0.5v-2.9C-95.8,300.4-96,300.2-96.3,300.2z"/>
	</g>
</g>
</svg>
