<svg id="Calque_1" data-name="Calque 1" xmlns="http://www.w3.org/2000/svg" viewBox="0 0 255 170">
  <defs>
    <style>
      .cls-1 {
        fill: none;
      }

      .cls-2 {
        fill: #e50051;
      }

      .cls-3 {
        fill: #fff;
      }
    </style>
  </defs>
  <title>partner-You</title>
  <rect class="cls-1" width="255" height="170"/>
  <path class="cls-2" d="M43.23,130a2.65,2.65,0,0,1-2.73-2.55V42.55A2.65,2.65,0,0,1,43.23,40H211.77a2.65,2.65,0,0,1,2.73,2.55v84.91a2.65,2.65,0,0,1-2.73,2.55Z"/>
  <g>
    <path class="cls-3" d="M108.56,70.76l-5.74-9.67h2.35l4.49,8,4.32-8h2.09l-5.42,9.7v7.46h-2.09Z"/>
    <path class="cls-3" d="M116,72.08v-.19a6.17,6.17,0,1,1,12.34,0v.19a6.17,6.17,0,1,1-12.34,0Zm10.27,0v-.17c0-2.9-1.61-4.78-4.1-4.78s-4.1,1.87-4.1,4.75v.19c0,2.86,1.56,4.73,4.1,4.73S126.3,74.91,126.3,72.08Z"/>
    <path class="cls-3" d="M131.34,73.64V65.7h2v7.85c0,2.21.94,3.19,2.9,3.19a3.3,3.3,0,0,0,3.46-3.43V65.7h2V78.25h-2v-2a4.29,4.29,0,0,1-4,2.21C133.21,78.47,131.34,77.1,131.34,73.64Z"/>
    <path class="cls-3" d="M145.72,65.7h2V68a4.38,4.38,0,0,1,4.13-2.47v1.87c-2.52.12-4.13.91-4.13,4v6.89h-2Z"/>
    <path class="cls-3" d="M76.22,100.91v-.19a6.1,6.1,0,0,1,6.1-6.43c2.62,0,5.06,1.2,5.45,4.39h-2c-.31-2-1.75-2.74-3.48-2.74-2.28,0-4,1.82-4,4.78v.19c0,3.07,1.68,4.7,4.1,4.7a3.39,3.39,0,0,0,3.6-3.07h1.85a5.24,5.24,0,0,1-5.47,4.73A6,6,0,0,1,76.22,100.91Z"/>
    <path class="cls-3" d="M89.9,100.88v-.19a6.17,6.17,0,1,1,12.34,0v.19a6.17,6.17,0,1,1-12.34,0Zm10.27,0v-.17c0-2.9-1.61-4.78-4.1-4.78S92,97.81,92,100.69v.19c0,2.86,1.56,4.73,4.1,4.73S100.18,103.71,100.18,100.88Z"/>
    <path class="cls-3" d="M105.34,94.5h2v1.92a4.09,4.09,0,0,1,3.74-2.14,3.64,3.64,0,0,1,3.67,2.35,4.86,4.86,0,0,1,4.3-2.35c2.26,0,4.22,1.34,4.22,5V107h-2V99.13c0-2.21-.94-3.12-2.66-3.12a3.21,3.21,0,0,0-3.31,3.36V107h-2V99.13c0-2.21-.94-3.12-2.66-3.12a3.21,3.21,0,0,0-3.31,3.36V107h-2Z"/>
    <path class="cls-3" d="M127.18,94.5h2v2.11a5.16,5.16,0,0,1,4.25-2.33c3.29,0,5.71,2.4,5.71,6.31v.19c0,3.84-2.26,6.48-5.71,6.48a4.76,4.76,0,0,1-4.25-2.28v6.43h-2Zm9.89,6.38v-.19c0-3.17-1.75-4.75-3.86-4.75-2.33,0-4.1,1.54-4.1,4.75v.19c0,3.22,1.68,4.73,4.13,4.73S137.07,103.93,137.07,100.88Z"/>
    <path class="cls-3" d="M141.19,103.57c0-2.9,3.07-3.89,6.29-3.89h1.8v-.91c0-2-.77-2.83-2.69-2.83-1.73,0-2.69.72-2.88,2.26h-2c.26-2.86,2.54-3.91,5-3.91s4.58,1,4.58,4.49V107h-2v-1.58a4.53,4.53,0,0,1-3.91,1.8C143,107.27,141.19,106.14,141.19,103.57Zm8.09-.91V101.1h-1.73c-2.52,0-4.37.62-4.37,2.47,0,1.3.62,2.11,2.38,2.11C147.67,105.68,149.28,104.6,149.28,102.66Z"/>
    <path class="cls-3" d="M155.18,94.5h2v2a4.31,4.31,0,0,1,4-2.21c2.59,0,4.42,1.42,4.42,5.06V107h-2V99.2c0-2.21-.94-3.19-3-3.19a3.3,3.3,0,0,0-3.5,3.43V107h-2Z"/>
    <path class="cls-3" d="M172.68,105.75,167.76,94.5h2.14l3.84,9,3.48-9h2l-6.94,16.92h-2Z"/>
  </g>
</svg>
