<?xml version="1.0" encoding="utf-8"?>
<!-- Generator: Adobe Illustrator 19.0.0, SVG Export Plug-In . SVG Version: 6.00 Build 0)  -->
<svg version="1.1" id="Layer_1" xmlns="http://www.w3.org/2000/svg" xmlns:xlink="http://www.w3.org/1999/xlink" x="0px" y="0px"
	 viewBox="-268 222 255 170" style="enable-background:new -268 222 255 170;" xml:space="preserve">
<style type="text/css">
	.st0{fill:#421B4B;}
	.st1{fill:#FFFFFF;}
</style>
<g>
	<circle class="st0" cx="-140.5" cy="281.4" r="31"/>
	<path class="st1" d="M-131.8,288.3c-0.7-0.9-1.4-1.7-1.4-3.5V279c0-2.5,0.2-4.7-1.6-6.4c-1.4-1.4-3.8-1.8-5.6-1.8
		c-3.5,0-7.5,1.3-8.3,5.7c-0.1,0.5,0.2,0.7,0.6,0.8l3.6,0.4c0.3,0,0.6-0.3,0.6-0.7c0.3-1.5,1.6-2.2,3-2.2c0.8,0,1.6,0.3,2.1,1
		c0.5,0.8,0.5,1.8,0.5,2.7v0.5c-2.2,0.2-5,0.4-7,1.3c-2.3,1-4,3.1-4,6.1c0,3.9,2.4,5.8,5.6,5.8c2.6,0,4.1-0.6,6.1-2.7
		c0.7,1,0.9,1.5,2.1,2.5c0.3,0.1,0.6,0.1,0.9-0.1l0,0c0.7-0.7,2.1-1.8,2.9-2.5C-131.5,289-131.6,288.6-131.8,288.3 M-138.4,282.7
		c0,1.4,0,2.7-0.7,3.9c-0.6,1-1.5,1.7-2.6,1.7c-1.4,0-2.3-1.1-2.3-2.7c0-3.2,2.8-3.8,5.5-3.8V282.7z"/>
</g>
<g>
	<path class="st0" d="M-236.2,349.3h-8.8l-2.2,5.6l2.2,0.2c0.3,0,0.5,0.1,0.7,0.2c0.1,0.1,0.2,0.2,0.2,0.4c0,0.1-0.1,0.4-0.2,0.7
		h-6.9l0.1-0.8c0.2-0.1,0.5-0.2,0.8-0.3c0.3-0.1,0.7-0.2,1.2-0.3l7.7-18.6c0.1-0.1,0.2-0.2,0.3-0.4c0.1-0.1,0.3-0.2,0.5-0.3
		c0.2-0.1,0.4-0.2,0.6-0.3c0.2-0.1,0.4-0.1,0.6-0.1l7.2,19.6l1.5,0.2c0.3,0,0.4,0.1,0.6,0.2c0.1,0.1,0.2,0.2,0.2,0.4
		c0,0.2-0.1,0.5-0.2,0.7h-7.3l0.1-0.8c0.3-0.1,0.7-0.2,1.3-0.3c0.6-0.1,1.2-0.2,1.9-0.3L-236.2,349.3z M-244.4,347.9h7.7l-3.6-10.3
		L-244.4,347.9z"/>
	<path class="st0" d="M-201.3,355.1c0.5,0.1,0.7,0.3,0.7,0.6c0,0.1,0,0.2-0.1,0.3c0,0.1-0.1,0.3-0.1,0.4h-6.8l0.1-0.9
		c0.2-0.1,0.6-0.2,1-0.3c0.4-0.1,0.9-0.2,1.4-0.3v-7.9c0-1.6-0.3-2.7-0.9-3.4c-0.6-0.7-1.5-1-2.8-1c-1,0-1.9,0.2-2.7,0.6
		c-0.8,0.4-1.6,1.1-2.3,2c0,0.2,0,0.4,0,0.6c0,0.2,0,0.4,0,0.6v8.5l2,0.2c0.5,0.1,0.7,0.3,0.7,0.6c0,0.1,0,0.2-0.1,0.3
		c0,0.1-0.1,0.3-0.1,0.4h-6.8l0.1-0.9c0.3-0.1,0.6-0.2,1-0.3c0.4-0.1,0.8-0.2,1.4-0.3v-7.9c0-1.6-0.3-2.7-0.9-3.4
		c-0.6-0.7-1.5-1-2.8-1c-1,0-1.8,0.2-2.7,0.7c-0.8,0.5-1.6,1.1-2.3,2v9.6l1.8,0.2c0.3,0,0.5,0.1,0.6,0.2s0.1,0.2,0.1,0.4
		c0,0.1,0,0.2-0.1,0.3c0,0.1-0.1,0.3-0.1,0.4h-6.9l0.1-0.9c0.3-0.1,0.7-0.2,1.1-0.3c0.4-0.1,1-0.2,1.6-0.3v-11.7l-3.1-0.4
		c0-0.1,0-0.2,0-0.3c0-0.1,0-0.1,0-0.1c0-0.1,0.1-0.3,0.2-0.3c0.1-0.1,0.4-0.2,0.8-0.3c0.4-0.1,0.9-0.2,1.6-0.3
		c0.7-0.1,1.3-0.2,2-0.2l0.2,2.6c0.9-1,1.8-1.7,2.6-2.1c0.9-0.5,1.9-0.7,3.1-0.7c2.2,0,3.7,1,4.4,2.9c0.9-1,1.8-1.7,2.7-2.2
		c0.9-0.5,2-0.7,3.2-0.7c1.5,0,2.7,0.5,3.5,1.4c0.8,0.9,1.2,2.3,1.2,4.1v8.5L-201.3,355.1z"/>
	<path class="st0" d="M-183.8,355.3c0,0.2-0.1,0.3-0.3,0.5c-0.2,0.2-0.4,0.3-0.7,0.4c-0.3,0.1-0.6,0.2-0.9,0.3
		c-0.3,0.1-0.6,0.1-0.9,0.1c-0.6,0-1.1-0.2-1.5-0.6c-0.4-0.4-0.6-1-0.7-1.8c-0.6,0.8-1.3,1.4-2.2,1.8c-0.9,0.5-1.8,0.7-2.8,0.7
		c-0.6,0-1.2-0.1-1.8-0.3c-0.6-0.2-1-0.5-1.4-0.9c-0.4-0.4-0.7-0.8-1-1.3c-0.2-0.5-0.4-1.1-0.4-1.7c0-0.7,0.2-1.3,0.5-1.8
		c0.4-0.5,0.9-1,1.7-1.3c0.8-0.4,1.7-0.6,2.9-0.9c1.2-0.2,2.6-0.4,4.3-0.4v-1.8c0-1.3-0.2-2.3-0.7-2.9c-0.5-0.6-1.4-0.9-2.6-0.9
		c-1.3,0-2.3,0.3-2.9,0.9c-0.6,0.6-0.9,1.4-1,2.5h-0.2c-1,0-1.6-0.4-1.6-1.2c0-0.5,0.2-0.9,0.5-1.4c0.4-0.5,0.8-0.9,1.4-1.2
		c0.6-0.4,1.3-0.7,2.1-0.9c0.8-0.2,1.6-0.3,2.4-0.3c2.9,0,4.4,1.7,4.4,5v6.9c0,0.8,0.1,1.3,0.4,1.7s0.7,0.5,1.4,0.5
		c0.3,0,0.6,0,0.8-0.1c0.3,0,0.5-0.1,0.7-0.2V355.3z M-188.9,349.5l-1.1,0.1c-1.2,0.1-2.2,0.2-3,0.3c-0.8,0.1-1.5,0.3-2,0.5
		c-0.5,0.2-0.9,0.5-1.1,0.8c-0.2,0.3-0.3,0.7-0.3,1.2c0,0.8,0.3,1.4,0.9,1.9c0.6,0.5,1.4,0.8,2.3,0.8c0.4,0,0.9-0.1,1.3-0.2
		c0.5-0.1,0.9-0.3,1.3-0.5c0.4-0.2,0.7-0.5,1.1-0.8c0.3-0.3,0.6-0.6,0.7-0.9V349.5z"/>
	<path class="st0" d="M-172.5,356.4h-9.1c-0.3,0-0.5,0-0.7-0.1c-0.1-0.1-0.2-0.2-0.2-0.5l-0.1-0.6l9.5-12.5h-3.3c-0.8,0-1.5,0-2.1,0
		c-0.6,0-1.2,0-1.8,0.1l-1,3h-0.4c-0.2,0-0.4-0.1-0.5-0.2c-0.1-0.1-0.1-0.4-0.1-0.9c0-0.5,0-1,0.1-1.6c0-0.6,0.1-1.2,0.2-1.8h10.4
		c0.3,0,0.4,0.1,0.5,0.2c0.1,0.1,0.2,0.4,0.4,0.9l-9.6,12.6h4.5c0.5,0,1.1,0,1.7-0.1c0.6,0,1.1-0.1,1.6-0.2c0.2-0.4,0.4-0.8,0.6-1.3
		c0.2-0.5,0.5-1.1,0.8-2h0.4c0.5,0,0.7,0.3,0.7,0.9c0,0.2,0,0.5-0.1,0.9c-0.1,0.4-0.2,0.8-0.3,1.2c-0.1,0.4-0.2,0.8-0.3,1.2
		c-0.1,0.4-0.2,0.6-0.3,0.8L-172.5,356.4z"/>
	<path class="st0" d="M-167.9,349c0-1.2,0.2-2.3,0.5-3.3c0.3-1,0.8-1.8,1.5-2.5c0.6-0.7,1.4-1.2,2.3-1.6c0.9-0.4,1.9-0.6,3.1-0.6
		c1.1,0,2.1,0.2,3,0.5c0.9,0.4,1.6,0.9,2.2,1.5c0.6,0.7,1,1.5,1.4,2.4c0.3,1,0.5,2,0.5,3.2c0,1.2-0.2,2.4-0.5,3.4
		c-0.3,1-0.8,1.8-1.5,2.5c-0.6,0.7-1.4,1.2-2.3,1.6c-0.9,0.4-1.9,0.6-3.1,0.6c-1.1,0-2.1-0.2-3-0.5c-0.9-0.4-1.6-0.9-2.2-1.5
		c-0.6-0.7-1-1.5-1.4-2.4C-167.7,351.2-167.9,350.1-167.9,349z M-166.1,348.6c0,1,0.1,1.9,0.4,2.7c0.3,0.8,0.6,1.5,1.1,2.1
		c0.5,0.6,1,1,1.7,1.4c0.7,0.3,1.5,0.5,2.3,0.5c1.7,0,3-0.6,3.9-1.7c0.9-1.1,1.4-2.6,1.4-4.5c0-1-0.1-1.9-0.4-2.7
		c-0.3-0.8-0.6-1.5-1.1-2.1c-0.5-0.6-1-1-1.7-1.4c-0.7-0.3-1.5-0.5-2.3-0.5c-1.7,0-3,0.6-3.9,1.7
		C-165.6,345.2-166.1,346.7-166.1,348.6z"/>
	<path class="st0" d="M-140.1,356.4l0.1-0.9c0.2-0.1,0.6-0.2,1-0.3c0.4-0.1,0.9-0.2,1.4-0.3v-7.9c0-1.6-0.3-2.7-0.9-3.4
		c-0.6-0.7-1.5-1-2.9-1c-2,0-3.7,0.9-5.2,2.7v9.6l2,0.2c0.5,0.1,0.7,0.3,0.7,0.6c0,0.1,0,0.2-0.1,0.3c0,0.1-0.1,0.3-0.1,0.4h-7.1
		l0.1-0.9c0.3-0.1,0.7-0.2,1.1-0.3c0.4-0.1,1-0.2,1.6-0.3v-11.7l-3.1-0.4c0-0.1,0-0.2,0-0.4c0-0.1,0.1-0.3,0.2-0.3
		c0.1-0.1,0.4-0.2,0.8-0.3c0.4-0.1,0.9-0.2,1.6-0.3c0.7-0.1,1.3-0.2,2-0.2l0.2,2.6c0.9-1,1.8-1.7,2.8-2.2c1-0.5,2-0.7,3.2-0.7
		c1.6,0,2.8,0.5,3.6,1.4c0.8,0.9,1.2,2.3,1.2,4.1v8.5l2,0.2c0.5,0.1,0.7,0.3,0.7,0.6c0,0.1,0,0.2-0.1,0.3c0,0.1-0.1,0.3-0.1,0.4
		H-140.1z"/>
	<g>
		<path class="st0" d="M-121.8,337.1l-2.1-0.2c-0.2,0-0.4-0.1-0.5-0.2c-0.1-0.1-0.2-0.2-0.2-0.4c0-0.2,0-0.3,0.1-0.5
			c1.6-0.2,3.1-0.3,4.4-0.4c1.3-0.1,2.4-0.2,3.3-0.2c3.7,0,6.5,0.9,8.4,2.6c1.9,1.8,2.9,4.4,2.9,7.8c0,1.7-0.3,3.2-0.8,4.6
			c-0.5,1.3-1.3,2.5-2.3,3.4c-1,0.9-2.2,1.6-3.7,2.1c-1.4,0.5-3.1,0.7-4.9,0.7c-0.3,0-0.7,0-1.3,0c-0.6,0-1.1,0-1.8,0
			c-0.6,0-1.3,0-1.9,0c-0.6,0-1.1,0-1.5,0h-0.9l0.1-0.8c0.2-0.1,0.6-0.2,1.1-0.3c0.5-0.1,1.1-0.2,1.7-0.3V337.1z M-118.8,336.7
			c-0.2,0-0.4,0-0.6,0c-0.2,0-0.4,0-0.5,0v18.1c0.5,0.1,0.9,0.1,1.4,0.1c0.5,0,1,0,1.4,0c3.2,0,5.6-0.8,7.2-2.3
			c1.6-1.5,2.3-3.9,2.3-7c0-3.1-0.9-5.4-2.7-6.9C-112.1,337.4-114.9,336.7-118.8,336.7z"/>
		<path class="st0" d="M-100.8,348.6c0,2.2,0.5,3.9,1.5,4.9c1,1.1,2.5,1.6,4.3,1.6c0.8,0,1.7-0.1,2.5-0.3c0.9-0.2,1.6-0.4,2.2-0.6
			v0.4c0,0.3-0.1,0.6-0.4,0.8c-0.3,0.3-0.6,0.5-1.1,0.7c-0.5,0.2-1,0.3-1.6,0.5c-0.6,0.1-1.3,0.2-2,0.2c-2.5,0-4.4-0.7-5.6-2
			c-1.2-1.3-1.8-3.2-1.8-5.6c0-2.6,0.6-4.6,1.9-6c1.3-1.4,3-2.2,5.2-2.2c1.8,0,3.2,0.5,4.2,1.5c0.9,1,1.4,2.4,1.4,4.1
			c0,0.9-0.1,1.5-0.3,2H-100.8z M-95.9,342.4c-0.8,0-1.5,0.1-2,0.4c-0.6,0.2-1.1,0.6-1.5,1c-0.4,0.4-0.7,0.9-0.9,1.5
			c-0.2,0.6-0.4,1.2-0.4,1.9h8.9c0-1.6-0.4-2.8-1.1-3.6C-93.6,342.8-94.6,342.4-95.9,342.4z"/>
		<path class="st0" d="M-82.2,356.7c-0.7,0-1.4-0.1-2.2-0.2c-0.7-0.2-1.4-0.4-2-0.7c-0.1-0.4-0.1-0.9-0.2-1.5c0-0.6-0.1-1-0.1-1.4
			c0-0.6,0.1-1.1,0.2-1.4c0.1-0.3,0.3-0.4,0.6-0.4h0.4c0,1.4,0.3,2.4,0.8,3.1c0.5,0.7,1.4,1,2.7,1c1.2,0,2.2-0.3,2.8-0.8
			c0.6-0.5,0.9-1.2,0.9-1.9c0-0.3,0-0.5-0.1-0.8c-0.1-0.2-0.2-0.4-0.4-0.6c-0.2-0.2-0.5-0.4-0.8-0.6c-0.3-0.2-0.8-0.4-1.3-0.6
			l-2.3-0.9c-1.2-0.5-2.1-1.1-2.6-1.7c-0.5-0.6-0.7-1.4-0.7-2.2c0-0.7,0.1-1.3,0.4-1.8c0.3-0.5,0.6-1,1.1-1.3c0.5-0.4,1-0.6,1.7-0.8
			c0.6-0.2,1.3-0.3,2.1-0.3c0.7,0,1.4,0.1,2.2,0.2c0.7,0.2,1.4,0.4,1.9,0.6c0,0.1,0.1,0.3,0.1,0.6c0,0.2,0,0.5,0,0.8
			c0,1.5-0.3,2.3-1,2.3h-0.3V345c0-0.9-0.3-1.5-0.8-2c-0.5-0.5-1.4-0.7-2.5-0.7c-1.1,0-1.9,0.2-2.5,0.6c-0.5,0.4-0.8,1-0.8,1.8
			c0,0.5,0.2,1,0.5,1.4c0.3,0.4,0.9,0.7,1.8,1.1l2.5,1.1c1.3,0.6,2.2,1.1,2.7,1.7c0.5,0.6,0.8,1.3,0.8,2.2c0,0.7-0.1,1.3-0.4,1.9
			c-0.3,0.6-0.7,1-1.2,1.4c-0.5,0.4-1.1,0.7-1.8,0.9C-80.6,356.6-81.4,356.7-82.2,356.7z"/>
		<path class="st0" d="M-74.1,356.4l0.1-0.8c0.3-0.1,0.7-0.2,1.2-0.3c0.5-0.1,1.1-0.2,1.9-0.4v-11.8l-3.1-0.3c0-0.1,0-0.3,0-0.5
			c0-0.1,0.1-0.2,0.2-0.3c0.1-0.1,0.4-0.2,0.8-0.3c0.2-0.1,0.5-0.1,0.8-0.2c0.3-0.1,0.7-0.1,1-0.2c0.3-0.1,0.7-0.1,1-0.1
			c0.3,0,0.6,0,0.9,0h0.2v13.7l2.5,0.3c0.5,0.1,0.7,0.2,0.7,0.5c0,0.2-0.1,0.4-0.2,0.7H-74.1z M-71.9,335.8c0-1,0.5-1.6,1.5-1.6
			c0.5,0,0.8,0.1,1.1,0.4c0.3,0.3,0.4,0.6,0.4,1c0,0.5-0.1,0.9-0.4,1.2c-0.3,0.3-0.6,0.4-1.1,0.4c-0.5,0-0.8-0.1-1.1-0.4
			C-71.8,336.6-71.9,336.2-71.9,335.8z"/>
		<path class="st0" d="M-57.7,351.1c-0.6,0-1.1-0.1-1.7-0.2c-0.5-0.1-1-0.3-1.5-0.5c-0.3,0.3-0.5,0.6-0.7,1
			c-0.2,0.4-0.3,0.8-0.3,1.2c0,0.6,0.2,1,0.7,1.2c0.5,0.2,1.4,0.4,2.7,0.4h4.2c1.5,0,2.7,0.3,3.5,0.9c0.8,0.6,1.1,1.4,1.1,2.5
			c0,0.8-0.2,1.5-0.6,2.2c-0.4,0.7-1,1.3-1.8,1.9c-0.8,0.5-1.7,1-2.8,1.3c-1.1,0.3-2.3,0.5-3.6,0.5c-2,0-3.6-0.3-4.7-1
			c-1.1-0.7-1.7-1.6-1.7-2.8c0-0.8,0.3-1.6,0.8-2.2c0.5-0.6,1.2-1.2,2.1-1.9c-0.4-0.2-0.8-0.5-1.1-0.9c-0.3-0.4-0.5-0.9-0.5-1.4
			c0-0.4,0.1-0.7,0.2-1.1c0.1-0.4,0.3-0.7,0.5-1c0.2-0.3,0.4-0.6,0.6-0.8c0.2-0.2,0.4-0.4,0.6-0.5c-0.5-0.4-0.9-0.9-1.2-1.6
			c-0.3-0.6-0.5-1.4-0.5-2.2c0-0.7,0.1-1.4,0.4-2.1c0.3-0.6,0.7-1.2,1.2-1.6c0.5-0.5,1.1-0.8,1.9-1.1c0.7-0.3,1.5-0.4,2.5-0.4
			c0.6,0,1.1,0.1,1.6,0.2c0.5,0.1,0.9,0.3,1.4,0.5c0.6-0.2,1.3-0.3,2-0.4c0.7-0.1,1.3-0.2,1.7-0.2c0.5,0,0.9,0.1,1.1,0.2
			c0.2,0.2,0.3,0.4,0.3,0.6c0,0.2-0.1,0.5-0.2,0.7c-0.1,0.2-0.2,0.4-0.3,0.6c-0.4-0.2-0.9-0.4-1.6-0.5c-0.7-0.1-1.3-0.2-1.9-0.2
			c0.5,0.5,0.9,1.1,1.2,1.7c0.3,0.6,0.4,1.2,0.4,1.9c0,0.7-0.1,1.4-0.4,2.1c-0.3,0.6-0.6,1.2-1.2,1.6c-0.5,0.5-1.1,0.8-1.9,1.1
			C-55.9,351-56.7,351.1-57.7,351.1z M-58.4,356c-0.1,0-0.4,0-0.8,0c-0.4,0-0.9,0-1.4-0.1c-0.8,0.5-1.4,1-1.8,1.6
			c-0.5,0.6-0.7,1.2-0.7,1.8c0,0.8,0.4,1.4,1.2,1.9c0.8,0.5,2,0.7,3.5,0.7c1,0,1.9-0.1,2.8-0.3c0.9-0.2,1.6-0.5,2.2-0.8
			c0.6-0.4,1.1-0.8,1.5-1.3s0.5-1,0.5-1.6c0-0.6-0.2-1.1-0.7-1.4c-0.4-0.3-1.2-0.5-2.1-0.5H-58.4z M-61.5,346c0,2.5,1.3,3.7,4,3.7
			c1.3,0,2.3-0.3,3-0.9c0.6-0.6,0.9-1.5,0.9-2.7c0-2.5-1.3-3.7-4-3.7c-1.3,0-2.3,0.3-3,0.9C-61.2,343.9-61.5,344.8-61.5,346z"/>
		<path class="st0" d="M-36.8,356.4l0.1-0.9c0.2-0.1,0.6-0.2,1-0.3c0.4-0.1,0.9-0.2,1.4-0.3v-7.9c0-1.6-0.3-2.7-0.9-3.4
			c-0.6-0.7-1.5-1-2.9-1c-2,0-3.7,0.9-5.2,2.7v9.6l2,0.2c0.5,0.1,0.7,0.3,0.7,0.6c0,0.1,0,0.2-0.1,0.3c0,0.1-0.1,0.3-0.1,0.4h-7.1
			l0.1-0.9c0.3-0.1,0.7-0.2,1.1-0.3c0.4-0.1,1-0.2,1.6-0.3v-11.7l-3.1-0.4c0-0.1,0-0.2,0-0.4c0-0.1,0.1-0.3,0.2-0.3
			c0.1-0.1,0.4-0.2,0.8-0.3c0.4-0.1,0.9-0.2,1.6-0.3c0.7-0.1,1.3-0.2,2-0.2l0.2,2.6c0.9-1,1.8-1.7,2.8-2.2c1-0.5,2-0.7,3.2-0.7
			c1.6,0,2.8,0.5,3.6,1.4c0.8,0.9,1.2,2.3,1.2,4.1v8.5l2,0.2c0.5,0.1,0.7,0.3,0.7,0.6c0,0.1,0,0.2-0.1,0.3c0,0.1-0.1,0.3-0.1,0.4
			H-36.8z"/>
	</g>
</g>
</svg>
