<svg id="elements" xmlns="http://www.w3.org/2000/svg" viewBox="0 0 255 170">
  <defs>
    <style>
      .cls-1 {
        fill: none;
      }

      .cls-2 {
        fill: #421b4b;
      }
    </style>
  </defs>
  <title>partner-OnlyLyon</title>
  <rect class="cls-1" width="255" height="170"/>
  <g>
    <path class="cls-2" d="M233.66,77.61a2.17,2.17,0,0,0-.27-.36c-.18-.2-.63-.47-.85-.68s-.47-.56-.59-.65-.38-.5-.5-.59a2.68,2.68,0,0,1-.29-.83.54.54,0,0,0-.27-.38,4.48,4.48,0,0,1-.61-.41c-.2-.16-.7-.65-.7-.65a6.16,6.16,0,0,0-.32-1.24c-.2-.43-.27-.59-.36-.75a1.16,1.16,0,0,1-.2-.45,1,1,0,0,0-.52.14,12.32,12.32,0,0,0-1-.7,7.25,7.25,0,0,0-1.38-.68A1.77,1.77,0,0,1,225,69a4.23,4.23,0,0,0-.67,0l-1.3.15c-.38.05-1.3.21-1.52.22a8.15,8.15,0,0,0-1.21.19,6.52,6.52,0,0,0-.72.17,5.86,5.86,0,0,1-1.15.34c-.44.05-.9.06-1.42.14-.23,0-1.13.39-1.54.49a4.35,4.35,0,0,1-.45.07s.08.3.32.35a1,1,0,0,1-.41.41,9.18,9.18,0,0,1-1,.41,7.11,7.11,0,0,0-1.19.52.94.94,0,0,0,.38.38s.05,0-.29.22-1.11.5-1.47.67-.86.45-1.1.58-.38.19-.7.39-.16.19-.16.19a3.14,3.14,0,0,0,.4.05.76.76,0,0,1,.36.11.33.33,0,0,1-.14.27,5.79,5.79,0,0,1-1,.85c-.27.18-.51.4-.82.61s-.62.58-.72.65l.32.29,0,.23a4.64,4.64,0,0,1-.54.27,23.66,23.66,0,0,1-5,.37c-4.17-.06-5.32-.59-7.44-.69a15.53,15.53,0,0,0-5.65,1,6.36,6.36,0,0,0-.91.35,16.21,16.21,0,0,0-2.39.69c-2.7,1-7.42,4.94-8.73,5.49a5,5,0,0,1-3,.46,3.44,3.44,0,0,1-1.29-.34,4.57,4.57,0,0,0-1-1.41A13.08,13.08,0,0,0,169.5,83a3.27,3.27,0,0,0,.32,2.25c.74,1.32,2.19,1.23,2.71,1.44a7.41,7.41,0,0,0,5,.07,39.82,39.82,0,0,0,4.57-2.46,14,14,0,0,1,4.75-1.44c-.08.28-.16.55-.24.8a31.75,31.75,0,0,1-2.48,4.8,34.16,34.16,0,0,1-2.24,2.7,4.27,4.27,0,0,1-1.77.65c-.91.17-3.55.44-3.55.44a25.71,25.71,0,0,1-1,3.78c-.24.58-.8,1.74-.8,1.74A5.16,5.16,0,0,1,176,99.84c.19.35.52,1,.73,1H181s.29-1-.54-1.32a6.85,6.85,0,0,0-1.36-.71,1.17,1.17,0,0,1-.82-.82,4.94,4.94,0,0,1-.2-1.38s.09-.88.57-1.08,1.82.25,3.06,0a31.51,31.51,0,0,0,5.53-1.7A17.35,17.35,0,0,0,190,91.65a2.55,2.55,0,0,1,.93-.49s.55.59,1.66,1.58,1.49,1.44,1.87,1.76a3.86,3.86,0,0,1,.92,1.23,9.11,9.11,0,0,1,.2,2.61,10.27,10.27,0,0,1,2.29,1.11,5.17,5.17,0,0,1,1,1.44h5.18a.88.88,0,0,0-.33-1c-.2-.2-.38-.61-.88-.78-1.77-.63-1.74-.38-2.25-.78a7.29,7.29,0,0,1-1.41-1.21,10.22,10.22,0,0,1-.56-3.35,20.84,20.84,0,0,0-.12-2.13c1.62-.27,4.17-.67,6.12.2.39.17,1.41.6,2.46,1a2.89,2.89,0,0,1,.15,1.23,7.21,7.21,0,0,1-1.47,3.1,19.79,19.79,0,0,0,.89,2,8.32,8.32,0,0,1,1,1.17c.12.23.3.63.3.63h4.47s.32-.82-.28-1.16c-.25-.14-.48-.44-.78-.58-1.14-.54-1.26-.34-1.73-.72-.27-.2-.45-1.07-.45-1.07s2.08-2,2.48-2.57.69-.91.92-1.23a12.91,12.91,0,0,0,3.77-.75l.45-.26.47.27c.83.49,2.93,1.38,3.67,2a11.84,11.84,0,0,1,1.79,2.37A7,7,0,0,1,225,98.46a5.92,5.92,0,0,0,1.9.86,2.11,2.11,0,0,1,1.14.62c.65.59.71.73,1.3.79,1.06.1,2.89.11,2.89.11s.51-1.14-.32-1.53-.11-.72-2-1.45a9.34,9.34,0,0,1-1.78-.76c-.31-.25-2-2.59-2.81-3.57s-2.53-3.25-2.53-3.25l-.38-.89.07-.68.33-.35a7,7,0,0,0,.88-1.08c.31-.64.2,0,.4-.36a3.4,3.4,0,0,1,1-.73,3.47,3.47,0,0,0,.58-.58,1.87,1.87,0,0,0,.11.51,3.71,3.71,0,0,0,.43-.46c.27-.32.18-.35.5-.68a5.76,5.76,0,0,0,.77-1.38,3.37,3.37,0,0,1,.38-.62s.14.33.23.56a1.59,1.59,0,0,0,.3-.42,4.61,4.61,0,0,1,.29-.71c.15-.24.25-.54.4-.6a2.11,2.11,0,0,1,.73-.25,3.85,3.85,0,0,1,.79.17c.26.06.38-.06.56.18a1.31,1.31,0,0,0,.41.35s0,0,.22-.14a2.1,2.1,0,0,0,.43-.25c.2-.14.16-.22.32-.36a1.06,1.06,0,0,0,.32-.58c.07-.27,0-.42.08-.55s.39-.13.52-.44.09-.36.14-.41a.77.77,0,0,0,.09-.27,1.43,1.43,0,0,0,.41-.56.75.75,0,0,1,.22-.45A1.25,1.25,0,0,0,233.66,77.61Z"/>
    <path class="cls-2" d="M92,78.48H90.16L84.61,89.77,78.93,78.48H77.11L83.7,91.56v9.25h1.69V91.56ZM78.82,100.81V99.31H67V78.48H65.27v22.33Zm-20.45,0V78.48H56.68V97.83L43.79,78.48H42.09v22.33h1.69V81.4l12.89,19.41Zm-24-11.17c0,4.8-.13,6.52-1.72,8.12a6.06,6.06,0,0,1-8.47,0c-1.6-1.6-1.73-3.32-1.73-8.12s.13-6.52,1.73-8.12a6.06,6.06,0,0,1,8.47,0c1.6,1.6,1.72,3.32,1.72,8.12m1.69,0c0-5,0-7-2.07-9.06a8,8,0,0,0-11.17,0c-2,2-2.07,4-2.07,9.06s0,7,2.07,9.06a8,8,0,0,0,11.17,0c2-2,2.07-4,2.07-9.06"/>
    <path class="cls-2" d="M167,100.81V78.48h-4.36V92.16l-8.85-13.68H149.9v22.33h4.36V87.11l8.84,13.71ZM141.09,89.65c0,4.3-.25,5.33-1.1,6.27a3.62,3.62,0,0,1-2.79,1.19,3.69,3.69,0,0,1-2.82-1.19c-.85-.94-1.07-2-1.07-6.27s.22-5.33,1.07-6.27a3.69,3.69,0,0,1,2.82-1.19A3.62,3.62,0,0,1,140,83.37c.85.94,1.1,2,1.1,6.27m4.36,0c0-3.86,0-6.65-2.23-8.91a8.67,8.67,0,0,0-12.08,0c-2.26,2.26-2.2,5.05-2.2,8.91s-.06,6.65,2.2,8.91a8.67,8.67,0,0,0,12.08,0c2.26-2.26,2.23-5.05,2.23-8.91M127.32,78.48h-4.74l-4.11,9-4.17-9h-4.74l6.71,13.17v9.16h4.33V91.65Zm-16.05,22.33V96.92H101.14V78.48H96.78v22.33Z"/>
  </g>
</svg>
