<?xml version="1.0" encoding="utf-8"?>
<!-- Generator: Adobe Illustrator 19.0.0, SVG Export Plug-In . SVG Version: 6.00 Build 0)  -->
<svg version="1.1" id="Layer_1" xmlns="http://www.w3.org/2000/svg" xmlns:xlink="http://www.w3.org/1999/xlink" x="0px" y="0px"
	 viewBox="-484 312 255 170" style="enable-background:new -484 312 255 170;" xml:space="preserve">
<style type="text/css">
	.st0{fill:#421B4B;}
</style>
<g id="g2452" transform="matrix(1.25,0,0,-1.25,0,990)">
	<g id="g2488">
		<path id="path2474" class="st0" d="M-227.4,486.1c-6.5,0-11.4-3.3-11.4-9.9l0,0v-13.3h4.8v13.3c0,3.7,2.3,6,6.6,6l0,0
			c4.3,0,6.6-2.3,6.6-6l0,0v-13.3h4.8v13.3C-216,482.8-220.9,486.1-227.4,486.1L-227.4,486.1C-227.4,486.1-227.4,486.1-227.4,486.1
			 M-253.4,486.1c-3,0-6.5-0.6-8.8-2.4l0,0c-1.8-1.4,1.9-3.2,5.1-1.6l0,0c0.8,0.4,1.9,0.7,3.1,0.7l0,0c5,0,6.7-2.1,6.8-5.6l0,0
			c-2.2,0-4.5,0-7.5-0.1l0,0c-8-0.2-11.9-2.6-11.9-7.5l0,0c0-4.3,4.2-7.5,10-7.5l0,0c6.4,0,12.8,1.2,12.8,1.2l0,0
			c1.8,1.8,1.5,14.8,1.5,14.8l0,0C-242.2,483.8-247.1,486.1-253.4,486.1L-253.4,486.1C-253.3,486.1-253.3,486.1-253.4,486.1
			 M-261.3,469.7c0,2.7,2.7,3.5,7.4,3.6l0,0c2.9,0.1,5.1,0.1,6.8,0.1l0,0c-0.2-4.7,1.3-7.9-8.3-7.9l0,0
			C-259.5,465.6-261.3,467.8-261.3,469.7 M-344.8,486.1c-3,0-6.5-0.6-8.8-2.4l0,0c-1.8-1.4,1.9-3.2,5.1-1.6l0,0
			c0.8,0.4,1.9,0.7,3.1,0.7l0,0c5,0,6.7-2.1,6.8-5.6l0,0c-2.2,0-4.5,0-7.5-0.1l0,0c-8-0.2-11.9-2.6-11.9-7.5l0,0
			c0-4.3,4.2-7.5,10-7.5l0,0c6.4,0,12.8,1.2,12.8,1.2l0,0c1.8,1.8,1.5,14.8,1.5,14.8l0,0C-333.6,483.8-338.5,486.1-344.8,486.1
			L-344.8,486.1C-344.7,486.1-344.7,486.1-344.8,486.1 M-352.7,469.7c0,2.7,2.7,3.5,7.4,3.6l0,0c2.9,0.1,5.1,0.1,6.8,0.1l0,0
			c-0.2-4.7,1.3-7.9-8.3-7.9l0,0C-350.9,465.6-352.7,467.8-352.7,469.7 M-278.1,485.8h-14.1v-22.9h5.1v9l6.2,0
			c4.7-0.1,6.3-1.1,6.3-5.4l0,0v-3.6h5.2v4.2c0,3.3-0.7,5.4-3.5,6.2l0,0c2.1,1.3,3.5,3.3,3.5,5.6l0,0
			C-269.2,483.5-273,485.8-278.1,485.8L-278.1,485.8C-278.1,485.8-278.1,485.8-278.1,485.8 M-287,482.1h7.2c2.7,0,5.3-0.3,5.3-3l0,0
			c0-2.8-2.5-3.5-5.5-3.5l0,0l-7,0V482.1z M-318.1,485.8v-3.8h5c3.8,0,3.8,0,3.8-3.7l0,0v-15.5h5.1v15.5c0,3.7,0,3.7,3.7,3.7l0,0h5
			v3.8H-318.1z M-330.8,485.8V468c0-5.2,5.1-5.1,5.1-5.1l0,0h12.6v3.8h-7.5c-5.1,0-5.1,0-5.1,5.1l0,0v14.1H-330.8z"/>
	</g>
</g>
</svg>
