<?xml version="1.0" encoding="utf-8"?>
<!-- Generator: Adobe Illustrator 19.0.0, SVG Export Plug-In . SVG Version: 6.00 Build 0)  -->
<svg version="1.1" id="Layer_1" xmlns="http://www.w3.org/2000/svg" xmlns:xlink="http://www.w3.org/1999/xlink" x="0px" y="0px"
	 viewBox="-484 312 255 170" style="enable-background:new -484 312 255 170;" xml:space="preserve">
<style type="text/css">
	.st0{fill:none;}
	.st1{fill:#421B4B;}
	.st2{opacity:0.8;fill:#421B4B;}
</style>
<path class="st0" d="M-388.1,398.7c0-3-1.2-4.6-3.4-4.6c-1.4,0-2.6,0.8-3.1,2c-0.2,0.6-0.3,1.2-0.3,2.6v0.2h6.8V398.7z"/>
<path class="st0" d="M-394.4,409c0.5,1,1.5,1.6,2.8,1.6c1.6,0,2.9-1,3.3-2.4c0.1-0.6,0.2-1.4,0.2-2.6v-6.8h-6.8v6.9
	C-395,407.6-394.9,408-394.4,409z"/>
<path class="st0" d="M-452.6,408c0,1.6,0.6,2.5,1.9,2.5c0.5,0,1-0.2,1.4-0.6c0.5-0.4,0.5-0.8,0.5-2.4v-8.7h-3.9v8.5V408z"/>
<path class="st0" d="M-441.8,409c0.2,0.8,1,1.4,1.9,1.4c1.3,0,1.9-0.8,1.9-2.6V407v-8.2h-3.9v8.5
	C-441.9,408.4-441.9,408.7-441.8,409z"/>
<path class="st0" d="M-412.8,398.5c0-1.3-0.1-1.7-0.2-2.3c-0.4-1.3-1.7-2.2-3.1-2.2c-1.4,0-2.6,0.8-3.1,2.1
	c-0.2,0.6-0.3,1.2-0.3,2.6v0.1h6.8V398.5z"/>
<path class="st0" d="M-348.4,405.4c-0.7,0.3-1.3,1.1-1.3,2.1c0,0.9,0.5,1.7,1.2,2c0.7,0.3,1.1,0.3,2.7,0.3h2.9v-4.8h-2.6h-1.1
	C-347.3,405.1-347.9,405.2-348.4,405.4z"/>
<rect x="-419.6" y="398.8" class="st0" width="6.8" height="0.1"/>
<path class="st0" d="M-284.6,406c0,1.3,0.1,2,0.4,2.7c0.4,1.1,1.6,1.8,3,1.8c1.3,0,2.5-0.7,3-1.8c0.3-0.9,0.4-1.4,0.4-3.1v-6.1v-0.1
	c0-0.2,0-0.4,0-0.5h-6.8c0,0.1,0,0.3,0,0.4V406z"/>
<path class="st0" d="M-278,396.5c-0.4-1.5-1.6-2.5-3.2-2.5c-1.4,0-2.8,1-3.1,2.3c-0.1,0.5-0.2,1.2-0.2,2.5h6.8
	C-277.8,397.7-277.8,397.2-278,396.5z"/>
<path class="st1" d="M-438,407v0.8c0,1.8-0.6,2.6-1.9,2.6c-0.9,0-1.7-0.6-1.9-1.4c-0.1-0.3-0.1-0.6-0.1-1.7v-8.5h-6.8v8.7
	c0,1.6,0,1.9-0.5,2.4c-0.4,0.4-0.8,0.6-1.4,0.6c-1.3,0-1.9-0.9-1.9-2.5v-0.7v-8.5h-6.8v6.8c0,3.3,0.1,4,0.5,5.6c0.3,1.1,1,2.1,2,3.1
	c1.5,1.5,3.4,2.3,5.6,2.3c2.3,0,4.3-0.8,6-2.6c0.6,0.6,0.8,0.8,1.2,1c1.2,0.9,3,1.5,4.6,1.5c3.7,0,7.1-2.7,7.9-6.3
	c0.3-1.2,0.3-2.1,0.3-4.3v-7.2h-6.8V407z"/>
<path class="st1" d="M-412.8,398.9h-6.8v-0.1h-6.8c0,0.4,0,0.8,0,1.3v4.3v1.3c0,4.6,1.7,7.7,5.3,9.7c1.5,0.8,3.1,1.2,4.8,1.2
	c3.1,0,5.4-1,7.7-3.5l-4.8-4.1c-0.8,1-1.6,1.4-2.7,1.4c-1.3,0-2.5-0.7-3-1.8c-0.3-0.6-0.4-1.1-0.4-2.5v-1.1h13.5v-5.4v-0.9
	L-412.8,398.9L-412.8,398.9z"/>
<path class="st1" d="M-388.1,405.6c0,1.2,0,2-0.2,2.6c-0.3,1.4-1.6,2.4-3.3,2.4c-1.2,0-2.3-0.6-2.8-1.6c-0.5-0.9-0.5-1.3-0.5-3.2
	v-6.9h-6.7v6.1c0,3.4,0.3,5,1.3,6.8c1.7,3,5.1,5,8.7,5c4.1,0,8.1-2.6,9.4-6.3c0.5-1.3,0.8-3.5,0.8-5.1v-6.5h-6.8V405.6z"/>
<path class="st1" d="M-376.8,400.4v4.5c0,3.6,0.3,5.2,1.6,7.1c1.9,2.9,4.9,4.6,8.5,4.6c3.1,0,5.2-0.9,7.7-3.5l-4.8-4.1
	c-0.9,1-1.6,1.5-2.7,1.5c-1.3,0-2.6-0.8-3-1.8c-0.3-0.7-0.4-1.6-0.4-3.6V400c0-0.5,0-0.9,0-1.2h-6.8
	C-376.8,399.3-376.8,399.8-376.8,400.4z"/>
<path class="st1" d="M-350.7,399.4c-1.1,0.4-2.2,1-3.2,1.9c-1.7,1.6-2.6,3.6-2.6,6.1c0,3.5,2,6.7,5,7.9c1.8,0.7,2.7,0.8,5.9,0.8h9.5
	v-14.2v-2.2v-0.6c0-0.1,0-0.2,0-0.3h-10.5C-348.6,398.8-349.3,399-350.7,399.4z M-342.9,405.1v4.8h-2.9c-1.6,0-2,0-2.7-0.3
	c-0.7-0.3-1.2-1.1-1.2-2c0-0.9,0.5-1.8,1.3-2.1c0.4-0.2,1-0.3,1.7-0.3h1.1H-342.9z"/>
<path class="st1" d="M-329,402.9c1.3,1.3,2.6,1.9,5.3,2.4c1.7,0.3,2.2,0.5,2.9,0.9c0.4,0.2,0.6,0.5,0.8,0.8c0.2,0.3,0.3,0.7,0.3,1.1
	c0,1.5-1.2,2.7-2.9,2.7c-1.7,0-2.7-1.1-2.9-3h-6.4c0.1,5,4.1,8.7,9.3,8.7c5.2,0,9.1-3.8,9.1-8.9c0-2.1-0.7-4.1-2.1-5.7
	c-1.5-1.8-3.1-2.5-6-3c-0.5,0-0.9-0.1-1.2-0.2h-8.5C-330.9,400.4-330.1,401.9-329,402.9z"/>
<rect x="-306.1" y="398.8" class="st1" width="6.8" height="17.4"/>
<path class="st1" d="M-277.8,399.3v0.1v6.1c0,1.7-0.1,2.2-0.4,3.1c-0.4,1.1-1.6,1.8-3,1.8c-1.3,0-2.5-0.7-3-1.8
	c-0.3-0.6-0.4-1.3-0.4-2.7v-6.7c0-0.2,0-0.3,0-0.4h-6.8c0,0.1,0,0.1,0,0.2v6.9c0,6.3,4.2,10.8,10.2,10.8c5.8,0,10.1-4.5,10.1-10.6
	v-6.9c0-0.1,0-0.2,0-0.3h-6.7C-277.8,399-277.8,399.2-277.8,399.3z"/>
<path class="st1" d="M-266.2,400.5v15.7h6.8v-16.5v-0.8h-6.8C-266.2,399.3-266.2,399.9-266.2,400.5z"/>
<rect x="-448.7" y="388.4" class="st2" width="6.8" height="10.4"/>
<rect x="-459.5" y="388.4" class="st2" width="6.8" height="10.4"/>
<rect x="-438" y="388.4" class="st2" width="6.8" height="10.4"/>
<path class="st2" d="M-407.9,392.3c-1.8-2.7-4.9-4.3-8.3-4.3c-4.6,0-8.8,3.2-9.8,7.5c-0.3,1.1-0.4,1.7-0.4,3.4h6.8v-0.1
	c0-1.4,0.1-2,0.3-2.6c0.5-1.2,1.7-2.1,3.1-2.1c1.4,0,2.7,0.9,3.1,2.2c0.2,0.6,0.2,1,0.2,2.3v0.3h6.7v-1.1
	C-406.1,395.9-406.7,394-407.9,392.3z"/>
<path class="st2" d="M-383,391.6c-1.5-2.2-4.5-3.7-7.2-3.7c-1.6,0-3.3,0.5-4.7,1.3v-9.7h-6.7v19.3h6.7v-0.2c0-1.3,0.1-1.9,0.3-2.6
	c0.4-1.1,1.7-2,3.1-2c2.2,0,3.4,1.6,3.4,4.6v0.2h6.8v-0.2C-381.3,395-381.7,393.5-383,391.6z"/>
<path class="st2" d="M-368.8,394.8c0.6-0.5,1.3-0.8,2.1-0.8c1.1,0,2,0.4,2.9,1.6l4.8-4.2c-2.4-2.5-4.7-3.5-7.5-3.5
	c-5.5,0-9.7,3.8-10.2,9.3c-0.1,0.5-0.1,1-0.1,1.6h6.8C-369.9,396.4-369.7,395.5-368.8,394.8z"/>
<path class="st2" d="M-341.8,389.2c-1.4-0.5-2.6-0.7-4.9-0.7h-6v6.2h6.7c2.6,0,3.1,0.5,3.1,2.8v1.3h-2.6c-0.5,0-0.8,0-1.2,0h10.5
	c0-3.9-0.4-5.2-2.2-7.3C-339.3,390.5-340.5,389.7-341.8,389.2z"/>
<path class="st2" d="M-324.1,398.5c-0.3-0.2-0.6-0.4-0.9-0.8c-0.3-0.4-0.5-0.9-0.5-1.5c0-1.5,1.2-2.6,2.8-2.6c1.6,0,2.6,1,2.8,2.8h6
	v-0.2c0-4.5-4.1-8.2-8.9-8.2c-5,0-8.9,3.8-8.9,8.8c0,0.7,0.1,1.4,0.3,2.2h8.5c0,0,0,0,0,0C-323.3,398.7-323.7,398.6-324.1,398.5z"/>
<polygon class="st2" points="-295.3,394.7 -295.3,388.4 -299.3,388.4 -299.3,379.5 -306.1,379.5 -306.1,388.4 -310.1,388.4 
	-310.1,394.7 -306.1,394.7 -306.1,398.8 -299.3,398.8 -299.3,394.7 "/>
<path class="st2" d="M-275.6,389.6c-1.7-1.1-3.5-1.7-5.5-1.7c-6,0-10.1,4.4-10.2,10.9h6.8c0-1.2,0.1-1.9,0.2-2.5
	c0.3-1.3,1.7-2.3,3.1-2.3c1.6,0,2.9,1,3.2,2.5c0.2,0.7,0.2,1.2,0.2,2.3h6.7c0-3.2-0.3-4.5-1.6-6.3
	C-273.4,391.4-274.4,390.4-275.6,389.6z"/>
<path class="st2" d="M-258.8,395.5c0.6-0.9,1.6-1.4,2.7-1.4c1.1,0,2,0.5,2.8,1.6l4.9-4.2c-1.9-2.3-4.5-3.5-7.5-3.5
	c-4.5,0-8.6,2.8-9.7,6.8c-0.4,1.3-0.6,2.4-0.6,4.1h6.8v-0.3C-259.4,396.7-259.3,396.2-258.8,395.5z"/>
</svg>
