<?xml version="1.0" encoding="utf-8"?>
<!-- Generator: Adobe Illustrator 19.0.0, SVG Export Plug-In . SVG Version: 6.00 Build 0)  -->
<svg version="1.1" id="Layer_1" xmlns="http://www.w3.org/2000/svg" xmlns:xlink="http://www.w3.org/1999/xlink" x="0px" y="0px"
	 viewBox="-268 222 255 170" style="enable-background:new -268 222 255 170;" xml:space="preserve">
<style type="text/css">
	.st0{clip-path:url(#SVGID_2_);}
	.st1{clip-path:url(#SVGID_4_);fill:#421B4B;}
	.st2{clip-path:url(#SVGID_6_);}
	.st3{clip-path:url(#SVGID_8_);fill:#421B4B;}
</style>
<g>
	<defs>
		<path id="SVGID_1_" d="M-217.6,303.7l2.4-2.4l-2.5-2.5l-2.4,2.4l0,0l-2.5,2.5l-2.4,2.4l2.5,2.5l2.4-2.4l0,0L-217.6,303.7
			L-217.6,303.7z M-204.9,302.3c0.6,0.8,0.6,1.9,0,2.8l-0.3,0.4c-0.4,0.6-0.6,1.4-0.4,2.2l0.1,0.5c0.2,1-0.2,2-1.1,2.6l-0.4,0.3
			c-0.6,0.4-1.1,1.1-1.2,1.8l-0.1,0.5c-0.2,1-1,1.8-2,2l-0.5,0.1c-0.8,0.2-1.4,0.6-1.8,1.2l-0.3,0.4c-0.5,0.7-1.3,1.1-2.1,1.1
			c-0.2,0-0.3,0-0.5,0l-0.5-0.1c-0.2,0-0.4-0.1-0.6-0.1c-0.6,0-1.1,0.2-1.6,0.5l-0.4,0.3c-0.4,0.3-0.9,0.4-1.4,0.4
			c-0.5,0-1-0.1-1.4-0.4l-0.4-0.3c-0.5-0.3-1-0.5-1.6-0.5c-0.2,0-0.4,0-0.6,0.1l-0.5,0.1c-0.2,0-0.3,0-0.5,0c-0.8,0-1.6-0.4-2.1-1.1
			l-0.3-0.4c-0.4-0.6-1.1-1.1-1.8-1.2l-0.5-0.1c-1-0.2-1.8-1-2-2l-0.1-0.5c-0.1-0.8-0.6-1.4-1.2-1.8l-0.4-0.3
			c-0.8-0.6-1.3-1.6-1.1-2.6l0.1-0.5c0.1-0.8,0-1.5-0.4-2.2l-0.3-0.4c-0.6-0.8-0.6-1.9,0-2.8l0.3-0.4c0.4-0.6,0.6-1.4,0.4-2.2
			l-0.1-0.5c-0.2-1,0.2-2,1.1-2.6l0.4-0.3c0.6-0.4,1.1-1.1,1.2-1.8l0.1-0.5c0.2-1,1-1.8,2-2l0.5-0.1c0.8-0.2,1.4-0.6,1.8-1.2
			l0.3-0.4c0.5-0.7,1.3-1.1,2.1-1.1c0.2,0,0.3,0,0.5,0l0.5,0.1c0.2,0,0.4,0.1,0.6,0.1c0.6,0,1.1-0.2,1.6-0.5l0.4-0.3
			c0.4-0.3,0.9-0.4,1.4-0.4c0.5,0,1,0.1,1.4,0.4l0.4,0.3c0.5,0.3,1,0.5,1.6,0.5c0.2,0,0.4,0,0.6-0.1l0.5-0.1c0.2,0,0.3,0,0.5,0
			c0.8,0,1.6,0.4,2.1,1.1l0.3,0.4c0.4,0.6,1.1,1.1,1.8,1.2l0.5,0.1c1,0.2,1.8,1,2,2l0.1,0.5c0.2,0.8,0.6,1.4,1.2,1.8l0.4,0.3
			c0.8,0.6,1.3,1.6,1.1,2.6l-0.1,0.5c-0.1,0.8,0,1.5,0.4,2.2L-204.9,302.3z M-208,299.5l-1.7,1.7l-2.7-2.7h0l-2.5-2.5l-2.7-2.7l0,0
			l0,0c0.8-0.8,2-0.8,2.7,0c0.6,0.6,0.7,1.6,0.3,2.4l2.5,2.5l2.2-2.2C-209,297.1-208.4,298.2-208,299.5 M-232.2,308l1.7-1.7l2.7,2.7
			l0,0l2.5,2.5l0,0l2.7,2.7l-0.2,0.2c-0.8,0.6-1.8,0.5-2.5-0.2c-0.6-0.6-0.7-1.6-0.3-2.4l-2.5-2.5l-2.2,2.2
			C-231.1,310.4-231.8,309.2-232.2,308 M-215.9,315.9l-1.7-1.7l2.4-2.4l-2.5-2.5l-2.4,2.4l-2.7-2.7l0,0l-2.6-2.6l0,0l-2.6-2.6
			l2.4-2.4l-2.5-2.5l-2.4,2.4l-0.1-0.1c-0.7-0.8-0.7-1.9,0.1-2.7c0.7-0.7,1.8-0.7,2.5-0.2l0.2,0.2l0,0l2.5,2.5l2.4,2.4l2.5-2.5
			l-2.4-2.4l-2.5-2.5h0l-2.6-2.6c1.1-0.8,2.3-1.4,3.5-1.9l1.7,1.7l-2.4,2.4l2.5,2.5l2.4-2.4l2.7,2.7l0,0l2.5,2.5l0,0l2.7,2.7
			l-2.4,2.4l2.5,2.5l2.4-2.4l0.2,0.2c0.6,0.8,0.5,1.9-0.2,2.6c-0.7,0.7-1.9,0.7-2.6,0.1l-0.1-0.1v0l-2.5-2.5l-2.4-2.4l-2.5,2.5
			l2.4,2.4l0,0l2.5,2.5l0,0l2.6,2.6C-213.4,314.8-214.6,315.4-215.9,315.9"/>
	</defs>
	<use xlink:href="#SVGID_1_"  style="overflow:visible;fill-rule:evenodd;clip-rule:evenodd;fill:#421B4B;"/>
	<clipPath id="SVGID_2_">
		<use xlink:href="#SVGID_1_"  style="overflow:visible;"/>
	</clipPath>
	<g class="st0">
		<defs>
			<rect id="SVGID_3_" x="-277" y="264.8" width="233.9" height="78"/>
		</defs>
		<use xlink:href="#SVGID_3_"  style="overflow:visible;fill:#421B4B;"/>
		<clipPath id="SVGID_4_">
			<use xlink:href="#SVGID_3_"  style="overflow:visible;"/>
		</clipPath>
		<rect x="-239.6" y="284.3" class="st1" width="39" height="39"/>
	</g>
</g>
<g>
	<defs>
		<path id="SVGID_5_" d="M-65.9,306.2h9.3c0-2.7-1.8-4.3-4.6-4.3C-63.9,301.8-65.5,303.5-65.9,306.2z M-52,309.6h-13.9
			c0.3,2.7,2.4,4.3,4.9,4.3c2.3,0,3.8-1.1,4.9-2.5l3.3,2.5c-2.1,2.6-4.8,3.6-7.7,3.6c-5.5,0-9.9-3.8-9.9-9.6s4.4-9.6,9.9-9.6
			c5.1,0,8.5,3.6,8.5,9.9V309.6z M-79,292.7c0,1.4,1.2,2.7,2.9,2.7c1.7,0,3-1.2,3-2.7s-1.3-2.7-3-2.7C-77.8,289.9-79,291.2-79,292.7
			z M-78.3,317.1h4.6v-18.2h-4.6V317.1z M-95.4,301.9h2.9c2.7,0,6.3-0.2,6.3-3.8c0-3.3-3.2-3.8-5.7-3.8h-3.4V301.9z M-100.2,317.1
			v-26.9h9c5.2,0,9.9,1.8,9.9,7.8c0,6.8-5.1,8-10.8,8h-3.4v11.1H-100.2z M-119.2,308c0,2.9,2,5.5,5.4,5.5c3.3,0,5.4-2.6,5.4-5.5
			s-2-5.5-5.4-5.5C-117.2,302.5-119.2,305.1-119.2,308z M-123.7,308c0-5.7,4.4-9.6,9.9-9.6c5.5,0,9.9,3.8,9.9,9.6s-4.4,9.6-9.9,9.6
			C-119.3,317.6-123.7,313.7-123.7,308z M-135,302.7v8.4c0,4.3,1.1,6.5,6,6.5c1.1,0,2.7-0.2,3.6-0.6v-3.8c-0.6,0.4-1.7,0.6-2.5,0.6
			c-2,0-2.5-1.1-2.5-3v-8h5v-3.9h-5v-5.3h-4.6v5.3h-3.8v3.9H-135z M-155.1,308c0,2.9,2,5.5,5.4,5.5c3.3,0,5.4-2.6,5.4-5.5
			s-2-5.5-5.4-5.5C-153.1,302.5-155.1,305.1-155.1,308z M-159.7,308c0-5.7,4.4-9.6,9.9-9.6c5.5,0,9.9,3.8,9.9,9.6s-4.4,9.6-9.9,9.6
			C-155.3,317.6-159.7,313.7-159.7,308z M-171.9,317.1h4.6v-9.8c0-1,0.6-4.6,4.9-4.6c0.7,0,1.4,0.2,2.2,0.3v-4.4
			c-0.5-0.2-1.1-0.3-1.6-0.3c-2.4,0-4.4,1.3-5.4,3.3h-0.1v-2.9h-4.6V317.1z M-188.9,301.9h2.9c2.7,0,6.3-0.2,6.3-3.8
			c0-3.3-3.2-3.8-5.7-3.8h-3.4V301.9z M-193.7,317.1v-26.9h9c5.2,0,9.9,1.8,9.9,7.8c0,6.8-5.1,8-10.8,8h-3.4v11.1H-193.7z"/>
	</defs>
	<use xlink:href="#SVGID_5_"  style="overflow:visible;fill-rule:evenodd;clip-rule:evenodd;fill:#421B4B;"/>
	<clipPath id="SVGID_6_">
		<use xlink:href="#SVGID_5_"  style="overflow:visible;"/>
	</clipPath>
	<g class="st2">
		<defs>
			<rect id="SVGID_7_" x="-298.7" y="252.9" width="300" height="100"/>
		</defs>
		<use xlink:href="#SVGID_7_"  style="overflow:visible;fill:#421B4B;"/>
		<clipPath id="SVGID_8_">
			<use xlink:href="#SVGID_7_"  style="overflow:visible;"/>
		</clipPath>
		<rect x="-198.7" y="284.9" class="st3" width="151.7" height="37.6"/>
	</g>
</g>
</svg>
