<svg id="Layer_1" data-name="Layer 1" xmlns="http://www.w3.org/2000/svg" viewBox="0 0 255 170"><defs><style>.cls-1{fill:#421b4b;}</style></defs><title>Plan de travail 1</title><polygon class="cls-1" points="127.5 59.05 127.5 59.05 121.74 64.8 116.21 70.32 121.97 76.07 127.5 70.55 127.5 70.55 133.26 64.8 133.26 64.8 138.79 59.28 133.03 53.53 127.5 59.05"/><path class="cls-1" d="M150,91.85a5.81,5.81,0,0,0,4.58-4.57l.23-1.19a6.63,6.63,0,0,1,2.84-4.23l1-.68a5.78,5.78,0,0,0,2.48-6L160.9,74a6.62,6.62,0,0,1,1-5l.67-1a5.8,5.8,0,0,0,0-6.46l-.67-1a6.62,6.62,0,0,1-1-5l.24-1.19a5.8,5.8,0,0,0-2.48-6l-1-.67a6.63,6.63,0,0,1-2.84-4.23l-.23-1.19A5.81,5.81,0,0,0,150,37.75l-1.19-.23a6.64,6.64,0,0,1-4.24-2.83l-.67-1a5.8,5.8,0,0,0-4.84-2.58,6.29,6.29,0,0,0-1.14.11l-1.19.24a7,7,0,0,1-1.3.12,6.6,6.6,0,0,1-3.7-1.12l-1-.67a5.81,5.81,0,0,0-6.46,0l-1,.67a6.6,6.6,0,0,1-3.7,1.12,7,7,0,0,1-1.3-.12l-1.19-.24a6.29,6.29,0,0,0-1.14-.11,5.8,5.8,0,0,0-4.84,2.58l-.67,1a6.64,6.64,0,0,1-4.24,2.83l-1.19.23a5.81,5.81,0,0,0-4.58,4.57l-.23,1.19a6.66,6.66,0,0,1-2.83,4.23l-1,.67a5.8,5.8,0,0,0-2.48,6l.24,1.19a6.62,6.62,0,0,1-1,5l-.67,1a5.8,5.8,0,0,0,0,6.46l.67,1a6.62,6.62,0,0,1,1,5l-.24,1.19a5.78,5.78,0,0,0,2.48,6l1,.68a6.66,6.66,0,0,1,2.83,4.23l.23,1.19A5.81,5.81,0,0,0,105,91.85l1.19.23a6.64,6.64,0,0,1,4.24,2.83l.67,1a5.8,5.8,0,0,0,4.84,2.58,6.29,6.29,0,0,0,1.14-.11l1.19-.24a7,7,0,0,1,1.3-.12,6.6,6.6,0,0,1,3.7,1.12l1,.67a5.81,5.81,0,0,0,6.46,0l1-.67a6.6,6.6,0,0,1,3.7-1.12,7,7,0,0,1,1.3.12l1.19.24a6.29,6.29,0,0,0,1.14.11,5.8,5.8,0,0,0,4.84-2.58l.67-1a6.64,6.64,0,0,1,4.24-2.83ZM133.27,40.76l0,0a4.45,4.45,0,0,1,6.94,5.48l5.8,5.79,5.15-5.15a29.58,29.58,0,0,1,4.38,8.16l-4,4-6.27-6.26h0l-5.86-5.85-6.17-6.16Zm-12,48.54a4.45,4.45,0,0,1-6.44-5.9L109,77.55l-5.15,5.15a29.58,29.58,0,0,1-4.38-8.16l4-4,6.27,6.26h0l5.76,5.75h0l6.27,6.26ZM145.51,77l-.22-.22h0l-5.76-5.75L134,65.54l-5.76,5.75,5.53,5.52h0l5.76,5.75h0l5.9,5.89a29.75,29.75,0,0,1-8.17,4.37l-4-4,5.53-5.52L133,77.55l-5.53,5.52-6.16-6.15h0l-6-6h0l-6.11-6.1,5.53-5.52L109,53.53l-5.53,5.52-.15-.15a4.45,4.45,0,0,1,6-6.53l.41.42h0l5.76,5.75L121,64.06l5.76-5.75-5.53-5.52L115.47,47h0l-5.9-5.89a29.75,29.75,0,0,1,8.17-4.37l4,4-5.53,5.52L122,52.05l5.53-5.53,6.27,6.27h0l5.76,5.75h0l6.27,6.26-5.53,5.52L146,76.07l5.53-5.52L152,71A4.45,4.45,0,0,1,145.51,77Z"/><path class="cls-1" d="M71.67,111.84H63.5v24.54h4.33V126.23h3.08c5.15,0,9.72-1.11,9.72-7.28C80.63,113.51,76.37,111.84,71.67,111.84Zm-1.24,10.64h-2.6v-6.89h3.08c2.34,0,5.19.41,5.19,3.43C76.1,122.35,72.91,122.48,70.43,122.48Z"/><path class="cls-1" d="M103.16,119.33c-5,0-9,3.5-9,8.73s4,8.74,9,8.74,9-3.5,9-8.74S108.14,119.33,103.16,119.33Zm0,13.73a5,5,0,1,1,4.84-5A4.8,4.8,0,0,1,103.16,133.06Z"/><path class="cls-1" d="M87.38,122.38h-.07v-2.63H83.19v16.63h4.12v-8.9a4.17,4.17,0,0,1,4.43-4.2,8.3,8.3,0,0,1,2,.31v-4a5.26,5.26,0,0,0-6.35,2.81Z"/><path class="cls-1" d="M135.65,119.33c-5,0-9,3.5-9,8.73s4,8.74,9,8.74,9-3.5,9-8.74S140.62,119.33,135.65,119.33Zm0,13.73a5,5,0,1,1,4.84-5A4.8,4.8,0,0,1,135.65,133.06Z"/><path class="cls-1" d="M191.5,128.38c0-5.79-3.12-9-7.72-9-5,0-9,3.5-9,8.73s4,8.74,9,8.74a8.54,8.54,0,0,0,7-3.33l-3-2.25a5.41,5.41,0,0,1-4.43,2.25,4.27,4.27,0,0,1-4.42-3.95H191.5Zm-12.56-2a4.11,4.11,0,0,1,4.25-4c2.58,0,4.16,1.52,4.19,4Z"/><path class="cls-1" d="M169.71,111.6a2.5,2.5,0,1,0,2.68,2.5A2.55,2.55,0,0,0,169.71,111.6Z"/><rect class="cls-1" x="167.69" y="119.75" width="4.12" height="16.64"/><path class="cls-1" d="M120.66,114.93h-4.12v4.82h-3.4v3.53h3.4v7.63c0,3.91,1,5.89,5.39,5.89a8.73,8.73,0,0,0,3.26-.55v-3.51a4.19,4.19,0,0,1-2.23.52c-1.82,0-2.3-1-2.3-2.7v-7.28h4.53v-3.53h-4.53Z"/><path class="cls-1" d="M156.1,111.84h-8.17v24.54h4.32V126.23h3.09c5.15,0,9.72-1.11,9.72-7.28C165.06,113.51,160.8,111.84,156.1,111.84Zm-1.24,10.64h-2.61v-6.89h3.09c2.33,0,5.18.41,5.18,3.43C160.52,122.35,157.33,122.48,154.86,122.48Z"/></svg>