<svg id="elements" xmlns="http://www.w3.org/2000/svg" viewBox="0 0 255 170">
  <defs>
    <style>
      .cls-1 {
        fill: none;
      }

      .cls-2 {
        fill: #421b4b;
      }
    </style>
  </defs>
  <title>partner-Google</title>
  <rect class="cls-1" width="255" height="170"/>
  <g>
    <path class="cls-2" d="M101.22,72.49a14,14,0,1,0,14,14A13.78,13.78,0,0,0,101.22,72.49Zm0,22.46c-4.24,0-7.89-3.49-7.89-8.47S97,78,101.22,78s7.89,3.44,7.89,8.47S105.46,94.94,101.22,94.94Z"/>
    <path class="cls-2" d="M131.48,72.49a14,14,0,1,0,14,14A13.78,13.78,0,0,0,131.48,72.49Zm0,22.46c-4.24,0-7.89-3.49-7.89-8.47S127.25,78,131.48,78s7.89,3.44,7.89,8.47S135.72,94.94,131.48,94.94Z"/>
    <path class="cls-2" d="M168.68,75.61h-.21a9.69,9.69,0,0,0-7.36-3.13c-7,0-13.4,6.14-13.4,14s6.41,13.93,13.4,13.93a9.52,9.52,0,0,0,7.36-3.18h.21v2c0,5.35-2.86,8.2-7.46,8.2a7.72,7.72,0,0,1-7-5l-5.35,2.23a13.32,13.32,0,0,0,12.4,8.24c7.2,0,13.29-4.22,13.29-14.54V73.34h-5.83Zm-7,19.33c-4.24,0-7.79-3.55-7.79-8.42S157.42,78,161.65,78s7.46,3.6,7.46,8.52S165.83,94.94,161.65,94.94Z"/>
    <rect class="cls-2" x="178.14" y="58.61" width="5.99" height="40.98"/>
    <path class="cls-2" d="M200.58,94.94a7.12,7.12,0,0,1-6.78-4.24L212.5,83l-.64-1.59c-1.16-3.12-4.71-8.9-12-8.9s-13.19,5.67-13.19,14a13.68,13.68,0,0,0,13.88,14,13.92,13.92,0,0,0,11.65-6.2l-4.77-3.18A8,8,0,0,1,200.58,94.94Zm-.48-17.05c2.43,0,4.5,1.22,5.19,3L192.8,86A7.67,7.67,0,0,1,200.11,77.89Z"/>
    <path class="cls-2" d="M64.52,76.9v5.93H78.7a12.3,12.3,0,0,1-3.22,7.34,14.53,14.53,0,0,1-11,4.34,15.78,15.78,0,0,1,0-31.56,15.12,15.12,0,0,1,10.7,4.24L79.41,63a20.69,20.69,0,0,0-14.88-6,21.72,21.72,0,1,0,0,43.43c6.46,0,11.33-2.12,15.14-6.09s5.14-9.43,5.14-13.88a19.65,19.65,0,0,0-.3-3.58Z"/>
  </g>
</svg>
