<svg id="elements" xmlns="http://www.w3.org/2000/svg" viewBox="0 0 255 170">
  <defs>
    <style>
      .cls-1 {
        fill: none;
      }

      .cls-2 {
        fill: #421b4b;
        fill-rule: evenodd;
      }
    </style>
  </defs>
  <title>partner-Amazon</title>
  <rect class="cls-1" width="255" height="170"/>
  <g>
    <path class="cls-2" d="M146.53,103.16a88.83,88.83,0,0,1-34.05,7A89.81,89.81,0,0,1,67.83,98.28c-1.11-.65-1.94.49-1,1.33a66.1,66.1,0,0,0,44.62,17c12.33,0,26.65-3.88,36.53-11.17C149.6,104.26,148.2,102.45,146.53,103.16Z"/>
    <path class="cls-2" d="M140.3,99.06c-.87.61-.72,1.45.24,1.34,3.18-.38,10.27-1.23,11.54.39s-1.41,8.28-2.6,11.26c-.36.9.41,1.26,1.23.58,5.3-4.43,6.67-13.72,5.58-15.06S145.95,95.08,140.3,99.06Z"/>
    <path class="cls-2" d="M159.64,87.79a19.18,19.18,0,0,0-9.86-2.12l9-12.79a5.4,5.4,0,0,0,1.3-2.43V67.14a1,1,0,0,0-1-1H141.74a1,1,0,0,0-1,1V71a1,1,0,0,0,1,1h9L140.42,86.86a4.66,4.66,0,0,0-.64,2.65v3.91c0,.57.63,1.21,1.23.89a19.92,19.92,0,0,1,18.27,0c.65.34,1.27-.31,1.27-.88V89.29A1.76,1.76,0,0,0,159.64,87.79Z"/>
    <path class="cls-2" d="M72.42,95.1h5.26a1,1,0,0,0,1-1V79.82c0-3.13-.15-7.44,3.63-7.44s3.24,4.43,3.24,7.44V94.13a1,1,0,0,0,.94,1h5.26a1,1,0,0,0,1-1V79.82a16.34,16.34,0,0,1,.49-5.17,3.49,3.49,0,0,1,3.14-2.22,2.74,2.74,0,0,1,3.09,2.33,34.53,34.53,0,0,1,.15,5.06V94.13a1,1,0,0,0,.94,1h5.26a1,1,0,0,0,1-1v-17c0-2.9.34-6.19-1.33-8.47a7.77,7.77,0,0,0-13.36,2c-1.47-3.41-3.54-5-6.83-5s-5.65,1.59-6.92,5h-.1V67.14a1,1,0,0,0-1-.91H72.5a1,1,0,0,0-1,1v27A1,1,0,0,0,72.42,95.1Z"/>
    <path class="cls-2" d="M174.92,65.67c-7.61,0-11.84,6.54-11.84,14.95s4.17,15.06,11.84,15.06c7.37,0,12-6.54,12-14.78C187,72.37,182.73,65.67,174.92,65.67Zm0,24.44c-4.13,0-4.08-7-4.08-10.34s.25-8.58,4.13-8.58a3.29,3.29,0,0,1,3.44,2.61A25,25,0,0,1,179.2,81C179.2,84.42,179,90.1,174.92,90.1Z"/>
    <path class="cls-2" d="M211.12,68.85A6.9,6.9,0,0,0,205,65.67c-3.63,0-5.7,1.76-7.17,5.46h-.1V67a1,1,0,0,0-.93-.76H191.9a1,1,0,0,0-1,.88v27a1,1,0,0,0,.94,1h5.24a1,1,0,0,0,1-1V79.59a12,12,0,0,1,.84-5.11,3.44,3.44,0,0,1,3-2.16c3.63,0,3.29,4.32,3.29,7.27V94.25a1,1,0,0,0,.94.85h5.27a1,1,0,0,0,1-.85v-17C212.5,74.65,212.5,71,211.12,68.85Z"/>
    <path class="cls-2" d="M127,76.85c-3.05.34-7,.57-9.89,1.82a8.94,8.94,0,0,0-5.61,8.6c0,5.47,3.45,8.2,7.88,8.2,3.74,0,5.79-.88,8.67-3.82a12.84,12.84,0,0,0,3,3.51,1.09,1.09,0,0,0,1.24-.12h0c1.05-.93,3-2.59,4-3.49a1,1,0,0,0,0-1.4c-1-1.33-2-2.41-2-4.88v-8.2c0-3.47.25-6.66-2.31-9.06-2-1.94-5.37-2.62-7.92-2.62-5,0-10.59,1.87-11.77,8.06a.93.93,0,0,0,.79,1.1l5.1.55a1.11,1.11,0,0,0,.91-1A4,4,0,0,1,123.39,71a3.51,3.51,0,0,1,3,1.37c.74,1.08.64,2.56.64,3.82Zm-1,10.93a4.27,4.27,0,0,1-3.64,2.39c-2,0-3.2-1.54-3.2-3.82,0-4.48,4-5.3,7.83-5.3v1.14C127,84.26,127,86,126,87.79Z"/>
    <path class="cls-2" d="M67.37,90.15c-1-1.33-2-2.41-2-4.88v-8.2c0-3.47.25-6.66-2.31-9.06-2-1.94-5.37-2.62-7.92-2.62-5,0-10.59,1.87-11.77,8.06a.93.93,0,0,0,.79,1.1l5.1.55a1.11,1.11,0,0,0,.91-1A4,4,0,0,1,54.41,71a3.52,3.52,0,0,1,3,1.37c.74,1.08.64,2.56.64,3.82v.68c-3.05.34-7,.57-9.89,1.82a8.94,8.94,0,0,0-5.61,8.6c0,5.47,3.45,8.2,7.88,8.2,3.74,0,5.79-.88,8.67-3.82a12.84,12.84,0,0,0,3,3.51A1.09,1.09,0,0,0,63.31,95h0c1.05-.93,3-2.59,4-3.49A1,1,0,0,0,67.37,90.15ZM57,87.79a4.27,4.27,0,0,1-3.64,2.39c-2,0-3.2-1.54-3.2-3.82,0-4.48,4-5.3,7.83-5.3v1.14C58,84.26,58.05,86,57,87.79Z"/>
  </g>
</svg>
