<svg id="elements" xmlns="http://www.w3.org/2000/svg" viewBox="0 0 255 170">
  <defs>
    <style>
      .cls-1 {
        fill: none;
      }

      .cls-2 {
        fill: #421b4b;
      }
    </style>
  </defs>
  <title>partner-Facebook</title>
  <rect class="cls-1" width="255" height="170"/>
  <g>
    <path class="cls-2" d="M42.07,76.15v3.34H37.5V85h4.57v16.86h6.78V85h5.09l.57-5.56H48.85V76.05c0-2.07.61-3,2.73-3h3V67.81a31.83,31.83,0,0,0-4-.24C44.33,67.57,42.07,70.54,42.07,76.15Z"/>
    <path class="cls-2" d="M70.61,82.93A6.66,6.66,0,0,0,64.16,79C57.94,79,55,83.73,55,90v1.41c0,6.26,3,11,9.18,11,3.39,0,5.51-1.7,6.45-3.86v3.39h6.5V79.49h-6.5Zm-.28,8.9c0,3.2-1.41,5.23-4.19,5.23-3.16,0-4.38-2.21-4.38-5.56V89.9c0-3.34,1.22-5.56,4.38-5.56,2.78,0,4.19,2,4.19,5.23Z"/>
    <path class="cls-2" d="M91.71,84.29a10.68,10.68,0,0,1,4.52,1l1.51-4.8A12.38,12.38,0,0,0,91.24,79c-8,0-11.59,4.29-11.59,11.16v1c0,6.88,3.63,11.16,11.59,11.16a12.38,12.38,0,0,0,6.5-1.51l-1.51-4.8a10.68,10.68,0,0,1-4.52,1c-3.67,0-5.27-2.12-5.27-5.75V90C86.43,86.41,88,84.29,91.71,84.29Z"/>
    <path class="cls-2" d="M109.65,79c-7.39,0-11,4.19-11,10.55v2c0,6.59,3.2,10.88,11.77,10.88a21.88,21.88,0,0,0,8.71-1.65l-1.22-4.66a19.26,19.26,0,0,1-7.21,1.37c-3.77,0-5.13-1.37-5.27-4.43h14.27V89.47C119.68,83.26,116.62,79,109.65,79Zm4,9.61h-8.2c0-3,1.18-4.95,4.24-4.95s4,1.93,4,4.38Z"/>
    <path class="cls-2" d="M135.6,79a6.77,6.77,0,0,0-6.31,3.58v-15l-6.78.61v33.68h6.41V98.52c.94,2.17,3.3,3.86,6.69,3.86,6.22,0,9.23-4.71,9.23-11V90C144.83,83.73,141.82,79,135.6,79ZM138,91.55c0,3.16-1.22,5.51-4.47,5.51-2.78,0-4.29-2-4.29-5.18V89.52c0-3.2,1.51-5.18,4.29-5.18,3.25,0,4.47,2.35,4.47,5.51Z"/>
    <path class="cls-2" d="M158.25,79c-7.49,0-11.16,4.66-11.16,11.12v1.13c0,6.45,3.67,11.12,11.16,11.12s11.16-4.66,11.16-11.12V90.13C169.42,83.68,165.74,79,158.25,79Zm4.38,12.72c0,3-1.23,5.32-4.38,5.32s-4.38-2.36-4.38-5.32V89.66c0-3,1.22-5.32,4.38-5.32s4.38,2.35,4.38,5.32Z"/>
    <path class="cls-2" d="M182.84,79c-7.49,0-11.16,4.66-11.16,11.12v1.13c0,6.45,3.67,11.12,11.16,11.12S194,97.72,194,91.26V90.13C194,83.68,190.33,79,182.84,79Zm4.38,12.72c0,3-1.22,5.32-4.38,5.32s-4.38-2.36-4.38-5.32V89.66c0-3,1.22-5.32,4.38-5.32s4.38,2.35,4.38,5.32Z"/>
    <polygon class="cls-2" points="210.2 90.56 217.22 79.49 210.01 79.49 203.32 90.18 203.32 67.62 196.54 68.23 196.54 101.91 203.32 101.91 203.32 90.94 210.29 101.91 217.5 101.91 210.2 90.56"/>
  </g>
</svg>
