<svg id="elements" xmlns="http://www.w3.org/2000/svg" viewBox="0 0 255 170">
  <defs>
    <style>
      .cls-1 {
        fill: none;
      }

      .cls-2 {
        fill: #411b4b;
      }
    </style>
  </defs>
  <title>partner-Spotify</title>
  <rect class="cls-1" width="255" height="170"/>
  <g>
    <path class="cls-2" d="M61,56.51A28.49,28.49,0,1,0,89.49,85,28.49,28.49,0,0,0,61,56.51ZM74.06,97.6a1.77,1.77,0,0,1-2.44.59c-6.69-4.09-15.11-5-25-2.75A1.78,1.78,0,0,1,45.8,92C56.65,89.5,66,90.57,73.47,95.16A1.78,1.78,0,0,1,74.06,97.6Zm3.49-7.76a2.22,2.22,0,0,1-3.06.73c-7.66-4.71-19.33-6.07-28.39-3.32A2.22,2.22,0,1,1,44.81,83c10.35-3.14,23.21-1.62,32,3.79A2.22,2.22,0,0,1,77.55,89.85Zm4-9a2.66,2.66,0,0,1-3.65.93c-9.18-5.45-24.33-6-33.1-3.29a2.66,2.66,0,1,1-1.55-5.1c10.06-3.06,26.8-2.47,37.37,3.81A2.66,2.66,0,0,1,81.5,80.83Z"/>
    <path class="cls-2" d="M110,82.81c-4.92-1.17-5.8-2-5.8-3.73s1.54-2.73,3.83-2.73a11.18,11.18,0,0,1,6.72,2.55A.32.32,0,0,0,115,79a.32.32,0,0,0,.21-.13l2.4-3.39a.32.32,0,0,0-.06-.44,14.53,14.53,0,0,0-9.45-3.27c-5.31,0-9,3.19-9,7.75,0,4.89,3.2,6.62,8.73,8,4.71,1.08,5.5,2,5.5,3.62,0,1.8-1.61,2.92-4.19,2.92-2.87,0-5.21-1-7.83-3.24a.33.33,0,0,0-.24-.08.32.32,0,0,0-.22.11L98.16,94a.32.32,0,0,0,0,.45A16.06,16.06,0,0,0,109,98.59c5.72,0,9.42-3.13,9.42-8C118.46,86.53,116,84.27,110,82.81Z"/>
    <path class="cls-2" d="M131.41,78a7.72,7.72,0,0,0-6.19,3V78.68a.32.32,0,0,0-.32-.32h-4.4a.32.32,0,0,0-.32.32v25a.32.32,0,0,0,.32.32h4.4a.32.32,0,0,0,.32-.32v-7.9a7.91,7.91,0,0,0,6.19,2.8c4.61,0,9.28-3.55,9.28-10.33S136,78,131.41,78Zm-1,16.2c-3,0-5.28-2.52-5.28-5.86s2.27-5.87,5.28-5.87,5.17,2.47,5.17,5.87S133.43,94.16,130.39,94.16Z"/>
    <path class="cls-2" d="M152.65,78A10.36,10.36,0,1,0,163.2,88.29,10.39,10.39,0,0,0,152.65,78Zm0,16.24a5.6,5.6,0,0,1-5.54-5.9c0-3.38,2.3-5.83,5.47-5.83a5.62,5.62,0,0,1,5.58,5.9A5.49,5.49,0,0,1,152.65,94.2Z"/>
    <path class="cls-2" d="M175.88,78.36H171v-5a.32.32,0,0,0-.32-.32h-4.4a.32.32,0,0,0-.32.32v5h-2.12a.32.32,0,0,0-.32.32v3.79a.32.32,0,0,0,.32.32H166v9.8c0,4,2,6,5.86,6a8,8,0,0,0,4.13-1,.32.32,0,0,0,.16-.28V93.64a.32.32,0,0,0-.47-.29,5.55,5.55,0,0,1-2.59.62c-1.41,0-2-.64-2-2.08V82.79h4.85a.32.32,0,0,0,.32-.32V78.68A.32.32,0,0,0,175.88,78.36Z"/>
    <path class="cls-2" d="M215.32,78.38h-4.59a.32.32,0,0,0-.31.22L205.74,92l-5.15-13.43a.32.32,0,0,0-.3-.21h-7.52v-.61c0-1.79.69-2.59,2.23-2.59a7.44,7.44,0,0,1,2.48.46.32.32,0,0,0,.42-.31V71.62a.32.32,0,0,0-.23-.31,12.09,12.09,0,0,0-3.66-.53c-4.07,0-6.22,2.29-6.22,6.62v.93h-2.12a.32.32,0,0,0-.32.32v3.8a.32.32,0,0,0,.32.32h2.12V97.9a.32.32,0,0,0,.32.32h4.41a.32.32,0,0,0,.32-.32V82.79h4.11l6.3,15.11c-.72,1.59-1.42,1.9-2.38,1.9a5.08,5.08,0,0,1-2.43-.69.33.33,0,0,0-.26,0,.33.33,0,0,0-.19.17l-1.49,3.28a.32.32,0,0,0,.14.42,9.27,9.27,0,0,0,4.7,1.2c3.25,0,5.05-1.52,6.64-5.59l7.64-19.75a.32.32,0,0,0-.3-.44Z"/>
    <rect class="cls-2" x="178.25" y="78.36" width="5.05" height="19.86" rx="0.32" ry="0.32"/>
    <circle class="cls-2" cx="180.79" cy="72.77" r="3.16"/>
    <path class="cls-2" d="M220.84,80.75c0-.65-.5-1-1.25-1h-1.45V83h.62V81.84h.68l.79,1.13H221l-.88-1.23A1,1,0,0,0,220.84,80.75Zm-1.28.55h-.81v-1h.81c.4,0,.64.18.64.51S220,81.3,219.56,81.3Z"/>
    <path class="cls-2" d="M219.4,78.32a3.11,3.11,0,1,0,3.1,3.1A3.12,3.12,0,0,0,219.4,78.32Zm0,5.91a2.8,2.8,0,1,1,2.79-2.81A2.75,2.75,0,0,1,219.38,84.23Z"/>
  </g>
</svg>
