<svg id="elements" xmlns="http://www.w3.org/2000/svg" viewBox="0 0 255 170">
  <defs>
    <style>
      .cls-1 {
        fill: none;
      }

      .cls-2 {
        fill: #421b4b;
      }

      .cls-3 {
        fill: #fff;
      }
    </style>
  </defs>
  <title>partner-Villefontaine</title>
  <rect class="cls-1" width="255" height="170"/>
  <g>
    <circle class="cls-2" cx="127.5" cy="85" r="56"/>
    <path class="cls-1" d="M115.25,74.57a2.13,2.13,0,0,0-.62-1.54,2.42,2.42,0,0,0-1.72-.72H112l-.11,4.59a3.39,3.39,0,0,0,.75.09A2.61,2.61,0,0,0,115.25,74.57Z"/>
    <path class="cls-1" d="M114.16,113.18a1.17,1.17,0,0,0-1.12.76h2.13A1.08,1.08,0,0,0,114.16,113.18Z"/>
    <path class="cls-1" d="M108.07,92.45a4.41,4.41,0,0,0-1.15-3.31,5.56,5.56,0,0,0-4.08-1.42h-2.29l-.22,9.38H103C105.3,97.09,108,95.88,108.07,92.45Z"/>
    <path class="cls-1" d="M141.51,95a1.86,1.86,0,0,0,1.83-1.72,1.55,1.55,0,0,0-.41-1.16,1.49,1.49,0,0,0-1.09-.46A1.87,1.87,0,0,0,140,93.42a1.53,1.53,0,0,0,.41,1.14A1.5,1.5,0,0,0,141.51,95Z"/>
    <path class="cls-1" d="M144.15,71.9a2,2,0,0,0-2,1.4h3.75A1.88,1.88,0,0,0,144.15,71.9Z"/>
    <path class="cls-1" d="M126.77,113.28a1.49,1.49,0,0,0-1.48,1.45,1.38,1.38,0,0,0,1.38,1.42,1.49,1.49,0,0,0,1.48-1.45,1.37,1.37,0,0,0-1.38-1.42Z"/>
    <path class="cls-1" d="M144,54.92a2.15,2.15,0,0,0-2.07,1.47h3.95A2,2,0,0,0,144,54.92Z"/>
    <path class="cls-1" d="M158.74,113.18a1.17,1.17,0,0,0-1.12.76h2.13A1.08,1.08,0,0,0,158.74,113.18Z"/>
    <path class="cls-1" d="M117,91.59a2.36,2.36,0,0,0-2.29,1.69h4.35A2.16,2.16,0,0,0,117,91.59Z"/>
    <path class="cls-1" d="M113.76,53a1.52,1.52,0,0,0-.44-1.1,1.56,1.56,0,0,0-1.12-.47h-2.15L110,54.74h2A1.74,1.74,0,0,0,113.76,53Z"/>
    <path class="cls-1" d="M142.51,116.59a.42.42,0,0,0,.12.31.57.57,0,0,0,.41.16h.74l0-.83H143C142.92,116.23,142.52,116.25,142.51,116.59Z"/>
    <path class="cls-3" d="M138.74,96.28a3.74,3.74,0,0,0,.22,3,2.44,2.44,0,0,0,2,1.14c1.78.11,1.77.44,1.76.58a1,1,0,0,1-1,.94,4.38,4.38,0,0,1-.68-.05,1.18,1.18,0,0,0-1.06-.75h-.05a1.2,1.2,0,0,0-1.17,1.17l0,.44a1.15,1.15,0,0,0,.71,1.14,5.6,5.6,0,0,0,2.27.45,3.44,3.44,0,0,0,3.38-3.19c.1-1.91-1.24-3-4-3.1a.22.22,0,0,1-.12,0,1.2,1.2,0,0,1,0-.69,4.16,4.16,0,0,0,.56,0,4.32,4.32,0,0,0,4.24-4.15,3.43,3.43,0,0,0-.17-1.15h.16a1.19,1.19,0,0,0,1.19-1.19,1.21,1.21,0,0,0-1.19-1.21h-2.12a4.12,4.12,0,0,0-1.79-.41,4.29,4.29,0,0,0-4.22,4A3.91,3.91,0,0,0,138.74,96.28Zm3.09-4.6a1.49,1.49,0,0,1,1.09.46,1.55,1.55,0,0,1,.41,1.16A1.86,1.86,0,0,1,141.51,95a1.5,1.5,0,0,1-1.1-.45,1.53,1.53,0,0,1-.41-1.14A1.87,1.87,0,0,1,141.83,91.68Z"/>
    <path class="cls-3" d="M126.17,97.43a4.61,4.61,0,0,1-.71-.06,1.2,1.2,0,0,0-1.07-.71h-.05a1.22,1.22,0,0,0-1.19,1.21v.45a1.2,1.2,0,0,0,.77,1.14,6.76,6.76,0,0,0,2.25.4,3.34,3.34,0,0,0,3.47-3.36c0-2.17-1.89-2.79-2.92-3.12-1.27-.42-1.27-.54-1.27-.89,0-.65.59-.75.93-.75a5.76,5.76,0,0,1,.65,0,1.21,1.21,0,0,0,2.3-.55v-.45a1.21,1.21,0,0,0-.82-1.15,6.89,6.89,0,0,0-2.13-.32A3.15,3.15,0,0,0,123,92.47c0,2.29,1.92,2.9,3,3.23,1.23.4,1.23.51,1.23.8A.93.93,0,0,1,126.17,97.43Z"/>
    <path class="cls-3" d="M121.42,94.31l0-.6a4.11,4.11,0,0,0-1.19-3,4.48,4.48,0,0,0-3.2-1.38,4.74,4.74,0,0,0-4.73,4.81l0,.73a4.91,4.91,0,0,0,1.34,3.59A4.63,4.63,0,0,0,117,99.81a5.51,5.51,0,0,0,3.51-1.23,1.16,1.16,0,0,0,.39-.8,1.18,1.18,0,0,0-.3-.86,1,1,0,0,0-.78-.3,2.63,2.63,0,0,0-.71.11l-.08,0-.06,0a3.33,3.33,0,0,1-2,.65,2.2,2.2,0,0,1-2.3-2h5.54A1.18,1.18,0,0,0,121.42,94.31Zm-6.66-1A2.36,2.36,0,0,1,117,91.59a2.16,2.16,0,0,1,2.07,1.69Z"/>
    <path class="cls-3" d="M156.5,92.57a1.25,1.25,0,0,0-1,.45,1.17,1.17,0,0,1-1.83.12,3.75,3.75,0,0,0-2.47-1,4.14,4.14,0,0,0-3,1.4,1.23,1.23,0,0,0-.31.91,1.24,1.24,0,0,0,2.16.75,1.7,1.7,0,0,1,1.12-.57,1.34,1.34,0,0,1,.87.38,3.84,3.84,0,0,0,2.52,1h0a3.7,3.7,0,0,0,2.87-1.42,1.26,1.26,0,0,0-.18-1.76A1.28,1.28,0,0,0,156.5,92.57Z"/>
    <path class="cls-3" d="M133.7,89.51h-.6a1.24,1.24,0,0,0-.67,2.29l-.14,6.5a1.21,1.21,0,0,0,.34.9,1.27,1.27,0,0,0,.87.38h0a1.26,1.26,0,0,0,1.26-1.22l.17-7.58a1.21,1.21,0,0,0-.34-.9A1.26,1.26,0,0,0,133.7,89.51Z"/>
    <path class="cls-3" d="M110.58,92.5a6.87,6.87,0,0,0-1.85-5.09,8.11,8.11,0,0,0-5.89-2.19h-4.1a1.23,1.23,0,0,0-1.24,1.24,1.27,1.27,0,0,0,.56,1l-.24,10.8a1.21,1.21,0,0,0,.34.9,1.26,1.26,0,0,0,.9.39h4C107.44,99.58,110.48,96.74,110.58,92.5Zm-10-4.8h2.29a5.56,5.56,0,0,1,4.08,1.42,4.41,4.41,0,0,1,1.15,3.31c-.09,3.43-2.77,4.65-5,4.65h-2.7Z"/>
    <path class="cls-3" d="M135.37,85.55a1.41,1.41,0,0,0-.66-.88,1.45,1.45,0,0,0-.73-.2,1.33,1.33,0,0,0-1.18.68l-.23.4a1.39,1.39,0,0,0,.47,1.9,1.37,1.37,0,0,0,.73.21A1.4,1.4,0,0,0,135,87l.24-.39A1.35,1.35,0,0,0,135.37,85.55Z"/>
    <path class="cls-3" d="M131.58,72.71h.05a1.18,1.18,0,0,0,.81-.33,1.15,1.15,0,0,0,.35-.83v-.42a1.19,1.19,0,0,0-1.18-1.19H127.5a1.19,1.19,0,0,0-1.18,1.19,1.17,1.17,0,0,0,.52,1l-.13,5.82a1.14,1.14,0,0,0,.32.85,1.2,1.2,0,0,0,.82.36h0A1.19,1.19,0,0,0,129.06,78l.12-5.67h1.53A1.16,1.16,0,0,0,131.58,72.71Z"/>
    <path class="cls-3" d="M158.67,77l.13-5.81a1.15,1.15,0,0,0-.32-.86,1.14,1.14,0,0,0-.82-.36h-.05a1.18,1.18,0,0,0-1.16,1.15l-.11,5.21a8.32,8.32,0,0,1-2.4.66,2.08,2.08,0,0,1-1.35-.29.88.88,0,0,1-.18-.66l.1-4.89a1.19,1.19,0,0,0-1.18-1.19h-.54a1.18,1.18,0,0,0-1.18,1.18,1.19,1.19,0,0,0,.52,1L150,76a3.1,3.1,0,0,0,.81,2.33,4.18,4.18,0,0,0,3.1,1,9.07,9.07,0,0,0,2.68-.58,1.17,1.17,0,0,0,.86.37H158a1.17,1.17,0,0,0,.66-2.15Z"/>
    <path class="cls-3" d="M97.89,72.09,97.79,76a3.1,3.1,0,0,0,.81,2.33,4.18,4.18,0,0,0,3.1,1,9.07,9.07,0,0,0,2.68-.58,1.17,1.17,0,0,0,.86.37h.54a1.17,1.17,0,0,0,.66-2.15l.13-5.81a1.15,1.15,0,0,0-.32-.86,1.14,1.14,0,0,0-.82-.36h-.05a1.18,1.18,0,0,0-1.16,1.15l-.11,5.21a8.41,8.41,0,0,1-2.4.66,2.08,2.08,0,0,1-1.35-.29.88.88,0,0,1-.18-.66l.1-4.89a1.19,1.19,0,0,0-1.18-1.19h-.54a1.18,1.18,0,0,0-.66,2.16Z"/>
    <path class="cls-3" d="M166.19,69.94h-4.12a1.19,1.19,0,0,0-1.18,1.19,1.17,1.17,0,0,0,.52,1l-.13,5.82a1.16,1.16,0,0,0,1.14,1.21h0A1.19,1.19,0,0,0,163.63,78l.12-5.67h1.53a1.15,1.15,0,0,0,.86.4h.05a1.18,1.18,0,0,0,.81-.33,1.15,1.15,0,0,0,.35-.83v-.42A1.19,1.19,0,0,0,166.19,69.94Z"/>
    <path class="cls-3" d="M112.3,82.34a1.18,1.18,0,0,0-.5-1l0-2.09a5.65,5.65,0,0,0,.79.06,5,5,0,0,0,5-4.72,4.45,4.45,0,0,0-1.28-3.25,4.79,4.79,0,0,0-3.42-1.44h-2.54a1.19,1.19,0,0,0-1.18,1.19,1.17,1.17,0,0,0,.48.95l-.25,10.23a1.15,1.15,0,0,0,.32.85,1.19,1.19,0,0,0,.85.36h.52A1.18,1.18,0,0,0,112.3,82.34Zm-.28-10h.89a2.42,2.42,0,0,1,1.72.72,2.13,2.13,0,0,1,.62,1.54A2.61,2.61,0,0,1,112.66,77a3.39,3.39,0,0,1-.75-.09Z"/>
    <path class="cls-3" d="M137.4,65.57a1.37,1.37,0,0,0-.69-.19,1.26,1.26,0,0,0-1.11.64l-.2.36a1.31,1.31,0,0,0,.44,1.78,1.29,1.29,0,0,0,.68.2,1.32,1.32,0,0,0,1.12-.63l.22-.35a1.27,1.27,0,0,0,.16-1A1.33,1.33,0,0,0,137.4,65.57Z"/>
    <path class="cls-3" d="M148.14,74.29l0-.54A3.74,3.74,0,0,0,147.07,71a4.09,4.09,0,0,0-2.92-1.26,4.32,4.32,0,0,0-4.31,4.38l0,.66a4.47,4.47,0,0,0,1.22,3.27,4.22,4.22,0,0,0,3.05,1.24,5,5,0,0,0,3.19-1.12h0a1.1,1.1,0,0,0,.37-.76,1.12,1.12,0,0,0-.28-.82.94.94,0,0,0-.75-.29,2.42,2.42,0,0,0-.66.1l-.08,0-.06,0a3,3,0,0,1-1.74.57,1.91,1.91,0,0,1-2-1.67H147A1.12,1.12,0,0,0,148.14,74.29Zm-6-1a2,2,0,0,1,2-1.4,1.88,1.88,0,0,1,1.79,1.4Z"/>
    <path class="cls-3" d="M136.27,79.09h0a1.19,1.19,0,0,0,1.19-1.15l.15-6.81a1.14,1.14,0,0,0-.32-.85,1.19,1.19,0,0,0-.85-.37h-.54a1.18,1.18,0,0,0-1.18,1.18,1.16,1.16,0,0,0,.52,1l-.13,5.81A1.16,1.16,0,0,0,136.27,79.09Z"/>
    <path class="cls-3" d="M123,65.3l-2.91,1.43a1.15,1.15,0,0,0,.51,2.19h0a1.16,1.16,0,0,0,.5-.12L124,67.38a1.13,1.13,0,0,0,.59-.67A1.16,1.16,0,0,0,123,65.3Z"/>
    <path class="cls-3" d="M92.21,71.22c-1.57-.65-2-.93-2-1.71a1.41,1.41,0,0,1,1.62-1.34,4.83,4.83,0,0,1,1,.11,1.18,1.18,0,0,0,1.07.78h0a1.18,1.18,0,0,0,1.16-1.15l0-.53a1.15,1.15,0,0,0-.74-1.13,6.21,6.21,0,0,0-2.54-.44,3.72,3.72,0,0,0-4,3.64c-.06,2.5,2,3.32,3.43,3.93s2,.94,2,1.81a1.86,1.86,0,0,1-2,1.8,3.47,3.47,0,0,1-1-.15A1.17,1.17,0,0,0,89.16,76h0a1.17,1.17,0,0,0-1.16,1.14l0,.39a1.21,1.21,0,0,0,.3.79,4.39,4.39,0,0,0,3,1,4.18,4.18,0,0,0,4.39-4.1C95.72,72.66,93.69,71.83,92.21,71.22Z"/>
    <path class="cls-3" d="M154.52,117.43a.73.73,0,0,0,.43-1.33l.06-2.28a1.88,1.88,0,0,0-.49-1.41,2.52,2.52,0,0,0-1.86-.62,5.19,5.19,0,0,0-1.59.35.72.72,0,0,0-.51-.21h-.32a.73.73,0,0,0-.73.73.74.74,0,0,0,.31.6l-.08,3.42a.73.73,0,0,0,.2.53.71.71,0,0,0,.51.22h0a.73.73,0,0,0,.73-.72l.07-3.08a5,5,0,0,1,1.39-.38,1.23,1.23,0,0,1,.79.16s.11.11.1.36l-.07,2.88a.72.72,0,0,0,.2.53.74.74,0,0,0,.53.23Z"/>
    <path class="cls-3" d="M134.21,113.43s.11.11.1.36l-.07,2.88a.72.72,0,0,0,.2.53.74.74,0,0,0,.53.22h.32a.73.73,0,0,0,.43-1.33l.06-2.28a1.88,1.88,0,0,0-.49-1.41,2.52,2.52,0,0,0-1.87-.62,5.19,5.19,0,0,0-1.59.35.72.72,0,0,0-.51-.21H131a.73.73,0,0,0-.73.73.74.74,0,0,0,.31.6l-.08,3.42a.73.73,0,0,0,.2.53.78.78,0,0,0,.51.22h0a.73.73,0,0,0,.73-.72l.07-3.08a5,5,0,0,1,1.39-.38A1.24,1.24,0,0,1,134.21,113.43Z"/>
    <path class="cls-3" d="M143,113.95a1.71,1.71,0,0,0-1.36,2.91,1.89,1.89,0,0,0,1.35.56h1.7a.7.7,0,0,0,.7-.7.69.69,0,0,0-.31-.57l.06-2.63a1.58,1.58,0,0,0-.45-1.15,1.87,1.87,0,0,0-1.33-.54,3.77,3.77,0,0,0-1.27.32.71.71,0,0,0-.35.93.69.69,0,0,0,.63.41.67.67,0,0,0,.28-.06,2.27,2.27,0,0,1,.71-.2.49.49,0,0,1,.33.12.17.17,0,0,1,.05.13v.47Zm.76,1.32,0,.83H143a.57.57,0,0,1-.41-.16.42.42,0,0,1-.12-.31c0-.33.41-.36.54-.36Z"/>
    <path class="cls-3" d="M137.35,113.34l-.05,2.52a1.64,1.64,0,0,0,1.7,1.74,2.87,2.87,0,0,0,1.08-.24.74.74,0,0,0,.36-1,.74.74,0,0,0-.67-.44.69.69,0,0,0-.29.07,1.39,1.39,0,0,1-.48.11.28.28,0,0,1-.19,0,.27.27,0,0,1,0-.19l.06-2.49h.71a.73.73,0,0,0,0-1.47h-.69v-.32a.71.71,0,0,0-.19-.52.75.75,0,0,0-.53-.24.74.74,0,0,0-.74.71V112a.73.73,0,0,0,0,1.35Z"/>
    <path class="cls-3" d="M158.74,111.83a2.6,2.6,0,0,0-2.59,2.63v.39a2.69,2.69,0,0,0,.73,2,2.54,2.54,0,0,0,1.84.74,3,3,0,0,0,1.92-.68.69.69,0,0,0,.23-.48.7.7,0,0,0-.18-.51.59.59,0,0,0-.47-.18,1.47,1.47,0,0,0-.4.06l-.1.05a1.7,1.7,0,0,1-1,.33,1.1,1.1,0,0,1-1.14-.92h2.87a.7.7,0,0,0,.7-.69v-.32a2.26,2.26,0,0,0-.66-1.65A2.46,2.46,0,0,0,158.74,111.83Zm-1.12,2.11a1.17,1.17,0,0,1,1.12-.76,1.08,1.08,0,0,1,1,.76Z"/>
    <path class="cls-3" d="M148.49,109.87a.82.82,0,0,0-1.5-.23l-.12.21a.81.81,0,0,0,1.39.84l.13-.21A.79.79,0,0,0,148.49,109.87Z"/>
    <path class="cls-3" d="M128.83,112.68a2.85,2.85,0,0,0-2.06-.87,3,3,0,0,0-3,2.89,2.84,2.84,0,0,0,2.85,2.92,3,3,0,0,0,3-2.88A2.81,2.81,0,0,0,128.83,112.68Zm-2.16,3.47a1.38,1.38,0,0,1-1.38-1.42,1.49,1.49,0,0,1,1.48-1.45,1.37,1.37,0,0,1,1.38,1.42A1.49,1.49,0,0,1,126.67,116.15Z"/>
    <path class="cls-3" d="M146.91,117.22a.75.75,0,0,0,.51.23h0a.74.74,0,0,0,.74-.72l.09-4a.72.72,0,0,0-.2-.53.74.74,0,0,0-.53-.23h-.32a.73.73,0,0,0-.43,1.33l-.08,3.43A.71.71,0,0,0,146.91,117.22Z"/>
    <path class="cls-3" d="M121.16,112.57h-.27v0h0c.23-1.21.44-1.71,1.15-1.71a.91.91,0,0,1,.35.07.73.73,0,0,0,.4.12.72.72,0,0,0,.62-.34.74.74,0,0,0-.23-1,2.37,2.37,0,0,0-1.12-.3c-2.05,0-2.43,2-2.61,2.92l.21.05-.21,0s0,.09-.06.3h-.32a.75.75,0,0,0-.74.72.71.71,0,0,0,.2.53.74.74,0,0,0,.53.23h0l-.83,4.13c-.06.29-.21.37-.26.38a.73.73,0,0,0,0,1.47,1.78,1.78,0,0,0,1.66-1.56l.89-4.42h.57a.75.75,0,0,0,.73-.74A.74.74,0,0,0,121.16,112.57Z"/>
    <path class="cls-3" d="M110.25,109.53A.74.74,0,0,0,109,110l-.15,6.66a.72.72,0,0,0,.2.53.74.74,0,0,0,.53.23h.32a.73.73,0,0,0,.43-1.33l.14-6A.73.73,0,0,0,110.25,109.53Z"/>
    <path class="cls-3" d="M106.59,117.44h.32a.73.73,0,0,0,.43-1.33l.14-6a.73.73,0,1,0-1.47,0l-.15,6.66a.72.72,0,0,0,.2.53A.74.74,0,0,0,106.59,117.44Z"/>
    <path class="cls-3" d="M114.13,117.56a3,3,0,0,0,1.92-.67.69.69,0,0,0,.23-.48.7.7,0,0,0-.18-.51.59.59,0,0,0-.47-.18,1.48,1.48,0,0,0-.4.06l-.1.05a1.71,1.71,0,0,1-1,.33,1.1,1.1,0,0,1-1.14-.92h2.87a.7.7,0,0,0,.7-.68v-.32a2.26,2.26,0,0,0-.66-1.65,2.46,2.46,0,0,0-1.76-.76,2.6,2.6,0,0,0-2.59,2.63v.39a2.69,2.69,0,0,0,.74,2A2.54,2.54,0,0,0,114.13,117.56Zm0-4.39a1.08,1.08,0,0,1,1,.76H113A1.17,1.17,0,0,1,114.16,113.18Z"/>
    <path class="cls-3" d="M103.53,117.44h0a.74.74,0,0,0,.74-.72l.09-4a.71.71,0,0,0-.2-.53.74.74,0,0,0-.53-.23h-.32a.73.73,0,0,0-.73.73.72.72,0,0,0,.31.6l-.08,3.43A.73.73,0,0,0,103.53,117.44Z"/>
    <path class="cls-3" d="M104.6,109.87a.82.82,0,0,0-1.5-.23l-.12.21a.81.81,0,0,0,.27,1.11.8.8,0,0,0,.42.12.82.82,0,0,0,.69-.39l.13-.21A.79.79,0,0,0,104.6,109.87Z"/>
    <path class="cls-3" d="M99.37,117l2.87-6.33a.74.74,0,1,0-1.34-.61l-2.38,5.26-2.13-5.23a.73.73,0,0,0-.68-.46h-.35a.73.73,0,0,0-.15,1.45l2.41,5.9a.74.74,0,0,0,.68.45h.41A.74.74,0,0,0,99.37,117Z"/>
    <path class="cls-3" d="M143.94,62.69a5.29,5.29,0,0,0,3.36-1.18h0a1.16,1.16,0,0,0,.39-.8,1.18,1.18,0,0,0-.3-.86,1,1,0,0,0-.78-.3,2.55,2.55,0,0,0-.69.11l-.09,0-.07.05a3.1,3.1,0,0,1-1.83.6,2,2,0,0,1-2.1-1.75H147a1.18,1.18,0,0,0,1.19-1.15l0-.56A3.94,3.94,0,0,0,147.06,54,4.3,4.3,0,0,0,144,52.65a4.54,4.54,0,0,0-4.53,4.61l0,.69a4.7,4.7,0,0,0,1.29,3.44A4.44,4.44,0,0,0,143.94,62.69Zm.05-7.77a2,2,0,0,1,1.88,1.47h-3.95A2.15,2.15,0,0,1,144,54.92Z"/>
    <path class="cls-3" d="M135.85,62.48h.57a1.24,1.24,0,0,0,.7-2.26l.24-10.75a1.22,1.22,0,0,0-.34-.9,1.2,1.2,0,0,0-.86-.37h-.05a1.24,1.24,0,0,0-1.22,1.21l-.27,11.8a1.2,1.2,0,0,0,.34.89A1.25,1.25,0,0,0,135.85,62.48Z"/>
    <path class="cls-3" d="M126.15,52.74a1.11,1.11,0,0,0,1.57-.28l1.61-2.33,1.49,2.3a1.13,1.13,0,0,0,1.9-1.23l-2.41-3.73a1.14,1.14,0,0,0-1.89,0l-2.58,3.75a1.15,1.15,0,0,0-.17.84A1.08,1.08,0,0,0,126.15,52.74Z"/>
    <path class="cls-3" d="M121.26,59.06a3.35,3.35,0,0,0,3.31-3.26,3.19,3.19,0,0,0-3.19-3.27,3.35,3.35,0,0,0-3.33,3.25,3.2,3.2,0,0,0,3.2,3.29Z"/>
    <path class="cls-3" d="M107.58,51.25l-.24,10.17a1.25,1.25,0,0,0,1.22,1.28h0a1.25,1.25,0,0,0,1.26-1.21l.1-4.24H112a4.28,4.28,0,0,0,4.23-4.15,4,4,0,0,0-1.15-2.88A4,4,0,0,0,112.2,49h-3.93a1.24,1.24,0,0,0-.7,2.26Zm2.48.22h2.15a1.56,1.56,0,0,1,1.12.47,1.52,1.52,0,0,1,.44,1.1A1.74,1.74,0,0,1,112,54.74h-2Z"/>
  </g>
</svg>
