<?xml version="1.0" encoding="utf-8"?>
<!-- Generator: Adobe Illustrator 21.0.2, SVG Export Plug-In . SVG Version: 6.00 Build 0)  -->
<svg version="1.1" id="Layer_1" xmlns="http://www.w3.org/2000/svg" xmlns:xlink="http://www.w3.org/1999/xlink" x="0px" y="0px"
	 viewBox="0 0 507 452" style="enable-background:new 0 0 507 452;" xml:space="preserve">
<style type="text/css">
	.st0{fill:#FFFFFF;}
	.st1{fill:#D0A9D0;}
	.st2{fill:#421B4B;}
	.st3{fill:none;stroke:#E50051;stroke-width:2;stroke-miterlimit:10;}
</style>
<g>
	<g>
		<polygon id="XMLID_19_" class="st0" points="202.2,50 210.2,42 210.2,26 210.2,10 226.2,10 234.2,2 242.2,10 250.2,18 266.3,18 
			266,34 282.3,34 290.3,42 290.3,58 298.3,50 314.3,50 306.3,58 314.3,66 330.3,66 338.3,74 354.4,74 362.9,82.5 370.4,90 
			386.4,90 394.4,98 410.4,98 418.4,106 410.4,114 402.4,122 402.4,138 394.4,146 394.4,162 386.4,170 378.4,178 362.4,194 
			354.4,202 354.4,218 370.4,218 378.4,226 386.4,234 370.4,250 386.4,266 370.4,282 378.4,290 378.4,306 386.4,314 394.4,322 
			402.4,314 402.4,330 362.4,370 346.3,370 338.3,362 322.3,362 314.3,354 306.3,362 298.3,354 282.3,354 274.3,362 258.3,362 
			258.3,378 258.3,394 250.2,402 234.2,402 218.2,402 210.2,394 202.2,386 186.2,386 178.2,378 170.2,386 154.2,386 146.1,378 
			138.1,386 130.1,378 122.1,370 114.1,362 98.1,362 106.1,354 114.1,346 114.1,330 114.1,314 122.1,306 122.1,258 130.1,266 
			130.1,250 114.1,250 122.1,242 122.1,226 114.1,218 98.1,218 98.1,202 90.1,194 90.1,178 74.1,178 74.1,162 66.1,170 58.1,162 
			42,162 34,154 18,154 10,146 18,138 10,130 2,122 10,114 42,114 50,106 66.1,106 66.1,122 74.1,114 90.1,114 98.1,122 106.1,114 
			106.1,98 106.1,82 90.1,66 106.1,66 114.1,74 122.1,82 138.1,82 154.2,82 162.2,74 162.2,66 170.2,66 178.2,58 194.2,58 		"/>
	</g>
	<ellipse class="st1" cx="311.8" cy="245.5" rx="21" ry="21"/>
	<ellipse class="st2" cx="311.8" cy="245.5" rx="12" ry="12"/>
	<g>
		<polygon id="XMLID_17_" class="st0" points="450.4,378 442.4,386 434.4,394 426.4,402 426.4,418 434.4,426 434.4,442 442.4,450 
			450.4,442 458.5,434 458.5,418 458.5,402 458.5,386 458.5,370 		"/>
	</g>
	<polyline class="st3" points="311.8,247 311.8,218.5 319.8,210.5 319.8,202.5 327.8,194.5 335.8,194.5 351.8,178.5 359.9,178.5 
		367.9,171.5 375.9,171.5 380.7,175.8 	"/>
	<polyline class="st3" points="409.3,219.8 393.3,219.8 381.6,228 371.6,218 357.4,218 343.8,230.5 343.8,246.5 334.9,246.5 
		327.2,238.5 319.5,238.5 311.8,246.5 311.8,254.5 308,258.5 311.8,262.5 311.3,278.5 315.2,282.5 309.8,293 309.7,317.5 315.2,323 
		307.8,330.4 307.8,339 293.8,353 293.8,354 	"/>
	<g id="XMLID_60_">
		<path id="XMLID_61_" class="st2" d="M246.5,238.6h3.7v10h4.9v2.9h-8.6L246.5,238.6L246.5,238.6z"/>
		<path id="XMLID_63_" class="st2" d="M258.7,250.5l-3.8-8.5h3.5l1.9,5l1.8-5h3.1l-5,12.6h-3.1L258.7,250.5z"/>
		<path id="XMLID_65_" class="st2" d="M265.3,246.9v-0.1c0-3,2.3-4.9,5.2-4.9c2.9,0,5.1,1.9,5.1,4.8v0.1c0,3.1-2.3,4.9-5.1,4.9
			C267.7,251.7,265.3,249.9,265.3,246.9z M272.4,246.8v-0.1c0-1.6-0.6-2.5-1.9-2.5c-1.2,0-1.9,0.8-1.9,2.4v0.1
			c0,1.6,0.6,2.5,1.9,2.5C271.7,249.3,272.4,248.4,272.4,246.8z"/>
		<path id="XMLID_68_" class="st2" d="M277,242.1h3.2v1.5c0.5-1,1.5-1.8,3.1-1.8c1.8,0,3.1,1.1,3.1,3.5v6.1h-3.2v-5.5
			c0-1.1-0.4-1.6-1.4-1.6s-1.6,0.6-1.6,1.8v5.3H277V242.1z"/>
	</g>
	<g id="XMLID_35_">
		<g id="XMLID_245_">
			<path id="XMLID_294_" class="st0" d="M386.6,188.2h1.2c0.2,1.2,0.6,2.2,2.6,2.2c1.3,0,2.3-0.8,2.3-1.9c0-1.1-0.5-1.6-2.4-1.9
				c-2.1-0.3-3.3-1-3.3-2.8c0-1.5,1.3-2.7,3.2-2.7c2,0,3.2,1,3.4,2.8h-1.1c-0.2-1.3-1-1.8-2.4-1.8s-2.1,0.7-2.1,1.6
				c0,1,0.4,1.5,2.4,1.8c2.2,0.4,3.4,1,3.4,2.9c0,1.7-1.5,3-3.5,3C387.7,191.4,386.8,189.9,386.6,188.2z"/>
			<path id="XMLID_291_" class="st0" d="M398.3,181.2h1.6l3.4,10h-1.2l-1-2.9H397l-1,2.9h-1.1L398.3,181.2z M397.3,187.4h3.5
				l-1.7-5.2L397.3,187.4z"/>
			<path id="XMLID_286_" class="st0" d="M415.8,181.2h1.6l4.9,8.3v-8.3h1.2v10h-1.4l-5.1-8.6v8.6h-1.2V181.2z"/>
			<path id="XMLID_284_" class="st0" d="M426,181.2h5.8v1h-4.6v3.4h3.7v1h-3.7v3.6h4.9v1H426L426,181.2L426,181.2z"/>
			<path id="XMLID_281_" class="st0" d="M437.6,181.2h3c1.9,0,3.5,0.8,3.5,2.8v0.1c0,1.7-1.1,2.5-2.5,2.7l3.1,4.4h-1.4l-3-4.4h-1.5
				v4.4h-1.2V181.2z M440.7,185.9c1.4,0,2.2-0.6,2.2-1.8V184c0-1.4-0.8-1.8-2.2-1.8h-1.9v3.7L440.7,185.9L440.7,185.9z"/>
			<path id="XMLID_279_" class="st0" d="M446.5,181.2h1.2v10h-1.2V181.2z"/>
			<path id="XMLID_277_" class="st0" d="M449.4,181.2h1.2l3,8.8l3-8.8h1.1l-3.5,10h-1.5L449.4,181.2z"/>
			<path id="XMLID_249_" class="st0" d="M459.5,181.2h5.8v1h-4.6v3.4h3.7v1h-3.7v3.6h4.9v1h-6.1V181.2z"/>
			<path id="XMLID_246_" class="st0" d="M467.5,181.2h3c1.9,0,3.5,0.8,3.5,2.8v0.1c0,1.7-1.1,2.5-2.5,2.7l3.1,4.4h-1.4l-3-4.4h-1.5
				v4.4h-1.2V181.2z M470.5,185.9c1.4,0,2.2-0.6,2.2-1.8V184c0-1.4-0.8-1.8-2.2-1.8h-1.9v3.7L470.5,185.9L470.5,185.9z"/>
			<path id="XMLID_2_" class="st0" d="M404,186.3v-0.1c0-2.8,2-5.1,4.9-5.1c2.9,0,4.9,2.2,4.9,5.1v0.1c0,2.8-1.9,5.1-4.9,5.1
				C406,191.4,404,189.1,404,186.3z M412.6,186.3v-0.1c0-2.2-1.3-4.1-3.6-4.1c-2.3,0-3.7,1.7-3.7,4.1v0.1c0,2.4,1.6,4.1,3.7,4.1
				C411.2,190.4,412.6,188.7,412.6,186.3z M408.4,178.7h1.1l1.5,1.8h-0.9l-1.2-0.8l-1.2,0.8h-0.8L408.4,178.7z"/>
		</g>
	</g>
	<g id="XMLID_1_">
		<g id="XMLID_251_">
			<path id="XMLID_274_" class="st0" d="M415.9,213h3c1.9,0,3.5,0.8,3.5,2.8v0.1c0,1.7-1.1,2.5-2.5,2.7l3.1,4.4h-1.4l-3-4.4h-1.5
				v4.4h-1.2V213z M419,217.7c1.4,0,2.2-0.6,2.2-1.8v-0.1c0-1.4-0.8-1.8-2.2-1.8h-1.9v3.7L419,217.7L419,217.7z"/>
			<path id="XMLID_272_" class="st0" d="M424.7,213h1.2v4.5h5.3V213h1.2v10h-1.2v-4.5h-5.3v4.5h-1.2V213z"/>
			<path id="XMLID_268_" class="st0" d="M434.4,218.1V218c0-2.8,2-5.1,4.9-5.1c2.9,0,4.9,2.2,4.9,5.1v0.1c0,2.8-1.9,5.1-4.9,5.1
				C436.4,223.2,434.4,220.9,434.4,218.1z M443,218.1V218c0-2.2-1.3-4.1-3.6-4.1c-2.3,0-3.7,1.7-3.7,4.1v0.1c0,2.4,1.6,4.1,3.7,4.1
				C441.6,222.2,443,220.5,443,218.1z M438.8,210.5h1.1l1.5,1.8h-0.9l-1.2-0.8l-1.2,0.8h-0.8L438.8,210.5z"/>
			<path id="XMLID_266_" class="st0" d="M446.3,213h1.6l4.9,8.3V213h1.2v10h-1.4l-5.1-8.6v8.6h-1.2V213z"/>
			<path id="XMLID_264_" class="st0" d="M456.5,213h5.8v1h-4.6v3.4h3.7v1h-3.7v3.6h4.9v1h-6.1V213z"/>
			<path id="XMLID_261_" class="st0" d="M468.2,213h3c1.9,0,3.5,0.8,3.5,2.8v0.1c0,1.7-1.1,2.5-2.5,2.7l3.1,4.4h-1.4l-3-4.4h-1.5
				v4.4h-1.2V213z M471.3,217.7c1.4,0,2.2-0.6,2.2-1.8v-0.1c0-1.4-0.8-1.8-2.2-1.8h-1.9v3.7L471.3,217.7L471.3,217.7z"/>
			<path id="XMLID_259_" class="st0" d="M477,213h1.2v10H477V213z"/>
			<path id="XMLID_257_" class="st0" d="M480,213h1.2l3,8.8l3-8.8h1.1l-3.5,10h-1.5L480,213z"/>
			<path id="XMLID_255_" class="st0" d="M490,213h5.8v1h-4.6v3.4h3.7v1h-3.7v3.6h4.9v1H490L490,213L490,213z"/>
			<path id="XMLID_252_" class="st0" d="M497.9,213h3c1.9,0,3.5,0.8,3.5,2.8v0.1c0,1.7-1.1,2.5-2.5,2.7l3.1,4.4h-1.4l-3-4.4h-1.5
				v4.4h-1.2V213z M501,217.7c1.4,0,2.2-0.6,2.2-1.8v-0.1c0-1.4-0.8-1.8-2.2-1.8h-1.9v3.7L501,217.7L501,217.7z"/>
		</g>
	</g>
	<polyline class="st3" points="307.6,339 307.6,359 308.5,359.9 	"/>
</g>
</svg>
