<?xml version="1.0" encoding="UTF-8"?>
<svg width="100pt" height="100pt" version="1.1" viewBox="0 0 100 100" xmlns="http://www.w3.org/2000/svg">
 <path d="m93.898 66.301-7.1992-37.102c-0.19922-1.1992-1.3008-2.1016-2.5-2h-68.398c-1.1992 0-2.3008 0.80078-2.5 2l-7.1992 40.402-0.10156 0.29688v0.39844c0 1.3008 1.1016 2.3984 2.3984 2.3984h68.398c1.1992 0 2.1992-0.80078 2.3984-2l0.30078-1.5 4.8008-26.801 4.3008 21.898h-2.3984c-1.3984 0-2.5 1.1016-2.5 2.5 0 1.3984 1.1016 2.5 2.5 2.5h5.3008 0.5c1.3008-0.29297 2.1992-1.5938 1.8984-2.9922zm-19.098 1.5977h-63.402l6.3984-35.699h63.398zm-16.402-24-14.5 14.703c-0.89844 0.89844-2.1992 1-3 0.30078l-5-6.1016c-0.69922-0.80078-0.5-2.1016 0.39844-2.8984 0.80078-0.80078 2-0.89844 2.6992-0.30078l3.6016 4.8008 12.898-13.102c0.89844-0.80078 2.1992-1 3-0.30078 0.39844 0.39844 0.60156 0.80078 0.5 1.3984 0.10547 0.5-0.19531 1.1016-0.59766 1.5z"/>
</svg>
