<svg id="flatten" xmlns="http://www.w3.org/2000/svg" viewBox="0 0 26 26"><defs><style>.cls-1{fill:none;}.cls-2{fill:#411d4b;}</style></defs><title>icon-typique-lyon</title><rect class="cls-1" width="26" height="26"/><path class="cls-2" d="M13,1C7.19,1,3,2.91,3,10.3S13,25,13,25s10-7.3,10-14.7S18.81,1,13,1Zm0,22.73C10.91,22.07,4,16.1,4,10.3S6.61,2,13,2s9,2.41,9,8.3S15.09,22.07,13,23.73Z"/><path class="cls-2" d="M13,5.5C8,5.5,8,8.15,8,10s0,4.5,5,4.5,5-2.65,5-4.5S18,5.5,13,5.5Zm0,8c-4,0-4-1.7-4-3.5s0-3.5,4-3.5,4,1.7,4,3.5S17,13.5,13,13.5Z"/></svg>