<svg id="flatten" xmlns="http://www.w3.org/2000/svg" viewBox="0 0 26 26"><defs><style>.cls-1{fill:#411d4b;}.cls-2{fill:none;}</style></defs><title>icon-vegan-options</title><path class="cls-1" d="M15.88,15.18,15,14.3a5.79,5.79,0,0,0-1.66-1.18,6.12,6.12,0,0,0,2.21-1.42l.52-.52a4.73,4.73,0,0,0,6-.56C25.25,7.43,25,2.17,25,2l0-.89L24.05,1h-.41c-1.25,0-5.53.21-8.26,2.93a4.74,4.74,0,0,0-.07,6.6l-.46.47a5.1,5.1,0,0,1-3.63,1.5H10.16a6,6,0,0,0-5.63,6,6,6,0,0,0,.29,1.85,11,11,0,0,1,10.94-18,11,11,0,0,1,1.11-.71A12,12,0,0,0,7.64,23.72l.16.1v0a11.88,11.88,0,0,0,10.74-.17,12.26,12.26,0,0,1-1.37-.46,10.91,10.91,0,0,1-9.07-.33A5.39,5.39,0,0,1,7,22a5,5,0,0,1,3.53-8.51h.16A5.1,5.1,0,0,1,14.3,15l.88.88a3.38,3.38,0,0,0,.32,4.42c2,2,5.18,2.2,6.2,2.2H22l.45,0,0-.45c0-.17.2-4.13-2.19-6.52A3.38,3.38,0,0,0,15.88,15.18Zm.21-10.54C18.54,2.19,22.46,2,23.64,2H24s.28,5-2.63,7.9a3.69,3.69,0,0,1-4.56.54l3.7-3.7-.7-.7L16,9.82A3.72,3.72,0,0,1,16.09,4.64Zm.11,15a2.4,2.4,0,0,1-.31-3l1.68,1.69.71-.71-1.69-1.68a2.39,2.39,0,0,1,3,.31,8.15,8.15,0,0,1,1.91,5.3A8.15,8.15,0,0,1,16.2,19.59Z"/><path class="cls-1" d="M23.63,10.23a10.76,10.76,0,0,1-.46,6.94,10.51,10.51,0,0,1,.46,1.37A11.89,11.89,0,0,0,25,13a12,12,0,0,0-.65-3.87A9.43,9.43,0,0,1,23.63,10.23Z"/><rect class="cls-2" width="26" height="26"/></svg>