<svg id="flatten" xmlns="http://www.w3.org/2000/svg" viewBox="0 0 26 26"><defs><style>.cls-1{fill:#411d4b;}.cls-2{fill:none;}</style></defs><title>icon--free-wifi</title><path class="cls-1" d="M7.43,16.41l.71.7a6.9,6.9,0,0,1,9.72,0l.71-.7a7.89,7.89,0,0,0-11.14,0Z"/><path class="cls-1" d="M4,13l.71.71a11.68,11.68,0,0,1,16.5,0L22,13A12.69,12.69,0,0,0,4,13Z"/><path class="cls-1" d="M13,4.5A17.34,17.34,0,0,0,.65,9.62l.7.7a16.49,16.49,0,0,1,23.3,0l.7-.7A17.34,17.34,0,0,0,13,4.5Z"/><path class="cls-1" d="M10.76,19.73,13,22l2.24-2.24a3.19,3.19,0,0,0-4.48,0Z"/><rect class="cls-2" width="26" height="26"/></svg>