<svg id="flatten" xmlns="http://www.w3.org/2000/svg" viewBox="0 0 26 26"><defs><style>.cls-1{fill:none;}.cls-2{fill:#411d4b;}</style></defs><title>icon-gluten-free</title><rect class="cls-1" width="26" height="26"/><path class="cls-2" d="M13,1C6,1,1,5.4,1,12.53v.94C1,20.6,6,25,13,25s12-4.4,12-11.53v-.94C25,5.4,20,1,13,1Zm0,23C6.31,24,2,19.87,2,13.47v-.94a10.53,10.53,0,0,1,2.39-7L10,10.83a5.21,5.21,0,0,0,.1,1l-.53,0H9.41A7.5,7.5,0,0,0,10,14.85,5.74,5.74,0,0,0,9,15a6.21,6.21,0,0,0,1.83,3.68,1.47,1.47,0,0,0,.91.32,1.52,1.52,0,0,0,.76-.22V22h1V18.78a1.52,1.52,0,0,0,.76.22,1.47,1.47,0,0,0,.91-.32A4.41,4.41,0,0,0,16.44,17l4.47,4.25A11.36,11.36,0,0,1,13,24ZM11.09,9.57l.68.45.47-1.1A2.61,2.61,0,0,1,13,8a2.61,2.61,0,0,1,.76.91l.47,1.1.68-.45a5.15,5.15,0,0,1,0,2l-.3,1.35.9-.09a5.35,5.35,0,0,1-.39,1.51L13.5,12.79V10a.5.5,0,0,0-1,0v1.84L11,10.4A7,7,0,0,1,11.09,9.57ZM13.5,15.9V14.16l1.2,1.15-.2.43.72,0,.44.42a3.71,3.71,0,0,1-1.1,1.68.48.48,0,0,1-.3.11.61.61,0,0,1-.46-.27l-.3-.41Zm-1-2.69v4.11l-.3.41a.61.61,0,0,1-.46.27.48.48,0,0,1-.3-.11,4.16,4.16,0,0,1-1.23-2.06l1.29-.09-.61-1.31a5.67,5.67,0,0,1-.42-1.6l.9.09-.22-1Zm11.5.26a10.57,10.57,0,0,1-2.39,7L16.8,15.92A7,7,0,0,0,17,15a5.74,5.74,0,0,0-1-.15,7.5,7.5,0,0,0,.58-3.09h-.15l-.53,0a7.15,7.15,0,0,0-.39-3.73l-.22.1V5.8h-1V7.91a2.85,2.85,0,0,0-.8-.75V4h-1V7.16a2.85,2.85,0,0,0-.8.75V5.8h-1V8.16l-.22-.1a7.66,7.66,0,0,0-.39,1.48l-5-4.75A11.32,11.32,0,0,1,13,2c6.69,0,11,4.13,11,10.53Z"/></svg>