<?xml version="1.0" encoding="utf-8"?>
<!-- Generator: Adobe Illustrator 19.0.0, SVG Export Plug-In . SVG Version: 6.00 Build 0)  -->
<svg version="1.1" id="Layer_1" xmlns="http://www.w3.org/2000/svg" xmlns:xlink="http://www.w3.org/1999/xlink" x="0px" y="0px"
	 viewBox="0 0 150 60" style="enable-background:new 0 0 150 60;" xml:space="preserve">
<style type="text/css">
	.st0{fill:#E50051;}
	.st1{fill:#421B4B;}
</style>
<g id="XMLID_2_">
	<polygon id="XMLID_65_" class="st0" points="4.4,53.6 4.4,47.1 7.2,44.3 13.7,50.8 10.9,53.6 	"/>
	<polygon id="XMLID_64_" class="st0" points="46.1,53.6 43.2,50.8 49.7,44.3 52.6,47.1 52.6,53.6 	"/>
	<path id="XMLID_63_" class="st0" d="M42.2,9.4l2.5-2.5c0.9-0.9,2-1.3,3.2-1.3s2.4,0.5,3.2,1.3c1.8,1.8,1.8,4.7,0,6.5l-2.5,2.5
		L42.2,9.4z"/>
	
		<rect id="XMLID_62_" x="6.9" y="8" transform="matrix(-0.7071 0.7071 -0.7071 -0.7071 28.5027 13.3066)" class="st0" width="9.2" height="9.2"/>
	<g id="XMLID_3_">
		<rect id="XMLID_61_" x="66.1" y="4.4" class="st1" width="2.3" height="8.1"/>
		<polygon id="XMLID_60_" class="st1" points="72.4,7.5 75.4,12.6 77.6,12.6 77.6,4.4 75.6,4.4 75.6,9 73,4.4 70.4,4.4 70.4,12.6 
			72.4,12.6 		"/>
		<polygon id="XMLID_59_" class="st1" points="83.3,12.6 83.3,6.2 85.4,6.2 85.4,4.4 78.9,4.4 78.9,6.2 81,6.2 81,12.6 		"/>
		<polygon id="XMLID_58_" class="st1" points="92.5,10.8 89,10.8 89,9.3 91.7,9.3 91.7,7.6 89,7.6 89,6.2 92.3,6.2 92.3,4.4 
			86.7,4.4 86.7,12.6 92.5,12.6 		"/>
		<path id="XMLID_55_" class="st1" d="M96.2,9.7h0.5l1.6,2.9h2.4l-1.9-3.4c0.8-0.3,1.5-1,1.5-2.1v0c0-1.7-1.2-2.6-3.3-2.6h-3.2v8.1
			h2.3V9.7z M96.2,6.2H97c0.7,0,1.2,0.3,1.2,0.9v0c0,0.7-0.4,1-1.2,1h-0.7V6.2z"/>
		<path id="XMLID_52_" class="st1" d="M104.1,11h2.7l0.4,1.5h2.5l-2.6-8.1h-3l-2.6,8.1h2.2L104.1,11z M105.4,6.3l0.9,3.1h-1.8
			L105.4,6.3z"/>
		<path id="XMLID_51_" class="st1" d="M114.2,10.8c-1.1,0-1.7-0.8-1.7-2.3V8.5c0-1.5,0.7-2.3,1.7-2.3c0.8,0,1.3,0.5,1.4,1.3h2.4
			c-0.2-2.1-1.7-3.1-3.8-3.1c-2.4,0-4.1,1.6-4.1,4.1v0.1c0,2.5,1.4,4.1,4.2,4.1c2.1,0,3.6-1.1,3.8-3.2h-2.3
			C115.6,10.4,115,10.8,114.2,10.8z"/>
		<polygon id="XMLID_50_" class="st1" points="120.8,12.6 123.1,12.6 123.1,6.2 125.2,6.2 125.2,4.4 118.7,4.4 118.7,6.2 120.8,6.2 
					"/>
		<rect id="XMLID_49_" x="126.6" y="4.4" class="st1" width="2.3" height="8.1"/>
		<path id="XMLID_46_" class="st1" d="M134.6,4.3c-2.4,0-4.3,1.7-4.3,4.1v0.1c0,2.4,1.6,4.1,4.2,4.1c2.6,0,4.3-1.7,4.3-4.2V8.4
			C138.9,5.9,137.1,4.3,134.6,4.3z M136.5,8.5c0,1.5-0.7,2.3-1.9,2.3c-1.1,0-1.9-0.9-1.9-2.3V8.5c0-1.5,0.7-2.3,1.9-2.3
			C135.8,6.1,136.5,7,136.5,8.5L136.5,8.5z"/>
		<polygon id="XMLID_45_" class="st1" points="145.6,4.4 145.6,9 143,4.4 140.3,4.4 140.3,12.6 142.4,12.6 142.4,7.5 145.3,12.6 
			147.6,12.6 147.6,4.4 		"/>
		<path id="XMLID_42_" class="st1" d="M73.4,22.7L73.4,22.7c0-2.6-1.5-4-4.3-4h-2.9v8.1H69C71.9,26.7,73.4,25.2,73.4,22.7z
			 M68.4,24.9v-4.5h0.5c1.4,0,2,0.7,2,2.2v0.1c0,1.5-0.6,2.2-2,2.2H68.4z"/>
		<polygon id="XMLID_41_" class="st1" points="80.4,20.4 80.4,18.6 74.8,18.6 74.8,26.7 80.6,26.7 80.6,24.9 77.1,24.9 77.1,23.4 
			79.7,23.4 79.7,21.8 77.1,21.8 77.1,20.4 		"/>
		<path id="XMLID_40_" class="st1" d="M85,25.2c-1,0-1.2-0.5-1.3-1.1h-2.2c0.1,1.8,1.2,2.7,3.5,2.7c2.1,0,3.3-1.2,3.3-2.7
			c0-1.8-1.1-2.3-3.1-2.5c-1-0.1-1.3-0.3-1.3-0.8c0-0.4,0.3-0.7,0.9-0.7c0.6,0,1,0.3,1,0.9h2.2c-0.1-1.7-1.2-2.5-3.2-2.5
			c-1.9,0-3.1,1.1-3.1,2.5c0,1.6,0.8,2.3,3.1,2.6c1,0.1,1.3,0.3,1.3,0.8C86.1,24.9,85.7,25.2,85,25.2z"/>
		<rect id="XMLID_39_" x="89.7" y="18.6" class="st1" width="2.3" height="8.1"/>
		<path id="XMLID_38_" class="st1" d="M97.8,26.8c2.6,0,4-1.6,4-3.6v-1h-3.8v1.6h1.5c0,0.6-0.5,1.2-1.6,1.2c-1.4,0-1.9-1-1.9-2.3
			v-0.1c0-1.5,0.7-2.3,1.8-2.3c0.9,0,1.3,0.4,1.5,1.2h2.3c-0.2-2.1-1.9-3-3.8-3c-2.4,0-4.2,1.7-4.2,4.1v0.1
			C93.5,25.1,95,26.8,97.8,26.8z"/>
		<polygon id="XMLID_37_" class="st1" points="108.3,23.2 105.8,18.6 103.1,18.6 103.1,26.7 105.2,26.7 105.2,21.6 108.1,26.7 
			110.4,26.7 110.4,18.6 108.3,18.6 		"/>
		<polygon id="XMLID_36_" class="st1" points="71.9,39.1 68.4,39.1 68.4,37.6 71,37.6 71,36 68.4,36 68.4,34.6 71.7,34.6 71.7,32.8 
			66.1,32.8 66.1,40.9 71.9,40.9 		"/>
		<path id="XMLID_33_" class="st1" d="M80.6,36.8L80.6,36.8c0-2.6-1.5-4-4.3-4h-2.9v8.1h2.9C79.1,40.9,80.6,39.3,80.6,36.8z
			 M75.6,39.1v-4.5h0.5c1.4,0,2,0.7,2,2.2v0.1c0,1.5-0.6,2.2-2,2.2H75.6z"/>
		<path id="XMLID_32_" class="st1" d="M85.5,41c2.2,0,3.6-1.1,3.6-3.5v-4.8h-2.3v4.7c0,1.2-0.3,1.7-1.3,1.7c-1,0-1.3-0.6-1.3-1.7
			v-4.7h-2.3v4.8C81.9,39.9,83.2,41,85.5,41z"/>
		<path id="XMLID_31_" class="st1" d="M94.7,41c2.1,0,3.6-1.1,3.8-3.2h-2.3c-0.1,0.9-0.7,1.3-1.5,1.3c-1.1,0-1.7-0.8-1.7-2.3v-0.1
			c0-1.5,0.7-2.3,1.7-2.3c0.8,0,1.3,0.5,1.4,1.3h2.4c-0.2-2.1-1.7-3.1-3.8-3.1c-2.4,0-4.1,1.6-4.1,4.1v0.1
			C90.5,39.4,91.9,41,94.7,41z"/>
		<path id="XMLID_28_" class="st1" d="M101.6,32.8L99,40.9h2.2l0.4-1.5h2.7l0.4,1.5h2.5l-2.6-8.1H101.6z M102.1,37.8l0.9-3.1
			l0.9,3.1H102.1z"/>
		<polygon id="XMLID_27_" class="st1" points="111.5,40.9 111.5,34.6 113.6,34.6 113.6,32.8 107.1,32.8 107.1,34.6 109.2,34.6 
			109.2,40.9 		"/>
		<rect id="XMLID_26_" x="115" y="32.8" class="st1" width="2.3" height="8.1"/>
		<path id="XMLID_23_" class="st1" d="M123.1,32.7c-2.4,0-4.3,1.7-4.3,4.1v0.1c0,2.4,1.6,4.1,4.2,4.1c2.6,0,4.3-1.7,4.3-4.2v-0.1
			C127.4,34.2,125.5,32.7,123.1,32.7z M124.9,36.8c0,1.5-0.7,2.3-1.9,2.3c-1.1,0-1.9-0.9-1.9-2.3v-0.1c0-1.5,0.7-2.3,1.9-2.3
			C124.2,34.5,124.9,35.3,124.9,36.8L124.9,36.8z"/>
		<polygon id="XMLID_22_" class="st1" points="134,37.3 131.4,32.8 128.8,32.8 128.8,40.9 130.8,40.9 130.8,35.8 133.8,40.9 
			136,40.9 136,32.8 134,32.8 		"/>
		<path id="XMLID_21_" class="st1" d="M69.2,50c-1-0.1-1.3-0.3-1.3-0.8c0-0.4,0.3-0.7,0.9-0.7c0.6,0,1,0.3,1,0.9h2.2
			c-0.1-1.7-1.2-2.5-3.2-2.5c-1.9,0-3.1,1.1-3.1,2.5c0,1.6,0.8,2.3,3.1,2.6c1,0.1,1.3,0.3,1.3,0.8c0,0.5-0.4,0.8-1,0.8
			c-1,0-1.2-0.5-1.3-1.1h-2.2c0.1,1.8,1.2,2.7,3.5,2.7c2.1,0,3.3-1.2,3.3-2.7C72.3,50.7,71.3,50.2,69.2,50z"/>
		<path id="XMLID_20_" class="st1" d="M78.4,51.6c0,1.2-0.3,1.7-1.3,1.7c-1,0-1.3-0.6-1.3-1.7v-4.7h-2.3v4.8c0,2.3,1.3,3.4,3.6,3.4
			c2.2,0,3.6-1.1,3.6-3.5v-4.8h-2.3V51.6z"/>
		<polygon id="XMLID_19_" class="st1" points="87.1,51.2 85.5,46.9 82.5,46.9 82.5,55 84.6,55 84.6,50 86.6,55 87.3,55 89.3,50 
			89.3,55 91.6,55 91.6,46.9 88.6,46.9 		"/>
		<polygon id="XMLID_18_" class="st1" points="98.1,51.2 96.5,46.9 93.5,46.9 93.5,55 95.5,55 95.5,50 97.5,55 98.3,55 100.3,50 
			100.3,55 102.6,55 102.6,46.9 99.6,46.9 		"/>
		<rect id="XMLID_17_" x="104.5" y="46.9" class="st1" width="2.3" height="8.1"/>
		<polygon id="XMLID_16_" class="st1" points="108.2,48.7 110.2,48.7 110.2,55 112.6,55 112.6,48.7 114.7,48.7 114.7,46.9 
			108.2,46.9 		"/>
		<path id="XMLID_4_" class="st1" d="M52.2,14.3c2.3-2.3,2.3-6.1,0-8.5c-0.9-0.9-2-1.4-3.1-1.6c-0.4-0.1-0.8-0.1-1.1-0.1
			c-1.3,0-2.7,0.4-3.8,1.3c-0.2,0.1-0.3,0.3-0.5,0.4L28.5,21.1l-17-17L3,12.6l17,17l-17,17V55h8.5l17-17l17,17H54v-8.5l-17-17
			L52.2,14.3z M45.2,7.3C46,6.6,46.9,6.2,48,6.2c1,0,2,0.4,2.7,1.1c0.7,0.7,1.1,1.7,1.1,2.7c0,1-0.4,2-1.1,2.7l-2,2l-5.5-5.5
			L45.2,7.3z M27,22.6l-2,2l-8.5-8.5l2-2L27,22.6z M6,12.6l5.5-5.5l5.5,5.5L11.5,18L6,12.6z M13,19.5l2-2l8.5,8.5l-2,2L13,19.5z
			 M41.7,10.9l2,2L10.7,45.8l-2-2L41.7,10.9z M10.6,52.9H5.1v-5.5l2.1-2.1l5.5,5.5L10.6,52.9z M14.2,49.3l-2-2l32.9-32.9l2,2
			L14.2,49.3z M30,36.5l2-2l12.7,12.7l-2,2L30,36.5z M51.8,47.4v5.5h-5.5l-2.1-2.1l5.5-5.5L51.8,47.4z M48.2,43.8l-2,2L33.5,33l2-2
			L48.2,43.8z"/>
	</g>
</g>
</svg>
