<?xml version="1.0" encoding="utf-8"?>
<!-- Generator: Adobe Illustrator 19.0.0, SVG Export Plug-In . SVG Version: 6.00 Build 0)  -->
<svg version="1.1" id="Layer_1" xmlns="http://www.w3.org/2000/svg" xmlns:xlink="http://www.w3.org/1999/xlink" x="0px" y="0px"
	 viewBox="0 0 150 60" style="enable-background:new 0 0 150 60;" xml:space="preserve">
<style type="text/css">
	.st0{fill:#E50051;}
	.st1{fill:#421B4B;}
</style>
<g id="XMLID_92_">
	<path id="XMLID_123_" class="st0" d="M36.6,30.3L51.8,15c2.3-2.3,2.3-6.1,0-8.5c-2.3-2.3-6.1-2.3-8.5,0L23.9,26
		c-2.3,2.3-2.3,6.1,0,8.5L43.3,54c2.3,2.3,6.1,2.3,8.5,0c2.3-2.3,2.3-6.1,0-8.5L36.6,30.3z"/>
	<g id="XMLID_93_">
		<path id="XMLID_122_" class="st1" d="M13.6,5.1C12.3,3.9,10.7,3.3,9,3.4v0H3.3V9h0c-0.1,1.6,0.5,3.3,1.7,4.6l15.2,15.2L5.1,44.1
			c-1.3,1.3-1.8,2.9-1.7,4.6h0v5.7H9v0c1.6,0.1,3.3-0.5,4.6-1.7l19.5-19.5c2.3-2.3,2.3-6.1,0-8.5L13.6,5.1z"/>
		<path id="XMLID_121_" class="st1" d="M68.7,11.7c-1,0-1.2-0.5-1.3-1.1h-2.2c0.1,1.8,1.2,2.7,3.5,2.7c2.1,0,3.3-1.2,3.3-2.7
			c0-1.8-1.1-2.3-3.1-2.5c-1-0.1-1.3-0.3-1.3-0.8c0-0.4,0.3-0.7,0.9-0.7c0.6,0,1,0.3,1,0.9h2.2C71.6,5.9,70.5,5,68.5,5
			c-1.9,0-3.1,1.1-3.1,2.5c0,1.6,0.8,2.3,3.1,2.6c1,0.1,1.3,0.3,1.3,0.8C69.7,11.4,69.3,11.7,68.7,11.7z"/>
		<polygon id="XMLID_120_" class="st1" points="74.6,13.3 77,13.3 77,6.9 79.1,6.9 79.1,5.2 72.6,5.2 72.6,6.9 74.6,6.9 		"/>
		<path id="XMLID_119_" class="st1" d="M83.9,13.4c2.2,0,3.6-1.1,3.6-3.5V5.2h-2.3v4.7c0,1.2-0.3,1.7-1.3,1.7c-1,0-1.3-0.6-1.3-1.7
			V5.2h-2.3V10C80.3,12.2,81.6,13.4,83.9,13.4z"/>
		<path id="XMLID_116_" class="st1" d="M96.6,9.2L96.6,9.2c0-2.6-1.5-4-4.3-4h-2.9v8.1h2.9C95.1,13.3,96.6,11.7,96.6,9.2z M94.2,9.2
			c0,1.5-0.6,2.2-2,2.2h-0.5V6.9h0.5C93.6,6.9,94.2,7.6,94.2,9.2L94.2,9.2z"/>
		<polygon id="XMLID_115_" class="st1" points="103.8,11.5 100.3,11.5 100.3,10 102.9,10 102.9,8.3 100.3,8.3 100.3,6.9 103.6,6.9 
			103.6,5.2 98,5.2 98,13.3 103.8,13.3 		"/>
		<polygon id="XMLID_114_" class="st1" points="110.4,9.7 107.8,5.2 105.2,5.2 105.2,13.3 107.3,13.3 107.3,8.2 110.2,13.3 
			112.5,13.3 112.5,5.2 110.4,5.2 		"/>
		<polygon id="XMLID_113_" class="st1" points="115.9,13.3 118.2,13.3 118.2,6.9 120.3,6.9 120.3,5.2 113.8,5.2 113.8,6.9 
			115.9,6.9 		"/>
		<path id="XMLID_110_" class="st1" d="M68.7,19.3h-2.9v8.1h2.9c2.9,0,4.4-1.5,4.4-4.1v-0.1C73,20.8,71.5,19.3,68.7,19.3z
			 M70.6,23.4c0,1.5-0.6,2.2-2,2.2H68v-4.5h0.5C70,21.1,70.6,21.8,70.6,23.4L70.6,23.4z"/>
		<polygon id="XMLID_109_" class="st1" points="80.2,25.6 76.7,25.6 76.7,24.2 79.3,24.2 79.3,22.5 76.7,22.5 76.7,21.1 80,21.1 
			80,19.3 74.4,19.3 74.4,27.4 80.2,27.4 		"/>
		<path id="XMLID_108_" class="st1" d="M87.9,24.9c0-1.8-1.1-2.3-3.1-2.5c-1-0.1-1.3-0.3-1.3-0.8c0-0.4,0.3-0.7,0.9-0.7
			c0.6,0,1,0.3,1,0.9h2.2c-0.1-1.7-1.2-2.5-3.2-2.5c-1.9,0-3.1,1.1-3.1,2.5c0,1.6,0.8,2.3,3.1,2.6c1,0.1,1.3,0.3,1.3,0.8
			c0,0.5-0.4,0.8-1,0.8c-1,0-1.2-0.5-1.3-1.1h-2.2c0.1,1.8,1.2,2.7,3.5,2.7C86.7,27.6,87.9,26.3,87.9,24.9z"/>
		<rect id="XMLID_107_" x="89.3" y="19.3" class="st1" width="2.3" height="8.1"/>
		<path id="XMLID_106_" class="st1" d="M93.1,23.3L93.1,23.3c0,2.5,1.5,4.2,4.2,4.2c2.6,0,4-1.6,4-3.6v-1h-3.8v1.6h1.5
			c0,0.6-0.5,1.2-1.6,1.2c-1.4,0-1.9-1-1.9-2.3v-0.1c0-1.5,0.7-2.3,1.8-2.3c0.9,0,1.3,0.4,1.5,1.2h2.3c-0.2-2.1-1.9-3-3.8-3
			C94.9,19.2,93.1,20.9,93.1,23.3z"/>
		<polygon id="XMLID_105_" class="st1" points="110,27.4 110,19.3 108,19.3 108,23.9 105.4,19.3 102.8,19.3 102.8,27.4 104.8,27.4 
			104.8,22.3 107.8,27.4 		"/>
		<path id="XMLID_104_" class="st1" d="M69.5,39.9c-1.1,0-1.7-0.8-1.7-2.3v-0.1c0-1.5,0.7-2.3,1.7-2.3c0.8,0,1.3,0.5,1.4,1.3h2.4
			c-0.2-2.1-1.7-3.1-3.8-3.1c-2.4,0-4.1,1.6-4.1,4.1v0.1c0,2.5,1.4,4.1,4.2,4.1c2.1,0,3.6-1.1,3.8-3.2H71
			C70.9,39.4,70.3,39.9,69.5,39.9z"/>
		<polygon id="XMLID_103_" class="st1" points="79.6,36.6 76.9,36.6 76.9,33.5 74.6,33.5 74.6,41.6 76.9,41.6 76.9,38.4 79.6,38.4 
			79.6,41.6 81.9,41.6 81.9,33.5 79.6,33.5 		"/>
		<path id="XMLID_100_" class="st1" d="M85.7,33.5l-2.6,8.1h2.2l0.4-1.5h2.7l0.4,1.5h2.5l-2.6-8.1H85.7z M86.2,38.5l0.9-3.1l0.9,3.1
			H86.2z"/>
		<polygon id="XMLID_99_" class="st1" points="94.8,33.5 92.5,33.5 92.5,41.6 97.9,41.6 97.9,39.8 94.8,39.8 		"/>
		<polygon id="XMLID_98_" class="st1" points="101.6,33.5 99.3,33.5 99.3,41.6 104.7,41.6 104.7,39.8 101.6,39.8 		"/>
		<polygon id="XMLID_97_" class="st1" points="108.4,38.3 111,38.3 111,36.7 108.4,36.7 108.4,35.3 111.7,35.3 111.7,33.5 
			106.1,33.5 106.1,41.6 111.9,41.6 111.9,39.8 108.4,39.8 		"/>
		<polygon id="XMLID_96_" class="st1" points="118.5,38 115.9,33.5 113.3,33.5 113.3,41.6 115.3,41.6 115.3,36.5 118.3,41.6 
			120.6,41.6 120.6,33.5 118.5,33.5 		"/>
		<path id="XMLID_95_" class="st1" d="M126.4,38.7h1.5c0,0.6-0.5,1.2-1.6,1.2c-1.4,0-1.9-1-1.9-2.3v-0.1c0-1.5,0.7-2.3,1.8-2.3
			c0.9,0,1.3,0.4,1.5,1.2h2.3c-0.2-2.1-1.9-3-3.8-3c-2.4,0-4.2,1.7-4.2,4.1v0.1c0,2.4,1.5,4.1,4.2,4.1c2.6,0,4-1.6,4-3.6v-1h-3.8
			V38.7z"/>
		<polygon id="XMLID_94_" class="st1" points="133.9,39.8 133.9,38.3 136.5,38.3 136.5,36.7 133.9,36.7 133.9,35.3 137.2,35.3 
			137.2,33.5 131.6,33.5 131.6,41.6 137.4,41.6 137.4,39.8 		"/>
	</g>
</g>
</svg>
