<?xml version="1.0" encoding="utf-8"?>
<!-- Generator: Adobe Illustrator 19.0.0, SVG Export Plug-In . SVG Version: 6.00 Build 0)  -->
<svg version="1.1" id="Layer_1" xmlns="http://www.w3.org/2000/svg" xmlns:xlink="http://www.w3.org/1999/xlink" x="0px" y="0px"
	 viewBox="0 0 510 510" style="enable-background:new 0 0 510 510;" xml:space="preserve">
<style type="text/css">
	.st0{fill:#FFFFFF;}
	.st1{fill:#D0A9D0;}
	.st2{fill:#421B4B;}
	.st3{fill:none;stroke:#E50051;stroke-width:2;stroke-miterlimit:10;}
</style>
<g>
	<g>
		<polygon id="XMLID_19_" class="st0" points="200,78.9 208,70.9 208,54.9 208,38.9 224,38.9 232,30.9 240,38.9 248,46.9 264,46.9 
			263.7,62.9 280,62.9 288,70.9 288,86.9 296,78.9 312,78.9 304,86.9 312,94.9 328,94.9 336,102.9 352,102.9 360.5,111.4 368,118.9 
			384,118.9 392,126.9 408,126.9 416,134.9 408,142.9 400,150.9 400,166.9 392,174.9 392,190.9 384,198.9 376,206.9 360,222.9 
			352,230.9 352,246.9 368,246.9 376,254.9 384,262.9 368,278.9 384,294.9 368,310.9 376,318.9 376,334.9 384,342.9 392,350.9 
			400,342.9 400,358.9 360,398.9 344,398.9 336,390.9 320,390.9 312,382.9 304,390.9 296,382.9 280,382.9 272,390.9 256,390.9 
			256,406.9 256,422.9 248,430.9 232,430.9 216,430.9 208,422.9 200,414.9 184,414.9 176,406.9 168,414.9 152,414.9 144,406.9 
			136,414.9 128,406.9 120,398.9 112,390.9 96,390.9 104,382.9 112,374.9 112,358.9 112,342.9 120,334.9 120,286.9 128,294.9 
			128,278.9 112,278.9 120,270.9 120,254.9 112,246.9 96,246.9 96,230.9 88,222.9 88,206.9 72,206.9 72,190.9 64,198.9 56,190.9 
			40,190.9 32,182.9 16,182.9 8,174.9 16,166.9 8,158.9 0,150.9 8,142.9 40,142.9 48,134.9 64,134.9 64,150.9 72,142.9 88,142.9 
			96,150.9 104,142.9 104,126.9 104,110.9 88,94.9 104,94.9 112,102.9 120,110.9 136,110.9 152,110.9 160,102.9 160,94.9 168,94.9 
			176,86.9 192,86.9 		"/>
	</g>
	<circle class="st1" cx="309.5" cy="274.4" r="21"/>
	<circle class="st2" cx="309.5" cy="274.4" r="12"/>
	<g>
		<polygon id="XMLID_17_" class="st0" points="448,406.9 440,414.9 432,422.9 424,430.9 424,446.9 432,454.9 432,470.9 440,478.9 
			448,470.9 456,462.9 456,446.9 456,430.9 456,414.9 456,398.9 		"/>
	</g>
	<polyline class="st3" points="309.5,275.9 309.5,247.4 317.5,239.4 317.5,231.4 325.5,223.4 333.5,223.4 349.5,207.4 357.5,207.4 
		365.5,200.4 373.5,200.4 378.3,204.7 	"/>
	<polyline class="st3" points="406.9,248.7 390.9,248.7 379.2,256.9 369.2,246.9 355,246.9 341.5,259.4 341.5,275.4 332.6,275.4 
		324.9,267.4 317.2,267.4 309.5,275.4 309.5,283.4 305.7,287.4 309.5,291.4 309,307.4 312.9,311.4 307.5,321.9 307.4,346.4 
		312.9,351.9 305.5,359.3 305.5,367.9 291.5,381.9 291.5,382.9 	"/>
	<g id="XMLID_60_">
		<path id="XMLID_61_" class="st2" d="M244.3,267.5h3.7v10h4.9v2.9h-8.6V267.5z"/>
		<path id="XMLID_63_" class="st2" d="M256.4,279.4l-3.8-8.5h3.5l1.9,5l1.8-5h3.1l-5,12.6h-3.1L256.4,279.4z"/>
		<path id="XMLID_65_" class="st2" d="M263,275.8v-0.1c0-3,2.3-4.9,5.2-4.9c2.9,0,5.1,1.9,5.1,4.8v0.1c0,3.1-2.3,4.9-5.1,4.9
			S263,278.8,263,275.8z M270.1,275.7v-0.1c0-1.6-0.6-2.5-1.9-2.5c-1.2,0-1.9,0.8-1.9,2.4v0.1c0,1.6,0.6,2.5,1.9,2.5
			C269.4,278.2,270.1,277.3,270.1,275.7z"/>
		<path id="XMLID_68_" class="st2" d="M274.7,271h3.2v1.5c0.5-1,1.5-1.8,3.1-1.8c1.8,0,3.1,1.1,3.1,3.5v6.1h-3.2v-5.5
			c0-1.1-0.4-1.6-1.4-1.6c-1,0-1.6,0.6-1.6,1.8v5.3h-3.2V271z"/>
	</g>
	<g id="XMLID_35_">
		<g id="XMLID_245_">
			<path id="XMLID_294_" class="st0" d="M384.2,217.1h1.2c0.2,1.2,0.6,2.2,2.6,2.2c1.3,0,2.3-0.8,2.3-1.9c0-1.1-0.5-1.6-2.4-1.9
				c-2.1-0.3-3.3-1-3.3-2.8c0-1.5,1.3-2.7,3.2-2.7c2,0,3.2,1,3.4,2.8h-1.1c-0.2-1.3-1-1.8-2.4-1.8c-1.4,0-2.1,0.7-2.1,1.6
				c0,1,0.4,1.5,2.4,1.8c2.2,0.4,3.4,1,3.4,2.9c0,1.7-1.5,3-3.5,3C385.3,220.3,384.4,218.8,384.2,217.1z"/>
			<path id="XMLID_291_" class="st0" d="M395.9,210.1h1.6l3.4,10h-1.2l-1-2.9h-4.1l-1,2.9h-1.1L395.9,210.1z M394.9,216.3h3.5
				l-1.7-5.2L394.9,216.3z"/>
			<path id="XMLID_288_" class="st0" d="M401.6,215.2v-0.1c0-2.8,2-5.1,4.9-5.1s4.9,2.2,4.9,5.1v0.1c0,2.8-1.9,5.1-4.9,5.1
				C403.6,220.3,401.6,218,401.6,215.2z M410.1,215.2v-0.1c0-2.2-1.3-4.1-3.6-4.1c-2.3,0-3.7,1.7-3.7,4.1v0.1c0,2.4,1.6,4.1,3.7,4.1
				C408.8,219.3,410.1,217.6,410.1,215.2z"/>
			<path id="XMLID_286_" class="st0" d="M413.4,210.1h1.6l4.9,8.3v-8.3h1.2v10h-1.4l-5.1-8.6v8.6h-1.2V210.1z"/>
			<path id="XMLID_284_" class="st0" d="M423.6,210.1h5.8v1h-4.6v3.4h3.7v1h-3.7v3.6h4.9v1h-6.1V210.1z"/>
			<path id="XMLID_281_" class="st0" d="M435.2,210.1h3c1.9,0,3.5,0.8,3.5,2.8v0.1c0,1.7-1.1,2.5-2.5,2.7l3.1,4.4h-1.4l-3-4.4h-1.5
				v4.4h-1.2V210.1z M438.3,214.8c1.4,0,2.2-0.6,2.2-1.8v-0.1c0-1.4-0.8-1.8-2.2-1.8h-1.9v3.7H438.3z"/>
			<path id="XMLID_279_" class="st0" d="M444.1,210.1h1.2v10h-1.2V210.1z"/>
			<path id="XMLID_277_" class="st0" d="M447,210.1h1.2l3,8.8l3-8.8h1.1l-3.5,10h-1.5L447,210.1z"/>
			<path id="XMLID_249_" class="st0" d="M457,210.1h5.8v1h-4.6v3.4h3.7v1h-3.7v3.6h4.9v1H457V210.1z"/>
			<path id="XMLID_246_" class="st0" d="M465,210.1h3c1.9,0,3.5,0.8,3.5,2.8v0.1c0,1.7-1.1,2.5-2.5,2.7l3.1,4.4h-1.4l-3-4.4h-1.5
				v4.4H465V210.1z M468,214.8c1.4,0,2.2-0.6,2.2-1.8v-0.1c0-1.4-0.8-1.8-2.2-1.8h-1.9v3.7H468z"/>
		</g>
	</g>
	<g id="XMLID_1_">
		<g id="XMLID_251_">
			<path id="XMLID_274_" class="st0" d="M413.5,241.9h3c1.9,0,3.5,0.8,3.5,2.8v0.1c0,1.7-1.1,2.5-2.5,2.7l3.1,4.4h-1.4l-3-4.4h-1.5
				v4.4h-1.2V241.9z M416.6,246.6c1.4,0,2.2-0.6,2.2-1.8v-0.1c0-1.4-0.8-1.8-2.2-1.8h-1.9v3.7H416.6z"/>
			<path id="XMLID_272_" class="st0" d="M422.3,241.9h1.2v4.5h5.3v-4.5h1.2v10h-1.2v-4.5h-5.3v4.5h-1.2V241.9z"/>
			<path id="XMLID_268_" class="st0" d="M432,247v-0.1c0-2.8,2-5.1,4.9-5.1s4.9,2.2,4.9,5.1v0.1c0,2.8-1.9,5.1-4.9,5.1
				C434,252.1,432,249.8,432,247z M440.6,247v-0.1c0-2.2-1.3-4.1-3.6-4.1c-2.3,0-3.7,1.7-3.7,4.1v0.1c0,2.4,1.6,4.1,3.7,4.1
				C439.2,251.1,440.6,249.4,440.6,247z M436.4,239.4h1.1l1.5,1.8h-0.9l-1.2-0.8l-1.2,0.8h-0.8L436.4,239.4z"/>
			<path id="XMLID_266_" class="st0" d="M443.9,241.9h1.6l4.9,8.3v-8.3h1.2v10h-1.4l-5.1-8.6v8.6h-1.2V241.9z"/>
			<path id="XMLID_264_" class="st0" d="M454,241.9h5.8v1h-4.6v3.4h3.7v1h-3.7v3.6h4.9v1H454V241.9z"/>
			<path id="XMLID_261_" class="st0" d="M465.7,241.9h3c1.9,0,3.5,0.8,3.5,2.8v0.1c0,1.7-1.1,2.5-2.5,2.7l3.1,4.4h-1.4l-3-4.4h-1.5
				v4.4h-1.2V241.9z M468.8,246.6c1.4,0,2.2-0.6,2.2-1.8v-0.1c0-1.4-0.8-1.8-2.2-1.8h-1.9v3.7H468.8z"/>
			<path id="XMLID_259_" class="st0" d="M474.5,241.9h1.2v10h-1.2V241.9z"/>
			<path id="XMLID_257_" class="st0" d="M477.5,241.9h1.2l3,8.8l3-8.8h1.1l-3.5,10h-1.5L477.5,241.9z"/>
			<path id="XMLID_255_" class="st0" d="M487.5,241.9h5.8v1h-4.6v3.4h3.7v1h-3.7v3.6h4.9v1h-6.1V241.9z"/>
			<path id="XMLID_252_" class="st0" d="M495.4,241.9h3c1.9,0,3.5,0.8,3.5,2.8v0.1c0,1.7-1.1,2.5-2.5,2.7l3.1,4.4h-1.4l-3-4.4h-1.5
				v4.4h-1.2V241.9z M498.5,246.6c1.4,0,2.2-0.6,2.2-1.8v-0.1c0-1.4-0.8-1.8-2.2-1.8h-1.9v3.7H498.5z"/>
		</g>
	</g>
	<polyline class="st3" points="305.3,367.9 305.3,387.9 306.2,388.8 	"/>
</g>
</svg>
